<?xml version="1.0" encoding="UTF-8"?><svg xmlns="http://www.w3.org/2000/svg" viewBox="0 0 841.89 595.28"><defs><style>.e{fill:#fff;}.f{fill:#b4d3b4;}.g{fill:#a6c8e9;}.h{fill:#c68b99;}.i{fill:#c6bb9e;}.j{fill:#1d1d1b;}.k{stroke-width:.75px;}.k,.l,.m{fill:none;stroke:#1d1d1b;stroke-miterlimit:10;}.n{opacity:.84;}.o{opacity:.7;}.m{stroke-width:.5px;}</style></defs><g id="a"><g class="o"><path class="i" d="M227.06,229l-1.87-.25,11.17,1.5c-10.96-1.49-22.29-3.04-33.38-3.37s-21.55,1.07-32.56,3.15l11.17-1.5c-6.82,.89-13.86,1-20.29,3.54-5.8,2.29-11.59,4.72-17.28,7.26-8.97,4.01-17.11,9.76-24.09,16.71-11.31,11.25-19.26,25.8-19.2,42.11,.05,15.63,7.95,30.93,19.79,40.94,9.88,8.35,19.01,13.4,31.35,17.64,8.84,3.04,18.53,3.94,27.71,5.06,14.79,1.79,29.62-.08,44.37,1.56l-11.17-1.5c4.29,.6,8.36,1.55,12.39,3.15l-10.03-4.23c5.68,2.6,11.21,5.85,16.23,9.58l-8.5-6.57c11.72,9.18,22.75,18.63,35.67,26.15,6.78,3.94,13.44,7.52,20.68,10.58s14.52,4.92,22.27,6.91c19.82,5.09,43.92,4.33,60.96-8.26,6.28-4.64,13.58-9.98,18.91-15.92,8.48-9.46,12.98-17.55,17.45-29.39,3.23-8.56,4.17-17.61,5.15-26.67,.63-5.87,.92-11.94,.52-17.83-1.42-21.15-11.91-39.7-26.69-54.56-6.31-6.34-13.89-11.41-21.06-16.71-5.01-3.7-9.85-7.64-15.32-10.65-13.55-7.47-28.62-12.32-43.69-15.58-9.71-2.1-19.58-3.75-29.5-4.35s-20.64,.8-30.77,2.51c-6.94,1.17-13.75,3.38-20.39,5.7-6.2,2.17-12.4,4.6-18.24,7.6s-10.44,7.47-15.47,11.41l8.5-6.57c-2.31,1.55-4.84,2.65-7.21,4.09-4.98,3.03-9.83,6.91-14.06,10.95-3,2.87-5.54,5.85-8.09,9.15-8.41,10.89-11.6,25.1-8.01,38.57,4.73,17.77,19.43,28.83,36.04,34.37,6.17,2.06,12.1,4.46,18.21,6.7,12.45,4.58,25.97,6.69,38.74,10.32s24.95,6.03,36.82,10.89l-10.03-4.23c.74,.31,1.45,.69,2.11,1.15l-8.5-6.57,.8,.72c8.31,7.44,18.31,12.3,29.7,12.3,10.3,0,22.61-4.58,29.7-12.3,7.35-8,12.8-18.51,12.3-29.7s-4-22.27-12.3-29.7c-17.26-15.44-42.07-19.02-63.72-25.13-9.06-2.56-18.31-4.37-27.39-6.86-8.46-2.32-16.67-5.97-24.94-8.87l10.03,4.23c-1.33-.59-2.42-1.15-3.64-1.92l8.5,6.57c-.74-.48-1.36-1.08-1.86-1.79l10.8,18.53-.37-1.03,1.5,11.17,.08-1.15-5.73,21.2,.42-.81-6.57,8.5c2.68-2.79,5.33-5.6,8.39-7.98l-8.5,6.57c2.12-1.47,4.38-2.54,6.62-3.8,4.98-2.81,9.29-6.68,13.71-10.29l-8.5,6.57c2.34-1.78,4.85-3.01,7.54-4.19l-10.03,4.23c9.24-3.75,19.02-6.78,28.91-8.12l-11.17,1.5c7.74-.88,15.44-.79,23.17,.21l-11.17-1.5c12.8,1.92,25.75,5.08,37.72,10.03l-10.03-4.23c10.53,4.6,19.54,11.69,28.61,18.63l-8.5-6.57c4.87,3.87,9,8.16,12.81,13.06l-6.57-8.5c2.28,3.07,4.27,6.19,5.87,9.66l-4.23-10.03c1.03,2.55,1.75,5.05,2.16,7.77l-1.5-11.17c.58,6.67,.03,13.68-.82,20.31l1.5-11.17c-.77,5.07-2.04,9.91-4.03,14.65l4.23-10.03c-1.27,2.72-2.75,5.2-4.57,7.59l6.57-8.5c-3.44,4.15-7.66,7.6-11.81,11l8.5-6.57c-1.95,1.5-3.89,2.76-6.14,3.76l10.03-4.23c-2.11,.73-4.22,1.09-6.43,1.42l11.17-1.5c-3.6,.42-7.07,.49-10.68,.06l11.17,1.5c-7.48-1.32-15.56-3.14-22.6-6.02l10.03,4.23c-11.43-5.09-22.82-11.98-32.77-19.55l8.5,6.57c-8.35-6.6-16.02-14.02-25.24-19.5-9.91-5.89-20.53-10.77-31.98-12.53s-23.1-2.02-35.1-1.87c-7.31,.09-14.57-.43-21.82-1.37l11.17,1.5c-6.56-.93-12.96-2.33-19.09-4.89l10.03,4.23c-2.98-1.35-5.73-2.92-8.36-4.88l8.5,6.57c-2.21-1.79-4.14-3.74-5.89-5.98l6.57,8.5c-.67-.88-1.2-1.84-1.59-2.88l4.23,10.03-.39-1.42,1.5,11.17c-.18-.92-.21-1.85-.09-2.78l-1.5,11.17c.12-.92,.35-1.82,.69-2.68l-4.23,10.03c.83-1.83,1.83-3.41,3.06-5l-6.57,8.5c2.3-2.69,4.81-5.15,7.59-7.34l-8.5,6.57c3.91-2.8,8.15-4.88,12.55-6.79l-10.03,4.23c3.85-1.62,7.61-3.45,11.77-4.05l-11.17,1.5c7.1-.82,13.96-1.92,20.9-3.38l-11.17,1.5c5.71-.69,11.9-.46,17.62-.02s11.77,.76,17.57,1.49l-11.17-1.5c4.95,.67,9.91,1.34,14.86,2,9.84,1.32,23.04-5.65,29.7-12.3,7.28-7.28,12.77-19.24,12.3-29.7s-4.05-22.13-12.3-29.7l-8.5-6.57c-6.55-3.8-13.62-5.71-21.2-5.73h0Z"/></g><path class="h" d="M420.25,69.53c3.22-3.63,8.06-6.16,11.17-1.05s3.91,10.47,8.93,14.31c.95,.73,2.35,1.31,3.14,2.21s.83,2.31,1.57,3.18c.1,1.68,.59,1.72,1.47,.12,1.58-1.1,1.47-1.5-.32-1.2-1.24-.45-3.02-.01-4.3-.2-1.64-.24-3.97-.69-5.34-1.7-2.09-1.54-2.89-4.97-4.32-7.08-2.91-4.28-8.88-8.53-14.18-9.21-.46,.04-.79-.09-.97-.4-.81-1.26-.41,.1,1.18,4.09-.2-.05,.88-.63,.66-.6,1.24-.18,1.81-.81,3.07-.43-1.2-.36,.6,.91,1.02,1.44,.87,1.12,1.58,2.44,2.33,3.64,1.08,1.73,2.05,3.52,3.09,5.28,3.25,5.46,7.18,8.56,13.55,9.41,4.02,.53,7.5-3.83,7.5-7.5,0-4.5-3.47-6.97-7.5-7.5,1.8,.24,.48-.3-.28-1.45s-1.38-2.49-2.1-3.71c-1.71-2.9-3.52-5.83-5.67-8.42-4.35-5.24-10.53-7.3-17.19-5.84-5.98,1.31-11.46,5.76-12.88,11.86-1.79,7.69,3.82,12.13,10.19,14.59,3.13,1.21,5.05,1.8,6.69,4.83s3.4,6.12,6.2,8.45c5.52,4.6,13.71,5.62,20.66,5.49,8.41-.16,13.98-7.12,12.52-15.38-.57-3.24-2.07-6.79-3.84-9.58-2.05-3.23-5.74-4.52-7.88-7.44-2.31-3.16-2.92-7.4-5.22-10.66-2.49-3.53-5.9-6.29-10.04-7.63-8.69-2.82-17.67,.87-23.51,7.46-6.38,7.2,4.19,17.85,10.61,10.61h0Z"/><path class="f" d="M448.17,166.1c-7.23-.02-14.27,.61-21.37,2.07-.92,.19-3.57,.33-4.2,.83,.79-.63,4.84-.6,1.24-.17-2.67,.32-5.33,.67-8.02,.79-.49,.02-4.14,.5-4.45,.01,.14,.23,5.12,1.32,1.23,.1-.74-.23-1.53-.52-2.29-.69-2.69-.61,5.24,2.61,1.81,.62s3.18,3.23,1.39,1.17,2.91,4.48,1.44,2.03c-.95-1.6-.57-.62,1.14,2.95l.38,3.86-5.22,11.86c-2.95,2.11-3.61,2.62-1.98,1.53,5.57-3.54,10.61-7.96,15.69-12.15,1.1-.91,2.17-1.89,3.34-2.71-.82,.58-3.35,2.45-1.07,.91,3-2.03,6.46-4.67,8.89-7.5,12.34-14.36,12.25-36.23-1.13-49.98-8.77-9.01-25.25-9.46-33.94,0s-9.36,24.33,0,33.94c-1.33-1.31-2.27-2.84-2.83-4.58-.69-1.89-.86-2.23-.51-1,.88,2.73-.21-5.77-.38-1.62,.15-3.79,1.32-5.27,2.9-8.31,1.87-3.59-.73-.1-1.02,.53,2.96-2.28,3.63-2.82,2.03-1.63-1.87,1.38-3.72,2.8-5.54,4.26-.9,.7-1.8,1.4-2.69,2.12-1.06,.86-6.55,4.22-6.66,5.48,2.39-1.8,2.88-2.18,1.47-1.13-.68,.51-1.37,1-2.08,1.48-.85,.59-1.73,1.14-2.57,1.74-4.7,3.33-8.18,6.79-11.05,11.81-5.76,10.07-4.17,22.64,1.37,32.38,7.73,13.59,23.8,20.06,38.75,20.56,7.3,.24,15.1-1.1,22.26-2.25,2.81-.45,5.61-1.02,8.4-1.61s-4.91-.08-.29,.28c1.82,.14,3.72,.02,5.54,.02,12.55,.03,24.58-11.06,24-24-.58-13.03-10.54-23.96-24-24h0Z"/><g class="n"><path class="g" d="M596.54,289.38c-12.3,.53-25.38,4.76-33.15,14.82-6.13,7.93-10.44,17.66-13.16,27.3s-3.95,21.42-1.06,31.09c4.13,13.81,17.19,22.72,31.36,23.13,20.54,.6,31.98-20.22,45.3-32.38,2.96-2.7,6.1-5.26,9.01-8.01,1.8-1.71-1.02,.73-1.22,.86,2.06-1.29,3.73-3.28,5.8-4.53-1.1,.67-2.15,1.34-3.25,1.98-3.37,1.96,2.1-.41,1.93-.26-3.51,2.87-12.75-6.01-12.05-5.52l-8.42-5.89c-.33-3.35-.45-4.14-.36-2.37-.07,1.73,.02,3.52,.05,5.25s.1,3.53,.12,5.29c.02,1.66,.6,5.63-.24,7.13,1.43-2.55,.4-2.53-.04-.4-.26,1.23-.48,2.48-.71,3.71-.79,4.14-1.43,8.27-1.92,12.47-.54,4.71-1.04,9.46-1.07,14.2-.03,4.24-.18,8.53-.05,12.77,.09,2.83,.61,5.63,1.11,8.42,.08,.47,.18,.94,.28,1.41,.29,1.69,.25,1.37-.11-.95-.84-3.83-.07-7.55,2.32-11.17l8.07-8.07-.47,.29,30.78,8.07c2.53,3.82,1.66,3.98,.75,1.27-.8-2.38-1.91-4.8-3.02-7.07-.14-.29-1.63-3.66-2.27-3.77,.33,.06,2.87,7.24-.31-.28-2.3-5.44-6.32-9.73-11.53-12.59-2.3-1.26-5.01-1.76-7.3-2.96,3.09,1.51,3.84,1.8,2.25,.87-.68-.4-1.34-.84-1.99-1.29l2.04,1.51c-1.42-1.51-1.5-1.52-.24-.02,1.11,1.51,1.19,1.49,.23-.05l1.13,2.84s-1.78-7.04-1.83-7.06c.41,3.32,.54,4.1,.4,2.36-.06-.71-.09-1.41-.1-2.12-.07-3.41,1.49-6.19-2.37,3.14-.32,4.11-2.32,6.75-6,7.92-4.05,1.96-4.89,2.56-2.52,1.78-1.93,.52-5.54,.45-1.45,.33,11.75-.34,23.06-10.1,22.5-22.5-.53-11.9-9.9-22.87-22.5-22.5-9.49,.28-18.17,2.81-24.95,9.79-8.58,8.84-8.31,21.06-6.61,32.31,1.3,8.58,4.67,16.63,10.35,23.24,2.81,3.27,6.29,5.93,9.86,8.35,1.88,1.27,3.76,2.06,5.85,2.95,1.29,.62,2.61,1.14,3.97,1.57-3.15-1.64-3.73-1.84-1.76-.6l-8.07-8.07c-1.41-3.73-1.78-4.77-1.11-3.11,.8,1.96,1.62,3.91,2.46,5.86,.66,1.08,1.44,2.14,2.15,3.18l.83,1.65c-1.2-3.09-1.51-3.6-.93-1.54,.04,2.52,1.82,5.23,3.21,7.33,6.56,9.93,19.98,14.78,30.78,8.07,7.35-4.57,11.99-12.27,12.05-21,.02-2.63-.47-5.26-.86-7.85-.13-.86-1-3.09-.7-3.91,.25-.69,.27,7.3,.59,3.98,.1-1.01,0-2.07,.01-3.08,.02-1.59,.03-3.18,.03-4.77,0-4.3,.06-8.53,.45-12.81,.15-1.69,.03-3.76,.5-5.38-1.45,5.01,.35-.99,.61-2.36,1.14-5.91,2.23-11.93,2.42-17.96,.29-9.03,.58-19.29-2.96-27.68-3.15-7.45-9.32-14.15-17.45-16.19-6.21-1.56-12.1-.91-18.25,.76-3.1,.84-6.32,2.07-9.08,3.74-1.19,.72-2.56,1.95-3.57,2.73,.71-.55-5.61,4.96-2.54,2.08,3.25-3.05-3.8,2.96-3.57,2.78-.67,.53-1.33,1.07-1.99,1.62-1.77,1.47-3.48,3.01-5.19,4.55-6.04,5.46-11.32,11.41-16.93,17.27-2.15,2.25-4.27,4.55-6.49,6.74-.53,.52-1.85,1.44-2.14,2,0,0,3.66-2.69,1.7-1.5-2.53,1.53,7.55-1.84,7.13-1.81l3.62,.51c-1.75-.53-1.68-.44,.22,.28,1.35,.9,2.84,1.36,3.97,2.67,.2,.23,4.48,9.62,3.27,4.97,1.5,5.75,.51,.67,.55-1.55,.06-3.63,.04,1.05-.25,.94-.12-.05,.64-3.16,.71-3.45,.54-2.22,1.29-4.36,2.09-6.5,.32-.85,.66-1.7,.99-2.55,1.17-3.06-2.44,4.51,.32-.45,.88-1.58,1.87-3.15,2.69-4.75,1.86-3.67-7.93,5.81-4,4.07,.56-.25,3.79-2.02,.85-.6-2.66,1.29-.42,.23,.27,.08,5.24-1.13-5.14,.17,.15-.05,11.74-.51,23.06-9.99,22.5-22.5-.53-11.76-9.9-23.04-22.5-22.5h0Z"/></g></g><g id="b"><path class="l" d="M191.52,229.22c16.57,0,33.15,0,49.72,0,30.19,0,62.04,0,63.18,0,32.39,.02,44.72,.11,107.03,.37,57.26,.23,85.89,.35,104.62,.37,27.96,.03,69.25,0,120.15-.37-4.49,5.72-8.98,11.44-13.47,17.16,.35,2.68,.69,5.36,1.04,8.03-.37,2.33-.73,4.66-1.1,6.99-18.13-.25-45.74-.55-79.45-.62-50.26-.11-58.3,.42-118.14,.62-64.08,.22-75.31-.31-141.47,0-33.33,.15-60.39,.43-77.38,.62-.4-2.21-.8-4.41-1.2-6.62l.96-8.15c-4.49-5.09-10.01-13.32-14.5-18.41"/><path class="l" d="M196.9,235.94c14.13-.06,40.93-.15,67.78-.23,19.84-.06,57.89-.18,104.19-.23,12.94-.01,6.93,0,110.31,0,31.09,0,62.18,0,93.27,0,17.55,0,41.87,0,59.41,0"/><line class="l" x1="204.67" y1="245.81" x2="624.52" y2="244.62"/><line class="l" x1="205.06" y1="255.78" x2="623.79" y2="254.78"/><path class="l" d="M206.78,270.56c.07,34.97,.14,69.94,.21,104.91"/><path class="l" d="M221.9,269.81v105.44"/><path class="l" d="M221.9,375.25c0,1.19,1.7,4.1,1.7,5.29-.31,.62-.62,1.24-.93,1.85-.03,3.71-.07,7.42-.1,11.13l.72,1.42v4.36"/><path class="l" d="M206.99,375.47c-.1,.98-2.78,3.43-2.89,4.41l1.34,2.62,.1,11.02c-.52,.73-1.03,1.45-1.55,2.18v3.05"/><line class="l" x1="197.53" y1="399.3" x2="631.79" y2="397.9"/><path class="l" d="M287.47,270.05c-.22,34.82-.45,70.28-.67,105.09-.87,1.61-1.74,3.22-2.61,4.84,.49,.92,.98,1.84,1.47,2.76,.11,3.22,.22,6.45,.33,9.67l-1.63,3.11c.05,.58,0,2.82-.03,3.49"/><path class="l" d="M301.88,269.59c.22,34.82,.45,70.39,.67,105.21,.87,1.61,1.74,3.22,2.61,4.84-.49,.92-.98,1.84-1.47,2.76-.11,3.22-.22,6.45-.33,9.67l1.63,3.11c-.05,.58,0,2.82,.03,3.49"/><path class="l" d="M529.18,269.27c-.15,34.79-.29,70.36-.44,105.15-.88,1.19-1.77,2.38-2.65,3.56l1.21,3.02v10.35l-1.69,2.19v4.7"/><path class="l" d="M541.01,269.41c.15,34.79,.29,70.22,.44,105.01,.88,1.19,1.77,2.38,2.65,3.56l-1.21,3.02v10.35l1.69,2.19v4.7"/><path class="l" d="M608.56,269.27c-.15,34.79-.25,70.04-.4,104.83-.88,1.19-1.77,2.38-2.65,3.56l1.21,3.02v10.35l-1.69,2.19v4.7"/><path class="l" d="M621.46,269.27c.15,34.79,.29,70.04,.44,104.83,.88,1.19,1.77,2.38,2.65,3.56l-1.21,3.02v10.35l1.69,2.19v4.7"/><line class="l" x1="221.9" y1="302.31" x2="287.27" y2="301.39"/><line class="l" x1="302.08" y1="300.72" x2="318.76" y2="300.46"/><line class="l" x1="321.16" y1="305.08" x2="318.76" y2="300.46"/><line class="l" x1="319.96" y1="308.08" x2="317.24" y2="304.62"/><line class="l" x1="301.88" y1="304.86" x2="317.24" y2="304.62"/><line class="l" x1="287.25" y1="304.62" x2="221.29" y2="305.08"/><line class="k" x1="243.05" y1="321.17" x2="270.17" y2="320.99"/><line class="k" x1="269.95" y1="380.11" x2="269.69" y2="321"/><line class="k" x1="242.8" y1="380.57" x2="243.3" y2="320.89"/><line class="k" x1="252.37" y1="321.42" x2="252.67" y2="380.27"/><line class="k" x1="261.79" y1="321.19" x2="262.63" y2="380.52"/><line class="k" x1="243.06" y1="350.16" x2="269.82" y2="350.16"/><line class="k" x1="223.59" y1="380.54" x2="284.19" y2="379.98"/><rect class="k" x="560.52" y="322.32" width="25.53" height="55.5"/><line class="k" x1="568.2" y1="322.32" x2="568.35" y2="377.34"/><line class="k" x1="577.15" y1="322.32" x2="577.3" y2="377.82"/><line class="k" x1="560.52" y1="349.25" x2="586.05" y2="349.25"/><line class="l" x1="608.21" y1="300.14" x2="541.01" y2="300.64"/><line class="l" x1="608.61" y1="303.19" x2="541.15" y2="303.85"/><line class="l" x1="529.05" y1="300.56" x2="511.31" y2="300.26"/><line class="l" x1="508.39" y1="304.82" x2="511.31" y2="300.26"/><line class="l" x1="509.85" y1="307.14" x2="512.52" y2="303.53"/><line class="l" x1="529.18" y1="303.53" x2="512.52" y2="303.53"/><line class="l" x1="605.52" y1="377.66" x2="544.1" y2="377.98"/><path class="l" d="M317.47,300.2c.16-2.11,.67-7.19,2.58-10.9,2.56-4.99,6.17-7.55,8.37-9.08,1.91-1.32,7.08-4.81,14.6-4.99,1.51-.04,7.65-.06,14.17,3.86,2.34,1.41,6.34,3.88,9.23,9.08,2.75,4.96,3.02,9.76,3,12.03"/><path class="l" d="M388.91,300.92c.05-1.96,.34-5.99,1.68-9.37,1.88-4.75,4.77-7.52,6.57-9.21,1.87-1.75,6.22-5.73,13.13-7.11,7.82-1.56,14.07,1.17,16.49,2.42,1.87,.96,8,4.41,11.91,12.12,2.15,4.25,2.82,8.2,3.05,10.66"/><path class="l" d="M460.84,299.94c-.11-1.87-.06-4.87,1.07-8.24,1.71-5.12,4.9-8.07,6.87-9.85,1.19-1.08,5.03-4.35,11-5.98,2.28-.62,8.47-2.22,15.73,.48,2.53,.94,7.52,3.27,11.61,8.72,4.17,5.57,5.09,12.94,5.35,15.35"/><path class="l" d="M316.13,375.15v-54.75c.22,.07,1.03,.28,1.52-.16,.63-.56,.64-2.11-.46-3.47l.76-.73c-.41-.27-.81-.54-1.22-.81,.2-.03,.8-.14,1.14-.65,.47-.7,.28-1.9-.61-2.74"/><line class="l" x1="315.55" y1="310.26" x2="320.19" y2="307.5"/><line class="l" x1="319.96" y1="308.08" x2="321.16" y2="305.08"/><path class="l" d="M317.12,398.91c-.04-.65-.08-3.04-.11-3.68-.42-.65-.84-1.3-1.26-1.94,.08-3.52,.15-7.04,.23-10.57,.84-.93,1.68-1.86,2.53-2.79-.69-1.17-1.67-3.6-2.36-4.77"/><path class="l" d="M391.59,300.92c-8.77-.11-17.55-.22-26.32-.33,.98,1.07,2.73,3.28,3.66,6.63,.72,2.58,.66,4.81,.52,6.19-.31,.3-.91,.96-1.15,1.99-.03,.13-.54,2.41,.63,3.09,.96,.56,2.31-.3,2.82-1.33,.57-1.16-1.29-4.17-3.11-2.67"/><path class="l" d="M391.59,300.92c-1.72,1.55-3.18,4.37-3.6,5.36-.39,.92-2.13,5.01-.24,8.11,.5,.81,1.12,1.34,1.58,1.67,.09,.89-.25,1.73-.87,2.09-1.02,.6-2.58-.21-2.69-1.25-.06-.61,.46-2.77,2.6-1.67"/><path class="l" d="M370.29,318.66c-.13,18.24-.23,38.27-.36,56.5,.08,.27,.22,.92,0,1.66-.34,1.18-1.3,1.68-1.47,1.77l-.1,1.77c7.21-.1,13.94,.1,21.15,0-.16-.73,.16-1.77,0-2.5-.17-.07-.73-.3-1.08-.94-.51-.91-.14-1.87-.1-1.98-.2-18.2-.39-38.09-.59-56.29"/><path class="l" d="M377.06,318.34c-.07,18.1-.28,38.2-.34,56.3,.39,.35,.79,.69,1.18,1.04l-1.08,.73c.33,.45,.66,.9,.98,1.35h2.16l.88-1.25-.98-.73,.79-.94c-.03-18.2-.13-37.99-.16-56.19"/><line class="l" x1="378.78" y1="377.76" x2="378.78" y2="380.21"/><ellipse class="l" cx="376.71" cy="316.56" rx="1.55" ry="1.64"/><ellipse class="l" cx="380.33" cy="316.7" rx="1.55" ry="1.64"/><line class="l" x1="369.29" y1="377.95" x2="377.79" y2="377.76"/><line class="l" x1="379.96" y1="377.76" x2="389.49" y2="377.86"/><line class="l" x1="388.91" y1="304.45" x2="368.35" y2="304.53"/><path class="l" d="M391.59,300.92l1.16,4.68c-.51,.21-2.25,1.02-3.32,3.09-1.28,2.47-1.18,6.07-1.05,6.52"/><path class="l" d="M440.91,380.11c-.04-.51,.04-1.95,0-2.46,.47-.31,1.03-.79,1.32-1.54,.36-.92,.16-1.8,.13-1.95-.3-1.61-.37-22.96-.11-55.64"/><path class="l" d="M449.01,374.55v-55.9"/><path class="l" d="M452.78,377.5c-.28-.49-.74-.92-1.01-1.41,.34-.32,.68-1.02,1.01-1.34,0-18.27,.27-38.11,.27-56.39"/><path class="l" d="M461.5,379.59v-1.81c-.44-.2-.95-.54-1.22-1.12-.39-.84-.05-1.77-.04-1.92,.15-1.94-.46-16.81-.46-56.1"/><path class="l" d="M449.18,377.72l1.01-1.54c-.32-.06-.98-1.78-1.36-2.17"/><line class="l" x1="451.33" y1="380.11" x2="451.33" y2="377.5"/><line class="l" x1="440.91" y1="377.65" x2="461.5" y2="377.79"/><line class="l" x1="462.04" y1="380.11" x2="440.49" y2="380.11"/><path class="l" d="M438.32,300.58h26.57c-1.12,1.09-3.16,3.38-4.12,6.91-.61,2.24-1.3,4.78-.13,6.84,.47,.83,1.09,1.3,1.01,2.15-.1,1.1-1.32,2.34-2.54,2.15-1.53-.25-2.33-2.67-1.65-3.62,.09-.13,1.09-2.14,3.17-.67"/><path class="l" d="M438.32,300.58c.86,.83,2.4,4.77,3.18,7.45,.45,1.54,1.25,4.32,0,6.44-.64,1.07-1.48,1.42-1.39,2.28,.08,.88,1.09,1.74,2.14,1.77,.89,.02,2.17-.54,2.17-1.55,0-2.36-1.87-2.3-2.92-2.49"/><ellipse class="l" cx="449.01" cy="316.8" rx="1.75" ry="1.85"/><ellipse class="l" cx="453.05" cy="316.51" rx="1.75" ry="1.85"/><line class="l" x1="388.91" y1="304.45" x2="389.43" y2="308.69"/><line class="l" x1="440.29" y1="304.49" x2="461.95" y2="304.49"/><path class="l" d="M511.66,394.97c1.05-1.11,1.55-.81,1.92-1.93l-.37-11.67-2.11-3.07c.87-1.22,1.75-2.43,2.62-3.65,.09-18.49,.18-36.98,.28-55.47-.26-.24-.85-.86-1.12-1.89-.34-1.32,.11-2.4,.25-2.69l-.25-1.39-.9-.95,.74-.87v-2.86c-.57-.32-2.02-1.45-2.59-1.77"/><line class="l" x1="511.93" y1="397.85" x2="511.9" y2="394.57"/><path class="l" d="M692.18,296.88l.88-4.42,1.65-1.53c-.61-.03-1.22-.06-1.83-.08l-.24-8.18c5.21-4.58,10.41-9.16,15.62-13.74l-16.41,.25c1.29-1.07,2.58-2.15,3.87-3.22h-5.74c-.04-5.04-.08-10.08-.12-15.13l2.46-2.36c-22.58,.04-46.75-.04-69.33,0"/><path class="l" d="M695.2,414.12c2.19-1.43,4.38-2.85,6.58-4.28-2.11,.09-4.21,.18-6.32,.27l-1.26-20.06c-.84-1.25-1.69-2.5-2.53-3.74,.08-27.55,.2-55.46,.29-83.01"/><path class="l" d="M203.83,405.03c.25,28.62,.51,57.24,.76,85.86l-2.78,2.41c.08,2.59,.17,5.17,.25,7.76,52.86-.33,95.7-.47,124.68-.53,43.97-.1,71.05-.07,131.25-.27,33.82-.11,57.92-.22,88.51-.54,21.53-.22,121.83-2.46,150.98-3.08"/><line class="l" x1="203.83" y1="405.03" x2="197.53" y2="399.3"/><line class="l" x1="203.88" y1="410.76" x2="303.52" y2="410.76"/><line class="l" x1="224.62" y1="491.92" x2="223.59" y2="410.76"/><line class="l" x1="284.19" y1="491.92" x2="284.19" y2="410.76"/><line class="l" x1="303.52" y1="491.92" x2="303.52" y2="410.76"/><line class="l" x1="625.03" y1="408.72" x2="524.33" y2="409.41"/><line class="l" x1="524.34" y1="404.12" x2="524.32" y2="492.12"/><line class="l" x1="545.98" y1="409.26" x2="545.98" y2="492.12"/><line class="l" x1="625.4" y1="401.79" x2="625.2" y2="492.12"/><line class="l" x1="603.43" y1="409.26" x2="602.92" y2="492.12"/><line class="l" x1="524.34" y1="404.12" x2="519.6" y2="398.26"/><line class="k" x1="223.28" y1="394.93" x2="285.14" y2="394.03"/><line class="k" x1="544.58" y1="393.54" x2="605.04" y2="393.22"/><line class="l" x1="303.52" y1="410.76" x2="303.52" y2="405.12"/><line class="l" x1="308.64" y1="399.02" x2="303.52" y2="405.12"/><path class="l" d="M208.74,229.21c.56-4.3,.61-5.21,1.01-6.97l1.34-.9c.12-6.12,.24-12.24,.37-18.36-1.1-1.9-2.2-3.79-3.3-5.69,5.05-.04,10.1-.09,15.16-.13-.57,1.9-1.14,3.79-1.71,5.69v18.75l1.34,1.94c0,1.08-.12,4.6-.12,5.68"/><path class="l" d="M210.68,197.16c.34-.67,1.48-3.44,1.83-4.11,134.17-.61,268.33-1.21,402.5-1.82,.98,1.64,1.95,3.28,2.93,4.92h2.93c-1.21,2.06-2.41,4.13-3.62,6.19v16.57c.92,.97,1.84,1.94,2.75,2.91,.11,1.82,.54,5.57,.66,7.39"/><path class="l" d="M605.99,229.21c0-1.64,.15-5.46,.15-7.1,.72-.6,1.45-1.2,2.17-1.8-.1-6.06-.21-12.13-.31-18.19-.67-1.75-1.34-3.5-2.01-5.24,.57-1.15,3.1-4.48,3.67-5.63"/><line class="l" x1="617.92" y1="196.15" x2="606.46" y2="196.09"/><path class="l" d="M302.06,297.51c1.66-.05,4.99-.11,6.66-.16,.27-2.31,.85-5.5,2.18-9.07,3.21-8.61,8.58-13.54,9.67-14.52,11.3-10.1,25.37-8.02,26.98-7.75,2.8,.46,11.13,1.97,18.25,9.57,7.72,8.24,8.82,18.13,9.05,20.95l7.02,.16c.3-3.03,1.18-8.09,4.06-13.53,1.46-2.75,4.87-8.33,11.23-12.54,12.09-7.99,24.92-4.47,26.67-3.96,2.73,.8,11.83,3.62,18.09,13.2,4.5,6.88,5.29,13.82,5.46,16.99,2.39-.05,4.78-.11,7.17-.16,.28-3.03,1.08-7.71,3.59-12.7,5.75-11.42,15.98-15.55,18.56-16.5,1.6-.59,16.17-5.65,29.01,3.3,6.64,4.63,10,11.05,11.39,14.19,2.08,4.74,2.74,9.05,2.96,11.88,2.03,0,7.1-.07,9.13-.07"/><line class="l" x1="318.49" y1="379.93" x2="368.35" y2="380.36"/><line class="l" x1="389.5" y1="380.36" x2="440.49" y2="380.11"/><line class="l" x1="462.04" y1="380.11" x2="511.21" y2="379.2"/><path class="l" d="M367.46,398.68v-2.72l1.14-2.13v-9.9c.05-.1,.35-.74,.09-1.48-.29-.83-1.14-2.07-1.23-2.09"/><path class="l" d="M389.5,398.68c-.03-.46,.04-2.35,.01-2.81l-.96-1.85v-10.83c-.02-.09-.14-.81,.35-1.39,.38-.45,.66-.95,1.37-1.59"/><path class="l" d="M439.98,398.52c0-.49,.07-2.64,.07-3.13,.37-.49,.74-.98,1.1-1.48,.05-3.34,.1-6.69,.15-10.03-.06-.35-.22-.98-.66-1.63-.44-.64-1.55-1.96-1.84-2.13"/><path class="l" d="M462.04,398.45c-.05-.57-.04-2.88-.08-3.45l-1.1-1.63v-9.8c.05-.26,.17-.67,.44-1.09,.45-.69,.75-1.15,1.54-2.37"/><line class="l" x1="315.74" y1="393.29" x2="368.79" y2="393.01"/><line class="l" x1="388.55" y1="393.12" x2="441.67" y2="392.71"/><line class="l" x1="460.86" y1="393.36" x2="513.59" y2="393.04"/><line class="l" x1="513.27" y1="383.13" x2="460.86" y2="383.57"/><line class="l" x1="441.3" y1="383.88" x2="388.55" y2="384.05"/><line class="l" x1="368.6" y1="383.93" x2="316.13" y2="383.96"/><line class="l" x1="223.32" y1="197.16" x2="221.9" y2="193.01"/><line class="l" x1="631.79" y1="397.9" x2="625.4" y2="402.19"/><path class="l" d="M205.75,249.93h-66.99c.59,.98,1.18,1.96,1.77,2.94l-.51,14.56h-4.92l2.27,2.67c-5.01,.04-10.02,.09-15.03,.13,1.52,1.16,3.03,2.32,4.55,3.47l.13,1.87c3.2,2.32,6.4,4.63,9.6,6.95,.38,.67,.82,1.67,1.01,2.94,.45,3.06-.95,5.45-1.39,6.14,.59,1.87,1.18,3.74,1.77,5.61-.39,.47-1.49,1.92-1.52,4.01,0,.46-.04,3.44,1.77,4.14,1.29,.5,3.24-.28,3.54-1.74,.31-1.56-1.39-3.3-2.4-3.07-.59,.13-1.14,.97-1.01,1.74,.11,.69,.78,1.39,1.32,1.21,.48-.16,.6-.95,.61-.99"/><line class="l" x1="138.26" y1="305.36" x2="138.64" y2="389.4"/><line class="l" x1="137.38" y1="390.58" x2="138.96" y2="389.11"/><line class="l" x1="138.43" y1="391.82" x2="137.25" y2="389.99"/><line class="l" x1="136.99" y1="393.62" x2="138.94" y2="391.36"/><path class="l" d="M135.75,410.94l.08-2.14c.54-.71,1.08-1.43,1.62-2.14l-.08-10.19-1.46-.6c.61-.99,1.07-2.25,1.64-2.9"/><line class="l" x1="126.89" y1="273.71" x2="206.78" y2="273.47"/><line class="l" x1="128.23" y1="276.46" x2="206.99" y2="275.98"/><line class="l" x1="137.06" y1="283.42" x2="206.99" y2="283.19"/><line class="l" x1="136.23" y1="291.61" x2="206.99" y2="291.51"/><line class="l" x1="137.39" y1="297.22" x2="206.99" y2="297.32"/><path class="l" d="M150.87,304.65l.28,84.67c.63,.43,1.26,.87,1.89,1.3-.44,.57-.88,1.14-1.33,1.7l1.52,2.71h-1.61c.06,4.01,.13,8.02,.19,12.03l.38,1.7-.09,2.2"/><path class="l" d="M150.39,297.09c.68,.7,.99,1.14,1.53,1.96,.32,.49,.84,1.42,.88,1.53,.83,2.34-.25,3.06-.33,3.13-.96,.82-1.21,1-2.3,.93-.96-.06-1.24-.55-1.82-1.25-.75-.91-.61-1.41,.11-2.29,.46-.56,2.35-.48,2.56,.35,.18,.68,.17,1.43-.47,1.58-.44,.11-.71-.19-1.18-.72"/><path class="l" d="M171.42,297.56c-.13,15.43-.24,34.24-.19,49.99,.05,15.88,.18,32.88,.41,48.43"/><path class="l" d="M151.19,331.93c5.09-.06,11.4-.1,16.52-.14,12.48-.1,26.71-.14,39.07-.14"/><line class="l" x1="152.05" y1="395.99" x2="204" y2="395.7"/><line class="l" x1="185.85" y1="344.27" x2="185.74" y2="395.8"/><line class="l" x1="206.78" y1="344.27" x2="185.35" y2="344.27"/><line class="l" x1="193.2" y1="344.27" x2="193.42" y2="395.76"/><line class="l" x1="185.8" y1="361.32" x2="206.78" y2="361.32"/><line class="l" x1="185.85" y1="370.71" x2="206.78" y2="370.94"/><line class="k" x1="199.45" y1="344.27" x2="199.66" y2="395.72"/><line class="k" x1="205.48" y1="387.11" x2="185.85" y2="387.11"/><line class="k" x1="204.1" y1="379.88" x2="185.78" y2="379.63"/><line class="k" x1="206.88" y1="352.39" x2="185.85" y2="352.39"/><path class="k" d="M208.31,262.37c-.26,.1-2.44,1.74-3.06,3.13-.06,.14-.77,1.79,0,3.33,.92,1.84,3.6,2.84,5.05,1.58,.88-.76,1.2-2.27,.75-3.5-.37-1.01-1.38-2.15-2.65-2.02-.78,.08-1.76,.66-1.99,1.75-.21,.98,.27,2.01,1.08,2.45,.69,.38,1.85,.44,2.32-.35,.39-.65,.21-1.7-.41-2.1-.48-.31-1.3-.28-1.49,.18-.12,.29,.02,.71,.33,1.05"/><path class="k" d="M220.3,262.12c.26,.1,2.39,1.45,3.01,2.84,.06,.14,.77,1.79,0,3.33-.92,1.84-3.6,2.84-5.05,1.58-.88-.76-1.2-2.27-.75-3.5,.37-1.01,1.38-2.15,2.65-2.02,.78,.08,1.76,.66,1.99,1.75,.21,.98-.27,2.01-1.08,2.45-.69,.38-1.85,.44-2.32-.35-.39-.65-.21-1.7,.41-2.1,.48-.31,1.3-.28,1.49,.18,.12,.29-.02,.71-.33,1.05"/><path class="k" d="M288.23,261.75c-.76,.65-2.2,1.72-2.83,3.12-.06,.14-.77,1.79,0,3.33,.92,1.84,3.6,2.84,5.05,1.58,.88-.76,1.2-2.27,.75-3.5-.37-1.01-1.38-2.15-2.65-2.02-.78,.08-1.76,.66-1.99,1.75-.21,.98,.27,2.01,1.08,2.45,.69,.38,1.85,.44,2.32-.35,.39-.65,.21-1.7-.41-2.1-.48-.31-1.3-.28-1.49,.18-.12,.29,.02,.71,.33,1.05"/><path class="k" d="M299.6,261.75c.57,.67,2.7,2.07,3.32,3.47,.06,.14,.77,1.79,0,3.33-.92,1.84-3.6,2.84-5.05,1.58-.88-.76-1.2-2.27-.75-3.5,.37-1.01,1.38-2.15,2.65-2.02,.78,.08,1.76,.66,1.99,1.75,.21,.98-.27,2.01-1.08,2.45-.69,.38-1.85,.44-2.32-.35-.39-.65-.21-1.7,.41-2.1,.48-.31,1.3-.28,1.49,.18,.12,.29-.02,.71-.33,1.05"/><path class="k" d="M530.68,261.13c-.26,.1-2.31,1.88-2.93,3.28-.06,.14-.77,1.79,0,3.33,.92,1.84,3.6,2.84,5.05,1.58,.88-.76,1.2-2.27,.75-3.5-.37-1.01-1.38-2.15-2.65-2.02-.78,.08-1.76,.66-1.99,1.75-.21,.98,.27,2.01,1.08,2.45,.69,.38,1.85,.44,2.32-.35,.39-.65,.21-1.7-.41-2.1-.48-.31-1.3-.28-1.49,.18-.12,.29,.02,.71,.33,1.05"/><path class="k" d="M540.67,261.13c.26,.1,2.55,1.41,3.17,2.81,.06,.14,.77,1.79,0,3.33-.92,1.84-3.6,2.84-5.05,1.58-.88-.76-1.2-2.27-.75-3.5,.37-1.01,1.38-2.15,2.65-2.02,.78,.08,1.76,.66,1.99,1.75,.21,.98-.27,2.01-1.08,2.45-.69,.38-1.85,.44-2.32-.35-.39-.65-.21-1.7,.41-2.1,.48-.31,1.3-.28,1.49,.18,.12,.29-.02,.71-.33,1.05"/><path class="k" d="M608.61,261.59c-.26,.1-1.96,.94-2.58,2.33-.06,.14-.77,1.79,0,3.33,.92,1.84,3.6,2.84,5.05,1.58,.88-.76,1.2-2.27,.75-3.5-.37-1.01-1.38-2.15-2.65-2.02-.78,.08-1.76,.66-1.99,1.75-.21,.98,.27,2.01,1.08,2.45,.69,.38,1.85,.44,2.32-.35,.39-.65,.21-1.7-.41-2.1-.48-.31-1.3-.28-1.49,.18-.12,.29,.02,.71,.33,1.05"/><path class="k" d="M620.07,261.74c.26,.1,2.2,1.28,2.83,2.68,.06,.14,.77,1.79,0,3.33-.92,1.84-3.6,2.84-5.05,1.58-.88-.76-1.2-2.27-.75-3.5,.37-1.01,1.38-2.15,2.65-2.02,.78,.08,1.76,.66,1.99,1.75,.21,.98-.27,2.01-1.08,2.45-.69,.38-1.85,.44-2.32-.35-.39-.65-.21-1.7,.41-2.1,.48-.31,1.3-.28,1.49,.18,.12,.29-.02,.71-.33,1.05"/><line class="k" x1="509.85" y1="307.14" x2="508.39" y2="304.82"/><line class="l" x1="512.52" y1="303.53" x2="511.31" y2="300.26"/><line class="l" x1="317.24" y1="304.62" x2="318.76" y2="300.46"/><line class="k" x1="206.88" y1="371.89" x2="221.9" y2="371.95"/><line class="k" x1="302.54" y1="373.21" x2="287.11" y2="373.37"/><line class="k" x1="541.45" y1="372.82" x2="528.74" y2="372.82"/><line class="k" x1="621.9" y1="372.82" x2="608.17" y2="372.82"/><line class="k" x1="210.3" y1="270.41" x2="219.63" y2="270.43"/><line class="k" x1="290.46" y1="269.78" x2="297.41" y2="269.58"/><line class="k" x1="533.25" y1="268.79" x2="538.78" y2="268.85"/><line class="k" x1="617.84" y1="269.32" x2="610.55" y2="269.4"/><line class="k" x1="209.51" y1="270.41" x2="209.38" y2="371.9"/><line class="k" x1="211.79" y1="270.43" x2="211.78" y2="371.91"/><line class="k" x1="214.46" y1="270.56" x2="214.32" y2="371.92"/><line class="k" x1="217.07" y1="270.48" x2="217.01" y2="371.84"/><line class="k" x1="219.27" y1="270.43" x2="219.2" y2="371.92"/><line class="k" x1="289.45" y1="269.78" x2="289.64" y2="373.34"/><line class="k" x1="291.72" y1="269.83" x2="292.04" y2="373.34"/><line class="k" x1="293.73" y1="269.81" x2="294.66" y2="373.3"/><line class="k" x1="296.34" y1="269.59" x2="297.44" y2="373.26"/><line class="k" x1="299.11" y1="270.34" x2="300.09" y2="373.3"/><line class="k" x1="531.23" y1="269.74" x2="530.57" y2="372.82"/><line class="k" x1="533.31" y1="268.82" x2="532.89" y2="372.82"/><line class="k" x1="535.43" y1="268.82" x2="535.43" y2="372.82"/><line class="k" x1="537.34" y1="268.82" x2="537.45" y2="372.82"/><line class="k" x1="539.28" y1="269.27" x2="539.78" y2="372.82"/><line class="k" x1="610.55" y1="269.4" x2="610.75" y2="372.82"/><line class="k" x1="612.93" y1="372.82" x2="612.76" y2="269.27"/><line class="k" x1="614.95" y1="269.27" x2="615.25" y2="372.82"/><line class="k" x1="617.48" y1="372.82" x2="616.89" y2="269.4"/><line class="k" x1="619.34" y1="269.87" x2="620.07" y2="372.87"/><path class="l" d="M325.25,501.05c-.23-16.18,.04-36.63-.19-52.81,.03-1.73,.32-6.31,3.41-10.57,3.32-4.58,7.79-5.93,9.77-6.49,5.16-1.47,9.35-.26,10.22,0,5.29,1.61,8.25,5.24,8.86,6.01,3.71,4.69,4.04,9.88,4.09,11.53-.08,16.02,.08,35.71,0,51.73"/><path class="l" d="M397.42,500.4c-.23-16.18,.23-35.98,0-52.15,.03-1.73,.32-6.31,3.41-10.57,3.32-4.58,7.79-5.93,9.77-6.49,5.16-1.47,9.35-.26,10.22,0,5.29,1.61,8.25,5.24,8.86,6.01,3.71,4.69,4.04,9.88,4.09,11.53-.08,16.02,.08,35.58,0,51.59"/><path class="l" d="M470.17,500.21c-.23-16.18-.51-35.78-.73-51.96,.03-1.73,.32-6.31,3.41-10.57,3.32-4.58,7.79-5.93,9.77-6.49,5.16-1.47,9.35-.26,10.22,0,5.29,1.61,8.25,5.24,8.86,6.01,3.71,4.69,4.04,9.88,4.09,11.53-.08,16.02,.08,35.3,0,51.32"/><path class="l" d="M318.22,500.21c-.28-17.52-.64-37.27-.92-54.79,.37-2.44,1.65-8.86,6.81-14.41,6.42-6.9,14.41-7.7,17.32-7.81,3.11-.11,11.62,.19,18.45,7.21,5.45,5.6,6.74,12.32,7.1,14.71-.09,17.12,.12,38.21,.03,55.33"/><path class="l" d="M391.6,500.45c-.28-17.52-.59-37.51-.88-55.03,.37-2.44,1.65-8.86,6.81-14.41,6.42-6.9,14.41-7.7,17.32-7.81,3.11-.11,11.62,.19,18.45,7.21,5.45,5.6,6.74,12.32,7.1,14.71-.09,17.12,.09,37.97,0,55.09"/><path class="l" d="M463.99,500.23c-.28-17.52-.58-37.83-.87-55.35,.37-2.44,1.65-8.86,6.81-14.41,6.42-6.9,14.41-7.7,17.32-7.81,3.11-.11,11.62,.19,18.45,7.21,5.45,5.6,6.74,12.32,7.1,14.71-.09,17.12,.09,38.31,0,55.42"/><path class="l" d="M185.56,327.67c-.11-.72-.2-1.81,0-3.09,.37-2.38,1.5-3.97,2.39-5.2,.68-.93,2.01-2.72,4.38-4.07,.99-.56,3.97-2.21,7.84-1.55,2.42,.42,5.71,2.83,6.61,3.52"/><line class="l" x1="185.15" y1="327.67" x2="206.78" y2="327.67"/><path class="l" d="M178.4,331.64c-.07-.84,0-4.27,.1-5.64,.1-1.23,.48-4.74,2.54-8.56,.81-1.51,2.59-4.73,6.3-7.16,4.02-2.64,7.99-2.84,9.88-2.79,3.56,.1,8.11,2.4,9.56,3.18"/><path class="l" d="M171.64,325.65c.72,.02,1.92-.02,2.64,0,.02-1.01,.11-2.48,.5-4.19,.61-2.74,1.63-4.64,2.48-6.21,.77-1.43,1.79-3.3,3.6-5.27,2.56-2.79,5.19-4.12,6.92-4.98,1.95-.97,4.76-2.32,8.68-2.54,3.68-.21,8.44,1.61,10.34,2.38"/><line class="m" x1="193.31" y1="314.8" x2="193.31" y2="327.67"/><line class="m" x1="200.17" y1="313.76" x2="200.12" y2="327.67"/><line class="k" x1="141.47" y1="304.98" x2="150.18" y2="304.65"/><line class="k" x1="151.15" y1="389.32" x2="138.64" y2="389.4"/><line class="k" x1="140.5" y1="304.88" x2="140.17" y2="389.29"/><line class="k" x1="142.52" y1="389.45" x2="142.83" y2="304.74"/><line class="k" x1="144.99" y1="304.84" x2="144.83" y2="389.37"/><line class="k" x1="146.67" y1="389.36" x2="146.82" y2="304.76"/><line class="k" x1="148.78" y1="304.81" x2="148.86" y2="389.34"/><line class="l" x1="140.02" y1="267.43" x2="204.9" y2="267.48"/><line class="l" x1="150.77" y1="252.97" x2="150.3" y2="267.46"/><line class="l" x1="140.53" y1="252.87" x2="205.33" y2="253.47"/><line class="l" x1="155.72" y1="253.01" x2="155.61" y2="267.44"/><line class="l" x1="173.95" y1="253.18" x2="173.72" y2="267.46"/><line class="l" x1="180.87" y1="253.24" x2="180.99" y2="267.46"/><line class="l" x1="137.37" y1="270.1" x2="205.75" y2="270.43"/><path class="l" d="M236.75,262.4c-.82,1.73-1.7,5.32-2.45,7.41,.03,9.7-.38,18.5-.35,28.2,.38,.5,1.2,.69,1.58,1.18,.1,.55,.16,1.67,.16,2.71"/><path class="l" d="M223.25,262.37c.79,1.26,2.82,6.17,3.6,7.43,.13,10.17-.13,18.22,0,28.39l-1.6,.8c0,.53-.09,2.74-.09,3.27"/><path class="l" d="M272.49,261.83c.93,1.49,2.39,6.49,3.32,7.98,.02,9.92-.02,18.03,0,27.95l-1.3,.82c0,.5-.13,2.48-.13,2.98"/><path class="l" d="M285.05,262.08c-.5,1.44-1.4,5.8-1.91,7.73l-.18,27.75,1.36,.96c0,.46,.07,2.45,.07,2.91"/><line class="l" x1="226.85" y1="269.81" x2="234.3" y2="269.81"/><line class="l" x1="275.81" y1="269.81" x2="283.14" y2="269.81"/><line class="l" x1="233.94" y1="298.01" x2="226.85" y2="298.2"/><line class="l" x1="282.96" y1="297.55" x2="275.81" y2="297.76"/><line class="l" x1="221.9" y1="314.06" x2="287.19" y2="313.61"/><line class="l" x1="302.17" y1="314.32" x2="315.19" y2="314.04"/><line class="l" x1="315.55" y1="310.26" x2="302.14" y2="310.52"/><line class="l" x1="287.21" y1="310.39" x2="221.9" y2="310.39"/><line class="l" x1="316.74" y1="315.24" x2="315.19" y2="314.04"/><line class="l" x1="317.28" y1="311.85" x2="315.55" y2="310.26"/><path class="l" d="M226.08,380.51c-.09-13.82-.1-30.4,0-44.49,.04-6.04,.1-12.05,.17-18.04-.56-.93-2.17-3.01-2.73-3.94"/><path class="l" d="M236.24,314.05c-.4,.94-1.22,3.13-1.61,4.07,.19,20.18,.4,41.8,.6,61.98"/><path class="l" d="M275.26,379.78c.03-20.17-.03-42.07,0-62.23-.55-.9-1.57-2.94-2.12-3.84"/><path class="l" d="M285.23,313.62c-.44,.76-1.21,3.11-1.65,3.87,.19,20.06,.23,41.9,.42,61.96"/><line class="k" x1="237.92" y1="318.42" x2="238.14" y2="380.51"/><line class="k" x1="273.14" y1="318.3" x2="237.92" y2="318.42"/><line class="k" x1="273.14" y1="380.08" x2="273.14" y2="318.3"/><path class="l" d="M557.2,261.55c-.82,1.73-1.7,5.32-2.45,7.41,.03,9.7-.38,18.5-.35,28.2,.38,.5,1.2,.69,1.58,1.18,.1,.55,.16,1.67,.16,2.71"/><path class="l" d="M543.7,261.17c.79,1.26,2.82,6.17,3.6,7.43,.13,10.17-.13,18.22,0,28.39l-1.6,.8c0,.53-.09,2.74-.09,3.27"/><line class="l" x1="547.3" y1="268.96" x2="554.75" y2="268.96"/><path class="l" d="M604.89,261.55c-.82,1.67-1.7,5.15-2.45,7.18,.03,9.4-.38,17.92-.35,27.32,.38,.48,1.2,.66,1.58,1.15,.1,.53,.16,1.61,.16,2.62"/><path class="l" d="M591.39,261.53c.79,1.22,2.82,5.98,3.6,7.2,.13,9.85-.13,17.65,0,27.5l-1.6,.77c0,.51-.09,2.65-.09,3.16"/><line class="l" x1="595" y1="268.73" x2="602.44" y2="268.73"/><ellipse class="k" cx="573.72" cy="283.75" rx="10.95" ry="11.58"/><line class="l" x1="701.4" y1="274.96" x2="621.49" y2="275.45"/><line class="l" x1="692.63" y1="282.67" x2="621.52" y2="282.54"/><line class="l" x1="692.87" y1="290.85" x2="621.55" y2="291.33"/><line class="l" x1="692.18" y1="296.88" x2="621.58" y2="297.79"/><path class="l" d="M621.93,327.35c7.53,.04,16.35-.04,23.88,0,.05-1.28-.02-3.4-.89-5.77-1.66-4.51-5.02-6.66-5.96-7.25-1.16-.72-4.12-2.5-7.99-2.01-2.53,.32-4.33,1.45-4.95,1.88-1.6,1.1-3.79,3.39-4.35,4.23"/><line class="l" x1="626.02" y1="314.2" x2="625.93" y2="327.36"/><line class="k" x1="637.96" y1="313.75" x2="637.87" y2="327.34"/><line class="k" x1="632.06" y1="312" x2="631.9" y2="327.36"/><path class="l" d="M652.5,330.43c.05-1.46-.05-3.83,0-5.28-.07-1.05-.23-2.55-.64-4.3-.52-2.21-1.32-5.57-3.92-8.6-2.22-2.58-4.69-3.7-6.06-4.3-.61-.27-3.26-1.39-6.92-1.51-1.66-.05-4.07-.11-6.92,1.06-2.42,.99-5.41,3.19-6.37,4.15"/><line class="l" x1="622.16" y1="330.67" x2="680.2" y2="330.21"/><path class="l" d="M622.31,305.11c1.24-.79,3.07-1.79,5.42-2.5,1.07-.33,4.44-1.27,8.86-.81,5.13,.54,8.7,2.66,9.63,3.23,3.28,2.04,5.21,4.42,5.73,5.09,2.2,2.81,3.15,5.47,3.67,6.95,.97,2.78,1.32,5.23,1.45,6.95l2.98-.08"/><line class="l" x1="660.05" y1="297.29" x2="660.05" y2="330.37"/><line class="l" x1="660.05" y1="393.12" x2="660.05" y2="329.66"/><line class="l" x1="151.19" y1="340.74" x2="206.78" y2="340.6"/><line class="l" x1="680.49" y1="338.94" x2="621.9" y2="339.42"/><line class="l" x1="646.92" y1="393.7" x2="645.83" y2="342.8"/><line class="l" x1="621.9" y1="342.78" x2="645.83" y2="342.8"/><line class="l" x1="638.56" y1="393.32" x2="637.92" y2="342.79"/><line class="l" x1="626.82" y1="393.06" x2="625.97" y2="342.78"/><line class="l" x1="645.83" y1="360.27" x2="622.27" y2="360.41"/><line class="l" x1="645.83" y1="368.89" x2="622.31" y2="369.16"/><line class="k" x1="645.83" y1="351.26" x2="621.9" y2="351"/><line class="k" x1="631.98" y1="342.79" x2="631.98" y2="393.72"/><line class="k" x1="646.74" y1="385.22" x2="623.25" y2="385.35"/><line class="k" x1="646.37" y1="377.82" x2="624.55" y2="377.66"/><line class="l" x1="678.45" y1="393.06" x2="625.03" y2="393.22"/><path class="l" d="M652.39,393.14v-50.11c-.54-.91-2-2.92-2.53-3.83"/><line class="l" x1="660.05" y1="343.09" x2="652.39" y2="343.03"/><path class="k" d="M692.18,296.88c.48,.5,2.19,1.77,1.67,4.14-.04,.18-.56,1.45-1.4,2.05-.93,.66-2.41,.1-3.01-.92-.36-.61-.61-1.73,0-2.36,.37-.38,.97-.49,1.46-.31,.66,.25,1.2,1.06,.97,1.54-.18,.38-.84,.55-1.55,.31"/><path class="k" d="M679.99,297.29c-.48,.5-2.19,1.77-1.67,4.14,.04,.18,.56,1.45,1.4,2.05,.93,.66,2.41,.1,3.01-.92,.36-.61,.61-1.73,0-2.36-.37-.38-.97-.49-1.46-.31-.66,.25-1.2,1.06-.97,1.54,.18,.38,.84,.55,1.55,.31"/><path class="l" d="M679.72,303.48c.3,19.58,.48,41.26,.67,60.99,.07,7.12,.13,14.23,.18,21.33-.64,1.42-1.28,2.83-1.92,4.25,.06,6.43-.06,13.62,0,20.06"/><line class="l" x1="625.37" y1="410.11" x2="695.45" y2="410.11"/><line class="k" x1="681.73" y1="303.48" x2="683.09" y2="386.65"/><line class="k" x1="683.78" y1="302.86" x2="684.98" y2="386.35"/><line class="k" x1="686.79" y1="386.75" x2="686.09" y2="302.58"/><line class="k" x1="688.09" y1="302.6" x2="688.39" y2="386.33"/><line class="k" x1="689.89" y1="386.75" x2="689.89" y2="302.92"/><line class="k" x1="682.73" y1="302.56" x2="689.55" y2="302.61"/><line class="k" x1="691.66" y1="386.3" x2="680.57" y2="386.38"/><path class="k" d="M555.8,377.92c-.05-20.21-.13-42.41-.18-62.62l35.52,.15c.05,20.31,.09,42.16,.14,62.47"/><path class="l" d="M544.29,312.46c.28,1.35,.85,3.44,1.13,4.79v60.58"/><path class="l" d="M604.4,312.28c-.52,1.15-1.27,2.92-1.79,4.06,.24,19.71,.54,41.61,.78,61.32"/><path class="l" d="M553.82,317.66c.18,19.58,.38,40.68,.56,60.26"/><path class="l" d="M555.31,312.46c-.47,1.04-1.02,4.16-1.49,5.2"/><path class="l" d="M592.23,312.24c.47,1.31,1.54,3.42,2.02,4.73,.11,19.74,.22,41.01,.33,60.74"/><line class="l" x1="541.19" y1="312.29" x2="608.17" y2="312.24"/><line class="l" x1="553.82" y1="317.87" x2="545.29" y2="317.76"/><line class="l" x1="602.61" y1="316.78" x2="594.24" y2="316.97"/><line class="l" x1="528.64" y1="312.46" x2="511.98" y2="312.26"/><line class="l" x1="608.61" y1="309.24" x2="541.17" y2="308.91"/><line class="l" x1="529.18" y1="308.91" x2="512.71" y2="308.8"/><ellipse class="k" cx="254.15" cy="285.61" rx="10.95" ry="11.58"/><line class="k" x1="554.56" y1="295.62" x2="594.57" y2="295.61"/><line class="k" x1="554.75" y1="270.95" x2="595" y2="270.96"/><line class="k" x1="234.63" y1="272.17" x2="275.81" y2="271.67"/><line class="k" x1="235.52" y1="299.2" x2="274.49" y2="299.06"/><line class="l" x1="288.23" y1="224.91" x2="223.32" y2="224.91"/><line class="l" x1="528.65" y1="223.41" x2="301.8" y2="223.79"/><line class="l" x1="541.01" y1="222.86" x2="605.67" y2="222.96"/><path class="l" d="M287.93,228.83c0-1.31,.28-3.97,.28-5.27l1.73-2.09c-.04-7.06,.34-12.54,.3-19.6-.82-.87-2.07-3.31-2.89-4.18,1.03-1.18,2.48-3.8,3.51-4.98"/><path class="l" d="M301.8,228.83c.1-1.2,.04-3.56,0-5.04-.58-.78-1.16-1.55-1.74-2.33,.33-6.62-.39-12.72-.06-19.35,.74-.74,1.55-3.29,2.29-4.03-.62-1.13-2.25-4.28-2.87-5.41"/><path class="l" d="M528.54,229.95c-.03-2.14,.14-6.29,.12-8.43l1.07-1.61c-.12-5.93-.24-11.85-.36-17.78-.51-1.48-1.01-2.96-1.52-4.44,.72-1.29,1.79-4.78,2.5-6.08"/><path class="l" d="M540.73,229.95c-.06-1.99-.03-6.44-.09-8.43-.45-.76-.89-1.51-1.34-2.27,.03-5.61,.06-11.22,.09-16.83l1.79-3.78c-.6-1.54-2.09-5.51-2.68-7.06"/><line class="l" x1="540.42" y1="196.66" x2="528.34" y2="196.65"/><line class="l" x1="302.29" y1="198.07" x2="287.35" y2="197.68"/><line class="l" x1="619.99" y1="221.82" x2="606.15" y2="222.12"/><line class="l" x1="540.64" y1="221.52" x2="528.66" y2="221.52"/><line class="l" x1="300.86" y1="222.52" x2="289.1" y2="222.48"/><line class="l" x1="222.95" y1="223.53" x2="209.83" y2="223.35"/><line class="l" x1="203.88" y1="410.76" x2="135.75" y2="410.94"/><line class="l" x1="136.17" y1="501.05" x2="135.75" y2="410.94"/><line class="l" x1="203.97" y1="420.56" x2="135.75" y2="420.88"/><line class="l" x1="204.47" y1="477.16" x2="136.24" y2="477.48"/><line class="l" x1="691.84" y1="269.18" x2="621.46" y2="269.27"/><line class="l" x1="689.97" y1="265.95" x2="623.25" y2="265.81"/><path class="l" d="M678.63,265.49c-.03-4.15,.03-10.56,0-14.72-.42-.63-1.73-1.66-2.14-2.29"/><line class="l" x1="689.85" y1="250.83" x2="623.25" y2="250.53"/><line class="l" x1="318.13" y1="318.21" x2="368.92" y2="318.48"/><line class="l" x1="442.25" y1="318.52" x2="387.72" y2="318.66"/><line class="l" x1="513.33" y1="318.36" x2="459.78" y2="318.65"/><line class="k" x1="339.61" y1="380.11" x2="339.85" y2="348.05"/><line class="k" x1="363.48" y1="348.05" x2="339.85" y2="348.05"/><line class="k" x1="362.93" y1="380.39" x2="363.48" y2="348.05"/><line class="k" x1="404.84" y1="380.21" x2="404.7" y2="347.93"/><line class="k" x1="428.06" y1="347.93" x2="404.7" y2="347.93"/><line class="k" x1="428.06" y1="379.65" x2="428.06" y2="347.93"/><line class="k" x1="469.14" y1="379.65" x2="469" y2="347.93"/><line class="k" x1="492.09" y1="347.93" x2="469" y2="347.93"/><line class="k" x1="492.09" y1="379.55" x2="492.09" y2="347.93"/><line class="k" x1="351.67" y1="347.93" x2="351.67" y2="380.12"/><line class="k" x1="363.48" y1="363.79" x2="339.85" y2="363.79"/><line class="k" x1="416.38" y1="347.93" x2="416.38" y2="380.39"/><line class="k" x1="428.06" y1="363.07" x2="404.77" y2="363.07"/><line class="k" x1="480.54" y1="347.93" x2="480.54" y2="379.77"/><line class="k" x1="492.09" y1="363.07" x2="469" y2="363.07"/><line class="k" x1="401.88" y1="380.3" x2="401.72" y2="345.15"/><line class="k" x1="430.32" y1="379.77" x2="430.32" y2="345.15"/><line class="k" x1="401.72" y1="345.15" x2="430.32" y2="345.15"/><line class="k" x1="336.77" y1="345.56" x2="336.85" y2="380.09"/><line class="k" x1="364.56" y1="345.3" x2="364.47" y2="380.33"/><line class="k" x1="336.77" y1="345.56" x2="364.56" y2="345.3"/><line class="k" x1="466.83" y1="345.15" x2="466.83" y2="380.11"/><line class="k" x1="495" y1="345.15" x2="466.83" y2="345.15"/><line class="k" x1="495" y1="379.5" x2="495" y2="345.15"/><path class="l" d="M325.34,317.97c.13-1.89,.51-6.71,1.68-9.8,.39-1.03,1.91-4.85,5.4-8.62,3.53-3.82,7.2-5.59,8.63-6.21,4.53-1.98,8.37-2.02,10.43-2.03,2.35,0,6.12,.03,10.43,2.03,2.8,1.3,6.19,4.42,7.47,5.65"/><path class="l" d="M387.75,314.38c.55-2.44,4.03-9.01,7.73-13.43,3.3-3.93,6.82-5.75,8.75-6.72,2.45-1.23,7.08-3.48,13.31-3.04,6.64,.47,10.82,2.92,12.77,4.48s6.46,2.7,11.77,17.15"/><path class="l" d="M461.95,300.43c2.93-4.14,5.45-5.72,6.43-6.46s4.92-2.7,10.43-3.04c6.21-.39,10.92,1.7,12.83,2.66,1.92,.97,8.21,4.46,11.99,12.3,1.78,3.69,2.4,10.3,2.64,12.47"/><ellipse class="l" cx="350.53" cy="308.8" rx="7.09" ry="7.5"/><ellipse class="l" cx="415.62" cy="308.8" rx="7.09" ry="7.5"/><ellipse class="l" cx="480.54" cy="308.8" rx="7.09" ry="7.5"/><line class="l" x1="285.14" y1="394.03" x2="300.17" y2="394"/><line class="l" x1="300.08" y1="373.3" x2="300.23" y2="375.87"/><line class="l" x1="301.87" y1="379.45" x2="300.23" y2="375.87"/><line class="l" x1="300.17" y1="382.34" x2="301.87" y2="379.45"/><line class="l" x1="300.18" y1="394" x2="300.17" y2="382.34"/><line class="l" x1="301.88" y1="398.67" x2="301.88" y2="395.5"/><line class="l" x1="300.17" y1="394" x2="301.88" y2="395.5"/><line class="l" x1="304.09" y1="393.44" x2="300.17" y2="394"/><line class="k" x1="226.25" y1="317.98" x2="234.63" y2="318.11"/><line class="k" x1="283.58" y1="317.49" x2="275.26" y2="317.55"/><ellipse class="l" cx="307.86" cy="317.39" rx="1.73" ry="1.83"/><ellipse class="l" cx="314.68" cy="317.39" rx="1.73" ry="1.83"/><line class="k" x1="223.28" y1="394.93" x2="204.56" y2="394.91"/><line class="k" x1="388.55" y1="394.02" x2="368.6" y2="393.83"/><line class="k" x1="316.71" y1="394.75" x2="304.64" y2="394.75"/><line class="k" x1="461.96" y1="395" x2="440.44" y2="394.86"/><line class="k" x1="544.58" y1="393.54" x2="525.61" y2="393.54"/><line class="k" x1="513.59" y1="393.54" x2="525.61" y2="393.54"/><line class="k" x1="625.03" y1="393.22" x2="605.04" y2="393.22"/><line class="k" x1="624.01" y1="379.01" x2="605.85" y2="379.14"/><line class="k" x1="543.38" y1="379.77" x2="526.8" y2="379.77"/><line class="k" x1="512.54" y1="380.69" x2="526.8" y2="380.8"/><line class="k" x1="388.55" y1="384.05" x2="368.6" y2="383.93"/><line class="k" x1="301.88" y1="380.14" x2="284.19" y2="379.98"/><line class="k" x1="316.15" y1="383.84" x2="303.64" y2="384.04"/><line class="k" x1="223.59" y1="380.1" x2="204" y2="380.26"/><line class="k" x1="305.16" y1="378.38" x2="301.88" y2="379.45"/><line class="l" x1="369.45" y1="313.4" x2="387.27" y2="313.35"/><line class="l" x1="460.17" y1="313.15" x2="442.09" y2="312.81"/><line class="l" x1="315.19" y1="314.04" x2="315.55" y2="310.26"/><line class="l" x1="284.19" y1="491.92" x2="282.4" y2="494.24"/><line class="l" x1="282.4" y1="500.45" x2="282.4" y2="494.24"/><line class="l" x1="303.52" y1="491.92" x2="306.17" y2="494.24"/><line class="l" x1="305.88" y1="500.45" x2="306.17" y2="494.24"/><line class="l" x1="224.62" y1="491.92" x2="227.32" y2="494.24"/><line class="l" x1="227.03" y1="500.91" x2="227.32" y2="494.24"/><line class="l" x1="303.52" y1="491.92" x2="284.19" y2="491.92"/><line class="k" x1="224.62" y1="491.92" x2="204.49" y2="491.41"/><line class="k" x1="204" y1="418.69" x2="223.59" y2="418.38"/><line class="k" x1="223.59" y1="424.89" x2="204.01" y2="424.9"/><line class="k" x1="223.86" y1="431.88" x2="204.07" y2="432.04"/><line class="k" x1="223.94" y1="438.39" x2="204.13" y2="438.56"/><line class="k" x1="224.1" y1="445.07" x2="204.19" y2="445.23"/><line class="k" x1="224.1" y1="451.34" x2="204.24" y2="451.34"/><line class="k" x1="224.2" y1="458.72" x2="204.31" y2="458.41"/><line class="k" x1="224.28" y1="465.24" x2="204.37" y2="465.25"/><line class="k" x1="224.36" y1="471.76" x2="204.42" y2="471.6"/><line class="k" x1="224.44" y1="478.28" x2="204.48" y2="478.59"/><line class="k" x1="224.53" y1="485.26" x2="204.54" y2="485.1"/><line class="k" x1="303.52" y1="417.91" x2="284.19" y2="417.91"/><line class="k" x1="303.52" y1="424.89" x2="284.19" y2="424.89"/><line class="k" x1="303.52" y1="431.96" x2="284.19" y2="431.96"/><line class="k" x1="303.52" y1="438.47" x2="284.19" y2="438.47"/><line class="k" x1="303.52" y1="444.45" x2="284.19" y2="444.45"/><line class="k" x1="303.52" y1="450.5" x2="284.19" y2="450.65"/><line class="k" x1="303.52" y1="458.27" x2="284.19" y2="458.19"/><line class="k" x1="303.52" y1="464.57" x2="284.19" y2="464.57"/><line class="k" x1="303.52" y1="472.04" x2="284.19" y2="472.11"/><line class="k" x1="303.52" y1="478.34" x2="284.19" y2="478.64"/><line class="k" x1="303.52" y1="485.08" x2="284.19" y2="485.16"/><line class="k" x1="214.99" y1="410.76" x2="214.99" y2="418.51"/><line class="k" x1="214.99" y1="424.89" x2="214.99" y2="431.95"/><line class="k" x1="215.29" y1="438.47" x2="215.29" y2="445.15"/><line class="k" x1="215.29" y1="451.34" x2="215.29" y2="458.58"/><line class="k" x1="215.29" y1="465.24" x2="215.29" y2="471.69"/><line class="k" x1="215.68" y1="478.41" x2="215.68" y2="485.18"/><line class="k" x1="293.37" y1="410.76" x2="293.37" y2="417.91"/><line class="k" x1="293.85" y1="424.89" x2="293.85" y2="431.96"/><line class="k" x1="293.85" y1="438.47" x2="293.85" y2="444.45"/><line class="k" x1="293.64" y1="450.58" x2="293.53" y2="458.23"/><line class="k" x1="293.58" y1="464.57" x2="293.58" y2="472.08"/><line class="k" x1="293.58" y1="478.73" x2="293.85" y2="485.12"/><line class="k" x1="545.98" y1="417.24" x2="524.33" y2="417.33"/><line class="k" x1="545.62" y1="423.77" x2="524.32" y2="424.14"/><line class="k" x1="545.98" y1="430.48" x2="524.31" y2="430.85"/><line class="k" x1="545.98" y1="437.3" x2="524.32" y2="437.3"/><line class="k" x1="545.98" y1="443.93" x2="524.31" y2="444.29"/><line class="k" x1="545.98" y1="450.31" x2="524.31" y2="450.31"/><line class="k" x1="545.98" y1="457.27" x2="524.31" y2="457.27"/><line class="k" x1="545.98" y1="463.53" x2="524.3" y2="463.71"/><line class="k" x1="545.98" y1="470.52" x2="524.3" y2="470.7"/><line class="k" x1="545.98" y1="476.97" x2="524.29" y2="477.33"/><line class="k" x1="545.98" y1="484.5" x2="524.29" y2="484.05"/><line class="k" x1="625.22" y1="417.28" x2="603.38" y2="417.28"/><line class="k" x1="625.37" y1="423.96" x2="603.38" y2="423.96"/><line class="k" x1="625.22" y1="430.67" x2="603.3" y2="430.67"/><line class="k" x1="625.22" y1="437.3" x2="603.3" y2="437.3"/><line class="k" x1="625.23" y1="444.11" x2="603.17" y2="444.11"/><line class="k" x1="625.2" y1="450.31" x2="603.38" y2="450.31"/><line class="k" x1="625.17" y1="456.42" x2="603.38" y2="456.42"/><line class="k" x1="625.15" y1="463.12" x2="603.1" y2="463.62"/><line class="k" x1="625.12" y1="469.71" x2="603.3" y2="469.94"/><line class="k" x1="625.09" y1="476.53" x2="603.3" y2="476.64"/><line class="k" x1="625.06" y1="483.7" x2="603.38" y2="483.7"/><line class="k" x1="536.01" y1="409.33" x2="535.83" y2="417.28"/><line class="k" x1="535.92" y1="423.96" x2="535.92" y2="430.48"/><line class="k" x1="535.92" y1="437.3" x2="535.92" y2="444.11"/><line class="k" x1="535.92" y1="450.31" x2="535.92" y2="457.27"/><line class="k" x1="535.92" y1="463.62" x2="535.92" y2="470.61"/><line class="k" x1="535.92" y1="477.15" x2="535.92" y2="484.29"/><line class="k" x1="614.12" y1="409.07" x2="614.12" y2="417.28"/><line class="k" x1="614.12" y1="423.96" x2="614.12" y2="430.67"/><line class="k" x1="613.6" y1="437.3" x2="613.6" y2="444.11"/><line class="k" x1="614.12" y1="450.31" x2="614.12" y2="456.42"/><line class="k" x1="613.6" y1="463.37" x2="613.6" y2="469.83"/><line class="k" x1="613.6" y1="476.59" x2="613.6" y2="483.7"/><line class="k" x1="625.4" y1="401.79" x2="522.86" y2="402.3"/><line class="k" x1="203.83" y1="405.03" x2="303.52" y2="405.12"/><line class="m" x1="224.1" y1="417.91" x2="284.19" y2="417.91"/><line class="m" x1="223.59" y1="424.89" x2="284.19" y2="424.89"/><line class="m" x1="223.86" y1="431.88" x2="284.19" y2="431.96"/><line class="m" x1="223.94" y1="438.39" x2="284.19" y2="438.47"/><line class="m" x1="224.1" y1="445.07" x2="284.19" y2="444.45"/><line class="m" x1="224.1" y1="451.34" x2="284.19" y2="451.81"/><line class="m" x1="284.19" y1="458.19" x2="224.2" y2="458.72"/><line class="m" x1="284.19" y1="464.57" x2="224.28" y2="465.24"/><line class="m" x1="284.19" y1="472.11" x2="224.36" y2="471.76"/><line class="m" x1="284.19" y1="478.64" x2="224.44" y2="478.28"/><line class="m" x1="284.19" y1="485.16" x2="224.53" y2="485.26"/><line class="m" x1="244.72" y1="410.85" x2="244.72" y2="417.91"/><line class="m" x1="264.29" y1="410.85" x2="264.18" y2="417.91"/><line class="m" x1="273.97" y1="417.91" x2="274.07" y2="424.89"/><line class="m" x1="254.27" y1="417.91" x2="254.27" y2="424.89"/><line class="m" x1="235.04" y1="417.91" x2="235.15" y2="424.89"/><line class="m" x1="264.24" y1="424.89" x2="264.24" y2="431.96"/><line class="m" x1="274.02" y1="431.92" x2="274.02" y2="438.47"/><line class="m" x1="235.1" y1="431.89" x2="235.1" y2="438.47"/><line class="m" x1="264.24" y1="438.43" x2="264.24" y2="444.65"/><line class="m" x1="274.02" y1="444.65" x2="274.02" y2="451.58"/><line class="m" x1="264.24" y1="451.58" x2="264.24" y2="458.58"/><line class="m" x1="274.02" y1="458.23" x2="274.02" y2="465.24"/><line class="m" x1="264.24" y1="464.79" x2="264.24" y2="471.94"/><line class="m" x1="274.02" y1="471.69" x2="274.02" y2="478.58"/><line class="m" x1="264.24" y1="478.49" x2="264.24" y2="485.19"/><line class="m" x1="274.47" y1="485.12" x2="274.6" y2="494.24"/><path class="m" d="M303.52,417.91c5.21,.07,12.4,.42,17.61,.5,1.81,2.5,4.76,6.32,6.57,8.82"/><path class="m" d="M303.52,424.89c4.07,.15,9.79,.09,13.86,.24,1.7,1.65,5.03,4.22,6.73,5.88"/><path class="m" d="M303.52,431.96c3.13,0,7.71-.32,10.83-.32,1.56,.96,4.46,2.74,6.02,3.7"/><path class="m" d="M303.52,438.47c2.5,.07,6.66-.18,9.17-.11,1.36,.55,4.42,1.7,5.78,2.25"/><path class="m" d="M303.52,444.45c2.36,.04,6.7,.28,9.06,.32,1.15,.22,3.57,.44,4.71,.66"/><line class="m" x1="303.52" y1="451.34" x2="317.4" y2="451.34"/><line class="m" x1="303.52" y1="458.27" x2="317.51" y2="458.23"/><line class="m" x1="303.52" y1="464.57" x2="317.62" y2="464.57"/><line class="m" x1="303.52" y1="471.21" x2="317.73" y2="471.21"/><line class="m" x1="303.52" y1="478.34" x2="317.86" y2="478.49"/><line class="m" x1="303.52" y1="485.08" x2="317.97" y2="485.12"/><line class="m" x1="332.14" y1="424.89" x2="326.75" y2="412.93"/><line class="m" x1="336.83" y1="423.19" x2="334.51" y2="412.79"/><line class="m" x1="347.12" y1="423.19" x2="349.76" y2="412.38"/><line class="m" x1="352.07" y1="424.49" x2="357.61" y2="412.45"/><line class="m" x1="356.45" y1="427.23" x2="363.08" y2="417.99"/><line class="m" x1="394.28" y1="418.1" x2="363.08" y2="417.99"/><line class="m" x1="400.78" y1="427.69" x2="394.28" y2="418.1"/><line class="m" x1="397.54" y1="431.01" x2="390.36" y2="424.36"/><line class="m" x1="366.62" y1="424.7" x2="390.36" y2="424.36"/><line class="m" x1="360.83" y1="430.89" x2="366.62" y2="424.7"/><line class="m" x1="363.77" y1="435.65" x2="369.96" y2="431.23"/><line class="m" x1="387.46" y1="431.37" x2="369.96" y2="431.23"/><line class="m" x1="393.95" y1="435.45" x2="387.46" y2="431.37"/><line class="m" x1="365.8" y1="440.24" x2="371.83" y2="437.97"/><line class="m" x1="385.85" y1="438.11" x2="371.83" y2="437.97"/><line class="m" x1="391.71" y1="440.28" x2="385.85" y2="438.11"/><line class="m" x1="390.73" y1="445.42" x2="383.92" y2="444.5"/><line class="m" x1="366.98" y1="445.12" x2="373.44" y2="444.44"/><line class="m" x1="383.92" y1="444.5" x2="373.44" y2="444.44"/><line class="m" x1="390.82" y1="451.11" x2="367.03" y2="451.38"/><line class="m" x1="390.71" y1="457.78" x2="367.03" y2="457.98"/><line class="m" x1="391.03" y1="464.38" x2="367.03" y2="464.38"/><line class="m" x1="390.73" y1="471.18" x2="384.5" y2="471.11"/><line class="m" x1="373.05" y1="471.15" x2="366.99" y2="471.15"/><line class="m" x1="391.25" y1="478.33" x2="367.03" y2="477.99"/><line class="m" x1="391.35" y1="484.59" x2="367.03" y2="484.59"/><line class="m" x1="391.45" y1="491.19" x2="367.03" y2="490.92"/><line class="m" x1="405.45" y1="425.36" x2="399.63" y2="412.3"/><line class="m" x1="410.08" y1="423.83" x2="407.51" y2="412.3"/><line class="m" x1="419.93" y1="423.19" x2="422.34" y2="412.13"/><line class="m" x1="425.15" y1="424.49" x2="430.32" y2="412.13"/><line class="m" x1="429.62" y1="427.32" x2="435.84" y2="418.04"/><line class="m" x1="466.75" y1="418.04" x2="435.84" y2="418.04"/><line class="m" x1="473.64" y1="427.21" x2="466.75" y2="418.04"/><line class="m" x1="433.31" y1="430.41" x2="439.99" y2="424.4"/><line class="m" x1="463.12" y1="424.49" x2="439.99" y2="424.4"/><line class="m" x1="469.93" y1="430.47" x2="463.12" y2="424.49"/><line class="m" x1="436.95" y1="435.2" x2="442.89" y2="430.88"/><line class="m" x1="466.53" y1="435.09" x2="460.21" y2="430.97"/><line class="m" x1="442.89" y1="430.88" x2="460.21" y2="430.97"/><line class="m" x1="464.38" y1="439.78" x2="458.3" y2="437.63"/><line class="m" x1="439.04" y1="439.68" x2="444.96" y2="437.46"/><line class="m" x1="458.3" y1="437.63" x2="444.96" y2="437.46"/><line class="m" x1="463.12" y1="444.88" x2="457.06" y2="444.12"/><line class="m" x1="440.41" y1="445.12" x2="446.28" y2="444.12"/><line class="m" x1="457.06" y1="444.12" x2="446.28" y2="444.12"/><line class="m" x1="463.21" y1="450.6" x2="440.43" y2="450.87"/><line class="m" x1="463.12" y1="457.35" x2="440.43" y2="457.44"/><line class="m" x1="463.42" y1="464.19" x2="440.43" y2="464.36"/><line class="m" x1="463.12" y1="470.59" x2="457.06" y2="470.59"/><line class="m" x1="440.43" y1="470.59" x2="445.95" y2="470.59"/><line class="m" x1="463.12" y1="477.51" x2="440.43" y2="477.42"/><line class="m" x1="463.73" y1="484.17" x2="440.43" y2="484.17"/><line class="m" x1="463.83" y1="490.66" x2="440.43" y2="490.83"/><line class="m" x1="435.84" y1="418.04" x2="435.84" y2="412.21"/><line class="m" x1="446.28" y1="417.66" x2="446.28" y2="412.21"/><line class="m" x1="457.06" y1="417.66" x2="457.06" y2="412.21"/><line class="m" x1="451.3" y1="424.44" x2="451.3" y2="418.07"/><line class="m" x1="446.28" y1="430.48" x2="446.28" y2="424.42"/><line class="m" x1="457.06" y1="430.93" x2="457.06" y2="424.42"/><line class="m" x1="446.28" y1="444.12" x2="446.28" y2="437.47"/><line class="m" x1="457.06" y1="444.12" x2="457.06" y2="437.47"/><line class="m" x1="457.06" y1="457.38" x2="457.06" y2="450.74"/><line class="m" x1="446.28" y1="457.38" x2="446.28" y2="450.74"/><line class="m" x1="451.93" y1="484.17" x2="451.82" y2="477.47"/><line class="m" x1="446.28" y1="490.79" x2="446.28" y2="484.17"/><line class="m" x1="373.05" y1="418.04" x2="373.05" y2="412.42"/><line class="m" x1="383.86" y1="417.91" x2="383.97" y2="412.21"/><line class="m" x1="378.71" y1="424.44" x2="378.71" y2="418.04"/><line class="m" x1="373.05" y1="431.26" x2="373.05" y2="424.61"/><line class="m" x1="383.92" y1="431.59" x2="383.92" y2="424.44"/><line class="m" x1="383.92" y1="444.5" x2="383.92" y2="438.04"/><line class="m" x1="373.24" y1="444.44" x2="373.24" y2="438.04"/><line class="m" x1="373.24" y1="457.88" x2="373.24" y2="451.24"/><line class="m" x1="384.15" y1="457.83" x2="384.15" y2="451.18"/><line class="m" x1="384.72" y1="478.23" x2="384.72" y2="464.38"/><line class="m" x1="373.05" y1="477.87" x2="373.05" y2="464.38"/><line class="m" x1="373.42" y1="490.99" x2="373.47" y2="484.59"/><line class="m" x1="384.29" y1="491.06" x2="384.34" y2="484.34"/><line class="m" x1="478.33" y1="423.96" x2="472.72" y2="412.21"/><line class="m" x1="483.04" y1="423.17" x2="480.51" y2="411.85"/><line class="m" x1="492.63" y1="423.04" x2="495.46" y2="411.77"/><line class="m" x1="498.03" y1="424.42" x2="503.87" y2="411.85"/><line class="m" x1="502.2" y1="426.9" x2="508.93" y2="417.66"/><line class="m" x1="524.33" y1="417.33" x2="508.93" y2="417.66"/><line class="m" x1="506.75" y1="430.14" x2="512.51" y2="423.96"/><line class="m" x1="524.32" y1="424.14" x2="512.51" y2="423.96"/><line class="m" x1="509.63" y1="435.17" x2="515.63" y2="430.67"/><line class="m" x1="524.31" y1="430.85" x2="515.63" y2="430.67"/><line class="m" x1="511.48" y1="439.29" x2="517.57" y2="437.3"/><line class="m" x1="524.32" y1="437.3" x2="517.57" y2="437.3"/><line class="m" x1="512.8" y1="444.58" x2="519.05" y2="443.64"/><line class="m" x1="524.32" y1="443.5" x2="519.05" y2="443.64"/><line class="m" x1="513.21" y1="450.31" x2="524.31" y2="450.31"/><line class="m" x1="524.31" y1="457.27" x2="512.83" y2="457.27"/><line class="m" x1="524.3" y1="463.71" x2="512.83" y2="463.62"/><line class="m" x1="524.3" y1="470.7" x2="512.83" y2="470.61"/><line class="m" x1="524.29" y1="477.33" x2="512.83" y2="477.49"/><line class="m" x1="524.29" y1="484.05" x2="512.83" y2="484.27"/><line class="m" x1="519.09" y1="417.28" x2="519.09" y2="411.87"/><line class="m" x1="519.46" y1="430.48" x2="519.54" y2="424.06"/><line class="m" x1="517.57" y1="437.3" x2="517.57" y2="430.76"/><line class="m" x1="519.05" y1="443.64" x2="519.09" y2="437.3"/><line class="m" x1="519.07" y1="457.27" x2="519.07" y2="450.31"/><line class="m" x1="518.56" y1="470.61" x2="518.56" y2="463.62"/><line class="m" x1="518.57" y1="484.16" x2="518.56" y2="477.15"/><line class="m" x1="446.28" y1="464.28" x2="446.28" y2="477.47"/><line class="m" x1="457.06" y1="464.24" x2="457.06" y2="477.49"/><line class="m" x1="234.46" y1="445.15" x2="234.46" y2="451.24"/><line class="m" x1="234.46" y1="458.63" x2="234.46" y2="465.13"/><line class="m" x1="234.46" y1="471.69" x2="234.46" y2="478.49"/><line class="m" x1="254.02" y1="431.96" x2="254.02" y2="438.47"/><line class="m" x1="254.02" y1="444.93" x2="253.89" y2="451.34"/><line class="m" x1="254.15" y1="458.46" x2="253.95" y2="464.57"/><line class="m" x1="253.68" y1="471.93" x2="253.68" y2="478.16"/><line class="m" x1="524.33" y1="411.87" x2="303.52" y2="412.67"/><line class="m" x1="545.98" y1="417.24" x2="603.38" y2="417.28"/><line class="m" x1="545.62" y1="423.77" x2="603.38" y2="423.96"/><line class="m" x1="545.98" y1="430.48" x2="603.3" y2="430.67"/><line class="m" x1="545.98" y1="437.3" x2="603.3" y2="437.3"/><line class="m" x1="545.98" y1="443.93" x2="603.17" y2="444.11"/><line class="m" x1="545.98" y1="450.31" x2="603.38" y2="450.31"/><line class="m" x1="545.98" y1="457.27" x2="603.38" y2="456.42"/><line class="m" x1="545.98" y1="463.53" x2="603.1" y2="463.62"/><line class="m" x1="545.98" y1="470.52" x2="603.3" y2="469.94"/><line class="m" x1="545.98" y1="476.97" x2="603.3" y2="476.64"/><line class="m" x1="545.98" y1="484.5" x2="603.38" y2="483.7"/><line class="m" x1="565.75" y1="409.35" x2="565.75" y2="417.28"/><line class="m" x1="586.05" y1="409.35" x2="586.05" y2="417.4"/><line class="m" x1="594.58" y1="417.4" x2="594.49" y2="423.96"/><line class="m" x1="574.68" y1="417.4" x2="574.68" y2="423.96"/><line class="m" x1="555.58" y1="417.28" x2="555.48" y2="423.96"/><line class="m" x1="565.28" y1="423.87" x2="565.28" y2="430.67"/><line class="m" x1="584.78" y1="423.87" x2="584.88" y2="430.57"/><line class="m" x1="555.53" y1="430.48" x2="555.53" y2="437.3"/><line class="m" x1="594.53" y1="430.64" x2="594.53" y2="437.3"/><line class="m" x1="565.28" y1="437.3" x2="565.28" y2="444.02"/><line class="m" x1="584.83" y1="437.3" x2="584.83" y2="444.11"/><line class="m" x1="555.53" y1="443.96" x2="555.53" y2="450.31"/><line class="m" x1="594.53" y1="444.11" x2="594.53" y2="450.31"/><line class="m" x1="565.28" y1="450.31" x2="565.28" y2="456.98"/><line class="m" x1="585.25" y1="450.31" x2="585.25" y2="456.69"/><line class="m" x1="555.53" y1="457.13" x2="555.53" y2="463.55"/><line class="m" x1="594.96" y1="456.42" x2="595.05" y2="463.55"/><line class="m" x1="565.28" y1="463.62" x2="565.28" y2="470.33"/><line class="m" x1="585.25" y1="463.67" x2="585.25" y2="470.12"/><line class="m" x1="555.53" y1="470.12" x2="555.53" y2="476.91"/><line class="m" x1="595.01" y1="470.12" x2="595.01" y2="476.59"/><line class="m" x1="565.28" y1="476.91" x2="565.28" y2="484.23"/><line class="m" x1="585.25" y1="476.91" x2="585.25" y2="483.95"/><line class="m" x1="555.53" y1="484.37" x2="555.53" y2="491.7"/><line class="m" x1="595.01" y1="483.95" x2="595.01" y2="492.12"/><line class="k" x1="227.32" y1="494.24" x2="282.4" y2="494.24"/><line class="k" x1="306.17" y1="494.24" x2="318.12" y2="494.24"/><line class="k" x1="366.99" y1="495.42" x2="391.52" y2="495.43"/><line class="k" x1="440.43" y1="496.81" x2="463.93" y2="496.7"/><line class="k" x1="512.83" y1="492.12" x2="524.32" y2="492.12"/><line class="k" x1="625.2" y1="492.12" x2="524.32" y2="492.12"/><line class="m" x1="458.06" y1="490.7" x2="457.94" y2="484.17"/><line class="k" x1="441.3" y1="383.88" x2="460.86" y2="383.57"/><line class="k" x1="451.2" y1="394.93" x2="451.2" y2="383.95"/><line class="k" x1="378.57" y1="393.92" x2="378.57" y2="383.95"/><line class="k" x1="606.73" y1="382.21" x2="542.79" y2="382.78"/><line class="k" x1="595.7" y1="382.31" x2="595.7" y2="393.27"/><line class="k" x1="581.69" y1="382.5" x2="582.01" y2="393.14"/><line class="k" x1="567.53" y1="382.56" x2="567.53" y2="393.72"/><line class="k" x1="554.1" y1="382.68" x2="554.1" y2="393.72"/><line class="k" x1="222.65" y1="383.95" x2="285.83" y2="383.34"/><line class="k" x1="233.77" y1="383.95" x2="233.57" y2="394.78"/><line class="k" x1="246.78" y1="383.95" x2="247.17" y2="394.75"/><line class="k" x1="262.21" y1="383.57" x2="262.21" y2="394.36"/><line class="k" x1="275.27" y1="383.44" x2="275.27" y2="394.17"/><line class="l" x1="545.98" y1="492.12" x2="548.32" y2="494.74"/><line class="l" x1="548.47" y1="499.7" x2="548.32" y2="494.74"/><line class="l" x1="602.92" y1="492.12" x2="600.37" y2="494.25"/><line class="l" x1="600.5" y1="499.01" x2="600.44" y2="493.7"/><line class="l" x1="626.62" y1="494.88" x2="625.2" y2="492.12"/><line class="l" x1="626.57" y1="498.49" x2="626.45" y2="494.54"/><line class="k" x1="521.68" y1="495.18" x2="524.32" y2="492.12"/><line class="k" x1="521.68" y1="499.94" x2="521.68" y2="495.18"/><line class="m" x1="234.46" y1="485.24" x2="234.46" y2="494.24"/><line class="k" x1="678.63" y1="405.2" x2="625.37" y2="405.6"/><line class="k" x1="678.63" y1="395.87" x2="625.37" y2="396.37"/><line class="k" x1="666.44" y1="395.98" x2="666.72" y2="405.29"/><line class="k" x1="653.68" y1="396.12" x2="653.87" y2="405.38"/><line class="k" x1="641.76" y1="396.21" x2="641.76" y2="405.4"/><line class="k" x1="629.56" y1="405.4" x2="629.57" y2="399.39"/><line class="k" x1="152.05" y1="398.75" x2="200.11" y2="399.02"/><line class="k" x1="151.82" y1="407.06" x2="204" y2="407.32"/><line class="l" x1="151.81" y1="406.55" x2="137.45" y2="406.66"/><line class="l" x1="151.63" y1="395.04" x2="136.24" y2="395.3"/><line class="l" x1="695.18" y1="405.77" x2="678.63" y2="405.95"/><line class="l" x1="694.35" y1="392.61" x2="678.45" y2="393.06"/><line class="m" x1="660.41" y1="386.75" x2="680.57" y2="387.05"/><line class="m" x1="665.64" y1="392.84" x2="665.51" y2="386.9"/><line class="m" x1="660.41" y1="381.69" x2="680.53" y2="381.49"/><line class="m" x1="670.83" y1="386.75" x2="670.77" y2="381.59"/><line class="m" x1="660.41" y1="376.2" x2="680.49" y2="375.92"/><line class="m" x1="665.58" y1="381.64" x2="665.58" y2="376.13"/><line class="m" x1="660.38" y1="370.91" x2="680.44" y2="370.71"/><line class="m" x1="675.31" y1="376" x2="675.31" y2="370.76"/><line class="m" x1="660.38" y1="365.42" x2="680.39" y2="365.28"/><line class="m" x1="665.58" y1="370.57" x2="665.58" y2="365.39"/><line class="m" x1="660.45" y1="360.07" x2="679.6" y2="360"/><line class="m" x1="670.49" y1="365.39" x2="670.49" y2="360.03"/><line class="m" x1="660.05" y1="354.64" x2="679.6" y2="354.57"/><line class="m" x1="665.58" y1="360.03" x2="665.58" y2="354.62"/><line class="m" x1="660.45" y1="349.49" x2="680.24" y2="349.29"/><line class="m" x1="670.49" y1="354.61" x2="670.49" y2="349.39"/><line class="m" x1="660.45" y1="344" x2="680.19" y2="343.66"/><line class="m" x1="665.58" y1="349.39" x2="665.58" y2="343.91"/><line class="m" x1="670.49" y1="343.83" x2="670.49" y2="339.19"/><line class="m" x1="660.39" y1="326.42" x2="679.6" y2="326.16"/><line class="m" x1="660.64" y1="320.54" x2="679.94" y2="320.54"/><line class="m" x1="660.64" y1="315.17" x2="679.94" y2="315.43"/><line class="m" x1="660.05" y1="309.5" x2="679.94" y2="309.67"/><line class="m" x1="660.64" y1="304.26" x2="679.73" y2="304.53"/><line class="m" x1="675.07" y1="326.22" x2="675.15" y2="320.54"/><line class="m" x1="665.26" y1="326.35" x2="665.18" y2="320.54"/><line class="m" x1="670.29" y1="320.54" x2="670.29" y2="315.3"/><line class="m" x1="665.22" y1="315.23" x2="665.22" y2="309.58"/><line class="m" x1="670.49" y1="309.58" x2="670.49" y2="304.39"/><line class="m" x1="675.11" y1="315.23" x2="675.11" y2="309.58"/><line class="m" x1="675.11" y1="304.39" x2="675.11" y2="299.21"/><line class="m" x1="665.62" y1="304.33" x2="665.62" y2="299.21"/><line class="m" x1="660.64" y1="299.21" x2="678.22" y2="299.21"/><line class="m" x1="204.24" y1="471.3" x2="152.98" y2="471.67"/><line class="m" x1="153.61" y1="465.88" x2="168.61" y2="465.93"/><line class="m" x1="153.05" y1="460.35" x2="168.57" y2="460.29"/><line class="m" x1="152.98" y1="454.72" x2="168.83" y2="454.7"/><line class="m" x1="153.24" y1="449.36" x2="168.57" y2="449.39"/><line class="m" x1="153.05" y1="443.54" x2="168.57" y2="443.63"/><line class="m" x1="153.08" y1="438.48" x2="168.69" y2="438.5"/><line class="m" x1="153.3" y1="432.78" x2="168.68" y2="432.76"/><line class="m" x1="153.3" y1="427.18" x2="204.03" y2="427.18"/><line class="m" x1="197.15" y1="477.2" x2="197.15" y2="471.49"/><line class="m" x1="184.37" y1="477.26" x2="184.21" y2="471.49"/><line class="m" x1="171.94" y1="477.31" x2="171.86" y2="471.49"/><line class="m" x1="159.37" y1="477" x2="159.51" y2="471.68"/><line class="m" x1="165.3" y1="465.91" x2="165.37" y2="471.87"/><line class="m" x1="159.44" y1="465.89" x2="159.44" y2="460.32"/><line class="m" x1="165.34" y1="459.97" x2="165.34" y2="454.71"/><line class="m" x1="159.44" y1="454.71" x2="159.44" y2="449.37"/><line class="m" x1="165.34" y1="449.37" x2="165.34" y2="443.61"/><line class="m" x1="159.16" y1="443.58" x2="159.02" y2="438.51"/><line class="m" x1="165.34" y1="438.47" x2="165.34" y2="432.77"/><line class="m" x1="159.09" y1="432.77" x2="159.09" y2="427.18"/><line class="m" x1="165.34" y1="427.13" x2="165.34" y2="422.63"/><line class="m" x1="153.24" y1="422.63" x2="203.99" y2="422.63"/><line class="m" x1="177.66" y1="427.05" x2="177.66" y2="422.63"/><line class="m" x1="190.51" y1="427.18" x2="190.44" y2="422.63"/><line class="m" x1="203.99" y1="428.42" x2="168.28" y2="428.42"/><line class="m" x1="168.57" y1="470.24" x2="168.57" y2="428.42"/><line class="m" x1="204.42" y1="471.15" x2="168.57" y2="470.24"/><line class="l" x1="152.81" y1="410.97" x2="153.28" y2="494.44"/><line class="l" x1="155.17" y1="501.08" x2="155.37" y2="495.79"/><line class="m" x1="171.55" y1="389.84" x2="152.26" y2="389.84"/><line class="m" x1="171.22" y1="384.45" x2="151.14" y2="384.41"/><line class="m" x1="171.55" y1="379.1" x2="151.38" y2="379.15"/><line class="m" x1="171.38" y1="373.36" x2="151.33" y2="373.73"/><line class="m" x1="171.34" y1="367.9" x2="151.08" y2="367.9"/><line class="m" x1="171.3" y1="362.43" x2="151.28" y2="362.53"/><line class="m" x1="171.34" y1="356.54" x2="151.08" y2="356.59"/><line class="m" x1="171.22" y1="351.43" x2="151.28" y2="351.7"/><line class="m" x1="171.22" y1="345.96" x2="151.33" y2="346.12"/><line class="m" x1="160.78" y1="341.23" x2="160.73" y2="346.04"/><line class="m" x1="165.9" y1="346.33" x2="165.9" y2="351.5"/><line class="m" x1="160.76" y1="351.57" x2="160.76" y2="356.56"/><line class="m" x1="165.9" y1="362.45" x2="165.9" y2="356.56"/><line class="m" x1="160.76" y1="367.9" x2="160.76" y2="362.45"/><line class="m" x1="166.15" y1="373.55" x2="166.2" y2="367.9"/><line class="m" x1="160.76" y1="379.12" x2="160.76" y2="373.55"/><line class="m" x1="166.17" y1="384.44" x2="166.17" y2="379.12"/><line class="m" x1="160.98" y1="389.84" x2="161.18" y2="384.44"/><line class="m" x1="165.85" y1="395.66" x2="165.85" y2="389.84"/><line class="m" x1="171.4" y1="300.17" x2="152.61" y2="300.2"/><line class="m" x1="171.22" y1="305.33" x2="151.14" y2="305.21"/><line class="m" x1="171.22" y1="310.97" x2="151.1" y2="311.01"/><line class="m" x1="171.43" y1="316.73" x2="151.19" y2="316.62"/><line class="m" x1="171.22" y1="322.61" x2="151.19" y2="322.61"/><line class="m" x1="171.22" y1="327.83" x2="151.19" y2="327.79"/><line class="m" x1="166" y1="322.61" x2="165.88" y2="327.82"/><line class="m" x1="155.77" y1="327.63" x2="155.8" y2="322.89"/><line class="m" x1="160.92" y1="322.61" x2="160.96" y2="316.67"/><line class="m" x1="165.94" y1="316.67" x2="165.94" y2="310.98"/><line class="m" x1="155.55" y1="316.64" x2="155.58" y2="310.98"/><line class="m" x1="160.94" y1="305.27" x2="160.94" y2="310.99"/><line class="m" x1="165.66" y1="305.51" x2="165.66" y2="300.18"/><line class="m" x1="155.56" y1="305.24" x2="155.56" y2="300.19"/><line class="l" x1="677.08" y1="496.74" x2="677.01" y2="491.34"/><line class="l" x1="679.6" y1="488.03" x2="677.01" y2="491.34"/><line class="l" x1="678.62" y1="418.81" x2="679.6" y2="488.03"/><line class="l" x1="695.45" y1="474.19" x2="625.37" y2="475.24"/><line class="l" x1="695.23" y1="418.36" x2="625.91" y2="419.26"/><line class="l" x1="695.27" y1="424.85" x2="679.12" y2="425.23"/><line class="l" x1="695.3" y1="430.68" x2="678.79" y2="431.05"/><line class="l" x1="695.33" y1="435.69" x2="678.87" y2="436.28"/><line class="l" x1="695.45" y1="441.21" x2="679.12" y2="441.65"/><line class="l" x1="695.4" y1="447.03" x2="679.02" y2="447.47"/><line class="l" x1="695.43" y1="452.11" x2="679.09" y2="452.33"/><line class="l" x1="695.47" y1="457.78" x2="679.18" y2="458.22"/><line class="l" x1="695.5" y1="463.23" x2="679.25" y2="463.52"/><line class="l" x1="695.53" y1="468.53" x2="679.33" y2="469.12"/><line class="m" x1="679.12" y1="425.23" x2="625.37" y2="425.75"/><line class="m" x1="678.79" y1="431.05" x2="662.27" y2="430.87"/><line class="m" x1="678.87" y1="436.28" x2="662.36" y2="436.42"/><line class="m" x1="679.12" y1="441.65" x2="662.36" y2="441.96"/><line class="m" x1="679.02" y1="447.47" x2="662.36" y2="447.25"/><line class="m" x1="679.09" y1="452.33" x2="662.34" y2="452.22"/><line class="m" x1="679.18" y1="458.22" x2="662.17" y2="458"/><line class="m" x1="679.25" y1="463.52" x2="662.36" y2="463.38"/><line class="m" x1="679.33" y1="469.12" x2="625.12" y2="469.71"/><line class="m" x1="666.58" y1="425.04" x2="666.58" y2="420.63"/><line class="m" x1="653.77" y1="425.48" x2="653.77" y2="420.63"/><line class="m" x1="641.31" y1="425.49" x2="641.31" y2="420.63"/><line class="m" x1="628.56" y1="425.49" x2="628.56" y2="421.04"/><line class="m" x1="672.35" y1="425.49" x2="672.35" y2="430.98"/><line class="m" x1="666.02" y1="430.96" x2="666.12" y2="436.35"/><line class="m" x1="672.35" y1="441.78" x2="672.35" y2="436.35"/><line class="m" x1="666.07" y1="447.36" x2="666.07" y2="441.78"/><line class="m" x1="672.35" y1="452.29" x2="672.35" y2="447.25"/><line class="m" x1="666.07" y1="458" x2="666.07" y2="452.22"/><line class="m" x1="672.05" y1="463.37" x2="672.03" y2="458"/><line class="m" x1="666.07" y1="469.26" x2="666.07" y2="463.37"/><line class="m" x1="660.04" y1="474.93" x2="659.94" y2="469.26"/><line class="m" x1="634.83" y1="474.71" x2="634.83" y2="469.6"/><line class="m" x1="625.3" y1="426.92" x2="662.11" y2="426.76"/><line class="m" x1="662.11" y1="468.1" x2="662.11" y2="426.76"/><line class="m" x1="625.71" y1="468.77" x2="662.11" y2="468.1"/><line class="m" x1="678.64" y1="420.63" x2="625.36" y2="421.07"/><line class="l" x1="695.2" y1="414.12" x2="695.67" y2="488.46"/><line class="l" x1="697.75" y1="491.27" x2="695.67" y2="488.46"/><line class="l" x1="697.48" y1="496.64" x2="697.75" y2="491.27"/><line class="l" x1="679.6" y1="488.03" x2="695.67" y2="488.46"/><line class="l" x1="211.46" y1="202.98" x2="221.61" y2="202.85"/><line class="l" x1="290.24" y1="201.86" x2="300" y2="202.11"/><line class="l" x1="539.39" y1="202.42" x2="529.37" y2="202.14"/><line class="l" x1="617.23" y1="202.34" x2="608.01" y2="202.12"/><ellipse class="l" cx="522.06" cy="316.51" rx="1.75" ry="1.85"/><ellipse class="l" cx="514.51" cy="316.51" rx="1.75" ry="1.85"/><line class="l" x1="135.75" y1="427.04" x2="153.3" y2="427.18"/><line class="l" x1="135.96" y1="432.77" x2="153.3" y2="432.78"/><line class="l" x1="135.75" y1="438.47" x2="153.08" y2="438.48"/><line class="l" x1="135.75" y1="443.62" x2="153.05" y2="443.54"/><line class="l" x1="135.96" y1="449.33" x2="153.24" y2="449.36"/><line class="l" x1="135.96" y1="454.27" x2="152.98" y2="454.72"/><line class="l" x1="135.98" y1="459.96" x2="153.05" y2="460.35"/><line class="l" x1="136" y1="465.24" x2="153.61" y2="465.88"/><line class="l" x1="152.98" y1="471.68" x2="135.96" y2="471.68"/><line class="l" x1="695.2" y1="414.12" x2="625.37" y2="414.12"/><rect class="k" x="225.07" y="205.4" width="62.28" height="17.1"/><rect class="k" x="303.52" y="205.4" width="80.97" height="16.12"/><rect class="k" x="387.75" y="206.79" width="54" height="13.2"/><rect class="k" x="447.26" y="205.4" width="80.13" height="16.12"/><rect class="k" x="541.98" y="205.4" width="63.06" height="14.59"/><path class="l" d="M364.47,192.37c.6-.85,.92-4.13,1.52-4.98l2.41,.48c1.15-.31,1.97-.84,2.56-1.43,.87-.88,.96-1.61,2.41-4.62,1-2.07,1.38-2.59,1.96-2.71,.86-.17,1.37,.7,2.11,.48,.54-.16,1.06-.87,1.35-2.87l-1.96,.32-2.41-2.39c-.15-.12-1.53-1.27-1.51-3.18,.02-1.64,1.06-2.95,2.26-3.5,.9-.42,2.41-.64,3.16,.16,.24,.25,.31,.5,.75,3.18,.26,1.55,.3,1.88,.6,2.07,.59,.38,1.15-.41,2.56-.32,1.07,.07,1.32,.56,1.81,.32,.71-.36,.43-1.55,1.05-2.87,.35-.73,.99-1.55,2.26-2.23,.05-.96,.1-1.91,.15-2.87-.36-.52-.81-1.32-1.05-2.39-.08-.34-.91-3.96,1.05-5.25,1.07-.7,2.6-.48,3.61,.32,1.62,1.27,1.38,3.57,1.35,3.82-.21,1.84-1.66,3.66-1.66,3.66h0c.3,.58,.6,1.17,.9,1.75,.39-.36,1.03-.83,1.81-.8,1.51,.06,2.47,1.97,3.16,3.34,1.21,2.4,1.4,4.7,1.51,6.21,.1,1.33,.05,2.43,0,3.18,.8-.21,1.61-.42,2.41-.64l.3-2.55c-.39-.35-.93-.92-1.35-1.75-1.11-2.14-.6-4.32-.3-6.37,.85-5.83-.77-5.36,.15-10.67,.62-3.59,1.57-5.04,.9-7.64-.22-.85-.56-1.64-.45-2.87,.18-2.02,1.43-3.4,1.96-3.98,1.85-2.05,4.17-2.56,5.12-2.71l1.2-1.43c-.41-.91-.89-2.21-1.2-3.82-.41-2.13-.8-4.15,.15-4.94,1-.83,3.06,.05,4.22,1.11,.91,.84,1.32,1.83,1.51,2.39,.27-.99,.64-2.41,1.05-4.14,.42-1.75,.73-3.06,.9-4.14,.27-1.67,.46-4.19-.15-7.48,.16-6.04,.36-14.2,.6-23.89,.41-16.52,.52-21.94,.45-29.46-.07-7.21-.28-13.15-.45-17.2-.07-.03-.9-.46-1.01-1.35-.11-.93,.67-1.76,1.48-1.92,.06-.01,1.08-.19,1.54,.57,.35,.57,.23,1.42-.34,1.99v3.19c5.75,3,12.35,7.3,18.78,13.55,1.71,1.66,3.27,3.32,4.7,4.97-.02,.89,.05,2.2,.47,3.69,.27,.94,1.01,3.45,3.15,5.32,2.41,2.11,5.27,2.26,6.78,2.16,.93-.06,1.88,.29,2.44,1.07,.16,.21,.29,.46,.37,.74,.59,1.9-1.3,4.04-2.82,4.97-1.37,.83-2.64,.81-4.49,.78-1.39-.02-3.82-.1-6.31-1.7-1.1-.71-1.87-1.51-2.35-2.06-3.3,2.17-5.42,1.8-6.24,1.56-1.69-.49-3.42-1.56-3.42-1.56-1.18-.73-1.51-1.16-2.35-1.28-1.21-.17-1.99,.54-3.02,.99-1.15,.51-2.91,.84-5.57,0,.07,9.74,.13,19.49,.2,29.23l1.61,.99c-.14,.41-.3,1.02-.34,1.77-.03,.82,.1,1.55,.67,3.19,.99,2.85,1.45,3.1,1.61,4.61,.11,1.05-.1,1.07,0,2.2,.17,1.91,.87,3.07,1.27,4.04,1.33,3.18,.61,7.07-.54,9.51-.45,.95-1.37,2.55-3.25,4.04l.17,4.12,1.61,1.06,1.27,6.17c.77-2.05,1.18-3.77,1.41-4.97,.4-2.12,.3-2.87,.8-5.82,.37-2.19,.57-3.31,1.07-4.47,.25-.57,1.75-4.07,3.35-4.04,1.53,.02,3.05,3.25,3.76,7.95-.41,1.21-.99,2.94-1.68,5.04,0,0-1.22,3.7-1.07,3.76,.11,.04,.49-2.06,2.15-3.55,.28-.25,2.18-1.96,3.96-1.21,.74,.32,1.18,.94,1.41,1.35,.96,.17,2.29,.24,3.69-.35,.58-.25,.86-.48,1.07-.35,.42,.25,.38,1.78-1.68,7.52,.4,.18,1.64,.78,2.28,2.2,.76,1.7,.35,3.89-1.07,5.46-.36,.9-.72,1.8-1.07,2.7,.64,.39,1.53,1.05,2.28,2.13,.94,1.36,.92,2.32,1.74,3.76,.43,.74,1.13,1.72,2.37,2.66l3.76-.61c2.05-2.74,4.1-5.48,6.15-8.22-.08,1.5-.34,3.42-1.01,5.53-1.13,3.58-2.91,6.1-4.16,7.59,.49,.1,1.76,.44,2.88,1.63,1.15,1.22,1.45,2.61,1.54,3.12,1.32,1.56,2.64,3.12,3.96,4.68,1.07-.12,2.15-.24,3.22-.35,.4,.73,.8,1.47,1.21,2.2-.49,.57-1.59,2.29-2.08,2.86"/><path class="l" d="M424.38,53.86c-.05,.08-.19,2.56,.13,3.44,.36,.98,1.32,1.17,1.38,1.18,.33,.41,.78,1.08,1.03,2,.57,2.05-.2,3.8-.43,4.28-1.5-.76-2.66-.82-3.44-.73-.96,.11-1.08,.41-1.98,.36-.97-.05-1.39-.42-2.93-.73-.51-.1-1.97-.26-2.25-.28"/><path class="l" d="M428.46,56.91c-.04,.21-.32,2.12-.24,2.49,.24,1.16,1.38,1.61,1.98,2.19,.69,.66,1.29,2.03,.77,5.19,.58,.22,1.48,.48,2.58,.55,1.58,.09,2.24-.3,3.27,0,.66,.19,2.88,1.87,3.75,3.28"/><path class="l" d="M415.9,69.25c1.9-.59,4.38-.44,5.18-.11,1.07,.45,1.7,1.22,2.84,1.18,.79-.03,1.42-.42,1.81-.73,.46,.83,.99,2,1.29,3.46,.65,3.13-.47,7.67-.9,8.86"/><path class="l" d="M430.32,84.25c.53-1.71,1.09-5.06,.91-5.91-.27-1.28-1.07-3.06-1.29-3.55-.4-.9-.69-1.4-.69-2.19,0-.86,.33-1.56,.6-2,.85,.68,2.33,1.69,4.39,2.28,2.3,.65,5.88,.25,6.97,.06"/><line class="l" x1="417.04" y1="82.79" x2="415.5" y2="82.19"/><line class="k" x1="416.9" y1="49.58" x2="415.29" y2="48.77"/><line class="l" x1="202.06" y1="501.05" x2="136.17" y2="501.05"/><line class="l" x1="155.37" y1="495.79" x2="152.98" y2="493.72"/><line class="l" x1="153.28" y1="494.44" x2="136.66" y2="494.24"/><line class="l" x1="649.7" y1="265.49" x2="649.56" y2="250.68"/><line class="l" x1="656.55" y1="265.81" x2="656.55" y2="250.68"/><line class="l" x1="674.51" y1="265.49" x2="674.36" y2="250.76"/><line class="l" x1="672.48" y1="248.46" x2="674.36" y2="250.76"/><line class="l" x1="155.72" y1="253.01" x2="157.22" y2="249.93"/><line class="l" x1="151.92" y1="249.93" x2="150.77" y2="252.97"/><line class="k" x1="221.61" y1="202.85" x2="290.24" y2="203.39"/><line class="k" x1="300.09" y1="203.28" x2="529.37" y2="202.14"/><line class="k" x1="539.39" y1="202.42" x2="608.01" y2="202.12"/><line class="k" x1="327.77" y1="332.63" x2="370.19" y2="332.63"/><line class="k" x1="393.37" y1="332.63" x2="438.32" y2="332.63"/><line class="k" x1="503.13" y1="331.81" x2="459.8" y2="332"/><line class="k" x1="502.32" y1="334.22" x2="459.81" y2="334.03"/><line class="k" x1="436.9" y1="334.54" x2="394.06" y2="335"/><line class="k" x1="370.18" y1="334.76" x2="328.81" y2="335.08"/><line class="k" x1="502.32" y1="334.22" x2="503.13" y2="331.81"/><line class="k" x1="436.69" y1="334.83" x2="438.52" y2="332.36"/><line class="k" x1="394.3" y1="335.36" x2="393.37" y2="332.24"/><line class="k" x1="328.81" y1="335.08" x2="327.77" y2="332.63"/></g><g id="c"><path class="e" d="M163.01,521.75c5.03,.03,10.05,.24,15.07-.22,6.96-.64,13.42-2.54,20.25-3.47l-8.37,1.13c5.73-.35,11.49,.04,17.23-.12,7.67-.21,15.22-1.42,22.81-2.5l-8.37,1.13c5.48-.72,10.89-1.12,16.39-.38l-8.37-1.13c5.29,.98,10.25,3.11,15.58,4.01,7.92,1.34,15.85,1.52,23.79,2.5l-8.37-1.13c3.04,.46,6,1.04,8.9,2.08l-7.52-3.18c6.32,2.91,12.68,5.64,19.15,8.21l-7.52-3.18c5.32,2.42,10.73,4.45,16.18,6.44l-13.9-8.1,.61,.48c6.83,5.39,13.2,9.23,22.27,9.23,7.73,0,16.95-3.43,22.27-9.23,5.51-6,9.6-13.88,9.23-22.27-.35-7.77-2.82-17.23-9.23-22.27-5.33-4.2-8.26-6.84-14.96-8.75-1.09-.31-2.21-.53-3.31-.85l7.52,3.18c-5.99-2.56-11.92-5.21-18-7.55l7.52,3.18c-7.06-3.18-13.79-6.79-21.53-8.03s-15.89-1.54-23.86-2.5l8.37,1.13c-3.46-.55-6.79-1.4-10.13-2.45-5.6-1.76-11.19-2.59-17.1-3.11-9.1-.8-18.42,1.28-27.37,2.52l8.37-1.13c-6.6,.74-13.23,.78-19.87,.68-8.65-.14-16.75,1.75-25.15,3.32l8.37-1.13c-5.63,.76-11.27,.51-16.93,.47-16.48-.11-32.26,14.57-31.5,31.5s13.84,31.38,31.5,31.5h0Z"/><path class="e" d="M259.73,448.91c-3.06-.03-6.06-.24-9.09-.61l8.37,1.13c-10.35-1.5-20.33-4.65-30.44-7.25-12.34-3.18-24.63-5.21-37.32-6.62l8.37,1.13c-5.11-.83-9.95-2.5-14.92-3.9-7.07-1.99-14.22-2.57-21.52-2.69l8.37,1.13c-1.5-.22-2.54-.48-3.94-1.02l7.52,3.18c-.8-.34-1.54-.78-2.22-1.33l6.38,4.93-.84-.88,4.93,6.38-.52-1.03,3.18,7.52-.24-1.32,1.13,8.37c-.14-3.7,.41-7.36,.42-11.05,.01-6.19-1.52-12.78-4.67-18.16-3.51-6-7.63-8.81-13.09-12.9l11.3,11.3c-2.68-3.63-5.4-7.13-8.56-10.32l4.93,6.38-.51-.86,3.18,7.52-.18-1.08-30.37,39.87,1.23-.1-8.37-1.13,1.23,.32-7.52-3.18c7.45,3.3,14.52,5.33,22.19,7.7,5.2,1.61,10.75,1.94,15.88,3.64l-7.52-3.18c5.64,2.6,11.13,5.37,17.07,7.29l-7.52-3.18c7.15,3.05,13.96,5.44,21.28,7.77,5.52,1.75,11.33,2.25,16.77,4.28l-7.52-3.18c3.85,1.73,7.49,3.89,10.99,6.25,5.02,3.38,10.6,5.43,16.2,7.71l-7.52-3.18c4.14,1.75,7.92,4.21,12.02,6.07,6.39,2.89,12.84,5.63,19.37,8.19l-7.52-3.18c4.98,2.25,9.65,5.12,14.61,7.42,7.27,3.39,14.82,5.96,22.21,9.04l-7.52-3.18c8.59,3.68,17.13,7.43,25.78,10.99l-7.52-3.18c4.26,1.92,8.29,4.3,12.55,6.23,6.04,2.73,12.24,4.81,18.34,7.35l-7.52-3.18c5.38,2.42,10.57,4.79,16.31,6.08s12.04,1.87,18.06,2.61l-8.37-1.13c6.53,.93,12.74,2.59,19.36,3.46l-8.37-1.13c2.86,.51,5.49,1.21,8.19,2.27l-7.52-3.18c9.04,3.83,16.85,7.8,26.93,7.73,16.47-.13,32.27-14.4,31.5-31.5-.76-16.96-13.84-31.64-31.5-31.5h-1.57l8.37,1.14c-2.76-.53-5.24-1.66-7.81-2.74l7.52,3.18c-4.39-1.86-8.76-4.1-13.39-5.33s-9.28-1.54-13.9-2.15l8.37,1.13c-7.7-1.52-15.29-2.9-23.14-3.92l8.37,1.13c-4.01-.63-7.97-1.52-11.72-3.09l7.52,3.18c-6.01-2.7-12.1-4.86-18.19-7.31l7.52,3.18c-9.54-4.1-18.67-8.85-28.33-12.74l7.52,3.18c-10.18-4.45-20.38-8.71-30.69-12.83l7.52,3.18c-10.13-4.35-19.64-9.66-29.91-13.79l7.52,3.18c-9.97-4.24-19.38-9.39-29.41-13.54l7.52,3.18c-3.82-1.71-7.11-4.31-10.72-6.41-5.37-3.13-11.11-5.85-17.08-7.56-8.11-2.31-16.62-3.24-24.46-6.51l7.52,3.18c-4.69-2.22-9.53-3.98-14.37-5.79l7.52,3.18c-4.65-2.26-9.32-5.13-14.36-6.37-2.64-.65-5.43-.92-8.1-1.44-6.19-1.19-12.73-3.19-18.69-5.22l7.52,3.18c-6.75-3.06-13.01-6.21-20.72-5.58-10.23,.84-18.37,4.17-24.74,12.41-6.53,8.45-7.37,17.17-5.64,27.46,1.17,6.97,5.99,13.25,11.06,17.93l-4.93-6.38c1.25,1.7,2.54,3.37,3.83,5.05,2.83,3.66,6.12,6.08,9.81,8.84l-6.38-4.93,.82,.87-8.1-13.9,.28,1.02-1.13-8.37c.22,3.08-.25,6.2-.33,9.29-.24,8.99,2.02,17.33,7.52,24.45,5.15,6.67,12.32,11.8,20.59,13.96,6.01,1.57,12.03,1.24,18.11,1.79l-8.37-1.13c5.08,.98,9.93,2.7,14.92,4.04,7.13,1.91,14.53,2.3,21.82,3.26l-8.37-1.13c23.45,3.52,45.6,13.45,69.58,13.67,16.48,.15,32.26-14.6,31.5-31.5s-13.84-31.34-31.5-31.5h0Z"/><path class="e" d="M707.06,475.62c-3.37,1.17-6.99,2.5-10.04,4.36l7.52-3.18c-6.94,2.46-13.7,5.17-20.47,8.12l7.52-3.18c-6.25,2.21-12.75,4.05-19.24,5.35l8.37-1.13c-4.66,.48-9.57,.47-13.98,2.14l8.37-1.13c-6.66,.53-13.2,1.02-19.88,2.03l8.37-1.13c-4.87,.63-9.81,.97-14.62,2.01l8.37-1.13c-5.79,.57-11.51,1.06-17.29,1.96l8.37-1.13c-5.21-.01-10.19,.74-15.37,1.44l8.37-1.13c-8.15,.56-14.09,1.69-21.42,5.14-4.55,2.14-8.39,5.36-12.2,8.63l13.9-8.1c-3.28,1.25-6.85,1.82-10.17,2.98-5.81,2.03-11.52,4.65-17.16,7.06l7.52-3.18c-6.15,2.05-11.73,3.58-17.73,6.5-14.86,7.22-20.03,29.55-11.3,43.1,9.82,15.24,27.21,19.03,43.1,11.3l1.37-.67-7.52,3.18c5.99-2.33,11.94-3.94,17.95-6.51l-7.52,3.18c4.28-1.74,8.5-3.37,12.93-4.65,1.77-.51,3.54-1.01,5.29-1.54,6.57-2.02,11.02-5.71,16.12-9.99l-6.38,4.93c1.19-.67,2.35-1.27,3.6-1.82l-7.52,3.18c.85-.34,1.73-.54,2.64-.63l-8.37,1.13c4.25-.33,8.46-.96,12.69-1.53l-8.37,1.13c5.93-.55,11.77-.97,17.68-1.96l-8.37,1.13c5.56-.06,10.92-.95,16.42-1.76l-8.37,1.13c5.06-.44,10.09-1.23,15.1-1.99l-8.37,1.13c6.22-.82,12.43-.07,18.49-2.25l-8.37,1.13c15.4-.9,29.23-5.83,43.24-11.93l-7.52,3.18c5.77-2.34,11.78-3.56,17.2-6.86l-7.52,3.18,1.31-.45c7.8-2.7,14.56-7.19,18.83-14.48,3.95-6.75,5.63-16.7,3.18-24.27-4.98-15.39-22.07-27.76-38.75-22h0Z"/><path class="e" d="M439.53,500.72c-1.56,.05-2.96,.06-4.51-.13l8.37,1.13-1.38-.49,7.52,3.18c-4.48-2.27-8.99-4.39-13.89-5.48-2.92-.65-5.88-1.18-8.79-1.89-5.57-1.35-11.74-2.53-17.04-4.69l7.52,3.18c-8.14-4.97-15.65-6.54-25.03-7.44l8.37,1.13c-6.77-1.21-13.45-3.61-20.1-5.36-6.52-1.71-13.07-3.43-19.31-6.02l7.52,3.18c-6.14-2.65-12.22-5.44-18.48-7.8l7.52,3.18-1.52-.87,6.38,4.93c-5.08-5.04-11.03-8.08-17.81-10.02l7.52,3.18c-3.98-1.9-8.08-3.53-12.16-5.21l7.52,3.18c-6.36-2.86-12.52-6.09-19.15-8.33l7.52,3.18c-3.47-1.49-6.46-3.84-9.96-5.38-5.3-2.33-10.84-5.17-16.47-6.79-6.59-1.9-13.24-3.96-19.6-6.61l7.52,3.18c-4.12-1.86-7.9-4.82-11.88-7.03-6.36-3.53-13.15-5.8-19.94-8.25l7.52,3.18c-9.58-4.06-17.4-6.84-27.89-7.5-16.48-1.03-32.23,15.22-31.5,31.5,.8,17.94,13.85,30.4,31.5,31.5l1.84,.11-8.37-1.13c2.94,.52,5.78,1.39,8.58,2.42l-7.52-3.18c5.26,2.23,10.52,4.06,15.84,6.06l-7.52-3.18c4.2,1.91,8.33,4.17,12.23,6.65,4.99,3.17,10.15,5.57,15.78,7.57,7.71,2.73,15.64,4.91,23.17,8.03l-7.52-3.18c2.99,1.26,5.89,2.53,8.61,4.3,4.48,2.92,9.66,4.57,14.63,6.49l-7.52-3.18c5.81,2.75,11.58,5.37,17.55,7.83l-7.52-3.18c4.3,1.85,8.5,3.99,13.03,5.22l-13.9-8.1c2.75,2.28,5.36,4.75,8.46,6.56,3.6,2.1,7.67,3.36,11.55,4.86l-7.52-3.18c20.95,9.43,43.24,16.55,66.07,19.38l-8.37-1.13c.97,.19,1.92,.45,2.85,.8l-7.52-3.18c4.39,2.38,8.78,4.78,13.62,6.21,2.79,.82,5.68,1.29,8.48,2.08,5.97,1.69,12.33,2.41,18.18,4.4l-7.52-3.18c7.87,4.12,15.49,6.55,24.43,6.28,16.46-.48,32.28-14.14,31.5-31.5s-13.86-32.02-31.5-31.5h0Z"/><path class="e" d="M128.93,479.96c16.48,0,32.26-14.49,31.5-31.5s-13.84-31.5-31.5-31.5c-16.48,0-32.26,14.49-31.5,31.5s13.84,31.5,31.5,31.5h0Z"/><path class="e" d="M161.44,402.85l-1.26-.29,7.52,3.18c-4.15-2.57-8.71-3.86-13.19-5.59l7.52,3.18c-.93-.72-1.91-1.3-2.85-2.02l11.3,11.3c-6.34-11.88-17.88-16.1-30.41-16.79l8.37,1.13c-1.6-.41-3.19-.95-4.83-1.2l-8.37,61.87,.58,.07-8.37-1.13c1.92,.35,3.86,.72,5.74,1.25l-7.52-3.18c4.75,2.01,9.39,3.81,14.28,5.38,4.47,1.43,9.03,1.89,13.69,2.5l-8.37-1.13c2.92,.97,6.87,1.27,9.93,1.43l-8.37-1.13c8.02,1.61,16.43,3.87,23.97,7.04l-7.52-3.18c3.43,1.51,6.82,3.02,10.39,4.14l-7.52-3.18,.74,.53c6.27,4.51,17.13,5.14,24.27,3.18s15.23-7.66,18.83-14.48c3.86-7.31,5.8-16.17,3.18-24.27s-7.48-13.79-14.48-18.83c-2.95-2.13-6.55-3.36-10.08-4.21l7.52,3.18c-12.89-5.7-27.44-11.06-41.66-11.84l8.37,1.13c-3.58-1.18-7.45-1.18-11.19-1.65l8.37,1.13c-2.97-.92-6.05-1.77-8.96-2.85l7.52,3.18c-8.74-3.7-13.92-5.01-23.33-6.09-7.18-.82-17.52,4.05-22.27,9.23-4.78,5.2-7.72,11.06-8.66,18.09s-.04,14.22,3.74,20.09c4.13,6.41,10.92,13.3,18.83,14.48,5.06,.75,9.83,2.54,15.1,2.34l-8.37-1.13,.86,.31-18.83-14.48c4.64,8.7,15.9,16.67,25.81,18.45l-7.52-3.18c3.19,2.33,6.91,3.91,10.77,4.79,16.03,3.65,34.85-4.9,38.75-22,3.65-16.02-4.82-34.84-22-38.75h0Z"/><path class="e" d="M194.08,475.1l.97,.12-15.9-4.3,.91,.42-6.38-4.93c8.37,7.56,20.76,13.45,32.22,12.82,24.57-1.36,38.28-25.52,27.2-47.4-5.93-11.7-17.67-15.41-29.58-16.79v63l.97,.05-8.37-1.13c.81,.1,1.61,.25,2.4,.45,13.23,2.88,28.86-1.77,35.57-14.48s5.31-28.04-4.93-38.17c-5.27-5.22-10.46-6.71-17.2-9.55l7.52,3.18c-.26-.11-.77-.27-1.03-.46l-24.27,57.57c5.04,1.54,9.87,3.1,15.07,4.1l-7.52-3.18c3.05,1.31,6.7,3.19,9.4,5.16,6.22,4.53,17.17,5.13,24.27,3.18s15.23-7.66,18.83-14.48c3.86-7.31,5.8-16.17,3.18-24.27s-7.5-13.74-14.48-18.83c-9.35-6.81-21.1-9.11-31.99-12.43-15.05-4.59-31.26,4.26-37.16,18.24-2.64,6.26-3.74,13.86-1.59,20.51,2.68,8.27,7.53,13.68,14.48,18.83,2.75,2.03,6.91,2.94,10.09,4.28l-7.52-3.18c.58,.24,1.15,.49,1.72,.75l-6.38-4.93,.05,.05,30.65-52.65c-3.86-.84-7.8-1.43-11.74-1.63-16.48-.82-32.24,15.08-31.5,31.5,.36,8.15,3.04,16.6,9.23,22.27,6.55,6.01,13.5,8.2,22.27,9.23l.62,.07-8.37-1.13,.81,.23-7.52-3.18,.69,.38-11.3-11.3,.26,.51,27.2-47.4-1.51,.08,8.37,1.13c-1.08-.16-2.12-.47-3.12-.92l7.52,3.18c-1.59-.67-3.39-1.23-4.78-2.26l6.38,4.93c-7.49-6.77-14.65-9-24.69-10.27-7.42-.94-17.24,4.2-22.27,9.23-5.46,5.46-9.58,14.43-9.23,22.27s3.04,16.6,9.23,22.27c6.58,6.04,13.49,8.12,22.27,9.23h0Z"/><path class="e" d="M226.84,486.56l.84,.59-11.3-11.3c4.05,6.19,7.75,9.6,13.67,13.78l-6.38-4.93c6.73,5.53,12.14,9.59,21.16,10.8,3.18,.43,6.04,.22,9.13,.56l-8.37-1.13c.67,.18,1.32,.41,1.96,.68l-7.52-3.18c5.9,4.43,13.29,5.79,20.53,5.72l-22.27-9.23c4.21,4.77,10.24,8.88,16.6,10.14l-7.52-3.18c8.46,4.57,17.05,5.68,26.32,3.42l-30.65-8.1c9.87,8.61,20.24,12.6,33.34,9.03l-8.37,1.13c9.52-.09,17.25-3.97,24.07-10.29l-6.38,4.93,.63-.47-15.9,4.3,.54-.05-15.9-4.3c4.15,2.27,8.55,4.05,12.95,5.76l-7.52-3.18c6.1,2.62,12.19,4.59,18.34,6.92l-7.52-3.18,1.02,.67-6.38-4.93c5.87,4.71,11.33,8.37,18.68,10.42l-7.52-3.18c6.79,3.63,13.79,6.75,21.68,6.75l-8.37-1.13,1.67,.46-7.52-3.18,.63,.47-11.3-11.3c2.45,3.87,4.43,7.4,7.79,10.93l-4.93-6.38c1.97,3.3,4.15,6.47,6.77,9.32,7.31,7.98,20.37,11.3,30.65,8.1,7.89-2.45,15.18-7.52,19.32-14.83,.58-1.02,1.03-2.14,1.71-3.1l-18.83,14.48,.32-.11-24.27-3.18c.85,.48,1.68,.89,2.57,1.28l-6.38-4.93c2.26,1.84,4.91,4.37,7.52,5.67,14.72,7.35,34.8,4.41,43.1-11.3,7.54-14.27,4.44-35.24-11.3-43.1l-.6-.3,6.38,4.93c-9.43-7.68-21.24-13.85-33.92-9.77-7.91,2.55-14.87,7.58-19.17,14.79-.6,1.01-1.03,2.13-1.71,3.09l18.83-14.48-.32,.1,30.65,8.1-.42-.46,4.93,6.38c-2.06-3.5-4.36-7.12-7.37-9.86l4.93,6.38c-2.73-4.75-5.41-8.89-9.95-12.4-6.59-5.09-13.96-7.69-22.41-7.68l15.9,4.3c-4.97-2.36-9.87-4.63-15.07-6.52l7.52,3.18-1.04-.66,6.38,4.93c-5.86-4.7-11.15-8.03-18.33-10.47-2.31-.78-4.69-1.29-6.95-2.21l7.52,3.18c-3.44-1.48-6.88-2.98-10.37-4.34l7.52,3.18c-6.6-2.98-12.48-6.64-20.17-6.31-9.53,.42-16.95,3.96-23.83,10.33l6.38-4.93-.62,.45,15.9-4.3c-3.43,.03-6.88,.47-10.14,1.49l30.65,8.1c-9.57-8.63-19.92-12.37-32.91-9.2l8.37-1.13-.54-.06,15.9,4.3c-3.02-1.63-6.25-2.77-9.46-3.89l13.9,8.1c-6.71-8.07-16.39-10.82-26.51-10.93l15.9,4.3c-4.6-3.55-9.94-5.08-15.53-5.83-3.12-.42-6.1-.17-9.13-.56l15.9,4.3c-.76-.32-1.46-.76-2.07-1.32l6.38,4.93c-2.71-2.22-5.49-4.42-8.35-6.44l6.38,4.93-.74-.8,4.93,6.38c-3.8-5.8-7.14-8.91-12.78-12.87-6.37-4.47-17.03-5.17-24.27-3.18s-15.23,7.66-18.83,14.48c-3.86,7.31-5.8,16.17-3.18,24.27s7.44,13.89,14.48,18.83h0Z"/><path class="e" d="M338.7,533.57l1.02,.31-13.9-8.1c5.62,4.38,9.22,6.66,15.9,9.25,1.39,.54,2.82,.91,4.21,1.41l-7.52-3.18c4.39,2.43,9.25,4.09,14.05,5.56l-7.52-3.18c3.85,1.72,7.51,3.94,11.69,4.83l-7.52-3.18c1,.44,1.95,.94,2.94,1.4l-6.38-4.93c5.9,4.73,11.59,8.92,19.16,10.23,5.45,.94,10.95,1.53,16.44,2.24l-8.37-1.13c2.04,.28,4.07,.57,6.08,1.03l-7.52-57.57-.26,.12,7.52-3.18c-3.67,1.4-7.24,2.78-10.85,4.45-6.77,3.13-12.57,11.92-14.48,18.83-2.08,7.54-1.14,17.58,3.18,24.27,4.34,6.73,10.79,12.65,18.83,14.48,8.71,1.98,16.19,.55,24.27-3.18l.26-.12-7.52,3.18c3.67-1.4,7.24-2.78,10.85-4.45,4.4-2.03,8.9-7.2,11.3-11.3,3.58-6.13,4.67-13.14,3.74-20.09-1.59-11.81-10.42-23.43-22.56-26.19-6.49-1.47-13.2-1.97-19.8-2.84l8.37,1.13c-2.18-.31-4.49-.56-6.55-1.36l13.9,8.1c-5.83-5.03-12.01-9.37-19.74-11.01l7.52,3.18c-4.66-2.6-9.73-4.33-14.78-6l7.52,3.18c-4.91-2.13-9.9-3.92-14.82-5.96l13.9,8.1c-5.48-4.27-9.01-7.04-15.8-9.1-15.77-4.78-35.04,5.71-38.75,22s5.12,33.63,22,38.75h0Z"/><path class="e" d="M391.55,527.68c.55,8.57,1.99,15.56,7.4,22.56,5.97,7.72,15.39,13.5,25.54,13.05,11.55-.52,21.47-5.89,27.62-15.79,3.89-6.27,4.82-12.77,5.39-20.04l-39.87,30.37c.76,.14,1.52,.27,2.29,.36l-7.52-3.18c10.11,5.02,19.57,7.38,30.45,2.79,6.97-2.94,12.42-7.71,16.22-14.37l-18.83,14.48,.4-.15-30.65-8.1c5.98,6.54,15.2,11.11,24.21,10.79,7.15-.25,12.79-2.61,19.17-5.59l-7.52,3.18,.83-.17h-16.75c5.5,1.09,9.79,2.57,15.81,2.84l-8.37-1.13c6.15,2.34,12.34,1.3,18.53,.07l-8.37,1.13c3.75-.13,7.55-.84,11.25-1.43l-8.37,1.13,.94,.12-8.37-1.13c4.05,.6,7.97,1.17,12.03,1.28l-22.27-9.23,.16,.17-8.1-13.9c.42,1.25,.54,2.57,.84,3.85,1.35,5.77,4.55,10.97,8.57,15.27,5.18,5.53,14.68,9.57,22.27,9.23,8.82-.39,15.46-3.67,22.27-9.23,2.34-1.91,4.23-5.19,6.05-7.6l-4.93,6.38,.61-.77-6.38,4.93,.53-.34-15.9,4.3c1.27-.01,2.55-.04,3.82,0l-8.37-1.13c6.45,1.59,13.22,2.54,19.74,.53s11.12-5.46,16.07-9.58l-13.9,8.1,.92-.35h-16.75l.83,.25-13.9-8.1c6.39,5.52,11.56,9.17,20.23,10.34,3.64,.49,6.84,.33,10.41,.56l-15.9-4.3c.33,.24,.66,.48,.99,.71,8.31,5.82,23.52,6.1,31.8,0,5.33-3.93,8.96-6.58,12.27-12.48l-11.3,11.3,.5-.33-24.27,3.18c6.25,1.76,13.01,2.05,19.48,2.16l-8.37-1.13c4.88,.74,9.64,.95,14.45,1.43l-8.37-1.13c3.67,1.02,7.53,1.64,11.33,1.55l-8.37-1.13c3.5,.95,7.35,1.17,10.96,1.57l-8.37-1.13c3.38,.75,7.03,1.19,10.48,1.43,16.47,1.15,32.23-15.31,31.5-31.5-.81-18.05-13.85-30.27-31.5-31.5l-1.06-.07,8.37,1.13c-3.59-.8-7.37-1.13-11.03-1.54l8.37,1.13c-3.15-.85-7.14-1.44-10.4-1.36l8.37,1.13c-4.91-.96-9.69-1.57-14.65-1.62l8.37,1.13c-6.07-.92-11.75-1.27-17.77-1.71l8.37,1.13c-6.79-1.06-13.24-2.96-20.18-.72-8.3,2.69-15.43,7.87-19.77,15.6l11.3-11.3-.52,.39h31.8c-7.23-5.07-15.09-4.17-23.12-5.01l15.9,4.3-.79-.43,6.38,4.93c-6.36-6.19-15.23-11.13-24.46-10.71-5.62,.25-12.03,1.56-16.82,4.65-2.85,1.84-5.42,4.23-8.1,6.31l13.9-8.1-.89,.18h16.75c-4.83-1.18-9.77-1.93-14.74-1.75-6.03,.23-11.24,1.76-16.43,4.64-5.89,3.27-8.54,7.63-12.51,12.86l4.93-6.38-.52,.43h44.55l-.15-.16,8.1,13.9c-1.55-4.76-1.33-7.43-4.34-12.58-6.41-10.95-17.77-15.67-30.08-15.78l8.37,1.13c-8.04-1.2-12.38-1.25-20.28,0l8.37-1.13c-3.51,.12-7.2,.69-10.65,1.38h16.75c-2.83-1.07-7.02-1.31-10.04-1.44l8.37,1.13c-3.64-.74-6.94-1.73-10.68-2.23-8.35-1.12-15.46,1.08-22.85,4.86l7.52-3.18-.94,.35,8.37-1.13-.8-.02,22.27,9.23c-.55-.48-1.07-1-1.54-1.56-6.97-7.63-20.74-11.83-30.65-8.1-8.48,3.19-15.38,7.89-19.95,15.9l11.3-11.3-.43,.21h31.8c-3.92-1.96-7.91-3.99-12.23-4.74-10.26-1.8-19.05-.86-27.46,5.64s-11.62,14.52-12.41,24.74l-.12,1.54,1.13-8.37c-.08,.72-.27,1.41-.57,2.07l3.18-7.52-.39,.53,11.3-11.3-.42,.19,24.27-3.18-.42-.15,13.9,8.1-.38-.48,8.1,13.9c-.3-.63-.48-1.29-.54-1.98l1.13,8.37-.1-1.5c-.54-8.39-3.15-16.2-9.23-22.27-5.46-5.46-14.43-9.58-22.27-9.23-16.17,.72-32.62,13.89-31.5,31.5h0Z"/><path class="e" d="M606.84,497.58c-9.56,.19-16.51,3.6-23.61,9.58l13.9-8.1c-.96,.33-1.9,.56-2.89,.77l8.37-1.13c-5.02,.26-9.96,.47-14.91,1.77l8.37-1.13c-3.53,.02-7.26,.65-10.73,1.31l8.37-1.13c-4.16,.43-7.77,.94-11.63,2.04l8.37-1.13c-4.61,.31-8.31,.17-13.23,1.28-16.09,3.63-27.07,23.08-22,38.75,5.46,16.86,21.51,25.89,38.75,22l.59-.13-8.37,1.13c5.09,.05,10.43,0,15.18-1.99l-8.37,1.13c3.33-.34,6.75-.75,10.03-1.38l-8.37,1.13c3.96-.02,7.89-.64,11.72-1.64l-8.37,1.13c4.28,0,8.86-.35,12.98-1.26,6.61-1.47,12.02-4.86,17.19-9.21l-22.27,9.23,.93-.02c16.46-.33,32.27-14.25,31.5-31.5s-13.85-31.85-31.5-31.5h0Z"/><path class="e" d="M576.43,502.75c-4.27,0-8.5,.73-12.66,1.64l8.37-1.13c-4.64,.02-9.5,.65-14,1.69l8.37-1.13c-5.39,.44-10.34,.56-15.84,1.54l8.37-1.13c-3.77,.44-7.54,.97-11.3,1.51l8.37-1.13-1.63,.15c-8.51,.77-16.05,3-22.27,9.23-5.46,5.46-9.58,14.43-9.23,22.27s3.04,16.6,9.23,22.27c5.84,5.36,14.05,9.97,22.27,9.23,3.89-.35,7.76-.95,11.63-1.5l-8.37,1.13c3.66-.43,7.35-.86,10.97-1.51l-8.37,1.13c5.42-.6,10.77-.79,16.23-1.63l-8.37,1.13c4.99-.41,9.93-.98,14.87-1.88l-8.37,1.13h1.73c16.48,.01,32.26-14.5,31.5-31.5-.76-17.08-13.84-31.49-31.5-31.5h0Z"/><path class="e" d="M619.83,557.43h.08l-15.9-4.29,.07,.03-6.38-4.93,.06,.06v-44.55l-.06,.05,6.38-4.93-.07,.04,7.52-3.18c-.33,.14-.71,.16-1.05,.24-2.73,.62-6.97,2.68-7.97,3.29-1.23,.75-1.21,.91-3.34,2.55-4.54,3.51-4.04,2.78-8.22,8.97-2.3,3.62-3.55,7.52-3.74,11.71-.94,4.19-.75,8.37,.56,12.56,.97,4.1,2.85,7.67,5.64,10.71,2.22,3.43,5.17,6.13,8.84,8.11l7.52,3.18c5.58,1.5,11.17,1.5,16.75,0l7.52-3.18c4.73-2.8,8.5-6.57,11.3-11.3l.05-.07-4.93,6.38,.06-.06-6.38,4.93s.1-.07,.15-.09l-7.52,3.18c.28-.11,.6-.17,.89-.21,.16-.03,.32-.05,.47-.09,.04-.01,.08-.03,.12-.05l7.52-3.18c2.42-1.28,4.37-3.3,6.51-5.01,3.07-2.85,5.24-6.23,6.51-10.14,1.97-3.75,2.88-7.8,2.71-12.14l-1.13-8.37c-1.5-5.34-4.2-9.97-8.1-13.9-1.01-.93-2.09-1.76-3.25-2.52-.91-1.13-2-1.96-3.26-2.49l-7.52-3.18c-2.8-.55-5.62-.93-8.46-1.13-4.34-.16-8.38,.74-12.14,2.71-3.91,1.27-7.28,3.44-10.14,6.51-3.07,2.85-5.24,6.23-6.51,10.14-1.97,3.75-2.88,7.8-2.71,12.14l1.13,8.37c1.5,5.34,4.2,9.97,8.1,13.9l6.38,4.93c4.91,2.85,10.21,4.28,15.9,4.3h0Z"/><path class="e" d="M724.15,482.59c-2.05-1.86-4.24-3.56-6.56-5.1-3.62-2.3-7.52-3.55-11.71-3.74-5.93-.8-5.52-.68-13.04,.61l8.37-1.13c-3.74,.25-8.43,.63-12.2,2.04-1.53,.57-3,1.23-4.51,1.87-2.06,.87-2.91,1.06-4.34,1.94-2.71,1.68-5.19,3.78-7.7,5.76-3.07,2.85-5.24,6.23-6.51,10.14-1.97,3.75-2.88,7.8-2.71,12.14-.16,4.34,.74,8.38,2.71,12.14,1.27,3.91,3.44,7.28,6.51,10.14l6.38,4.93c4.91,2.85,10.21,4.28,15.9,4.3l8.37-1.13c5.34-1.5,9.97-4.2,13.9-8.1l.32-.25-6.38,4.93c.55-.28,1.04-.65,1.58-.94l-7.52,3.18c1.37-.53,2.69-.97,4.14-1.18l-8.37,1.13c2.88-.19,6.22-.71,9.06-1.2l-8.37,1.13h.23l-22.27-9.23,.19,.17c2.85,3.07,6.23,5.24,10.14,6.51,3.75,1.97,7.8,2.88,12.14,2.71,4.34,.16,8.38-.74,12.14-2.71,3.91-1.27,7.28-3.44,10.14-6.51l4.93-6.38c2.85-4.91,4.28-10.21,4.3-15.9l-1.13-8.37c-1.5-5.34-4.2-9.97-8.1-13.9h0Z"/><path class="e" d="M140.24,387.44c-.22,0-.44,0-.66,0-.2,0-.41,.02-.61,0-.17-.01,.09,.03-.03,0-.04-.01-.09-.02-.13-.03-.1-.03-.2-.06-.29-.09-.03,0-.28-.07-.28-.09,.08,.03,.1,.04,.05,.02l-.06-.03s-.1-.05-.15-.07c-.16-.07-.31-.11-.48-.06-.14,.04-.3,.15-.37,.29-.15,.28-.09,.71,.22,.86,.45,.21,.92,.4,1.42,.46,.22,.02,.44,.01,.66,0,.24,0,.47,0,.71,0,.33,0,.64-.29,.62-.62s-.27-.62-.62-.62h0Z"/></g><g id="d"><path class="j" d="M40.04,444.67c-6.7-12.91-1.34-30.54,8.25-40.62,7.31-7.67,17.5-11.74,27.76-13.56,24.58-4.35,50.64,1.58,74.39,7.78,11.75,3.07,23.38,6.58,35.01,10.08s24.31,6.75,36.34,10.54c17.36,5.48,34.07,12.72,51.35,18.41,8.82,2.91,17.63,5.71,26.14,9.46,8.06,3.56,15.88,7.64,23.8,11.51,15.52,7.59,31.28,15.12,47.53,21.01,16.87,6.12,34.64,8.78,51.77,13.97,13.27,4.02,26.54,5.43,40.34,6.46,17.94,1.34,35.69,5.02,53.67,5.8,8.82,.38,17.66-.08,26.48-.24,8.91-.17,17.83-.11,26.72-.8,18.15-1.41,35.67-6.77,53.3-10.93,17.72-4.18,36.09-7.01,53.43-12.58,15.51-4.99,30.85-10.78,45.38-18.13,13.03-6.6,25.94-14.42,36.68-24.43,8.36-7.8,15.04-17.75,22.1-26.69,7.91-10.02,12.85-21.89,15.7-34.23,1.04-4.48,.21-9.1-.43-13.59-.84-5.92-1.89-12.08-5.16-17.21-1.91-3-4.65-4.94-7.09-7.43-.56-.57-1.45,.31-.88,.88,2.91,2.95,5.99,5.17,7.94,8.99,3.16,6.18,3.99,13.63,4.67,20.45,.52,5.28-.85,9.59-2.13,14.68-1.94,7.73-5.84,14.72-9.94,21.5-3.21,5.32-7.55,10-11.21,15.01-2.71,3.7-5.85,7.18-8.78,10.71-5.1,6.15-11.34,11.09-17.84,15.69s-12.84,8.74-19.81,12.34c-7.22,3.72-14.39,7.52-22.01,10.36s-15.65,5.81-23.53,8.55c-17.36,6.05-35.89,8.91-53.78,13.07-18.26,4.24-36.44,9.99-55.18,11.63-8.88,.78-17.81,.75-26.71,.89s-17.66,.62-26.49,.32c-17.86-.6-35.5-4.31-53.3-5.72-7.64-.61-15.3-1.02-22.88-2.16-6.99-1.05-13.54-2.82-20.3-4.81-16.94-4.98-34.43-7.71-51.06-13.8-17.2-6.3-33.91-14.35-50.31-22.49-7.48-3.71-14.92-7.5-22.6-10.77s-16.32-5.97-24.57-8.71c-17.04-5.64-33.52-12.78-50.66-18.18-12.17-3.84-24.55-6.99-36.77-10.67-11.49-3.46-22.98-6.92-34.59-9.96-22.98-6-47.75-11.49-71.61-8.31-9.79,1.3-19.53,4.37-27.4,10.5-9.01,7.02-14.62,18.08-15.73,29.39-.56,5.76,.24,11.49,2.92,16.65,.37,.71,1.45,.08,1.08-.63h0Z"/></g></svg>