<?xml version="1.0" encoding="UTF-8"?><svg xmlns="http://www.w3.org/2000/svg" viewBox="0 0 576.3 482.01"><defs><style>.c{stroke-width:1.5px;}.c,.d,.e,.f,.g,.h,.i{stroke-miterlimit:10;}.c,.e,.f,.i{fill:none;}.c,.e,.g{stroke:#1d1d1b;}.j{fill:#a0ced8;}.k{fill:#b4d3b4;}.l{fill:#a7a0cf;}.m{fill:#d8a0c8;}.n{fill:#afd4a1;}.o{fill:#e0c5a0;}.p,.d,.g,.h{fill:#1d1d1b;}.d{stroke-width:.5px;}.d,.f,.h,.i{stroke:#000;}.e,.f,.g,.h{stroke-width:.75px;}.i{stroke-width:.25px;}</style></defs><g id="a"><path class="i" d="M404.64,406.99c2.26,1.62,7.89,9.55,10.53,14.18,4.57,8.03,3.8,16.04,3.33,20.83-.36,3.73-1.43,9.82-5,16.67"/><path class="i" d="M390.82,383.19c-1.43,12.27-.83,22.39,0,29.35,1.36,11.43,2.68,22.55,10.31,33.54,4.28,6.17,9.09,10.2,12.37,12.58"/><path class="i" d="M464.61,372.03c-12.62,3.93-18.19,9.67-20.68,13-5.67,7.56-5.41,15.89-5.21,22.47,.38,12.19,4.58,15.69,1.94,22.02-2.96,7.1-27.28,29.84-33.88,31.67"/><path class="i" d="M419.29,332.36c-3.79,4.42-.7,54.14-.95,62.3-.22,7.26,3.42,11.02,5,19.17,3.33,17.13-7.12,32.73-9.84,44.84"/><path class="i" d="M461.31,369.19c0,7.38-.84,20.25-6.32,34.83-8.21,21.88-21.89,34.36-29,39.8-2.2,1.69-4.12,3.71-5.67,6.01-3.42,5.05-6.84,10.09-10.26,15.14"/><path class="i" d="M489.23,355.62c.82,1.81,7.87,18.33-4.32,33.84-10.67,13.57-28.1,16.23-30.98,16.62-3.54,.21-19.23,1.48-31.7,12.47-12.07,10.63-12.06,43.38-12.16,46.41"/><path class="i" d="M432.6,353.48c-8.04,19.71-7.75,31.1-5.58,38.01,3.05,9.73,9.49,9.5,11.63,19.71,2.73,13.01-4.81,27.37-7.44,32.38-5.35,10.19-11.75,15.25-15.36,17.6"/><path class="m" d="M487.56,332.92c.06-2.36,.32-.37-.67,.22,.01,0-1.4,.85-1.39,.47,0-.33,2.55,.19,2.89,.28,1.77,.49,4.32,.93,5.07,3.36,.42,1.35,.02,3.52-.6,4.78-.76,1.55-2.64,1.92-3.37,2.97-.97,1.4-.51-.91-.29,.2,1.22,.55,1.62,1.14,1.22,1.77-.19,.36-.21,.06-.06-.91,.64-.95,.45-1.79,1.35-2.66,6.96-6.72-3.66-17.32-10.61-10.61-7.57,7.31-8.42,22.71,3.2,26.53,12.33,4.05,23.06-7.51,24.12-18.92,.98-10.58-6.21-18.39-16.04-20.98-10.23-2.7-19.52,2.25-19.82,13.49-.26,9.66,14.74,9.65,15,0h0Z"/><path class="l" d="M426.52,356.82c-11.73-1.9-16.58,9.61-14.1,19.6s12.24,18.86,22.75,15.26c14.2-4.86,13.83-32.67-2.7-33.4-9.65-.42-9.63,14.58,0,15-1.27-.06-1.82-.63-2.79-1.24,.55,.56,.48,.43-.19-.39,.15,.22,.29,.45,.42,.7-.11,.1-.17-1,.11,.38,.04,.22,.43,2.17,.3,1.19s0,1.4,0,1.64c0,1.59,.37-1.02-.04,.64-.15,.6-.47,1.26-.53,1.86,.12-1.01-.45-.05,.43-.67-.51,.49-.54,.57-.08,.22,.48-.32,.42-.28-.18,.1,.8-.29,.94-.35,.4-.2-.53,.13-.4,.12,.39-.03-.78-.03-.94-.03-.47,.01,.31,.03,.31,.03,.03,0-.45-.46-1.17-.83-1.63-1.38-.61-.74-1.11-1.68-1.45-2.58,.06,.16-.46-2.67-.37-1.52-.06-.79,.12-1.78,.01-1.97,.17-.5,.13-.56-.11-.15-1.08,1.05-2.47,1.51-4.19,1.39,3.99,.65,8.07-1.04,9.23-5.24,.98-3.58-1.22-8.57-5.24-9.23h0Z"/><path class="l" d="M380.53,319.09c-.15,8.54,.57,16.57,7.42,22.6,6.23,5.49,16.35,5.71,22.27-.44,5.81-6.04,5.82-15.93,.42-22.17-4.86-5.61-12.62-8.26-19.84-7.22-4.01,.57-6.21,5.68-5.24,9.23,1.19,4.31,5.2,5.81,9.23,5.24-.87,.12,.62,.29,1.62,.7,.55,.22,1.91,.99,2.39,1.38,.67,.56,1.51,1.25,.88,2.3s-1.97-.3-2.46-.94c-2.49-3.21-1.74-6.86-1.67-10.67,.17-9.66-14.83-9.66-15,0h0Z"/><path class="m" d="M399.14,349.63c-8.5-.16-17.75-1.53-23.45,6.37-6.34,8.77-3,19.94,6.23,24.94,8.26,4.47,19.85,4.25,26.84-2.58,8.56-8.38,6.18-21.23-2.72-28.26-3.2-2.53-7.47-3.07-10.61,0-2.64,2.58-3.17,8.1,0,10.61,2.28,1.8,5.86,5.05,2.15,7.41-2.49,1.58-6.82,1.05-9.12-.72-1.63-1.26-1.7-1.82-.09-2.89,2.21-1.48,8.21,.07,10.78,.12,9.66,.18,9.66-14.82,0-15h0Z"/><path class="j" d="M419.76,304.67c-3.97-.09-7.94-.65-11.64,1.19-4.22,2.09-6.28,6.04-6.96,10.55-1.46,9.65,.25,20.52,10.32,24.61s20.76-.2,25.01-9.94c4.43-10.14-2.85-21.58-13.56-22.95-4.02-.51-7.5,3.81-7.5,7.5,0,4.48,3.46,6.99,7.5,7.5-2.91-.37-.19,.28,.02,1.44,.07,.4-.8,1.95-1.47,2.41-1.42,.97-4.37,.87-5.33-.53-1.55-2.25,.41-5.48-.26-7.73,0,.03,.72-3.43-.89,.39-.26,.61-1.14-.09-.31,.35,.95,.5,4.02,.19,5.07,.21,9.66,.21,9.65-14.79,0-15h0Z"/><path class="j" d="M462.17,350.21c-.15,1.46,1.09,.67,2.65,.48,1.02-.12,7.2-.59,7.2-1.93,0-.16-3.6-.71-3.5-.91-.08,.17,.44,1.2,.43,1.57-.04,1.19,.34,2.58,.4,3.8,.08,1.49,.83,5.64-.22,6.7-.5,.51-1.61,.26-2.21,.43-1.6,.43-.14-1.11,.14,.51,.17,1-.41-2.4-.39-2.26-1.55-9.5-16-5.47-14.46,3.99,1.67,10.23,11.53,14.71,21.01,11.83,9.89-3,11.68-13.17,11.07-22.19-.55-8.14-3.59-18.69-13.77-18.37-2.38,.07-4.26,1.49-6.47,1.93-3.02,.61-5.63,.47-8.47,1.94-5.11,2.64-7.83,6.85-8.4,12.49-.41,4.04,3.74,7.5,7.5,7.5,4.4,0,7.09-3.45,7.5-7.5h0Z"/><path class="m" d="M420.31,306.87c-2-2.18-1.94-4.37-.79-6.94-.47,1.04,1.34-2.03,.67-1.07,.11-.16,1.62-1.66,.91-1.04,.08-.07,1.97-1.04,1.05-.67,.77-.31,.53-.29,.96-.23,2.31,.34,4.68,4.1,5.21,7.25,.11,.25,.15,.51,.12,.77-.11,1.48,.02,1.41,.39-.21,1.1-.28-.72,.07-.33,.19,.27,.08-.79,.57-.47,.17-.98,.02-1.15,0-.51-.04,1.38,.98,1.63,1.01,.73,.08-2.61-3.1-7.92-2.69-10.61,0-3.07,3.07-2.61,7.49,0,10.61,6.57,7.83,20.29,4.35,24.46-4.17,4.67-9.52-2.45-23.29-11.3-27.7s-18.66-.46-23.63,7.6c-5.19,8.41-4.1,18.78,2.54,26s17.14-3.51,10.61-10.61h0Z"/><path class="l" d="M454.24,322.55c-.04-2.72-.32-5.42-.42-8.14-.06-1.54-.15-3.15,.06-4.69,.06-.42,.21-1.64,.34-1.47,.43,.54-2.69,.94-.09,.51,.15-.02,1.15-.11,2.22-.07,1.26,.05,1.37,.14,2.76,.52,.59,.16,1.33,.48,1.5,.6-.09-.07,.39,.39,.77,1.21-.12-.24,.42,1.9,.33,1.07,.05,.5-.15,2.86,.02,1.87-.09,.51-.23,1-.37,1.49-.59,2.12,.31-.41-.23,.66-.22,.44-.47,.87-.74,1.28-.68,1.04,.57-.79-.14,.17-.3,.4-1.05,1.16-.29,.38-.9,.94,0-.13,.04,.12,.07,.41-1.21-.18,.09,.12-.84-.19-.49-.15-.03,.1-.72-.39-.6-.05-1.67-1.03-7.09-6.53-17.73,4.05-10.61,10.61,7.81,7.19,18.58,6.88,24.94-2,5.19-7.25,5.47-17.73-.06-24.85s-18.02-9.6-26.12-5.35c-9.91,5.19-7.43,17.76-7.3,26.9,.14,9.64,15.14,9.67,15,0h0Z"/><path class="n" d="M443.56,332.34c-9.2-1.08-16.97,9.68-15,18.18s9.95,9.1,16.94,8.95c4.09-.09,7.41-.68,10.57-3.47,2.93-2.6,5.05-6.55,5.91-10.35,.95-4.19,.08-8.92-3.14-11.96-1.15-1.09-2.49-1.9-3.87-2.64s-2.48-1.24-2.93-1.71c-6.66-7.01-17.26,3.61-10.61,10.61,.72,.75,6.92,4.97,7.01,4.54-.03,.14-1.14-2.26-1.07-2.21-.21-.15,.11,.26-.22,.72-.22,.3-1.57,2.62-.4,1.57,.67-.6,.2-.11-.76-.1-.63,0-1.25,.04-1.88,.05s-1.26,0-1.88,.04c-.79,.04-1.27,.43-.65,.07-.78-.23-.92-.24-.44-.02,.67,.3,1.2,.8,1.57,1.5,.22,.38,.38,1.29,.49,1.67-.09-.32,.21-1.23,.68-.86,.78,.62-3.07,.1-.34,.42,4.03,.47,7.5-3.78,7.5-7.5,0-4.45-3.46-7.03-7.5-7.5h0Z"/><path class="n" d="M404.3,379.3c-8.79-2.37-14.32,4.33-14.55,12.56s3.54,16.6,11.83,19.12c9.24,2.81,17.17-4.45,19.92-12.76,1.3-3.93,1.52-8.51-.63-12.2-1.68-2.87-4.86-4.56-6.93-6.53-6.97-6.68-17.6,3.92-10.61,10.61,1.24,1.18,2.6,2.22,3.99,3.23,.41,.3,1.53,.64,.66,.45l.5,.49-.89-1.47c-.52-.12,.41-.29-.26,.47,.25-.29-1.27,2.71-.67,1.62-.22,.4-.53,.77-.75,1.17-.43,.77-1.29,.58-.37,.67,.72,.07-.68-1.9-.72-2.2-.15-1.15,.02-2.3-.06-3.44,.07,1.04-.24-.12,.09-.2-.29,.97-1.04,1.54-2.23,1.7-.67,.71-1.45,1.1-2.33,1.18,9.33,2.51,13.31-11.95,3.99-14.46h0Z"/><path class="o" d="M178.74,146.59c-.01-.99,.22-10.53-.11-10.66l-.47,3.69c.92-3.02,.53-2.3-1.19,2.14l.64-1.23c1.47-2.33,.85-1.64-1.87,2.06,.62-.43,2.66-2.36,2.99-3.01l-3.13,2.41c.85-.59,1.72-1.15,2.61-1.67,3.3-1.97,6.81-3.7,10.28-5.35l1.49-.7c2.63-1.17,2-.92-1.91,.77,1.07,.11,3.63-1.35,4.7-1.69,1.62-.52,3.26-.99,4.92-1.38,.15-.04,3.15-.42,3.43-.72l-4.06,.49c.99-.11,1.98-.19,2.97-.23l1.54-.03c2.99,.14,2.03-.05-2.89-.57,.85,.44,2.4,.87,3.33,1.1-4.3-1.86-5.19-2.21-2.67-1.04,.73,.35,1.44,.73,2.15,1.13-3.72-.93-9.61-15.51-8.5-10.87-1.81-7.6-.57-5.23-.66-2.4-.04,1.13-.17,2.26-.23,3.39-.22,4.31,1.64-7.11,.15-1.87s3.2-5.63,.41-.65c-.8,1.42-1.52,2.88-2.35,4.28-1.61,2.73-3.41,5.33-5.06,8.02-.75,1.23-1.55,2.49-2.19,3.78-2.25,4.54,4.69-3.73,.67-.7l-1.26,1.12c-2.21,1.81-1.73,1.46,1.46-1.04-.7-.07-3.43,2.58-4.09,3.01-.43,.29-4.28,2.14-4.33,2.45l3.37-1.37c-1.06,.42-2.12,.81-3.2,1.18-3.78,1.3-7.66,2.47-11.58,3.3l-1.68,.34c-2.94,.49-2.25,.41,2.08-.23-.56-.4-4.33,.26-5.13,.26-1.34,0-5.61-1.18-1.48,.15,4.48,1.44-.43-.29-1.37-.41-5.4-.73,4.68,3.2,.67,.44,6.27,4.32,2.84,2.11,1.19,.58-3.78-3.51,3.58,5.39,.9,1.15-.55-.87-2.18-4.5-2.94-4.81l1.42,3.55c-.39-.99-.73-1.99-1.01-3.01l-.38-1.52c-.55-2.91-.43-2,.37,2.72,.34-1.1-.08-3.65-.21-4.79-.63-5.56-1.87,6.12-.2,.89l-1.32,3.44c1.57-2.39,1.17-1.97-1.2,1.24,0,0,2.99-3.23,3.27-3.52,.82-.87,1.7-1.72,2.48-2.62,1.48-1.4,.64-.75-2.54,1.97-4.21,1.66-4.97,2.05-2.28,1.16,.56-.13,4.02-.72,4.3-1.17l-3.51,.35c1.15-.08,2.3-.06,3.45,.05l-3.8-.44c1.16,.25,2.31,.52,3.46,.81,1.74,.41,3.45,.79,5.22,1.09,3.5,.6,7.13,1,10.69,1.36,1.88,.19,7.53,1.45-.13-.21,4.88,1.06-5.36-3.67-1.85-.63,1.54,1.34,3.42,2.3,5.23,3.2,7.3,3.64,14.95,7.39,22.81,9.56,1.58,.44,3.18,.92,4.77,1.31,5.58,1.35-5.35-2.88-.46-.27,1.34,.71,2.69,1.36,4,2.13,1.68,.99,7.28,5.32,.72,.06,2.54,2.04,5.15,3.99,7.75,5.95-3.49-2.83-4.23-3.33-2.21-1.49-4.3-8.54-5.68-10.66-4.15-6.37,.46,1.49,.99,3.15,1.64,4.57,.74,2.88,.71,1.92-.1-2.88,.08-2.84,.87-5.44,2.39-7.82-.56,.2-2.16,3.56-2.56,4.18-.42,.66-.86,1.32-1.3,1.96-1.16,1.67-.53,.91,1.88-2.27-.19,.09-3.29,3.44-3.29,3.47,3.29-2.43,3.73-2.84,1.34-1.25-.98,.6-1.98,1.17-2.99,1.72-1.52,.85-3.04,1.66-4.51,2.59-.92,.65-1.86,1.29-2.8,1.93-2.58,1.43-1.93,1.19,1.95-.71-1.63-.07-10.7,4.57-9.4,3.83-1.76,1-3.43,2.16-5.16,3.21-4.46,2.72-8.89,5.71-12.44,9.57-8.51,9.26-10.1,21.56-4.24,32.82,4.03,7.74,14.44,14.19,23.31,13.37,10.95-1.01,18.28-6.34,27.13-12,3.5-2.24,7-4.48,10.54-6.66,1.31-.81,2.62-1.63,3.97-2.38,.4-.22,.82-.42,1.21-.66,.2-.1,.4-.2,.61-.3-4,2.32-8.32,3.48-12.96,3.49l-19.09-7.91,.04,.04-6.94-26.27c-.32,1.87-1.48,3.91-2.14,5.69-1.49,4.02-2.96,8.06-4.4,12.1-2.6,7.26-5.56,14.61-7.37,22.12s-1.07,14.89-.02,22.66c.63,4.66,1.34,9.28,2.43,13.86,.39,1.64,.74,3.34,1.28,4.95,1.68,5.03-.87,6.64,3.7-10.72-.95-6.59,.93-11.31,5.62-14.16,2.6-1.83,3.25-2.36,1.95-1.59,.39-.21,8-2.69,4.16-1.85-.73,.16-1.44,.39-2.17,.55-1.96,.44-3.94,.75-5.92,1.06-3.47,.54-7.04,.91-10.42,1.91-10.24,3.03-19.14,10.22-21.95,20.89-3.97,15.06,5.43,30.87,20.44,34.73,5.9,1.52,11.55,1.12,17.44,.37,2.07-.26,4.14-.55,6.2-.83,1.55-.21,3.09-.42,4.64-.62,.95-.13-7.41,.94-4.57,.61,2.19-.25,4.38-.58,6.58-.72,.72-.04,1.48,0,2.2-.07,.2-.02,.73,.13,.9,.04l-3.12-.41c-5.25-.29-9.85-2.48-13.81-6.57-1.81-1.99-3.18-3.91-4.21-6.38-1.92-4.61-.87-2.32-.63-1.33,.3,1.26,.7,2.51,1.06,3.76,1.14,4.02,2.56,8.23,4.72,11.8,1.4,2.31,3.35,4.92,5.3,6.79,1.54,1.47,4.06,3.23,5.79,4.46,.92,.65,3.65,2.57-.19-.36-4.6-3.51,1.06,2.22-2.89-2.87-4.73-6.1,2.23,2.93,2.6,3.37,.68,.81,1.34,1.6,2.12,2.33,.28,.26,3.11,2.28,2.98,2.66-.18,.55-3.75-6.35-1.87-2.18-1.28-2.82-2.25-5.57-2.31-8.72l5.24-9.31c6.64-8.24,8.21-11.23,4.7-8.99-.57,.21-1.17,.67-1.71,.95-.97,.5-2.46,1.52-3.55,1.65-.5,.06,6.32-1.93,3.32-1.47-.94,.15-1.96,.44-2.88,.69-2.88,.79,3.74-.57,3.34-.43-1.07,.36-2.59,.27-3.72,.35-8.17,.59-16.37,.12-24.56,.13-3.76,0-7.51,.11-11.27-.09-.75-.04-1.79-.3-2.52-.18,.07-.01,5.76,1.16,2.98,.38-1.94-.55-3.92-1-5.86-1.55-4.3-1.23,1.19,.53,1.79,.89-.68-.41-1.51-.69-2.23-1.04-1.46-.71-2.89-1.47-4.32-2.25-3.29-1.82-6.5-3.8-9.75-5.69-2.83-1.65-5.75-3.11-8.61-4.69-1.72-.95-3.32-2.06-5-3.08-.68-.42-3.03-2.29,.01,.11,3.21,2.53,.12,.02-.51-.54-1.23-1.1-2.41-2.24-3.53-3.45-.5-.55-1.01-1.36-1.59-1.81,.54,.42,3.46,5.34,1.47,1.69-.34-.62-.71-1.38-1.12-1.95-1.78-2.45,1.62,3.51,1.23,3.13-1.18-1.14-1.18-4.44-1.72-5.94-.94-2.62,.36,2.52,.27,2.83,.19-.67-.12-1.91-.12-2.62,0-1.06,.12-5.05-.14-.76-.23,3.8-.14,1.16,.23,.16,0-.02-2.58,4.95-1.08,2.44,.44-.74,.81-1.55,1.23-2.31,1-1.79,2.1-3.52,3.12-5.3,1.9-3.32,3.76-6.64,5.77-9.89,2.62-4.25-2.86,3.52,.06-.12,2.48-3.1,4.89-6.27,7.19-9.51,2.76-3.88-3.55,3.36,0,.22,1.26-1.11,2.47-2.26,3.75-3.35,2.95-2.52,5.98-4.97,8.65-7.79,13.48-14.25,23.97-38.43,14.16-57.34-2.83-5.46-7.81-9.43-13.34-11.77,5.14,2.17-3.38-1.25-3.71-1.45-.39-.24,6.22,3.36,5.05,2.15-.39-.4-1.45-1.01-1.96-1.23-1.59-.71,3.72,2.92,3.66,2.83-.4-.58-1.37-1.16-1.92-1.65-3.43-3.05-6.59-6.38-9.91-9.54-6.17-5.89-12.3-9.95-20.86-11.1-7.59-1.02-14.79-.48-21.9,2.52-14.78,6.24-21.87,19.99-22.79,35.45-1.01,16.97,5.9,34.23,11.46,49.94,.88,2.49,1.72,4.98,2.49,7.5,1.4,4.59-.48-3.42-.43-4.55-.05,1.08,1.45-10.25,.66-5.04-.5,3.31-1.19,6.73-1.13,10.09,.15,8.81,4.15,19.89,12,24.88,2.39,1.52-3.84-5.79-2.2-2.75,.26,.48-2.64-6.49-1.78-3.65,.77,2.55-.4-3.52-.38-3.24,.56,5.97,1.44,11.98,2.57,17.88,.63,3.31,1.32,6.74,2.34,9.95,1.61,5.06,4.31,9.88,8.01,13.7,.39,.4,.81,.71,1.24,1.08l2.73,2.11c5.48,4.4,3.82,2.61-5-5.35l-3.69-13.63-.02,1.08h54c-.07-5.92-1.05-11.81-2-17.64-.16-1.02-1.2-7.17-.54-3.06,.6,3.79,.1,.63,.08-.16-.05-1.24-.14-2.48-.17-3.72-.04-2.18,.02-4.36,.16-6.53,.07-1.04,.73-7.12,.19-2.94s.4-1.88,.6-2.91c.49-2.47,1.06-4.92,1.69-7.36,.93-3.58,1.98-7.12,3.22-10.6,.67-1.89,2.02-4.15,2.33-6.09-.01,.09-2.16,4.83-.87,2.11,.54-1.14,1.04-2.31,1.57-3.46,3.26-6.99,6.85-13.75,11.02-20.24,1.5-2.34-1.77,2.32-1.75,2.31,.56-.3,1.2-1.33,1.65-1.8,.84-.86,3.68-3.15,.12-.5s-1.24,.85-.47,.42c.59-.33,1.3-.67,1.84-1.07,2.25-1.65-3.22,1.79-3.2,1.25,.03-.61,8-1.66,2.14-.91-5.04,.65,1.57,.2,2.77,.17,4.94-.14-5.87-1.04-.9-.23,5.71,.93,11.26,1.49,17.02,1.16,10.86-.63,22.47-4.77,30.2-12.72,6.37-6.54,12.43-17.48,14.19-26.35,2.63-13.28-1.44-27.46-8.81-38.7s-18.3-17.08-30.27-20.89c-12.84-4.09-26.85,3.77-31.85,15.63-4.7,11.15-1.3,28.37,11.05,33.72,2.99,1.29,5.68,2.92,8.54,4.45,4.63,2.48-3.84-3.88-.47-.46,.84,.85,2.09,2.65,3.15,3.22-2.65-3.6-3.22-4.25-1.73-1.93l.66,1.25c2.95,4.99-1.51-4.7,.09,.32,1.19,3.73,2.58,7.41,3.93,11.09,.32,.76,.59,1.53,.83,2.32-.37-4.33-.53-5.41-.47-3.24-.71,6.24,1.11-3.3,.17-.59-.53,1.52-.96,3.17-1.38,4.72-.71,1.99-.28,1.02,1.29-2.9-1.17,1.83-1.06,1.79,.33-.11,3.41-2.92-.9,.8-1.63,1.56-.87,.91-5.27,3.91-1.8,2.12,1.54-1.15,1.75-1.29,.63-.43-2,1.48-3.96,3-5.89,4.56-1.58,1.28-.55,.47,3.1-2.41-2.48,1.47-1.25,.94,3.7-1.6l33.21,18.86-.58,9.94c-1.87,4.19-2.22,4.95-1.06,2.27,1.09-2.66,2.32-5.26,3.25-7.98,.99-2.9,1.81-5.86,2.8-8.76,2.11-6.13,4.4-12.22,6.08-18.49,1.93-7.22,3.21-15.02,2.83-22.49-.57-11.01-5.15-20.25-12.81-28.07-1.64-1.67-3.33-3.33-5.02-4.94-1.23-1.17-2.97-4.16,1.58,2.23-.67-.94-1.38-1.84-2.07-2.76-5.45-7.19-10.84-13.52-19.18-17.54-14.19-6.84-28.95-9.39-44.65-8.3-11.73,.82-24.68,3.61-35.65,7.96-7.99,3.17-14.32,6.43-20.86,12.07-3.86,3.33-7.29,7.53-10.85,11.19-2.56,2.63-4.79,5.79-6.76,8.93s4.64-5.67,1.23-1.63c-1.39,1.64-2.69,3.34-4,5.04-5.44,7.04-8.66,14.72-8.7,23.8-.03,6.64,.67,13.37,1.49,19.95,.68,5.51,1.18,11.47,2.77,16.87,3.62,12.24,13.97,22.96,27.63,22.54,10.62-.32,20.58-5.97,25.52-15.61,1.64-3.19,3.19-6.66,4.29-10.06-3.14,9.65-2.71,5.97-1.79,4.26,5.34-9.9-8.56,11.76-20.88,10.51l-13.63-3.69c.29,.18-10.71-11.67-7.12-6.48,1.61,2.34,3.47,4.55,5.26,6.76,.7,.86,1.4,1.72,2.11,2.57,3.66,4.4-2.61-3.79-.64-.81,2.67,4.04,5.69,7.82,8.22,11.96s4.95,8.6,7.12,13.08c1.62,3.33-.58-.55-.71-1.73,.12,1.01,.83,2.22,1.15,3.2s.58,1.99,.94,2.95c1.52,4.08,.16-6.03-.15-2.67-.18,1.96-.3,4.39,0,6.33,.39,2.55,1.37-5.13,.34-2.49-.4,1.01-.57,2.17-.91,3.21-.3,.9-1.85,4.52-.11,.59,2.33-5.27-2.1,4.9-2.31,5.52-1.36,4.03-1.96,8.75-1.99,13.04s.84,8.29,1.4,12.31-.46-.98-.25-2.02c-.19,.97,.17,2.41,.19,3.42,.13,5.52,0,11.07,0,16.59,.01,14.12,12.41,27.65,27,27,14.62-.65,27.01-11.86,27-27,0-9.78,.06-19.2-1.37-28.91-.77-5.27-.13,5.99,.09,.31l-.06-1.7c.14-2.97,.05-2.26-.26,2.14-1.9,4.45-1.92,4.49-.08,.15,.67-1.57,1.33-3.15,1.98-4.73,.6-1.56,1.15-3.14,1.57-4.76,4.92-19.11-.79-37.37-9.95-54.19-3.45-6.34-7.45-12.28-11.69-18.12-3.16-4.35-6.4-8.7-9.91-12.77-1.28-1.57-.73-.84,1.65,2.2-.97-1.4-2-2.77-3.08-4.09-2.52-3.27-4.02-5.3-8.17-7.48-13.83-7.25-31.18-2.76-38.75,11.3-1.69,3.15-3,6.59-4.27,9.89-1.45,3.75,3.72-7,1.31-3.17-5.85,9.31,18.78-10.99,20.95-10.81l13.63,3.69,4.42,4.41c3.55,2.43,5.79,5.73,6.71,9.92-.07-.31-.24-.6-.31-.91-.2-.89-.48-1.77-.67-2.66-.27-1.26-.46-2.54-.68-3.81-.18-1.05-.47-3.37,.18,1.45,.71,5.28,.21,1.49,.07,.25-.59-5.19-1.01-10.43-1.17-15.65-.02-.77,.02-1.55-.04-2.32-.02-.24,.04-.5,0-.74,.48,3.54-1.15,6.52-2.42,9.58,1.64-3.95-3.83,4.55-.23,.21,2.48-3,4.95-6.07,7.12-9.31s-5.11,4.86-.64,1.19c1.36-1.12,2.61-2.33,3.78-3.65s2.13-2.65,3.28-3.9c.44-.48,.94-.91,1.37-1.4,2.91-3.27-3.94,2.43-1.76,1.4,1.37-.65,2.96-1.51,4.26-2.32-5.29,3.3-4.56,1.75-2.46,1.08,.93-.3,1.85-.65,2.79-.95,3.56-1.14,7.2-2.01,10.85-2.83,1.66-.37,3.33-.73,5-1.09,1.16-.25,6.92-1.43,2.52-.65-4.58,.82,2.18,.11,3.4,.11,2.63,0,5.27,.08,7.9,.16,.71,.02,2,.3,2.67,.1-3.73,1.13-4.76-1.11-1.89-.1,1.08,.38,2.31,.68,3.4,.99,.81,.23,3.5,1.52,.06-.09-4.27-2,2.11,1.45,2.88,1.54-3.01-.36-4.17-3.85-2.05-1.54,.6,.66,1.21,1.46,1.88,2.05-4.1-3.61-3.11-4.08-1.69-2.19,.55,.74,1.11,1.47,1.67,2.2,2.1,2.75,4.13,5.6,6.51,8.12,1.13,1.2,2.36,2.31,3.54,3.46,.65,.64,1.28,1.29,1.92,1.93,2.54,2.52-1.49-1.87-1.83-2.38-2.25-3.44-.83-5.47-2.12-8.7,.52,1.31-.11,3.28-.01,4.64,.21,2.83,.35-2.4,.47-2.68-.52,1.22-.59,3.08-.91,4.42-1.23,5.1-2.98,10.07-4.7,15.02-.81,2.32-1.64,4.64-2.43,6.97-.59,1.75-2.46,5.13-2.21,7.02-.21-1.59,2.3-5.31,.98-2.1-1.15,2.81-2.61,5.54-3.28,8.51-1.29,5.72-1.54,12.56,.69,18.08,2.61,6.47,5.89,12.69,12.41,16.14,6.88,3.64,13.18,3.76,20.81,2.72,3.07-.42,6.49-2.22,9.2-3.85,2.28-1.37,4.37-3.3,6.46-4.94,3.93-3.1-5.49,4.23-2.27,1.71,5.07-3.98,9.85-7.73,13.97-12.69,10-12.03,15.22-27.56,13.11-43.21-.76-5.63-2.81-10.64-4.66-15.98-2.14-6.17-4.3-12.72-7.84-18.23-6.68-10.41-16.81-18.55-28.12-23.44l-20.81,49.35c6.63,2.11-3.89-2.52,.12-.07,2.11,1.29,6.6,5.28,.38-.26,1.93,2.01,1.32,1.14-1.84-2.6,.44,.84,.84,1.69,1.2,2.57,.79,1.67,3.57,9.05,.74,1.35,.75,2.88,.72,2.11-.09-2.31,.85-4.53,.9-5.42,.14-2.66,2.5-7.68,.39-1.49-.83,.56-.53,.86-1.05,1.73-1.58,2.6,1.7-2.7,3.95-4.82,6.76-6.35-1.08,.39-2.47,1.17-3.48,1.77,4.35-1.69,5.28-2.15,2.8-1.37,5.23-.51,6.31-.71,3.23-.6-2-.06-9.82-.45-1.17,.75-6.14-.85-12.11-2.03-18.32-1.6-13.46,.93-25.52,5.89-35.36,15.2-7.63,7.23-12.93,16.55-17.61,25.83-5.1,10.12-9.8,20.66-13.09,31.52s-5.39,22.48-5.98,33.9c-.36,6.84,.43,13.47,1.42,20.25,.27,1.88,1.7,5.81,1.21,7.6-.47-4-.55-4.49-.23-1.47,.11,1.26,.16,2.53,.14,3.8,.16,14.12,12.31,27.66,27,27s26.67-11.86,27-27c.15-6.71-2.12-13.04-6.18-18.3-2.23-2.89-2.65-3.32-5.54-5.56l-2.73-2.11c2.95,1.57,5.05,3.9,6.31,7,5.1,8.21,1.63,.65,.96-2.56-.25-1.18-.47-2.37-.68-3.56l-.3-1.79c-.35-2.4-.37-2.39-.04,.01l.24,1.81c-.11-.88-.22-1.75-.32-2.63-.4-3.18-.57-6.45-1.3-9.58-.78-3.37-2.15-6.9-3.81-9.91-1.99-3.62-4.87-7.51-8.36-9.91-1.67-1.15-2.15-5.65,2.96,4.04,1.72,3.27,2.89,6.78,2.93,10.52-.04-3.77-.49,3.27-.49,3.24,.23-2.27,.88-5.07,.99-7.36,.16-3.21-.53-6.5-1.33-9.61-.89-3.5-2.21-6.89-3.42-10.29-3.45-9.66-7.02-19.42-8.86-29.55-.1-.56-.18-1.14-.29-1.7-.64-3.31,.52,4.99,.62,4.69,.28-.83-.25-2.69-.28-3.56-.03-.98,.07-1.98,.02-2.96-.2-3.8-1.77,8.36-.4,3.2,1.23-4.64-2.4,4.92-1.69,3.63,2.34-4.26-4.7,5.26-2.43,2.98s-7.07,4.52-3.17,2.61c.89-.43-7.82,3.17-4.74,2.08,2.65-.94,3.78,1.6-4.49,.52,1.31,.17,6.34,.49,.48-.3-2.4-.32-7.71-2.33-8.38-2.72,1.93,1.14-6.64-5.64-3.6-2.74,2.2,2.1,4.39,4.22,6.56,6.35,6.77,6.64,14.94,14.97,24.66,16.76l-16.14-12.41-2.92-11.03c-.13,2.71,.04,1.48,.54-3.7-.3,.64-.42,1.67-.63,2.39-.5,1.72-1.37,3.48-1.7,5.23l1.53-3.68c-.45,.91-.94,1.8-1.48,2.66-1.3,2.6-1.94,.06,1.5-1.66-1.05,.53-2.43,2.73-3.29,3.59-1.18,1.17-2.42,2.27-3.67,3.37-5.77,5.04-10.38,9.67-15.01,15.94-.67,.9-1.33,1.81-1.98,2.73-3.49,4.94,4.13-5.03,.05-.12-3.38,4.08-6.45,8.33-9.09,12.91-7.73,13.4-15.07,26.66-13.4,42.76,1.79,17.15,9.13,32.43,22.51,43.58,10.13,8.45,22.02,14.83,33.59,21.1,13.53,7.33,27.29,10.85,42.68,10.85,14.65,0,29.35,.8,43.85-1.88,18.07-3.33,35.76-17.23,35.19-36.96-.28-9.82-4.99-19.69-12.02-26.52-1.18-1.15-6.19-6.51-2.52-1.79,4.35,5.6-1.02-1.94-3.11-4.03s-4.44-3.85-6.81-5.53c-5.82-4.12,1.39-1.04,5.62,6.35-1.64-2.88,1.55,3.67,1.51,3.74,.33-.62-1.26-4.42-1.53-5.35-2.64-8.91-7.41-17.28-15.68-22.06-5.56-3.21-12.1-4.32-18.44-3.88-1.55,.11-3.1,.3-4.65,.49-4.27,.53-18.17,2.34-6.25,.83-2.99,.38-5.96,.71-8.97,.92-.58,.04-1.18-.07-1.75,0,11.97-1.35,7.92,9.54,11.23,22.21l5.61,21.46c-2.91,2.96-6.37,4.99-10.37,6.07,.58-.1,1.16-.42,1.74-.55,5.68-1.27,11.58-1.6,17.19-3.15s11.87-4.34,16.02-8.8c8.45-9.09,9.57-19.59,6.51-31.13-.66-2.5-1.25-5.03-1.75-7.57-.18-.89-.2-3.73-.77-4.3l.49,3.74c-.11-.85-.19-1.7-.27-2.56-.18-1.96,.28-10.39-.73-2.73-.85,6.41-.3,2.62,.15,1,1.73-6.19,3.98-12.25,6.12-18.3,2.22-6.26,4.63-12.46,6.84-18.73,4.08-11.56-.68-26.21-11.85-32.11-9.76-5.16-19.5-4.34-28.89,.69-5.29,2.84-10.3,6.28-15.35,9.51-2.85,1.83-5.7,3.66-8.58,5.46-1.01,.63-2.04,1.24-3.05,1.88-4.97,3.14-5.5-1.11,11.75-2.71l23.31,13.37-.02-.03v27.25c-2.43,4.32-3.77,3.85-6.52,6.7,.6-.62,1.86-1.23,2.54-1.65,1.46-.91,3.15-1.64,4.47-2.75,2.43-2.04-5.42,1.66-2.24,.62,1.89-.62,3.63-1.34,5.49-2.13,3.33-1.4,6.01-2.85,9.01-4.79,3.38-2.18,7.02-3.88,10.32-6.22,6.97-4.94,11.79-10.36,16.63-17.42,7.95-11.59,11.16-24.9,6.5-38.55-2.47-7.24-5.19-14.07-10.35-19.87-2.49-2.8-5.68-4.91-8.66-7.15-.58-.44-1.15-.88-1.74-1.3,8.08,5.83-1.98-1.59-3.56-2.71-2.89-2.04-5.95-3.76-9.17-5.22-5.54-2.52-12.01-5.61-18.18-6.51-2.55-.37,2.13,1.03,2.35,1.17-1.03-.6-2.3-1.07-3.4-1.59-2.15-1.02-4.34-1.97-6.47-3.02-5.21-2.57-9.02-6.2-14.95-7.71-3.88-.99-8.04-1.3-12.02-1.71-.88-.09-1.77-.16-2.66-.25l-.89-.08c-2.38-.26-2.35-.24,.09,.05l1.85,.23c-.87-.17-1.73-.36-2.59-.59-.89-.21-1.76-.45-2.65-.65-4.3-.98-8.72-1.69-13.12-1.92-12.98-.69-28.14,4.96-37.28,14.02-10.24,10.15-17.83,21.82-18.32,36.61-.39,11.75,2.26,23.86,8.35,33.98,6.79,11.28,15.6,19.85,28.1,24.41,12.07,4.4,25.44,3.54,37.81,1.25,22.11-4.09,42.78-16.12,54.36-35.66,5.18-8.73,11.25-17.11,13.54-27.22,2.55-11.23,2.95-25.44-3.4-35.5-7.88-12.49-23.68-19.66-38.18-20.23-13.34-.52-26.1,3.85-38.11,9.12-9.86,4.33-20.2,9.6-27.43,17.78-5.3,6-9.52,13-11.46,20.86-1.75,7.08-1.46,14.15-1.35,21.33,.21,14.12,12.27,27.66,27,27,14.45-.65,27.22-11.87,27-27h0Z"/><path class="k" d="M418.5,117.02c-5.51-.16,3.95,1.16-1.35,0-1.09-.24-2.17-.47-3.25-.73-3.03-.72-6.03-1.49-9.1-2.03-7.45-1.31-14.99-2.39-22.52-3.1-14.48-1.36-29.42-.83-42.73,5.53-11.37,5.43-19.71,15.13-27.16,24.97-7.49,9.91-15.03,20.28-17.7,32.63-3.39,15.67-4.26,31.01,4.37,45.24,8.02,13.22,19.98,21.76,34.21,27.24,11.2,4.31,23.31,6.13,35.14,7.79,14.28,2,28.6,3.38,43.01,3.9,2.96,.11,5.92,.16,8.88,.33,1.14,.07,2.29,.14,3.43,.23,.75,.06,6.36,.89,1.51,.07,2.82,.48,5.62,1,8.38,1.78,1.37,.39,2.71,.94,4.08,1.32,1.35,.51,1.08,.38-.79-.38,1.03,.49,2.05,1,3.06,1.53,2.54,1.31,4.97,2.76,7.41,4.23,3.11,1.88,.67,.41,.01-.11,1.32,1.06,2.56,2.21,3.87,3.29,6.39,5.27,13.09,9.38,21.38,10.8,14.45,2.48,28.58-1.76,41.19-8.82,12.76-7.14,22.77-17.85,27.69-31.7,4.56-12.84,5.92-28.25,2.48-41.47-3.4-13.06-10.96-24.66-19.43-34.95-7.72-9.38-17.16-17.02-26.83-24.28s-18.92-13.38-29.1-18.79c-13.64-7.25-28.62-13.58-43.82-16.68-14.29-2.92-30.63-5-45.23-3.58-15.38,1.49-30.16,6.68-42.63,15.9-7.52,5.56-13.67,11.44-19.28,18.94-1.99,2.65-3.87,5.36-5.42,8.3-1.01,1.92-1.87,3.93-2.61,5.96-.36,.73-.63,1.48-.81,2.27-.56,2.1-.31,1.58,.74-1.55-5.71,8.79-2.07,22.48,7.18,27.36,9.96,5.26,21.27,2.21,27.36-7.18,1.55-2.39,2.97-5.59,3.44-8.53,.3-1.92-2.56,3.8-.12,.7,.65-.83,1.18-2.01,1.75-2.89,.63-.97,1.29-1.93,1.97-2.86-2.25,3.06,.1,.01,.75-.71,1.9-2.12,4.06-3.86,6.08-5.84,2.24-2.2-3.77,2.49,.46-.4,.89-.61,1.76-1.24,2.67-1.83,1.79-1.17,3.64-2.26,5.53-3.26,1.18-.62,2.39-1.16,3.59-1.75,2.76-1.36-4.44,1.3,.41-.08,2.59-.73,5.11-1.62,7.76-2.19,.77-.17,2.57-.75,3.22-.61-2.92-.65-2.03,.14-.23,.09,3.08-.08,6.1-.21,9.19-.08,5.48,.23,10.97,.73,16.42,1.28-.11-.01,5.74,.73,2.72,.29-2.53-.38,1.22,.23,1.8,.33,2.67,.47,5.31,1.05,7.92,1.74,5.55,1.47,11.01,3.31,16.35,5.41,.87,.34,4.55,1.94,1.13,.43,1.12,.49,2.23,.99,3.34,1.5,2.21,1.02,4.4,2.1,6.57,3.22,5.29,2.74,10.41,5.77,15.41,9.02,3.9,2.53,7.75,5.13,11.53,7.84,1.69,1.22,3.36,2.46,5.03,3.72-3.35-2.53-1.04-.81-.35-.23,1.2,1.01,2.42,1.98,3.61,3,3.55,3.04,6.96,6.24,10.14,9.66,1.59,1.7,3.05,3.5,4.57,5.26,1.87,2.16-1.86-2.76-.3-.37,.85,1.29,1.78,2.53,2.62,3.83,1.26,1.96,2.44,3.97,3.52,6.03,.72,1.38,2.61,6.35,1.29,2.49,.7,2.03,2.49,5.66,2.21,7.86,.06-.48-.12-4.54-.2-.54-.03,1.66-.07,3.31-.11,4.97-.02,.89-.18,4.18,.11-.36-.07,1.07-.32,2.22-.5,3.29-.43,2.48-.95,4.94-1.68,7.35-.36,1.18-1.97,4.24-.06,.63-.52,.97-1.06,1.9-1.6,2.87-1.89,3.4,.48-.35,.53-.55-.27,1.05-2.25,2.44-3.08,3.22-.58,.54-1.53,1.57-2.28,1.98,3.81-2.08,.74-.65-.29,.02-1.94,1.26-3.96,2.41-6.03,3.44-.85,.42-1.86,.99-2.78,1.3,4.28-1.42,1.45-.61,.57-.34-1.17,.35-2.31,.79-3.48,1.14-.58,.17-5.42,1.57-2.34,.77s-1.43-.06-1.87-.02l-.76-.03c-1.53-.09-1.02,0,1.53,.29-.37,.14-2.93-.87-2.95-.75,.09-.87,3.29,2.27,.64,.19-3.84-3.01,1.86,1.93-.56-.27-1.04-.94-2.14-1.85-3.22-2.74-3.04-2.52-6.18-4.97-9.54-7.05-9.8-6.04-20.58-10.19-31.96-11.85-12.25-1.79-24.57-1.7-36.89-2.57-5.36-.38-10.71-.87-16.05-1.48,.25,.03-5.91-.71-2.98-.34,2.43,.31-1.48-.21-2.02-.29-3.33-.49-6.64-1.03-9.95-1.63-4.61-.83-9.22-1.73-13.75-2.95-2.4-.65-4.75-1.42-7.1-2.23-3.53-1.21-.47-.19,.21,.15-1.48-.73-2.95-1.42-4.38-2.25-.95-.55-1.85-1.18-2.79-1.73-4.24-2.5,1.43,1.82-.31-.25-.81-.96-1.87-1.91-2.77-2.78-.69-.67-2.01-2.91,.02,.18-.89-1.36-3.46-3.94-3.39-5.58l.8,1.98c-.28-.72-.51-1.46-.69-2.22-.24-.84-.43-1.69-.57-2.56,.3,2.18,.41,2.52,.34,1.02,.2-1.06,.11-2.36,.11-3.45,.13-1.48,.08-1.15-.14,.98,.15-.81,.29-1.63,.44-2.44,.54-3.03,1.29-5.96,1.95-8.96,.24-1.07,1.54-2.95-.16,.06,.88-1.55,1.69-3.12,2.65-4.63,1.52-2.39,3.18-4.69,4.79-7.02,1.34-1.93,2.71-3.83,4.08-5.74,2.1-2.91-.25,.17-.52,.62,.7-1.2,1.84-2.28,2.75-3.33,1.57-1.8,3.21-3.55,4.96-5.18,.21-.19,3.59-3.43,1.21-1.19-2.16,2.03,1.37-.89,1.99-1.27,.49-.3,2.59-1.87,3.06-1.69-.94-.35-3.86,1.34-.19,.2,.78-.24,2.74-1.13,3.49-.88l-2.08,.25c1.2-.14,2.4-.25,3.6-.33,6.11-.43,12.26-.19,18.36,.39,1.23,.12,2.45,.26,3.67,.39,4.88,.5-2.43-.44,1.96,.27,2.94,.47,5.89,.89,8.81,1.48,7.3,1.5,14.23,3.51,21.78,3.72,10.47,.3,20.47-9.41,20-20s-8.79-19.68-20-20h0Z"/><path class="k" d="M358.51,181.19c14.03,0,28.07,.08,42.1-.02,6.27-.05,12.52-.2,18.75,.5-4.82-.54,.93,.23,1.61,.35,1.14,.21,2.27,.43,3.4,.65,3.41,.68,6.82,1.41,10.22,2.18,3.18,.72,6.34,1.49,9.47,2.41,1.42,.42,2.83,.86,4.22,1.35,.58,.2,5.76,2.57,1.75,.63,5.83,2.82,11.36,6.07,16.59,9.91-3.24-2.38-.44-.3,.35,.4,.95,.85,1.87,1.73,2.76,2.65,.95,.99,2.34,2.19,3,3.4-.27-.49-2.38-3.54-.43-.43,1.34,2.14,2.71,4.24,3.89,6.47,.71,1.35,1.35,2.74,2.01,4.12,1.91,3.94-.71-3.06,.36,1.03,.42,1.61,.97,3.17,1.34,4.81,.15,.68,.22,5.28,.4,2.03l-.21-1.23c-.11-1.79,.31-3.44,1.26-4.95,.1,.58-1.86,3.37-2.31,3.72,.31-.25,2.98-3.2,.42-.79-.99,.93-4.1,3.35,.31,.16-2.63,1.9,.12-.04,.92-.26,4.52-1.29,16.1,6.77,9.55,1.01-2.1-1.85-4.03-3.65-6.01-5.64-3.69-3.71,2.09,3.25-.98-1.2-.69-1-1.42-1.99-2.11-2.99-3.78-5.47-7.36-11.11-10.71-16.85,2.23,3.82-.13-.55-.45-1.51-.45-1.35-.85-2.71-1.31-4.05-1.26-3.67-2.66-7.43-4.7-10.76-4.51-7.37-11.72-13.15-20.05-15.59-6.38-1.87-13.32-1.6-19.89-2.35s-13.69-1.09-20.57-1.31c-7.7-.25-15.39-.3-23.09-.33-1.87,0-3.71-.06-5.59-.15,4.3,.22-.92-.17-1.91-.33-4.77-.81-9.55-1.5-14.36-2.03-8.15-.9-15.62-1.59-23.52,1.5-9.02,3.52-17.06,6.62-22.63,15.05-6.21,9.39-1.41,21.63,7.18,27.36,3.49,2.33,7.31,3.8,11.12,5.48,4.13,1.83,8.06,4.08,12.15,6.01,9.98,4.71,20.06,7.79,30.97,9.37,11.08,1.61,22.18,2.45,33.38,2.64,5.05,.09,10.11,.1,15.16,.07,.67,0,6.83,.31,7.04-.14-.44,.96-6.78-3.2-1.12,.4,7.18,4.57,18.44,3.19,24.24-3.13,6.27-6.83,7.33-16.01,3.13-24.24-1.07-2.09-2.24-4.12-3.37-6.17-.4-.73-3.21-7.1-1.78-3.29-1.63-4.35-2.94-8.8-4.61-13.13-1.93-4.98-4.01-10.02-6.54-14.75-1.01-1.89-2.16-3.59-3.44-5.31-1.34-1.83-2.73-3.6-4.19-5.33,1.35,1.89,1.42,1.91,.2,.06l-17.27,30.09c-2.9-.6-3.2-.66-.92-.19,.95,.23,1.91,.44,2.87,.63,1.77,.35,3.57,.6,5.35,.87,4.36,.65,8.75,1.12,13.09,1.93,1.84,.34,3.68,.74,5.48,1.26,1.03,.3,2.05,.63,3.06,1-1.96-.85-2.28-.99-.96-.41,1.76,.76,3.4,1.57,5.05,2.53-3.76-2.18,1.84,1.67,2.6,2.31,7.99,6.74,20.56,8.42,28.28,0,6.82-7.43,8.54-21.08,0-28.28-4.48-3.78-8.88-8.02-14.26-10.45s-11.07-4.96-17.03-6.21c-4.85-1.02-9.79-1.51-14.68-2.24-5.95-.89-11.9-2.65-17.94-2.74-14.83-.21-25.37,17.27-17.27,30.09,1.8,2.85,4.04,5.36,6.06,8.04-2.78-3.69,.94,1.73,1.37,2.55,.99,1.85,1.86,3.77,2.72,5.68-1.61-3.59,.8,2.25,1.06,3,1.91,5.44,3.69,10.87,6.02,16.16,1.91,4.32,4.36,8.31,6.51,12.51l27.36-27.36c-5.9-3.76-12.02-5.74-19.07-5.86-4.86-.08-9.76,.15-14.63,.14-10.06-.04-20.12-.28-30.14-1.34-1.22-.13-2.45-.27-3.67-.42,2.28,.3,2.23,.28-.15-.08-2.41-.48-4.82-.88-7.21-1.45s-4.77-1.24-7.11-2.02c-1.15-.38-2.29-.79-3.42-1.23,2.07,.89,2.06,.86-.04-.09-7.58-3.92-16.17-6.76-23.26-11.49l7.18,27.36c-3.55,5.36-6.69,6.21-2.44,3.83,3.06-1.72-4.33,1.61,.43-.21,.68-.26,3.81-1.92,4.48-1.61l-2.15,.28c.81-.04,1.62-.03,2.43,.03,2.97,.13,5.91,.64,8.86,.94,5.95,.6-3.94-.89,1.92,.29,2.09,.42,4.2,.73,6.31,1.04,15.55,2.3,31.56,1.07,47.26,1.95,3.35,.19,6.69,.5,10.02,.88,2.71,.31,7.62-.24,10.06,.82-.4-.17-4.15-1.09-.8,.1-5.59-1.99,1.47,2-3.2-1.78,3.43,2.77-2.57-3.52,.03,.14,.92,1.86,.82,1.61-.29-.75,.37,1.07,.72,2.14,1.06,3.21,4.87,14.82,14.01,28.65,24,40.59,4.19,5.01,10.13,10.86,15.8,14,9.57,5.31,21.5,3.59,30.35-2.36,6.12-4.12,11.43-10.2,14.85-16.7,4.81-9.13,4.75-18.46,2.19-28.29-7.7-29.58-32.57-50.63-60.84-59.88-15.32-5.01-32.56-8.31-48.66-8.36-16.69-.05-33.38,.07-50.07,.07-10.46,0-20.48,9.2-20,20s8.79,20,20,20h0Z"/><path class="k" d="M436.12,161.7c-.1-.36-.19-.7-.26-1.07l.71,5.32c-.04-.31-.05-.59-.04-.9l-.71,5.32c.02-.17,.05-.34,.11-.5l-2.02,4.78c.05-.15,.12-.29,.22-.42l-3.13,4.05c.09-.13,.2-.24,.33-.34l-4.05,3.13c.14-.11,.29-.19,.45-.26l-4.78,2.02c.31-.11,.59-.18,.91-.23l-5.32,.71c.52-.05,1.02-.07,1.54-.01l-5.32-.71c.21,.04,.4,.1,.59,.19l-4.78-2.02c.18,.09,.35,.19,.51,.32l-4.05-3.13c.65,.55,1.14,1.24,1.75,1.83,4.33,4.16,9.6,6.11,15.53,6.42,4.96,.26,10.7-2.41,14.14-5.86,3.47-3.47,6.08-9.16,5.86-14.14s-1.93-10.54-5.86-14.14-8.64-5.57-14.14-5.86l-.3-.02,5.32,.71c-.18-.03-.36-.08-.53-.16l4.78,2.02c-.16-.08-.32-.18-.46-.29l4.05,3.13c-.41-.36-.74-.77-1.11-1.18-.17-.19-.34-.37-.52-.55-1.15-1.1-3.15-2.69-4.52-3.49s-3.76-1.78-5.32-2.28c-1.85-.59-3.86-.71-5.79-.81-.34-.02-.67-.02-1,0-1.76,.07-4.32,.35-6.02,.81-1.94,.52-4.06,1.48-5.8,2.45-3.09,1.72-6.02,4.85-7.72,7.94-3.02,5.47-3.58,11.89-1.82,17.87,1.43,4.88,4.78,9.37,9.19,11.95,2.3,1.46,4.77,2.25,7.44,2.37,2.66,.6,5.32,.48,7.98-.36,4.84-1.57,9.51-4.57,11.95-9.19s3.56-10.17,2.02-15.41h0Z"/></g><g id="b"><path class="p" d="M190.53,349.27c2.23-2.13,4.54-4.17,6.65-6.43,.45-.48,.51-1.3,0-1.77s-1.29-.51-1.77,0c-2.1,2.25-4.42,4.3-6.65,6.43-.47,.45-.49,1.32,0,1.77s1.26,.48,1.77,0h0Z"/><path class="p" d="M196.92,343.04c11.03-7.63,20.41-17.22,30.15-26.36,5.07-4.76,10.28-9.39,15.87-13.53,5.57-4.13,11.52-7.63,16.91-12.03s10.71-9.5,15.88-14.44c5.61-5.36,11.28-10.65,16.81-16.1,10.86-10.71,21.44-21.69,31.95-32.74s21.34-21.82,31.3-33.32c4.74-5.47,9.39-11.01,13.88-16.69,4.04-5.1,8.61-10.59,10.72-16.83,1.05-3.1,.93-6.04,.84-9.25s-.49-6.32-1.15-9.41c-1.36-6.38-3.91-12.5-7.24-18.09s-7.55-10.19-11.83-15.02c-4.05-4.56-8.78-8.5-13.93-11.77-10.32-6.55-22.16-10.31-34.02-12.94-6.22-1.37-12.49-2.45-18.78-3.46-7.53-1.21-14.92-2.61-22.54-3.18s-15.36-.67-23.05-.48c-3.88,.09-7.83,.11-11.7,.47-3.48,.32-6.97,.93-10.43,1.44-14.11,2.09-28.14,4.81-41.84,8.82-6.77,1.98-13.45,4.27-19.99,6.9-3.21,1.29-6.39,2.66-9.53,4.11-2.88,1.33-5.54,2.87-8.32,4.35-5.36,2.85-10.53,6.42-15.47,9.94s-9.71,7.32-14.17,11.45c-8.97,8.3-16.65,17.98-22.38,28.79-6.77,12.77-10.73,26.86-12.67,41.14-.89,6.58-1.99,13.58-1.1,20.2,.8,5.94,3.06,11.6,6.39,16.57,7.31,10.91,19.35,18.39,31.16,23.63,11.56,5.13,24.78,8.04,37.3,5.03,10.05-2.41,18.52-8.33,25.84-15.43,7.86-7.63,14.66-16.26,22.48-23.93,4.38-4.29,9.06-8.54,14.27-11.8,2.45-1.54,5.01-2.85,7.29-4.64,1.63-1.28,3.35-2.64,5.09-3.77,2.83-1.83,5.95-3.31,8.85-5.06,3.9-2.36,7.78-4.76,11.69-7.11,8.66-5.22,17.44-10.37,26.73-14.39,6.17-2.67,14.9-6.44,21.66-3.73s9.42,11.08,11.42,17.11c2.97,8.97,4.77,18.28,6.92,27.47,1.78,7.6,3.49,15.8,7.59,22.55,1.06,1.74,1.89,3.51,2.78,5.33,1.23,2.49,3.07,4.83,4.75,7.03,3.49,4.58,7.48,8.77,11.9,12.47,8.69,7.26,18.79,12.54,29.38,16.47,11.42,4.23,23.58,7.35,35.64,9.11,14.47,2.12,29.17,1.43,43.49-1.38,7.31-1.43,14.51-3.4,21.58-5.76,3.47-1.16,6.9-2.41,10.31-3.74,1.42-.55,2.35-1.2,3.62-1.99,1.47-.92,3.12-1.53,4.52-2.56,4.34-3.19,5.98-8.81,6.62-13.93s-.77-10.33-5.11-13.24c-2.63-1.76-6.09-2.56-9.1-3.4-3.2-.89-6.46-1.58-9.75-2.06-6.72-.98-13.52-1.15-20.28-.5-13.39,1.29-26.37,5.56-38.2,11.92-2.9,1.56-5.6,3.19-8.17,5.23-1.26,1.01-2.68,1.82-4.03,2.7-1.6,1.03-3,2.25-4.44,3.49-5.4,4.69-10.51,9.7-15.4,14.91s-9.28,11.03-14.27,16.18-10.66,9.73-16.28,14.17c-11.51,9.09-23.56,17.51-34.33,27.5-4.89,4.53-11.7,7.38-17.69,10.15-3.47,1.6-7.32,2.61-10.93,3.86s-7.19,2.5-10.81,3.72c-13.92,4.68-28.23,8.88-43,9.39-1.6,.05-1.61,2.55,0,2.5,14.47-.49,28.51-4.44,42.17-8.98,13.06-4.34,26.69-8.29,38.27-15.96,2.84-1.88,5.21-4.29,7.77-6.52s5.41-4.6,8.18-6.81c5.66-4.52,11.47-8.83,17.21-13.24,5.38-4.14,10.7-8.35,15.76-12.88,2.71-2.43,5.34-4.9,7.69-7.68s4.51-5.3,6.82-7.9c4.65-5.24,9.48-10.32,14.56-15.14,2.52-2.39,5.09-4.77,7.77-6.97,2.44-2.01,5.24-3.52,7.69-5.53,2.61-2.13,5.96-3.67,8.95-5.2,3.19-1.62,6.45-3.09,9.79-4.38,6.14-2.37,12.51-4.16,19.01-5.25,13.4-2.25,27.28-1.28,40.12,3.21,3.01,1.05,5.49,2.45,6.78,5.52,1.11,2.62,1.1,5.55,.54,8.3s-1.19,5.68-2.78,8.09c-1.92,2.89-4.98,3.72-7.67,5.64s-6.03,2.69-8.99,3.74c-3.33,1.18-6.69,2.28-10.08,3.28-6.91,2.04-13.94,3.67-21.06,4.76-14.45,2.22-29.07,1.96-43.39-.98-22.31-4.57-45.26-11.76-61.76-28.26-4.1-4.1-8.11-8.79-10.93-13.88-.89-1.61-1.55-3.33-2.49-4.92-.86-1.46-1.72-2.89-2.41-4.44-3.39-7.6-4.96-16.05-6.79-24.12-1.97-8.7-3.81-17.55-7.1-25.87-2.28-5.77-5.59-12.5-11.82-14.79-6.62-2.43-14.54,.41-20.72,2.89-8.96,3.59-17.41,8.37-25.7,13.28-7.24,4.29-14.31,8.91-21.67,13.01-3.15,1.76-5.92,3.89-8.82,6.06-2.51,1.88-5.43,3.16-8,4.97-2.31,1.63-4.54,3.4-6.69,5.23-8.39,7.14-15.45,15.59-22.91,23.65-6.86,7.41-14.33,14.62-23.77,18.6-11.66,4.92-24.47,3.87-36.22-.2-6.46-2.24-12.58-5.38-18.37-9-5.64-3.53-10.93-7.41-15.21-12.55-3.95-4.74-6.91-10.33-8.25-16.38-1.46-6.59-.49-13.49,.31-20.11,1.74-14.37,5.52-28.66,12.2-41.56,5.59-10.79,13.12-20.43,21.99-28.73,4.44-4.15,9.18-7.96,14.13-11.49,4.79-3.41,9.8-6.88,14.97-9.67,5.8-3.13,11.62-6,17.75-8.47s13-4.84,19.65-6.8c13.21-3.89,26.74-6.58,40.34-8.64,3.73-.57,7.48-1.19,11.24-1.58s7.53-.39,11.27-.49c7.55-.2,15.12-.15,22.66,.37s15.17,1.83,22.75,3.13c6.06,1.04,12.13,2,18.15,3.3,11.79,2.55,23.54,6.14,33.84,12.56,5.18,3.23,9.9,7.14,13.96,11.71,4.37,4.92,8.64,9.64,11.95,15.39,3.26,5.67,5.65,11.83,6.81,18.27s1.6,13.32-1.64,19.3c-3.42,6.29-8.23,11.92-12.74,17.44s-8.82,10.73-13.49,15.84c-10.09,11.03-20.6,21.72-30.91,32.54-10.27,10.77-20.64,21.45-31.29,31.85-5.23,5.11-10.58,10.07-15.87,15.12s-10.16,9.65-15.67,13.98-11.47,7.74-16.96,11.99c-5.2,4.02-10.09,8.42-14.87,12.93-9.31,8.78-18.32,17.95-28.89,25.26-1.31,.91-.07,3.08,1.26,2.16h0Z"/><line class="c" x1="379.66" y1="113.69" x2="379.43" y2="395.65"/><path class="c" d="M83.08,219.28c-.08,34.83,.92,68.83-.79,103.64"/><path class="c" d="M496.73,263.95c.27,41.16,.27,82.16,1.04,122.74"/><path class="p" d="M217.49,358.23c1.92-1.76,4.14-3.35,5.37-5.72,.3-.58,.17-1.38-.45-1.71-.57-.3-1.39-.17-1.71,.45-.14,.27-.3,.54-.47,.8-.08,.12-.16,.23-.25,.35-.17,.24,.17-.21-.02,.02-.05,.06-.09,.11-.14,.17-.4,.49-.85,.94-1.31,1.38-.9,.86-1.88,1.65-2.8,2.5-.48,.44-.48,1.32,0,1.77,.52,.47,1.25,.47,1.77,0h0Z"/><path class="p" d="M222.66,352.77c10.94-8.79,20.65-18.97,31.43-27.93,5.33-4.43,10.96-8.51,16.4-12.8s10.78-8.65,16.06-13.1c20.59-17.32,40.1-35.88,58.75-55.26,9.37-9.73,18.52-19.67,27.53-29.73s18.05-19.74,24.9-31.22c3.12-5.23,5.75-10.89,6.92-16.9s.62-12.14-1.45-18.04c-2.11-6-3.77-12.08-6.92-17.65-2.7-4.78-6.16-9.16-10.13-12.95-3.92-3.73-8.34-6.94-13.07-9.56-5.19-2.87-10.83-4.65-16.03-7.47-11.58-6.29-24.37-9.96-37.38-11.78-13.09-1.82-26.34-1.93-39.53-1.45-13.89,.51-27.54,1.66-41.19,4.42s-27.37,6.79-40.63,11.58c-6.71,2.43-13.35,5.05-19.93,7.82-5.55,2.34-11.04,4.58-16.2,7.73-10.06,6.16-18.65,14.42-26.21,23.41-3.9,4.64-7.55,9.47-11.06,14.4-1.76,2.47-3.44,4.99-5.24,7.43s-3.06,5.4-4.36,8.11c-5.77,12.04-8.45,25.1-8.39,38.42,.02,6.05,.22,12.41,1.42,18.36,1.11,5.5,3.6,10.72,6.87,15.26s7.41,8.59,12.06,11.81c5.31,3.69,11.42,6.01,17.39,8.41,10.42,4.19,21,7.36,32.21,4.61,8.95-2.19,16.71-7.53,23.68-13.36,7.96-6.66,15.19-14.15,23.07-20.91,8.9-7.62,18.8-13.84,28.6-20.19,3.07-1.98,6.14-3.89,9.29-5.76,2.74-1.63,5.42-3.58,8.2-5.08,2.48-1.34,5.07-2.45,7.52-3.89s4.91-3.01,7.39-4.46c4.95-2.9,10.24-5.51,16.05-5.99,8.92-.72,15.17,6.03,20.2,12.57,5.88,7.64,10.6,16.12,15.57,24.35s10.89,15.65,16.75,23.31c7.84,10.25,16.19,20.81,26.96,28.14,10.89,7.41,23.23,12.44,35.92,15.83,6.29,1.68,12.69,2.97,19.12,4.03,3.16,.52,6.33,.98,9.5,1.4,1.53,.2,3.06,.45,4.6,.58,1.81,.16,3.7-.18,5.52-.34,13.27-1.19,26.6-2.61,39.49-6.1,6.5-1.76,12.85-4.06,18.94-6.95,5.31-2.53,9.37-6.28,11.24-12.01,1.59-4.87,1.55-11.15-1.58-15.4-3.55-4.83-9.43-5.96-14.98-7.12-23.78-4.98-48.42,.72-69.15,12.88-5.28,3.09-10.31,6.6-15.07,10.44-2.44,1.97-4.82,4.02-7.11,6.16-2.47,2.3-4.58,4.97-6.74,7.57-4.32,5.21-8.53,10.52-13.19,15.43-5.15,5.43-11.13,9.81-17.09,14.3s-11.75,8.77-17.49,13.33c-2.61,2.08-4.78,4.76-7.11,7.15s-4.88,4.81-7.68,6.79c-5.64,3.99-12.11,7.11-18.4,9.92s-13.04,5.27-19.77,7.3c-12.45,3.76-25.24,6.23-38.08,8.21-1.59,.24-.91,2.65,.66,2.41,26.02-4.01,51.91-10.41,74.61-24.24,5.42-3.3,9.71-7.88,14.06-12.43,4.99-5.22,11.18-9.32,16.94-13.65,5.58-4.18,11.53-8.19,16.66-12.92,4.97-4.59,9.35-9.77,13.64-14.98s8.1-10.13,12.97-14.46c4.59-4.09,9.48-7.84,14.63-11.19,10.02-6.53,21.02-11.59,32.63-14.52,11.56-2.92,23.7-3.69,35.49-1.8,2.96,.48,5.89,1.11,8.79,1.9,3.17,.86,6,1.75,8.21,4.33,3.8,4.43,3.17,11.81,.53,16.68-3.26,6.01-9.74,8.4-15.8,10.74-6.11,2.36-12.43,4.15-18.83,5.51-6.52,1.38-13.12,2.33-19.73,3.08-6.42,.72-13.28,2-19.7,1.19-25.41-3.24-52.97-9.16-72.5-26.91-9.72-8.83-17.4-19.54-25.34-29.91-2.3-3-4.66-5.87-6.72-9.05-2.4-3.72-4.65-7.54-6.92-11.34-4.72-7.89-9.46-15.94-15.55-22.87-5.24-5.97-11.42-10.59-19.71-9.74-11.06,1.13-19.58,8.78-29.2,13.54-2.97,1.47-5.57,3.15-8.49,4.9s-5.63,3.22-8.34,4.97c-9.41,6.08-18.95,12.01-27.75,18.97-8.03,6.36-15.23,13.66-22.84,20.51-6.86,6.17-14.28,12.29-23.05,15.5-10.21,3.74-20.19,2.21-30.19-1.45-11.95-4.37-23.59-9.23-31.7-19.46-3.55-4.48-6.27-9.69-7.55-15.27-1.37-5.96-1.5-12.48-1.52-18.57-.05-13.42,2.72-26.56,8.76-38.59,2.67-5.33,6-10.08,9.47-14.93s7.2-9.72,11.14-14.32c7.57-8.83,16.17-16.89,26.27-22.75,5.41-3.14,11.23-5.39,16.99-7.77,6.41-2.65,12.89-5.16,19.44-7.47,12.93-4.56,26.14-8.34,39.6-10.97,13.41-2.62,26.85-3.63,40.48-4.08,26.04-.87,52.54,.96,75.78,13.81,4.9,2.71,10.34,4.24,15.24,7.03s9.19,6.06,13.05,9.98,7.12,8.41,9.61,13.32c1.39,2.75,2.43,5.61,3.4,8.54,1.08,3.24,2.37,6.47,3.23,9.78,3.35,12.79-3.02,25.24-10.14,35.48-7.55,10.86-16.77,20.53-25.63,30.32-17.49,19.33-35.6,38.12-54.68,55.89-9.59,8.93-19.41,17.6-29.48,25.98s-21.42,16.5-31.68,25.27-19.15,17.98-29.39,26.21c-1.25,1.01,.52,2.77,1.77,1.77h0Z"/><line class="g" x1="155.45" y1="125.73" x2="129.96" y2="115.81"/><line class="g" x1="174.87" y1="113.21" x2="150.02" y2="103"/><line class="g" x1="199.44" y1="104.35" x2="171.88" y2="93.63"/><g><line class="p" x1="220.78" y1="97.77" x2="197.95" y2="86.22"/><path class="p" d="M220.76,97.81c-7.93-3.05-15.66-6.97-22.82-11.55l.03-.07c5.63,2.89,17.39,8.6,22.79,11.62h0Z"/></g><line class="g" x1="227.32" y1="95.84" x2="211.42" y2="83.37"/><line class="g" x1="243.83" y1="90.88" x2="230.49" y2="79.99"/><line class="g" x1="142.7" y1="138.07" x2="116.26" y2="129.1"/><line class="g" x1="129.48" y1="152.33" x2="101.64" y2="145.41"/><line class="g" x1="120.01" y1="166.77" x2="92.33" y2="161.81"/><line class="g" x1="111.99" y1="183.64" x2="86.75" y2="179.8"/><line class="e" x1="108.83" y1="198.49" x2="83.54" y2="198.02"/><line class="g" x1="107.9" y1="221.66" x2="83.08" y2="219.28"/><line class="g" x1="109.28" y1="230.28" x2="95.27" y2="238.15"/><line class="e" x1="162.77" y1="257.47" x2="167.33" y2="269.5"/><line class="e" x1="190.7" y1="235.16" x2="197.58" y2="251.58"/><line class="e" x1="205" y1="220" x2="217.02" y2="240.24"/><line class="e" x1="215.81" y1="209.19" x2="229.07" y2="230.3"/><line class="e" x1="230.09" y1="199.43" x2="241.52" y2="219.57"/><line class="e" x1="245.89" y1="189.43" x2="266.9" y2="204.86"/><line class="e" x1="268.19" y1="177.5" x2="281.49" y2="195.49"/><line class="g" x1="254.56" y1="78.56" x2="258.09" y2="88.8"/><line class="e" x1="379.66" y1="113.69" x2="368.99" y2="120.77"/><line class="e" x1="394.4" y1="130.55" x2="374.2" y2="132.05"/><line class="e" x1="403.06" y1="148.87" x2="379.89" y2="151.65"/><line class="e" x1="403.79" y1="162.55" x2="378.51" y2="161.5"/><line class="e" x1="397.24" y1="181.85" x2="370.65" y2="175.88"/><line class="e" x1="378.62" y1="205.35" x2="354.45" y2="193.93"/><line class="e" x1="361.43" y1="223.72" x2="338.16" y2="211.5"/><line class="e" x1="333.4" y1="252.63" x2="307.75" y2="242.88"/><line class="e" x1="318.16" y1="268.08" x2="291.65" y2="259.18"/><line class="e" x1="302.06" y1="283.78" x2="278.17" y2="272.34"/><line class="e" x1="284.44" y1="299.58" x2="260.68" y2="288.21"/><line class="e" x1="267.6" y1="312.97" x2="241.37" y2="303.63"/><line class="e" x1="252.07" y1="325.56" x2="223.91" y2="317.97"/><line class="e" x1="242.3" y1="334.44" x2="211.89" y2="329.17"/><line class="e" x1="221.78" y1="351.88" x2="198.32" y2="342.75"/><line class="e" x1="369.23" y1="327.35" x2="343.94" y2="317.27"/><line class="e" x1="356.58" y1="337.86" x2="333.98" y2="325.34"/><line class="e" x1="338.97" y1="352.03" x2="315.97" y2="340.68"/><line class="e" x1="315.97" y1="361.19" x2="294.24" y2="350.05"/><line class="e" x1="288.97" y1="369.64" x2="269.75" y2="357.96"/><path class="e" d="M257.66,368.17l-8.27-6.44"/><line class="e" x1="386.39" y1="314.13" x2="361.92" y2="303.41"/><line class="e" x1="402.55" y1="298.99" x2="377.06" y2="289.07"/><line class="e" x1="419.84" y1="278.06" x2="395.93" y2="269.09"/><line class="e" x1="439.46" y1="265.21" x2="415.63" y2="254.26"/><line class="e" x1="458.84" y1="256.08" x2="442.41" y2="243.7"/><line class="e" x1="477.76" y1="251.92" x2="472.61" y2="241.67"/><line class="e" x1="497.93" y1="259.74" x2="522.94" y2="274.95"/><line class="e" x1="492.49" y1="271.27" x2="501.05" y2="289.46"/><line class="e" x1="471.75" y1="280.37" x2="476.25" y2="295.04"/><line class="e" x1="446.11" y1="286.09" x2="453" y2="297.72"/><line class="e" x1="363.68" y1="259.74" x2="351.2" y2="265.38"/><line class="e" x1="351.74" y1="245.3" x2="337.36" y2="251.68"/><line class="e" x1="338.77" y1="227.4" x2="324.84" y2="233.65"/><line class="e" x1="328.11" y1="209.54" x2="319.38" y2="212.67"/><path class="c" d="M129.96,115.81c.04,72.3,.04,143.3-.36,214.97"/><path class="c" d="M197.95,86.22c.05,88.9,.04,177.73,.66,266.9"/><path class="c" d="M284.77,88.8c.23,95.31,.23,191.31-.33,286.49"/><path class="c" d="M349.79,100.95c-1.79,97.16-1.79,193.16-4.44,290.52"/><line class="c" x1="129.98" y1="188.29" x2="197.6" y2="162.1"/><line class="c" x1="197.05" y1="162.31" x2="284.92" y2="162.46"/><line class="c" x1="348.44" y1="175.7" x2="284.92" y2="162.46"/><line class="c" x1="129.98" y1="188.29" x2="83.08" y2="219.28"/><line class="c" x1="349.03" y1="176.7" x2="383.95" y2="199.92"/><line class="c" x1="82.8" y1="301.95" x2="129.72" y2="270.57"/><line class="c" x1="129.72" y1="270.57" x2="198.69" y2="250.8"/><line class="c" x1="284.92" y1="248.05" x2="198.69" y2="250.8"/><line class="c" x1="347.77" y1="257.01" x2="284.92" y2="248.05"/><line class="c" x1="378.54" y1="274.46" x2="347.77" y2="257.01"/><path class="c" d="M198.32,328.16c-16.93,2.31-38.05,4.47-54.95,6.96"/><line class="c" x1="284.44" y1="324.29" x2="198.32" y2="328.16"/><line class="c" x1="347.54" y1="336.38" x2="284.44" y2="324.29"/><line class="c" x1="379.46" y1="350.29" x2="347.54" y2="336.38"/><line class="c" x1="497.12" y1="333.23" x2="379.46" y2="350.29"/><line class="c" x1="497.45" y1="265.03" x2="377.06" y2="289.07"/><line class="e" x1="197.95" y1="86.22" x2="284.92" y2="162.46"/><line class="e" x1="198.29" y1="162.39" x2="280.93" y2="80.14"/><line class="e" x1="129.96" y1="115.81" x2="198.29" y2="162.39"/><line class="e" x1="197.95" y1="86.22" x2="129.98" y2="188.29"/><line class="e" x1="348.44" y1="175.7" x2="287.34" y2="80.79"/><line class="e" x1="284.92" y1="162.46" x2="349.79" y2="100.95"/><line class="e" x1="379.54" y1="196.99" x2="349.79" y2="100.95"/><line class="e" x1="349.03" y1="176.7" x2="379.66" y2="113.69"/><line class="e" x1="129.98" y1="188.29" x2="101.64" y2="145.41"/><line class="g" x1="129.96" y1="115.81" x2="83.08" y2="219.28"/><line class="e" x1="129.98" y1="188.29" x2="198.69" y2="250.8"/><line class="e" x1="197.95" y1="162.16" x2="129.72" y2="270.57"/><line class="e" x1="284.92" y1="162.46" x2="198.69" y2="250.8"/><line class="e" x1="198.29" y1="162.39" x2="284.92" y2="248.05"/><line class="e" x1="284.92" y1="162.46" x2="347.77" y2="257.01"/><line class="e" x1="348.44" y1="175.7" x2="284.92" y2="248.05"/><line class="e" x1="379.54" y1="196.99" x2="347.77" y2="257.01"/><line class="e" x1="349.03" y1="176.7" x2="379" y2="275.12"/><line class="e" x1="129.98" y1="188.29" x2="83.04" y2="301.43"/><line class="e" x1="83.08" y1="219.28" x2="129.72" y2="270.57"/><path class="e" d="M83.3,301.9c11.82,8.57,22.5,17.76,34.39,26.23"/><path class="e" d="M129.72,270.57c-9.36,18.78-19.1,37.37-28.73,56.01"/><path class="e" d="M198.69,250.8c-17.8,20.53-33.95,42.4-50.8,63.69-4.76,6.01-9.57,11.98-14.5,17.86"/><line class="e" x1="129.72" y1="270.57" x2="198.32" y2="328.16"/><line class="e" x1="198.69" y1="250.8" x2="284.44" y2="324.29"/><line class="e" x1="284.92" y1="248.05" x2="198.32" y2="328.16"/><line class="e" x1="347.77" y1="257.01" x2="284.44" y2="324.29"/><line class="e" x1="284.92" y1="248.05" x2="347.54" y2="336.38"/><line class="e" x1="347.77" y1="257.01" x2="379.46" y2="350.29"/><line class="e" x1="378.54" y1="274.46" x2="347.54" y2="336.38"/><line class="e" x1="497.45" y1="265.03" x2="379.46" y2="350.29"/><line class="e" x1="379.51" y1="288.58" x2="497.12" y2="333.23"/><path class="c" d="M304.52,187.82c.48,56.87,.48,136.3,.56,192.9"/><path class="c" d="M167.33,269.5c-.32,24.06-.33,48.12-.92,72.18"/><path class="p" d="M545.15,337.84c.73,9.63-6.46,18.12-12.28,25.01-2.75,3.26-5.46,6.53-8.78,9.24s-7.29,5.06-11.3,6.92c-7.98,3.7-16.64,5.78-25.26,7.36-9.95,1.82-20,3.13-30.07,4.12-22.44,2.2-45.18,3.33-67.72,3.37-11.6,.03-23.18-.58-34.66-2.31-11.06-1.68-21.98-4.14-32.81-6.92-21.84-5.61-43.51-11.89-65.37-17.43-22.31-5.65-44.44-11.67-66.41-18.57-21.22-6.66-42.32-14.16-63.97-19.32-10.65-2.54-21.44-4.22-32.33-5.33-10.78-1.11-22.07-1.95-32.86-.53-16.96,2.24-30.7,14.25-37.2,29.75-6.15,14.67-6.77,33.01,2.26,46.69,2.24,3.39,5.1,6.21,8.66,8.19,1.41,.78,2.67-1.38,1.26-2.16-7.81-4.34-11.92-13.39-13.5-21.86s-.69-16.94,1.8-24.93c5.35-17.15,19.49-31.34,37.89-33.32,10.97-1.18,22.28-.35,33.21,.83s22.15,3.07,33.02,5.79c21.47,5.36,42.43,12.79,63.54,19.39s43.47,12.61,65.45,18.18c21.69,5.49,43.17,11.77,64.84,17.3,21.45,5.47,42.96,8.99,65.13,9.08s44.95-1.07,67.23-3.13c9.88-.91,19.73-2.16,29.51-3.79,8.38-1.4,16.76-3.17,24.72-6.21,7.5-2.86,14.67-6.87,20.3-12.67,5.99-6.17,12.27-13.51,15.86-21.38,1.64-3.58,2.63-7.37,2.33-11.33-.12-1.59-2.62-1.61-2.5,0h0Z"/><line class="f" x1="366.99" y1="106.24" x2="361" y2="111.12"/><line class="h" x1="275.29" y1="80.79" x2="279.84" y2="89.6"/><line class="d" x1="306.62" y1="84.47" x2="308.44" y2="89.6"/><line class="f" x1="176.68" y1="247.76" x2="185.39" y2="264.2"/><line class="e" x1="117.69" y1="245.26" x2="110.33" y2="249.55"/><line class="e" x1="286.24" y1="169.79" x2="296.6" y2="188.48"/><line class="e" x1="307.7" y1="176.28" x2="306.89" y2="187.82"/><line class="e" x1="374.16" y1="271.1" x2="370.04" y2="275.66"/></g></svg>