<?xml version="1.0" encoding="UTF-8"?><svg xmlns="http://www.w3.org/2000/svg" viewBox="0 0 841.89 392.38"><defs><style>.d{fill:#f6ef90;}.e{fill:#b4d3b4;}.f{fill:#a6c8ea;}.g{fill:#c68b99;}.h{fill:#1d1d1b;}.i{stroke-width:1.25px;}.i,.j,.k{fill:none;stroke:#1d1d1b;stroke-miterlimit:10;}.j{stroke-width:.75px;}.l{opacity:.82;}.m{opacity:.87;}</style></defs><g id="a"><g class="m"><path class="d" d="M355.32,160.92c-1.08-2.52-3.11-4.72-4.79-6.8,1.81,2.23,2.08,2.67,.42-.05-.78-1.27-1.64-2.47-2.46-3.71-.87-1.32-2.53-5.34-.73-.35-1.45-4.02-.44,4.36-.04,0-.22,2.44-1.4,6.93-1.88,7.78,1.19-2.09-3.89,4.48-1.49,2.19-4.18,3.98-3.19,2.51-1.25,1.24,2.93-1.91-4.28,1.35-1.78,.66,.94-.26,1.85-.64,2.8-.91,1.19-.33,2.4-.55,3.6-.83,3.79-.89-4.21,.19-1.47,.19,2.36,0,4.68-.27,7.05-.13,.91,.05,4.81,.26,.77,0s.17,.25,1.14,.45c2.82,.59,.66,.38-.78-.46-2.51-2.22-3.19-2.76-2.04-1.65,1.24,1.26,.6,.44-1.92-2.46-.44-.74-1.95-5.61-.99-2.17,.22,.8,.48,1.58,.73,2.37,2.27,7.08-1.9-3.18,2.34-10,1.3-2.1,2.59-3.06,.17-.62-1.26,1.27-3.86,2.89-4.69,4.43,.78-1.46,4.24-2.49,.89-.95-2.33,1.07,4.83-1.32,.97-.52,3.55-.33,4.05-.48,1.5-.45l2.81,.38c-.64-.49-3.51-.79-4.31-.95-3.72-.76-7.66-1.38-11.48-1.35-1.24,.01-2.48,.14-3.72,.16-5.17,.07-2.77-2.41,5.82,2.22l-5.29,40.44c4.56-1.27-5.39,.06,.94-.22,2.19-.1,4.36-.18,6.54-.4,4.09-.41,8.09-.66,12.21-.7s8.37-.22,12.56-.04c1.17,.04,2.34,.12,3.5,.23-3.03-.47-3.31-.49-.83-.05,1.79,.47,3.59,.82,5.36,1.37,.7,.21,1.4,.45,2.08,.71-4.25-1.82-3.32-1.44,2.79,1.16,2.09,.81,4.14,1.46,6.32,1.97,3.98,.95,7.89,2.02,11.83,3.11s8.19,2.22,12.26,3.42c1.61,.47,3.21,1.01,4.83,1.45,2.24,.8,1.58,.5-1.99-.91,8.14,5,6.19-3.13-5.85-24.38l7.94-7.94c.56-.42,5.42-1.54,2.27-.92,5.93-1.16,2.17-.29,.7-.14-2.13,.23-4.27,.43-6.41,.56-4.2,.25-8.47,.44-12.67,.27-.81-.03-4.17-.4-.48,.1,3.95,.53-1.45-1.18,1.87,.62,3.56,1.93-1-.71-1.33-.92-.87-.55-1.69-1.17-2.55-1.72-2.79-1.77,.99,.38,1.27,1.11-.21-.55-1.46-1.3-1.91-1.69-4.46-3.78-7.93-5.5-13.3-7.71-8.02-3.31-18.46,1.72-23.26,7.93-5.81,7.52-5.52,16.22-1.73,24.57,.96,2.13,2.85,4.3,4.56,5.86l4.48,3.46c1.36,.82,1.26,.67-.31-.45-1.39-.91-2.47-2.11-3.24-3.62l3.46,4.48c1,1.18,2.07,2.24,3.2,3.29,4.46,4.16,9.21,7.99,13.55,12.29,.95,.94,1.8,1.98,2.75,2.9,1.09,1.27,.71,.76-1.14-1.52l-1.64-7.29c.85,.55,.7,7.27,1.14,8.67l2.23,5.29c-1.04-2.8-1.38-3.52-1.01-2.17,.4,1.63,.28,.57-.33-3.2l9.13-15.16c4.33-2.81,3.66-1.38,.97-.7-.96,.24-4.78,.56-.9,.33s-.23-.03-1.07,.01c-2.62,.14-5.28,.24-7.9,.19l-1.46-.04c-1.82-.15-1.84-.14-.05,.04,2.92,1.42-1-.39-1.89-.65-.8-.23-1.58-.49-2.36-.78-1.55-.57-1.04-.35,1.52,.66-.88,.14-2.64-1.53-3.39-1.86-2.22-.99,2.78,3.32,.58,.53-2.88-3.67,3.34,4.63,.46,.74l-3.46-4.48c-1.19-1.47-1.19-1.45,0,.04,1.19,2.43,2.91,12.06,3.44,7.03,.16-1.5,0-2.98-.1-4.47-.15-2.41,.71-4.98-.73-.55-.74,2.26-1.39,3.35,.02,.48,1.1-2.24-2.81,2.73,0,.3,4.58-3.97,7.05-8.66,9.21-14.21,4.2-10.81-4.62-24.75-15.45-27.22-12.69-2.89-22.72,3.88-27.22,15.45,4.2-6.33,4.93-8.1,2.17-5.31-.75,.68-1.44,1.42-2.07,2.22-2.17,2.47-4.46,5.48-6.03,8.45-3.09,5.86-4.57,12.11-4.28,18.76,.21,4.85-.27,10.07,.84,14.81,.74,3.15,1.98,6.09,3.66,8.84,1.41,1.89,2.86,3.76,4.35,5.59l-1.81-2.33c4.57,5.48,7.29,9.2,13.44,13.15,4.26,2.74,9.08,4.72,13.85,6.34,8.14,2.76,17.15,3.11,25.66,2.49,9.83-.73,20.85-2.65,28.06-10.05,5.07-5.21,7.46-12.6,6.9-19.78-.27-3.47-.66-6.12-1.76-9.2-2.98-7.62-3.03-7.03-.14,1.78-.11-1.43-.28-2.85-.51-4.26-1.52-11.3-10.38-19.38-18.41-26.67-2.88-2.61-5.72-5.48-8.78-7.89-1.85-1.97-1.59-1.5,.78,1.42-1.33-1.86-2.74-3.65-4.23-5.38-1.75-1.59-3.59-3.06-5.54-4.4-3.26-2.14-1.6-.33,4.97,5.45l-24.99,32.5c-2.03-.42-3.79-1.36-5.26-2.83,.62,.58,1.26,1.13,1.92,1.67,2.52,2.12,5.21,4.04,7.96,5.84,3.92,2.57,8.39,4.83,12.98,5.85,8.32,1.84,17.23,1.51,25.67,.81,14.16-1.16,29.29-3.36,34.06-19.4,4.73-15.9-6.14-28.21-20.18-33.22-7.66-2.73-15.69-4.62-23.52-6.79-2.18-.61-4.38-1.07-6.59-1.6-1.18-.28-4.03-.48-4.77-1.34,4.09,1.73,3.1,1.32-2.96-1.24-.91-.38-1.83-.72-2.76-1.03-1.98-.66-4.02-1.18-6.06-1.59-10.1-2.03-20.27-1.91-30.52-1.7-4.08,.08-8.09,.74-12.16,.98-5.32,.31-10.57,.47-15.76,1.91-17.84,4.96-22.29,31.28-5.29,40.44,4.8,2.58,9.77,3.67,15.2,3.83,1.3,.04,2.6-.07,3.89-.12,.54-.02,1.09-.06,1.63-.05,3.27,.01,1.13,1.26-.77-.23,.82,.65,3.27,.75,4.31,.95,2.92,.56,5.98,1.09,8.95,1.2,5.4,.2,10.56-1.01,15.47-3.08,6.86-2.9,12.6-7.65,17.75-12.99,8.52-8.84,12.09-19.88,8.26-31.83-2.6-8.1-5.92-14.83-12.76-20.12-7.56-5.84-16.86-7.73-26.19-8.41-14-1.01-30.46,2.85-40.87,12.69-8.45,7.98-10.73,19.01-8.68,30.12,.97,5.24,3.44,10.24,6.42,14.62,1.16,1.71,2.15,3.51,3.27,5.23,.76,1.17,1.67,2.27,2.52,3.37,2.02,2.6,2.31,2.98,.87,1.14-1.02-1.5-1.14-1.47-.35,.07,2.04,4.73,8.5,8.87,13.22,10.17,5.3,1.46,12.35,.8,17.05-2.23,11.08-7.14,12.85-18.85,7.94-30.27h0Z"/></g><g class="m"><path class="e" d="M709.42,208.02c0-4.49,.02-8.98-.02-13.46-.02-2.16,.08-4.35,.02-6.51,.19-2.6,.13-2.4-.2,.61,1.22-4.04,0-2.25-3.64,5.38l-9.76,5.69,.63-.26h-11.76l.63,.16-9.76-5.69c-2.96-2.78-4.44-6.07-4.43-9.85,.08,1.06,.12,2.13,.11,3.2,.02,1.13,.55,4.2-.07,4.99,.41-2.93,.47-3.57,.16-1.94-.14,.73-.3,1.45-.49,2.17-.29,1.08-.64,2.15-1.03,3.2,1.37-3.07,1.33-2.92-.12,.45-3.85,9.13-2.53,19.29,4.6,26.42,2.99,2.99,6.47,4.8,10.54,5.82,3.92,1.05,7.84,1.05,11.76,0,3.89-.55,1.05-.47-8.54,.22l-9.76-5.69c1.86,1.54,4.14,3.78,6.01,4.76-6.27-10.8-8.89-13.81-7.84-9.03,.31,1.64,.22,.94-.25-2.1,.59,1.32,.37,3.69,.42,5.07l.03,1.82c-.07,2.69,.02,2.07,.27-1.85l5.69-9.76,3.12-2.3,17.05-2.23-.69-.18,13.22,10.17c-.29-.48-.56-.97-.79-1.48-.72-1.53-.33-.6,1.18,2.79,.2-.72-.48-2.29-.62-3.01-.72-3.66-1.79-6.79-3.62-10.19-5.23-9.71-17.87-13.17-27.63-9.05-10.75,4.54-14.72,15.06-12.81,26.1,.89,5.12,2.68,9.88,4.02,14.87,.71,2.64,1.09,5.36,1.73,8.01,.87,3.57-.37-5.35-.29-1.18,.08,3.92,1-4.6,1.49-5.4l19.1-10.96-.87,.07,15.64,6.48c1.49,1.55,2.55,3.35,3.17,5.4-.25-.9-.47-1.82-.65-2.74-.17-.88-.38-1.74-.63-2.6-.49-2.04-.44-1.48,.15,1.67-.9-1.08-.05-6.04-.11-7.47,.04-2.66-.02-2.31-.18,1.05,.33-.88,.67-1.77,.99-2.65l-42.67-11.76c-.05,.87-.27,1.69-.67,2.46l5.69-9.76c8.85-4.51,11.08-5.93,6.7-4.26-2.46,.65-4.7,1.72-6.72,3.18-1.85,1.28-3.62,2.67-5.29,4.17,1.58-1.95,3.6-3.18,6.06-3.69h11.76l-.73-.12,9.76,5.69,4,6.6c-.2-.58-.37-1.18-.5-1.79-.24-1.09-.21-.82,.09,.8,.26,2.03,.33,1.89,.2-.42,.39-3.13,.08-.32-.26,1.12-3.99,6.55-4.5,7.78-1.52,3.68,4.28-5.2,1.83-3.44-7.34,5.29,5.09-.73,10.75-5.95,13.22-10.17,2.78-4.74,3.95-11.73,2.23-17.05-4.07-12.59-14.9-17.22-27.22-15.45-7.7,1.11-12.03,6.31-16.69,11.79,4.74-5.57-1.92,2.34-2.65,3.68-1.3,2.38-2.43,5.23-3.03,7.89-2.12,9.51-1.18,20.94,3.71,29.52,7.39,12.95,22.55,15.16,34.87,8.02,1.64-1.25,3.27-2.51,4.89-3.78,2.26-1.74,.38-.68-5.65,3.18,1.5,.93,4.7-1.48,6.4-2.58,5.69-3.67,10.11-9.48,11.33-16.24,2.04-11.35-3.08-24.4-15.45-27.22s-22.89,3.82-27.22,15.45c-7.55,20.3,.89,64.32,31.03,56.02,16.51-4.55,19.17-22.52,16.66-36.75-1.43-8.11-4.53-15.72-5.93-23.81l-40.44,17.05c-3.22-5.97-1.35-2.96-.84-.38,.24,1.21,.47,2.39,.82,3.56,1.9,6.5,5.87,13.17,11.81,16.64,7.37,4.31,16.37,3.94,23.72-.2,7.79-4.4,11.53-13.11,12.05-21.67,.53-8.69-.4-19.57-5-27.13-2.5-4.1-4.71-5.84-8.55-8.6,7.76,5.57-.63-.78-2.18-1.78-6.25-4.03-13.35-3.48-20.27-2.45h11.76l-.77-.13,13.22,10.17-.49-.64,2.23,17.05c-2.01,4.06-1.66,3.08,1.04-2.95,.35-.88,.67-1.76,.97-2.66,.58-1.71,1.01-3.43,1.35-5.21,.91-4.67,1.41-9.33,1.34-14.07-.21-12.96-5.06-26.86-19.03-30.49-8.17-2.12-16.92,.52-22.75,6.58s-7.45,13.35-8.23,21.13-.28,15.72-.28,23.51c0,11.57,10.18,22.66,22.12,22.12s22.12-9.72,22.12-22.12h0Z"/></g><g class="m"><path class="f" d="M242.66,149.43c-.36-.15,7.76,8.78,5.09,5-2.32-3.28,1.4,4.42,.63,1.6-.26-.97-.57-2.24-.99-3.15-1.14-2.45,.05,3.38,.05,1.12-.01-1.77-.13-.92-.35,2.55l-1.17,2.8c1.22-2.53-.26,.28-1,1.16,1.8-2.16-.29,.16-1.31,.81,3.21-2.08-3.54,.64-1.21,.25,1.81-.52,.73-.59-3.25-.23-4.33,.88-7.41-1.06-9.25-5.84-5.2-5.57-6.75-6.05-5.21-12.77,2.01-8.75-1.87,2.53-2.13,3.17-.35,.89-.79,1.79-1.04,2.71,.36-1.29,1.53-3.72,.35-1.08-.98,2.2-2,4.44-2.81,6.72-.73,2.06-1.02,3.71-1.32,5.94-.44,3.32-.52,3.92-.25,1.8,.25-1.46,.2-1.52-.16-.16l5.69-9.76-.59,.75,9.76-5.69c7.69-1.08,2.3-.78,.57-.74-2.97,.07-6.08,.38-8.95,.97-3.83,.79-7.61,2.34-10.96,4.37-7.72,4.67-14.16,13.92-16.54,22.59-6.07,22.15,12.2,40.81,33.99,40.25,11.34-.29,21.37-6.56,27.1-16.3,3.65-6.21,5.54-14.93,6.49-22.01,.26-1.96,.79-4.26,.49-6.29-.1,4.83-1.83,8.36-5.21,10.59-1.45,1.04-1.32,.99,.4-.14,4.03-1.49-2.69,.73-3.49,.77l-2.57-.09c-2.73-1.19-3.39-1.43-1.97-.73,2.92,1.95,.57,.41-.7-.81-1.65-2.27-2.07-2.72-1.25-1.33,.77,1.46,.56,.85-.64-1.82,.28,.73,.55,1.47,.81,2.21,.58,1.83,.54,.95-.12-2.63v1.32c.02,2.43,.14,1.81,.38-1.86l5.69-9.76-.81,.78,9.76-5.69c4-1.37,4.36-.38,1.31-.41-5.27-.06,4.38,1.27-.7-.21l2.75,1.01c-1.95-1.32-1.65-1.08,.91,.73-.39,.15-2.88-2.91-3.11-3.16-7.88-8.51-23.42-8.57-31.29,0-8.37,9.11-8.41,22.21,0,31.29,9.16,9.9,21.28,15.54,34.94,14.58,11.09-.78,20.78-7.44,23.62-18.64,1.72-6.79,1.01-14.88-1.47-21.32-2.85-7.41-6.27-14.06-12.67-19s-14.58-8.63-22.87-8.71c-17.55-.17-34.8,13.54-35.92,31.41,0-.08,.15,3.07,0,3.22l.34-2.45c-.2,.83-.43,1.66-.69,2.48-.56,1.95-1.03,3.86-1.49,5.83-1.03,4.4-1.95,1.19,3.08-4.26-1.37,1.49-1.75,.95,1.43-.75,.34-.18,10.2-2,5.13-2.11l3.11,.48c-3.6-1.1-1.99,0,4.81,3.27,1.33,1.41,2.41,3.38,2.79,5.25,.06,.3-1.34,11.77,.3,6.78-1.6,4.88-1.16,2.43-.28,1.27,2.36-3.09-.76,.66-1.07,1,2.42-2.63-.73,.51-1.19,.81-.84,.54-6.46,1.35-4.45,1.51,3.57,.28,7.4-.03,10.88-.71,11.46-2.23,18.44-13.91,18.53-25.03,0,.73-.71,4.71,.33,1.09-.16,.57-1.99,4.67-.34,.98,.98-2.19,1.87-4.42,2.79-6.63,1.99-4.77-2.21,4.83,.25-.07,8.71-17.32,.47-37.35-18.82-41.92-17.83-4.23-36.14,9.79-41.2,26.41-2.32,7.63-1.15,16.42,1.58,23.77s6.71,15.86,14.33,19.08c5.72,2.42,10.78,3.96,17.05,2.23,5.13-1.41,10.69-5.38,13.22-10.17,5-9.47,3.44-25.46-7.94-30.27h0Z"/></g><g class="l"><path class="g" d="M551.25,149.41l-1.22-.99c-1.35-1.42-1.42-1.4-.23,.07l.84,1.12c-.4-.58-.76-1.18-1.1-1.8-.17-.29-2.65-5.74-2.91-5.7,1.98-.29,.49,8.66-.05,9.89,1.37-3.11-.4,.29-.98,.94,3.87-4.33-8.81,3.58-3.11,1.86,3.48-1.05,7.07-2.33,10.11-4.31,2.01-1.31,3.77-1.62-2.11-.22l-3.77,.9c2.39,.05,1.72-.04-2.02-.28-2.99-.89-7.19-3.73-8.77-6.45-.25-.43-1.71-5.25-.73-1.7,.24,.87,.51,1.73,.72,2.61,.15,.63,.28,1.26,.39,1.89,.33,1.84,.21,.81-.37-3.11-.41,2.18,.14,5.09,.06,7.35-.05,1.54-.11,3.07-.13,4.6-.02,1.26-.79,3.76,.16,.36,1.23-4.41,1.73-7.94,7.03-10.37,.49-.22,11.25-1.7,5.57-1.92-1.06-.04-2.19,.09-3.24,.17-2.26,.24-4.5,.55-6.73,.93-1.59,.28-1.14,.18,1.36-.3-.34,.23-3.54,.29-3.68,.31-2.74,.29-5.02,.6-7.56,1.14-1.08,.23-2.27,.45-3.34,.77-5.1,1.5,3.19,.21-.08,.17-7.5-.1-15.48-.16-22.2,3.72-4.36,2.52-8.96,6.5-12.51,10.2-3.82,3.99-5.93,7.99-7.78,13.14-.17,.47-1.1,2.67-.96,2.93l1.05-2.41c-.57,1-1.12,2.02-1.66,3.05-3.26,6.45-5.43,13.04-5.17,20.34,.29,8.11,4.07,16.11,7.95,23.1,2.76,4.96,6.47,9.36,10.79,13.03,4.35,3.69,8.64,8.14,13.51,11.09,15.78,9.58,34.82,.9,42.57-14.7,3.26-6.56,6.47-14.79,6.44-22.22-.02-5.15-1.5-9.93-3.95-14.41-.39-.71-.81-1.39-1.23-2.08-.36-.56-.71-1.13-1.06-1.71,1.46,2.7,1.51,5.55,.15,8.56-.65,4.71-.12,6.26-3.56,8.95-2.77,2.17-5.27,2.08-8.49,2.34-3.05,.25-.57-.08,.69,.24,1.4,.36,2.77,.81,4.15,1.27,6.69,2.25,13.7,3.2,20.76,3.37v-44.25c-1.7,.03-3.47-.06-5.17,.12-2.56-.11-2.29,0,.82,.36-2.23-.72-2.15-.62,.24,.31,4.24,1.8,.27-.07-.64-.48-.52-.28-1.03-.59-1.52-.92,5.03,3.15,7.64,8.12,7.84,14.91,.6-11.58-10.6-22.64-22.12-22.12-12.5,.56-21.49,9.72-22.12,22.12-.56,10.84,7.52,20.05,16.62,24.77,8.45,4.38,16.66,5.34,26.06,5.18,11.57-.19,22.67-10.04,22.12-22.12-.55-12.22-9.72-21.83-22.12-22.12-1.25-.03-3.84,.3-4.97-.26,.31,.16,5.12,1.21,.92,0-2.35-.67-4.63-1.49-6.96-2.2-7.43-2.28-15.45-2.87-22.99-.77-8.15,2.27-15.31,8.73-19.11,16.12-5.18,10.06-3.83,21.36,2.26,30.66,1.23,1.87,1.09,3.56-.33-1.65-2.67-9.82,1.23-10.44-.34-6.66-.64,1.53-3.83,8.76-.89,3.03-1.64,3.21,.42-.16,.93-.72l-1.15,1.15c5.49-4.76,11.82-5.41,18.99-1.95,.33,.21,4.23,3.76,1.54,1.21-1.02-.97-2.08-1.91-3.15-2.83-1.89-1.64-3.9-3.14-5.72-4.86,.18,.17-2.12-2.02-2.06-2.09l1.78,2.26c-.61-.98-1.19-1.98-1.73-3-.54-1.01-1.01-2.04-1.52-3.06-1.79-3.6-.08-.13,.18,.59l-.6-1.75c.48,1.79,.49,3.59,0,5.39l.47-1.5c-1.2,2.8-1.23,3.06-.1,.8,1.86-3.26,3.58-6.8,4.5-10.43s-1.66,4.73-2.3,3.58c-.07-.13,2.25-1.98,2.58-2.27,1.63-1.44,5.13-3.17-.48,.09-1.31,.76-5.4,2.52-6.72,1.89,2.03,.97,7.1,0,9.2-.22,3.83-.39,8.02-.83,11.78-1.96,5.38-1.62-4.75,.13,1.15-.25,2.67-.18,4.81-.5,7.71-.88,4.81-.63-.4-.16-.74,.12,.63-.51,3.94-.16,4.87-.25,5.3-.54,9.92-1.71,14.48-4.61,15.31-9.7,15.52-30.36,12.93-46.36-2.57-15.88-13.41-29.74-30.61-30.2-5.45-.15-10.76,.83-15.59,3.51-.77,.43-1.54,.85-2.24,1.38-2.98,2.24,4.57-1.45-.88,.48-9.54,3.37-17.03,8.86-21.88,17.88-5.94,11.05-5.36,22.26-.03,33.35,3.02,6.28,6.41,12.6,11.93,17.08,4.71,3.82,9.35,6.48,15.64,6.48,5.43,0,11.91-2.41,15.64-6.48,7.41-8.07,9.6-23.51,0-31.29h0Z"/></g></g><g id="b"><path class="h" d="M32.27,281.09c8.73-8.61,19.52-16.57,31.36-20.32,5.96-1.89,12.27-2.4,18.41-3.42,7.06-1.17,14.05-2.21,21.19-2.7,13.43-.92,26.61-1.71,39.86,1.25,6.2,1.39,12.57,1.76,18.78,3.11,5.69,1.24,11.21,2.2,17.03,2.5,6.04,.31,12.01,1.13,18.04,1.64,5.57,.47,11.06-.21,16.61,.07,5.08,.25,10.1,1.13,15.17,1.5,6.24,.46,12.61,.02,18.85-.15,13.27-.35,26.48-1.75,39.76-1.5,13.67,.26,27.37,1.18,41,2.1,27.46,1.86,54.79,5.17,82.1,8.44,27.47,3.29,54.84,7.91,82.39,10.48,13.51,1.26,27.09,1.31,40.61,2.42,13.93,1.14,27.89,1.76,41.87,2.01,27.39,.47,54.67-.62,82.02-1.94,13.41-.64,26.83-1.11,40.2-2.41,13.63-1.33,27.11-3.79,40.72-5.24,21.9-2.33,48.47-4.14,62.85-23.24,3.13-4.16,5.52-8.75,7.26-13.64,.27-.76-.94-1.09-1.21-.33-4.18,11.69-12.23,21.18-23.55,26.4-12.36,5.71-26.18,7.6-39.59,8.97-13.57,1.39-27.01,3.61-40.56,5.2s-26.71,2.17-40.1,2.77c-27.08,1.22-54.07,2.55-81.19,2.3-13.73-.13-27.46-.57-41.15-1.52-13.53-.94-27.08-1.44-40.61-2.38-27.35-1.9-54.51-6.79-81.72-10.11-27.01-3.3-54.04-6.64-81.17-8.77-13.68-1.08-27.41-1.85-41.12-2.47-13.37-.6-26.56,.15-39.9,.85-11.9,.62-23.79,1.02-35.64-.33-5.19-.59-10.08-.6-15.28-.45-5.92,.17-11.76-.63-17.63-1.25-6.54-.69-13.13-.66-19.61-1.81s-12.36-2.35-18.62-3.28c-5.72-.85-11.28-2.42-17.05-2.98-6.44-.62-12.93-.48-19.38-.13-12.59,.69-24.73,2.45-37.18,4.27-5.71,.84-11.4,1.72-16.74,4.02s-10.72,5.31-15.52,8.58c-4.53,3.08-8.58,6.76-12.47,10.6-.57,.57,.31,1.45,.88,.88h0Z"/></g><g id="c"><path class="j" d="M78.95,162.58c4.69-2.25,9.39-4.49,14.08-6.74,15.98-8.84,31.97-17.67,47.95-26.51l47.95,.45v-6.29l-3.09-.02c2.67-1.52,5.41-3.03,8.23-4.52,6.18-3.25,12.18-6.11,17.98-8.63,2.01-1.73,4.02-3.47,6.03-5.2"/><path class="j" d="M188.84,167.35c-28.15-.4-56.29-.48-84.44-.7-7.95-.06-15.89-.14-23.84-.23,.73-1.08,2.54-.89,3.56-.34-.83-.43-1.89,.77-2.95,.77l-1.06-1.2c0-1.2,1.06-2.41,1.06-2.41,35.98-2.41,71.13-.65,108.32-1.41,0-9.62-.37-22.65,0-32.04"/><path class="j" d="M185.18,261.3c.83-30.51,1.63-63.47,3.11-93.95"/><path class="j" d="M355.99,134.43c-7.63-.06-13.98-.06-21.39-.06-6.35,13.23-19.05,18.04-30.69,24.05-1.06,1.2-3.17,2.41-3.17,4.81,0,32.47,.08,66.55,0,99.06"/><path class="j" d="M323.47,69.11c-.26,6.02-2.92,19.37,2.33,19.22,2.99-.09,3.99-.48,8.8-.86,8.47,14.43,9.52,33.67,21.39,46.96"/><path class="k" d="M314.9,89.65c1.14-8.14,.21-13.64,1.1-20.54"/><path class="j" d="M228.69,98.69c8.55-10.02,22.31-10.02,33.95-10.02,1.06,0,3.17,0,4.23-2.41,0-2.41,.08-3.61,0-6.01-.13-3.95,4.19-3.62,8.42-2.42,5.29,1.2,3.22,6.02,2.16,10.83,10.58,0,27.47,0,37.97,.44"/><path class="j" d="M82.88,166.44c-.83,28.51-1.73,62.08-2.67,90.58"/><path class="j" d="M300.74,163.23c.34-8.97,.75-25.72,1.09-34.68-.63-1.42-1.26-2.83-1.88-4.25,4.17-3.03,8.34-6.07,12.51-9.1,7.02-8.09,15.76-19.51,22.78-27.6"/><path class="j" d="M355.99,134.43c19.79,.13,42.64,.04,62.43,.17-1.21,2.91-2.59,5.92-4.14,9.01-3.77,7.48-7.81,13.78-11.63,18.97-13.12-.02-26.23-.07-39.35-.16-20.35-.13-42.17-.14-62.52-.44"/><path class="j" d="M402.65,162.59c-.3,35.49-.32,73.97-.2,109.46"/><path class="j" d="M439.74,122.62c1.75,3.33,3.2,11.74,7.21,14.04,8.96,5.13,17.82,2.52,28.41,2.52,4.23,12.03,1.06,24.05,3.17,37.28,1.06,3.61,3.17,3.61,5.29,3.61,0,33.67-1.06,68.55-.05,102.74"/><path class="j" d="M403.39,195.67c7.41-18,5.42-39.04,13.88-58.28,0-1.2,12.98,.85,15.09-2.1,1.16-1.61,3.61-5.06,7.37-12.66"/><path class="j" d="M483.38,180.03c1.48-31.94,1.32-64.34-7.03-95.19,28.74,.12,57.49,.24,86.23,.36-.45-3.75,.61-6.15,1.67-8.56s5.29-2.41,5.29,0c2.12,16.84,6.35,32.47,10.58,49.31v7.22h-2.12c2.12,50.51,1.06,103.12,3.81,154.05"/><path class="j" d="M570.71,79.97c11.53,.28,21.49,.69,35.7-.68,1.05-.1,.55-1.9,.88-9.21,.11-2.43,6.29-1.79,7.35-.59,1.06,2.41-1.23,10.05,1.37,10.39,7.11,.92,12.15,.29,18.42,.69,5.29,9.62,11.31,16.53,18.72,24.95,1.06,2.41,2.12,4.81,2.12,7.22-1.06,4.81,0,8.42,2.12,13.23,1.06,2.41,1.06,6.01,1.91,9.01h-2.24c.33,49.92,2.45,100.78,3.4,150.87"/><path class="j" d="M657.22,142.23c12.47,.18,25.82,.37,38.28,.55,.22,.67,.37,2.36,.59,3.02,1.13-.01,2.45-.98,3.82-.8h.04c2.17,.29,3.32,1.74,3.28,4.32l-.02,3.71c2.58,3.34,5.36,4.76,7.03,6.39,3,2.94,6.02,5.29,11.93,9.87,1.73,1.34,3.16,2.42,4.12,3.15-9.52-.17-19.09-.32-28.7-.43-12.83-.15-27.04-.41-39.72-.45"/><rect class="j" x="98.82" y="197.58" width="10.64" height="22.37"/><rect class="j" x="116.21" y="197.58" width="10.9" height="22.37"/><rect class="j" x="133.86" y="197.58" width="11.94" height="22.37"/><rect class="j" x="152.29" y="197.58" width="11.16" height="22.37"/><rect class="j" x="169.95" y="197.58" width="11.42" height="22.37"/><rect class="j" x="207.33" y="127.7" width="10.67" height="20.81"/><rect class="j" x="226.28" y="127.7" width="10.9" height="20.81"/><rect class="j" x="246.01" y="127.7" width="10.12" height="20.81"/><rect class="j" x="264.96" y="127.7" width="10.38" height="20.81"/><rect class="j" x="284.17" y="129.23" width="10.12" height="19.28"/><rect class="j" x="205.25" y="160.45" width="12.75" height="19.86"/><rect class="j" x="226.28" y="160.45" width="10.9" height="19.86"/><rect class="j" x="246.01" y="160.45" width="10.12" height="19.86"/><rect class="j" x="264.96" y="162.58" width="10.38" height="25.19"/><rect class="j" x="284.17" y="160.45" width="10.12" height="21.19"/><rect class="j" x="203.95" y="196.35" width="12.2" height="20.84"/><rect class="j" x="223.42" y="196.35" width="11.94" height="20.84"/><rect class="j" x="243.41" y="196.35" width="11.42" height="20.84"/><rect class="j" x="263.4" y="197.58" width="10.64" height="19.62"/><rect class="j" x="282.61" y="196.35" width="10.12" height="20.84"/><rect class="j" x="220.05" y="105.13" width="14.28" height="14.6"/><rect class="j" x="249.12" y="106.86" width="14.28" height="12.87"/><rect class="j" x="280.28" y="106.86" width="14.02" height="12.87"/><rect class="j" x="316.36" y="169.07" width="12.07" height="14.25"/><rect class="j" x="335.23" y="170.37" width="10.97" height="12.95"/><rect class="j" x="352.18" y="169.07" width="12.07" height="14.25"/><rect class="j" x="370.88" y="169.07" width="11.55" height="13.64"/><rect class="j" x="388.27" y="170.37" width="10.97" height="12.95"/><rect class="j" x="316.36" y="197.58" width="12.07" height="21.45"/><rect class="j" x="335.23" y="197.58" width="10.97" height="21.45"/><rect class="j" x="352.18" y="197.58" width="12.07" height="21.45"/><rect class="j" x="370.88" y="197.58" width="10.64" height="21.45"/><rect class="j" x="388.27" y="197.58" width="12.2" height="21.45"/><rect class="j" x="415.55" y="208.3" width="11.5" height="19.66"/><rect class="j" x="432.66" y="208.3" width="10.79" height="19.66"/><rect class="j" x="448.88" y="208.3" width="11.5" height="19.66"/><rect class="j" x="465.4" y="208.3" width="10.95" height="19.66"/><rect class="j" x="418.42" y="182.71" width="8.63" height="13.64"/><rect class="j" x="434.13" y="181.64" width="9.31" height="14.71"/><rect class="j" x="450.06" y="181.36" width="10.32" height="14.99"/><rect class="j" x="465.4" y="182.71" width="13.57" height="14.86"/><rect class="j" x="435.61" y="157.23" width="10.03" height="15.67"/><rect class="j" x="490.48" y="134.43" width="11.5" height="19.67"/><rect class="j" x="490.48" y="169.07" width="11.5" height="22"/><rect class="j" x="509.94" y="134.43" width="10.62" height="19.67"/><rect class="j" x="527.94" y="134.43" width="11.5" height="19.67"/><rect class="j" x="546.23" y="134.43" width="11.21" height="19.67"/><rect class="j" x="564.22" y="134.43" width="11.21" height="19.67"/><rect class="j" x="509.94" y="169.07" width="12.09" height="22"/><rect class="j" x="529.24" y="169.07" width="10.21" height="22"/><rect class="j" x="546.23" y="169.07" width="11.21" height="22"/><rect class="j" x="564.22" y="169.07" width="11.21" height="22"/><rect class="j" x="490.48" y="204.6" width="11.5" height="21.94"/><rect class="j" x="509.94" y="204.6" width="12.09" height="21.94"/><rect class="j" x="529.24" y="204.6" width="10.21" height="21.94"/><rect class="j" x="547.41" y="204.6" width="10.03" height="21.94"/><rect class="j" x="565.7" y="204.6" width="9.73" height="21.94"/><rect class="j" x="588.41" y="134.43" width="10.32" height="19.67"/><rect class="j" x="605.82" y="136.34" width="10.9" height="17.76"/><rect class="j" x="623.22" y="136.34" width="10.32" height="17.76"/><rect class="j" x="640.92" y="134.43" width="9.73" height="19.67"/><rect class="j" x="588.41" y="169.07" width="11.8" height="19.78"/><rect class="j" x="605.82" y="169.07" width="10.9" height="19.78"/><rect class="j" x="623.22" y="169.07" width="11.21" height="19.78"/><rect class="j" x="640.92" y="169.07" width="9.73" height="19.78"/><rect class="j" x="588.41" y="201.11" width="11.8" height="20.55"/><rect class="j" x="607.29" y="201.11" width="9.42" height="20.55"/><rect class="j" x="625.29" y="201.11" width="9.14" height="20.55"/><rect class="j" x="642.69" y="202.51" width="7.96" height="19.16"/><rect class="j" x="590.18" y="238.38" width="10.03" height="19.85"/><rect class="j" x="607.29" y="236.99" width="10.62" height="21.24"/><rect class="j" x="625.29" y="236.99" width="9.14" height="21.24"/><rect class="j" x="642.69" y="238.38" width="10.32" height="19.85"/><rect class="j" x="529.24" y="243.95" width="10.21" height="19.5"/><rect class="j" x="509.94" y="243.95" width="10.62" height="21.24"/><rect class="j" x="490.48" y="243.95" width="11.5" height="19.5"/><rect class="j" x="663.05" y="177.08" width="7.67" height="13.99"/><rect class="j" x="675.44" y="177.08" width="8.55" height="13.99"/><rect class="j" x="687.82" y="177.08" width="9.14" height="13.99"/><rect class="j" x="701.69" y="177.08" width="7.96" height="13.99"/><rect class="j" x="714.37" y="177.08" width="7.96" height="13.99"/><rect class="j" x="663.05" y="206.34" width="7.67" height="17.07"/><rect class="j" x="676.91" y="206.34" width="7.08" height="17.07"/><rect class="j" x="687.82" y="206.34" width="10.32" height="17.07"/><rect class="j" x="703.16" y="206.34" width="8.85" height="17.07"/><rect class="j" x="715.55" y="208.05" width="7.96" height="15.35"/><rect class="j" x="663.05" y="238.38" width="10.32" height="19.85"/><rect class="j" x="676.91" y="238.38" width="9.44" height="19.85"/><rect class="j" x="689.89" y="238.38" width="8.26" height="19.85"/><rect class="j" x="703.16" y="238.38" width="8.85" height="19.85"/><rect class="j" x="715.55" y="239.42" width="9.44" height="18.81"/><path class="j" d="M346.2,265.95v-30.38h-10.97v29.1c3.66,.48,7.31,.73,10.97,1.28Z"/><path class="j" d="M206.75,261.68c3.16,.04,6.29,.25,9.41,.52v-26.63h-10.9v26.32c.46-.13,.95-.21,1.49-.2Z"/><path class="j" d="M234.33,263.9v-28.33h-10.9v27.35c3.64,.38,7.27,.75,10.9,.99Z"/><path class="j" d="M253.86,263.01c.32-.06,.65-.12,.97-.18v-27.26h-11.42v28.54c3.46-.09,6.94-.41,10.45-1.1Z"/><path class="j" d="M273.71,262.62l.33-27.05h-10.64v27.06c3.56-.47,6.77,.1,10.31,0Z"/><path class="j" d="M292.74,262.3v-26.73h-10.12v26.73c3.37,.27,6.74-.79,10.12,0Z"/><path class="j" d="M107.71,253.79v-18.23h-10.44v18.5c3.49-.44,6.95-.31,10.44-.27Z"/><path class="j" d="M125.54,252.58v-17.02h-9.33v17.84c3.1-.45,6.21-.83,9.33-.82Z"/><path class="j" d="M142.62,254.6v-19.03h-8.76v18.55c2.93,.06,5.85,.22,8.76,.48Z"/><path class="j" d="M162.05,258.03v-22.46h-9.75v20.3c3.26,.57,6.51,1.29,9.75,2.16Z"/><path class="j" d="M179.7,260.22v-24.65h-9.75v23.78c3.25,.22,6.51,.5,9.75,.87Z"/><rect class="j" x="100.26" y="168.39" width="11.14" height="13.15"/><rect class="j" x="117.89" y="168.39" width="11.63" height="13.73"/><rect class="j" x="134.95" y="168.39" width="11.63" height="13.73"/><rect class="j" x="153.74" y="168.39" width="9.72" height="13.73"/><rect class="j" x="171.76" y="168.39" width="11.63" height="13.73"/><path class="j" d="M218.09,119.73c.19-5.22,.21-12.03,.39-17.26l-1.96-.33v-1.19c.84,.05,2.73-.68,4.37-1.03l6.29-2.04c3.1,1.77,5.86,2.49,8.61,4.58l.14,15.66c2.09-3.02,4.19-6.05,6.28-9.07-1.35-1.32-5.07-5.28-6.42-6.6"/><path class="j" d="M249.12,106.86c-.05-.59-.21-2.71-.25-3.3l-1,.08v-2.1h1.14l6.47-2.69,9.11,4.03,6.9,6.89c-2.18,3.44-4.36,6.89-6.54,10.33-.02-5.07-.33-12.15-.36-17.22"/><path class="j" d="M280.28,106.86c0-.53-.32-2.68-.32-3.21h-1.28v-1.76h1.42c2.35-1.06,4.7-2.13,7.04-3.19,2.87,1.6,5.74,3.19,8.61,4.79,2.04,2.46,4.08,4.93,6.12,7.39-1.97,2.6-3.94,5.21-5.9,7.81-.07-3.89-.14-11.31-.21-15.2"/><line class="j" x1="218.09" y1="119.73" x2="220.05" y2="119.73"/><line class="j" x1="224.26" y1="105.13" x2="224.44" y2="119.73"/><line class="j" x1="229.37" y1="105.13" x2="229.37" y2="119.73"/><line class="j" x1="254.22" y1="106.86" x2="254.31" y2="120.1"/><line class="j" x1="259.68" y1="106.86" x2="259.68" y2="120.1"/><line class="j" x1="285.12" y1="106.86" x2="285.3" y2="119.73"/><line class="j" x1="290.27" y1="106.86" x2="290.27" y2="119.73"/><line class="j" x1="212.67" y1="127.7" x2="212.67" y2="148.51"/><line class="j" x1="207.33" y1="135.7" x2="218.09" y2="135.81"/><line class="j" x1="231.73" y1="128.34" x2="231.73" y2="148.99"/><line class="j" x1="226.28" y1="135.76" x2="237.18" y2="135.76"/><line class="j" x1="251.07" y1="127.7" x2="251.07" y2="148.99"/><line class="j" x1="246.01" y1="135.76" x2="256.26" y2="135.76"/><line class="j" x1="270.15" y1="127.7" x2="270.15" y2="148.51"/><line class="j" x1="264.96" y1="135.76" x2="275.34" y2="135.76"/><line class="j" x1="289.23" y1="129.23" x2="289.23" y2="148.99"/><line class="j" x1="284.17" y1="136.58" x2="294.29" y2="136.69"/><line class="j" x1="211.63" y1="160.45" x2="211.63" y2="180.3"/><line class="j" x1="205.25" y1="167.67" x2="218.09" y2="167.78"/><line class="j" x1="231.33" y1="160.45" x2="231.73" y2="180.75"/><line class="j" x1="226.28" y1="167.89" x2="237.18" y2="167.78"/><line class="j" x1="251.14" y1="160.45" x2="251.07" y2="180.86"/><line class="j" x1="246.01" y1="168.39" x2="256.13" y2="168.39"/><line class="j" x1="269.76" y1="162.59" x2="269.58" y2="187.77"/><line class="j" x1="264.96" y1="168.88" x2="275.34" y2="168.88"/><line class="j" x1="289.23" y1="160.45" x2="289.23" y2="181.64"/><line class="j" x1="284.17" y1="168.88" x2="294.29" y2="168.88"/><line class="j" x1="210.58" y1="196.35" x2="210.58" y2="217.19"/><line class="j" x1="203.95" y1="203.93" x2="216.16" y2="203.82"/><line class="j" x1="229.39" y1="196.35" x2="229.39" y2="217.77"/><line class="j" x1="223.42" y1="203.93" x2="235.37" y2="204.04"/><line class="j" x1="249.48" y1="196.35" x2="249.12" y2="217.77"/><line class="j" x1="243.89" y1="203.98" x2="255.25" y2="203.98"/><line class="j" x1="269.3" y1="197.58" x2="269.3" y2="217.77"/><line class="j" x1="263.4" y1="203.98" x2="274.05" y2="203.98"/><line class="j" x1="288.19" y1="196.35" x2="288.19" y2="217.77"/><line class="j" x1="282.61" y1="203.98" x2="292.74" y2="203.98"/><line class="j" x1="105.83" y1="168.39" x2="105.83" y2="181.54"/><line class="j" x1="100.26" y1="174.97" x2="111.4" y2="174.97"/><line class="j" x1="123.71" y1="168.39" x2="123.71" y2="182.11"/><line class="j" x1="117.89" y1="175.25" x2="129.52" y2="175.25"/><line class="j" x1="140.76" y1="168.39" x2="140.76" y2="181.54"/><line class="j" x1="134.95" y1="175.25" x2="146.57" y2="175.25"/><line class="j" x1="158.6" y1="168.39" x2="158.6" y2="182.11"/><line class="j" x1="153.74" y1="174.97" x2="163.46" y2="174.97"/><line class="j" x1="177.58" y1="168.39" x2="177.58" y2="181.54"/><line class="j" x1="171.76" y1="174.97" x2="183.39" y2="175.25"/><line class="j" x1="104.14" y1="197.58" x2="104.14" y2="219.95"/><line class="j" x1="99.46" y1="205.2" x2="109.46" y2="205.2"/><line class="j" x1="121.66" y1="197.58" x2="121.66" y2="219.95"/><line class="j" x1="116.21" y1="205.2" x2="127.11" y2="205.2"/><line class="j" x1="139.83" y1="197.58" x2="139.83" y2="219.95"/><line class="j" x1="133.86" y1="205.2" x2="145.8" y2="205.2"/><line class="j" x1="157.88" y1="197.58" x2="157.88" y2="219.95"/><line class="j" x1="152.29" y1="205.2" x2="163.46" y2="205.2"/><line class="j" x1="175.66" y1="197.58" x2="175.66" y2="219.95"/><line class="j" x1="170.5" y1="205.2" x2="181.37" y2="205.2"/><line class="j" x1="80.97" y1="226.81" x2="186.27" y2="227.3"/><line class="j" x1="80.8" y1="232.06" x2="186.11" y2="232.07"/><rect class="j" x="120.43" y="141.94" width="11.83" height="13.96"/><rect class="j" x="154.92" y="141.94" width="11.83" height="13.96"/><line class="j" x1="126.34" y1="141.94" x2="126.34" y2="155.9"/><line class="j" x1="160.83" y1="141.94" x2="160.83" y2="155.9"/><line class="j" x1="322.4" y1="169.07" x2="322.4" y2="183.33"/><line class="j" x1="340.72" y1="170.37" x2="340.72" y2="183.33"/><line class="j" x1="358.22" y1="169.07" x2="358.22" y2="183.33"/><line class="j" x1="376.65" y1="168.88" x2="376.65" y2="182.71"/><line class="j" x1="394.37" y1="170.37" x2="394.37" y2="183.33"/><line class="j" x1="322.4" y1="197.58" x2="322.4" y2="219.03"/><line class="j" x1="316.36" y1="205.26" x2="328.43" y2="205.26"/><line class="j" x1="340.72" y1="197.58" x2="340.72" y2="219.03"/><line class="j" x1="335.23" y1="205.26" x2="346.2" y2="205.26"/><line class="j" x1="358.22" y1="197.58" x2="358.22" y2="219.03"/><line class="j" x1="352.18" y1="205.26" x2="364.26" y2="205.26"/><line class="j" x1="376.2" y1="197.58" x2="376.2" y2="219.03"/><line class="j" x1="370.88" y1="205.26" x2="381.52" y2="205.26"/><line class="j" x1="394.37" y1="197.58" x2="394.37" y2="219.03"/><line class="j" x1="388.27" y1="205.26" x2="400.47" y2="205.26"/><path class="j" d="M334.36,155.8c.11-3.3-.12-8.22,0-11.52,.25-.39,1.83-2.77,4.62-3.03,3.4-.32,5.5,2.8,5.65,3.03,.11,3.84,.23,7.68,.34,11.52-3.08-.07-7.53,.07-10.61,0"/><path class="j" d="M357.97,156.2v-11.92c.86-2.37,2.8-3.95,4.96-4.04,2.24-.1,4.34,1.42,5.3,3.84l-.17,12.12c-2.4-.07-7.7,.07-10.1,0"/><path class="j" d="M385.69,156.22v-11.74c.36-.42,1.88-2.11,4.28-2.22,2.86-.14,4.69,2.08,4.96,2.42v11.11c-2.17,.07-7.07,.36-9.24,.42"/><line class="j" x1="338.97" y1="141.25" x2="339.64" y2="155.81"/><line class="j" x1="334.32" y1="146.97" x2="344.96" y2="147.26"/><line class="j" x1="334.38" y1="151.5" x2="344.96" y2="151.64"/><line class="j" x1="362.93" y1="140.24" x2="363.1" y2="155.81"/><line class="j" x1="357.99" y1="146.91" x2="368.19" y2="147.11"/><line class="j" x1="357.97" y1="151.57" x2="368.24" y2="151.57"/><line class="j" x1="389.97" y1="142.26" x2="390.31" y2="156.01"/><line class="j" x1="385.69" y1="147.12" x2="394.93" y2="147.12"/><line class="j" x1="385.69" y1="151.57" x2="394.93" y2="151.57"/><path class="j" d="M402.65,195.75c3.09,.05,8.65,.24,11.75,.3,.05-6.29,.09-12.57,.14-18.86l-1.37-1.45c-.74,.08-2.78,.61-3.52,.69,.85-1.36,3.48-3.89,5.22-6.36,5.86-8.26,8.87-10.26,12.07-15.74,1.52-2.6,5.27-14.84,6.58-20.66"/><path class="j" d="M481.37,179.92c-4.08,.12-11.31,.56-15.39,.69v-3.25c1.63-.4,1.9-.79,3.96-.97-1.42-1.12-2.56-3.12-4.78-5.65-3.08-3.51-4.94-6.77-9.89-16.37-1.95-3.79-7.37-14.21-9.64-18.75"/><ellipse class="j" cx="440.55" cy="144.57" rx="3.57" ry="3.75"/><line class="j" x1="440.55" y1="157.23" x2="440.55" y2="172.9"/><line class="j" x1="422.74" y1="183.33" x2="422.74" y2="196.35"/><line class="j" x1="438.79" y1="181.64" x2="438.79" y2="196.35"/><line class="j" x1="454.63" y1="181.64" x2="454.63" y2="196.35"/><line class="j" x1="472.19" y1="182.71" x2="472.19" y2="197.58"/><line class="j" x1="421.3" y1="208.82" x2="421.3" y2="227.96"/><line class="j" x1="416.29" y1="215.57" x2="427.05" y2="215.57"/><line class="j" x1="438.05" y1="208.82" x2="438.05" y2="227.96"/><line class="j" x1="432.73" y1="215.57" x2="443.44" y2="215.57"/><line class="j" x1="454.63" y1="208.82" x2="454.63" y2="227.96"/><line class="j" x1="448.88" y1="215.57" x2="460.39" y2="215.57"/><line class="j" x1="470.88" y1="208.82" x2="470.88" y2="227.96"/><line class="j" x1="465.4" y1="215.57" x2="476.35" y2="215.57"/><line class="j" x1="495.49" y1="134.43" x2="496.23" y2="154.1"/><line class="j" x1="490.48" y1="140.82" x2="501.98" y2="140.82"/><line class="j" x1="515.25" y1="134.43" x2="515.25" y2="154.1"/><line class="j" x1="509.94" y1="140.82" x2="520.56" y2="140.82"/><line class="j" x1="533.69" y1="134.43" x2="533.69" y2="154.1"/><line class="j" x1="527.94" y1="140.82" x2="539.44" y2="140.82"/><line class="j" x1="551.83" y1="134.43" x2="551.83" y2="154.1"/><line class="j" x1="546.23" y1="140.82" x2="557.44" y2="140.82"/><line class="j" x1="569.83" y1="134.43" x2="569.83" y2="154.1"/><line class="j" x1="564.22" y1="140.82" x2="575.43" y2="140.82"/><line class="j" x1="495.86" y1="169.07" x2="496.23" y2="191.07"/><line class="j" x1="490.48" y1="176.37" x2="501.98" y2="176.37"/><line class="j" x1="515.25" y1="169.07" x2="515.99" y2="191.07"/><line class="j" x1="509.94" y1="176.37" x2="522.04" y2="176.37"/><line class="j" x1="533.69" y1="169.07" x2="533.69" y2="191.07"/><line class="j" x1="529.24" y1="176.37" x2="539.44" y2="176.37"/><line class="j" x1="551.83" y1="169.07" x2="551.83" y2="191.07"/><line class="j" x1="546.23" y1="176.37" x2="557.44" y2="176.37"/><line class="j" x1="569.83" y1="169.07" x2="570.57" y2="191.07"/><line class="j" x1="564.22" y1="176.37" x2="575.43" y2="176.37"/><line class="j" x1="496.23" y1="204.6" x2="496.65" y2="226.54"/><line class="j" x1="490.48" y1="211.39" x2="501.98" y2="211.39"/><line class="j" x1="515.62" y1="204.6" x2="515.99" y2="226.54"/><line class="j" x1="509.94" y1="212.34" x2="522.04" y2="212.34"/><line class="j" x1="534.34" y1="204.6" x2="534.34" y2="226.54"/><line class="j" x1="529.24" y1="212.34" x2="539.44" y2="212.34"/><line class="j" x1="551.83" y1="204.6" x2="552.42" y2="226.54"/><line class="j" x1="547.41" y1="212.34" x2="557.44" y2="212.34"/><line class="j" x1="570.57" y1="204.6" x2="570.57" y2="226.54"/><line class="j" x1="565.7" y1="212.34" x2="575.01" y2="212.34"/><line class="j" x1="496.65" y1="243.95" x2="496.65" y2="263.46"/><line class="j" x1="490.48" y1="250.53" x2="501.98" y2="250.53"/><line class="j" x1="515.25" y1="243.95" x2="515.25" y2="265.2"/><line class="j" x1="509.94" y1="251.29" x2="520.56" y2="251.48"/><line class="j" x1="534.34" y1="243.95" x2="534.34" y2="263.46"/><line class="j" x1="529.24" y1="250.9" x2="539.44" y2="250.9"/><path class="j" d="M551.38,287.11c0-11.19-1.94-25.25,1.23-36.08,1.06-3.61,5.29-6.01,8.47-7.22,6.35-1.2,13.76,3.61,14.82,10.82,0,9.62,.92,22.25,.06,32.58"/><line class="j" x1="592.97" y1="134.43" x2="593.09" y2="154.1"/><line class="j" x1="588.41" y1="143.57" x2="598.74" y2="143.29"/><line class="j" x1="611.27" y1="136.34" x2="611.27" y2="154.1"/><line class="j" x1="605.82" y1="143.15" x2="616.72" y2="143.15"/><line class="j" x1="628.38" y1="136.34" x2="628.38" y2="154.1"/><line class="j" x1="623.22" y1="143.15" x2="633.55" y2="143.15"/><line class="j" x1="645.79" y1="134.43" x2="645.79" y2="154.63"/><line class="j" x1="640.92" y1="144.26" x2="650.66" y2="144.26"/><line class="j" x1="594.31" y1="169.07" x2="594.31" y2="188.86"/><line class="j" x1="588.41" y1="176.37" x2="600.21" y2="176.37"/><line class="j" x1="611.27" y1="169.07" x2="611.27" y2="188.86"/><line class="j" x1="605.82" y1="175.63" x2="616.72" y2="175.77"/><line class="j" x1="628.38" y1="169.07" x2="628.38" y2="188.86"/><line class="j" x1="623.22" y1="175.7" x2="634.43" y2="175.7"/><line class="j" x1="645.79" y1="169.07" x2="645.79" y2="188.86"/><line class="j" x1="640.92" y1="176.37" x2="650.66" y2="176.37"/><line class="j" x1="594.31" y1="201.11" x2="594.31" y2="221.66"/><line class="j" x1="588.41" y1="208.39" x2="600.21" y2="208.53"/><line class="j" x1="612" y1="201.11" x2="612" y2="221.66"/><line class="j" x1="607.8" y1="208.46" x2="616.72" y2="208.46"/><line class="j" x1="629.86" y1="201.11" x2="629.86" y2="221.66"/><line class="j" x1="625.29" y1="209.23" x2="634.43" y2="209.37"/><line class="j" x1="646.67" y1="202.51" x2="646.67" y2="221.66"/><line class="j" x1="642.69" y1="209.3" x2="650.66" y2="209.3"/><line class="j" x1="595.2" y1="238.38" x2="595.2" y2="258.23"/><line class="j" x1="590.18" y1="244.94" x2="600.21" y2="244.8"/><line class="j" x1="612.6" y1="236.99" x2="612.6" y2="258.23"/><line class="j" x1="607.29" y1="244.66" x2="617.91" y2="244.66"/><line class="j" x1="629.86" y1="236.99" x2="629.86" y2="258.23"/><line class="j" x1="625.29" y1="244.66" x2="634.96" y2="244.66"/><line class="j" x1="647.85" y1="238.38" x2="647.85" y2="258.23"/><line class="j" x1="642.69" y1="244.66" x2="653.02" y2="244.66"/><line class="j" x1="667.13" y1="177.08" x2="666.88" y2="191.07"/><line class="j" x1="679.3" y1="177.08" x2="679.71" y2="191.07"/><line class="j" x1="692.4" y1="177.08" x2="692.4" y2="191.07"/><line class="j" x1="705.67" y1="177.08" x2="705.67" y2="191.68"/><line class="j" x1="718.36" y1="177.08" x2="718.36" y2="191.68"/><line class="j" x1="667.01" y1="206.34" x2="667.01" y2="223.4"/><line class="j" x1="663.44" y1="212.09" x2="670.72" y2="212.09"/><line class="j" x1="680.45" y1="206.34" x2="680.45" y2="223.4"/><line class="j" x1="676.91" y1="212.63" x2="683.99" y2="212.63"/><line class="j" x1="692.99" y1="206.34" x2="692.99" y2="223.4"/><line class="j" x1="687.82" y1="213.18" x2="698.15" y2="213.51"/><line class="j" x1="707.08" y1="206.34" x2="707.08" y2="223.4"/><line class="j" x1="703.16" y1="213.29" x2="712.01" y2="213.18"/><line class="j" x1="719.54" y1="208.05" x2="719.54" y2="223.4"/><line class="j" x1="715.55" y1="213.4" x2="723.52" y2="213.4"/><line class="j" x1="667.85" y1="238.38" x2="668.21" y2="258.23"/><line class="j" x1="663.44" y1="243.54" x2="673.37" y2="243.54"/><line class="j" x1="681.27" y1="238.38" x2="681.63" y2="258.23"/><line class="j" x1="676.91" y1="243.54" x2="686.35" y2="243.54"/><line class="j" x1="694.02" y1="238.38" x2="694.02" y2="258.23"/><line class="j" x1="689.89" y1="243.54" x2="698.15" y2="243.54"/><line class="j" x1="707.59" y1="238.38" x2="707.59" y2="258.23"/><line class="j" x1="703.16" y1="244.1" x2="712.01" y2="244.1"/><line class="j" x1="720.27" y1="239.42" x2="720.27" y2="258.23"/><line class="j" x1="715.55" y1="244.66" x2="724.99" y2="244.66"/><path class="j" d="M724.67,172.44c-.61,36.49,1.5,71.37,1.45,107.71"/><path class="j" d="M476.35,84.84c-.15,3.96-1.1,14.95-1.25,18.91-3.05,9.01-6.1,18.01-9.15,27.02l-8.24,2.7c-.31-11.26-.61-22.52-.92-33.77h-10.3c-.08,10.54,.53,26.42,.45,36.96"/><line class="j" x1="476.41" y1="139.47" x2="475.11" y2="103.75"/><line class="j" x1="483.68" y1="124.84" x2="580.29" y2="125.08"/><line class="j" x1="578.3" y1="133.67" x2="483.71" y2="133.11"/><path class="j" d="M490.81,124.45c-1.27-2.85-3.91-10.48-5.19-13.33l3.43-7.16c4.4-.05,8.79-.1,13.19-.16-.53,.93-1.05,1.87-1.58,2.8,0,5.45,.06,12.9,.06,18.35"/><path class="j" d="M512.2,120.77c-1.63-3.11-3.59-7.16-5.21-10.28,1.58-2.28,3.16-4.57,4.75-6.85h13.19c-.7,1.09-1.41,2.18-2.11,3.27-.04,4.62-.09,9.24-.13,13.86-2.86-.05-7.62,.05-10.48,0"/><path class="j" d="M535.48,119.92c-2.15-2.96-4.05-6.31-6.21-9.27,1.67-2.39,3.34-4.77,5.01-7.16h13.58l-1.19,3.11c-.04,4.57-.09,9.13-.13,13.7-2.64,.05-8.43-.44-11.07-.39"/><path class="j" d="M559.61,120c-2.15-3.17-4.31-6.33-6.46-9.5l5.8-7.01c4.31,.05,8.62,.1,12.92,.16-.44,1.04-.88,2.08-1.32,3.11-.18,4.57-.35,9.13-.53,13.7-2.82-.01-7.6-.45-10.42-.47"/><rect class="j" x="490.71" y="107.34" width="8.86" height="17.54"/><rect class="j" x="513.26" y="107.34" width="9.42" height="13.43"/><rect class="j" x="536.63" y="107.34" width="9.92" height="12.97"/><rect class="j" x="560.7" y="106.71" width="9.33" height="13.75"/><rect class="j" x="589.16" y="111.08" width="11.57" height="11.2"/><rect class="j" x="611.27" y="111.08" width="11.95" height="12.02"/><rect class="j" x="634.43" y="111.08" width="12" height="11.2"/><line class="j" x1="659.15" y1="134.43" x2="580.29" y2="133.49"/><line class="j" x1="579.21" y1="108.35" x2="654.47" y2="108.7"/><line class="j" x1="579.23" y1="121.4" x2="579.21" y2="108.35"/><line class="j" x1="570.82" y1="82.42" x2="579.21" y2="108.35"/><line class="j" x1="483.8" y1="227.96" x2="580.56" y2="227.96"/><line class="j" x1="483.84" y1="231.69" x2="580.56" y2="232.27"/><line class="j" x1="580.43" y1="222.72" x2="659.07" y2="223.4"/><line class="j" x1="299.95" y1="124.3" x2="188.94" y2="123.49"/><path class="j" d="M419.65,273.38c-.32-3.8-1.44-12.73-.39-16.34s8.47-3.61,9.52,0-.3,12.38-.49,17.74"/><path class="j" d="M433.21,242.66c.37,3.91,.74,7.82,1.1,11.73h9.78c-.42-4.03-.84-8.07-1.26-12.1-2.58,0-7.04,.37-9.62,.37"/><path class="j" d="M449.14,242.1l2.21,11.36c3.15,.06,6.31,.12,9.46,.19l-1.89-11.54h-9.78"/><path class="j" d="M465.85,242.48c.79,3.1,1.58,6.21,2.37,9.31h10.41l-2.21-9.68c-2.89,.06-7.67,.31-10.56,.37"/><line class="j" x1="433.21" y1="242.66" x2="433.21" y2="271.89"/><line class="j" x1="443.75" y1="271.89" x2="433.21" y2="271.89"/><line class="j" x1="443.44" y1="254.78" x2="443.75" y2="271.89"/><line class="j" x1="449.14" y1="243.53" x2="449.55" y2="272.97"/><line class="j" x1="460.26" y1="272.71" x2="449.07" y2="272.88"/><line class="j" x1="460.15" y1="253.65" x2="460.07" y2="273.33"/><line class="j" x1="466.74" y1="272.8" x2="466.38" y2="244.55"/><line class="j" x1="477.15" y1="272.8" x2="466.74" y2="272.8"/><line class="j" x1="477.15" y1="252.13" x2="477.15" y2="272.8"/><path class="j" d="M364.26,267.16v-31.59h-12.07v29.97c4.02,.57,8.05,1.1,12.07,1.62Z"/><path class="j" d="M380.35,269.43c.39,.06,.78,.12,1.17,.18v-34.05h-11.94v32.3c3.59,.48,7.18,.98,10.77,1.56Z"/><rect class="j" x="388.27" y="235.57" width="10.97" height="31.52"/><path class="j" d="M318.2,263.93c2.98,.03,5.54,.26,8.51,.51v-28.88h-11.53l-.03,28.01c.72-.45,2.03,.34,3.05,.35Z"/><path class="j" d="M132.25,155.9c2.62-2.67,6.44-6.88,9.06-9.55-2.45-1.39-6.19-3.02-8.64-4.41"/><path class="j" d="M132.67,141.94c-1.51-.89-3.34-2.29-4.87-3.14-.49-.27-1.05-.28-1.54-.02-1.77,.93-4.35,2.42-5.83,3.15"/><path class="j" d="M166.75,155.9c2.37-2.14,6.08-5.97,8.46-8.11-2.21-1.51-6.25-4.34-8.46-5.85"/><path class="j" d="M154.92,141.94c1.48-1.29,4.04-3.78,5.52-5.08,1.89,1.21,4.42,3.64,6.31,5.08"/><line class="j" x1="378.48" y1="134.51" x2="378.18" y2="119.28"/><line class="j" x1="392.1" y1="119.4" x2="378.18" y2="119.28"/><line class="j" x1="391.85" y1="134.43" x2="392.1" y2="119.4"/><path class="j" d="M666.88,165.3c-.24-5.66-.12-12.53-.37-18.19,.76-.6,2.41-1.72,4.7-1.91,3.06-.25,5.29,1.34,6.02,1.91,.1,6.06,.2,12.13,.29,18.19-2.4-.06-8.24,.06-10.64,0"/><path class="j" d="M692.4,165.22v-16.18c1.03-.82,3.26-2.41,4.29-3.24"/><line class="j" x1="703.31" y1="165.49" x2="703.22" y2="153.03"/><line class="j" x1="692.4" y1="165.22" x2="703.66" y2="165.32"/><path class="j" d="M666.88,165.3c-1.83-2.51-3.66-5.01-5.49-7.52,1.66-3.15,3.13-7.01,5.12-10.68"/><path class="j" d="M692.4,165.22c-2.2-2.43-5.84-6.53-8.04-8.96,2.27-1.69,5.77-5.52,8.04-7.21"/><line class="j" x1="698.5" y1="165.22" x2="698.42" y2="145.17"/><line class="j" x1="692.68" y1="155.2" x2="703.23" y2="155.2"/><line class="j" x1="672.01" y1="145.18" x2="672.2" y2="165.3"/><line class="j" x1="666.88" y1="154.63" x2="677.35" y2="154.63"/><line class="i" x1="324.09" y1="69.09" x2="315.42" y2="69.41"/></g></svg>