<?xml version="1.0" encoding="UTF-8"?><svg xmlns="http://www.w3.org/2000/svg" viewBox="0 0 595.28 841.89"><defs><style>.c{fill:#b4d3b4;}.d{fill:#a6c8ea;}.e{fill:#c7bb9e;}.f{fill:#1d1d1b;}.g{stroke-width:.75px;}.g,.h,.i,.j{fill:none;stroke:#1d1d1b;stroke-miterlimit:10;}.i{stroke-width:.25px;}.j{stroke-width:.5px;}</style></defs><g id="a"><path class="c" d="M325.47,149.61c-.83-14.75-9.34-26.67-22.18-33.67-8.81-4.8-18.91-5.06-28.04-1.2-11.43,4.82-17.14,15.35-18.21,27.33-.96,10.7,1.22,21.29,4.03,31.55,1.38,5.04,2.09,10.21,3.12,15.32,.45,2.21,.94,4.41,1.57,6.58,1.12,3.88-.6-1.97-.06-1.85,.28,.06,0,5.2,0,5.46-.02,2.33,.06,4.66,.1,6.99,.02,1.16-.02,2.33,0,3.5,.04,1.81,.95,3.47,.35-1.3,.26,2.06-1.01,5.14-1.53,7.15-.75,2.91-1.59,5.82-2.52,8.68-3.05,9.43-6.89,18.44-9.5,28.04s-4.78,19.17-7.04,28.76c-.52,2.21-.92,4.44-1.42,6.66-.24,1.09-.58,2.14-.82,3.23-.87,3.95,.54-1.1,.8-1.73-1.02,2.44-2.06,4.94-3.11,7.4,2.42-5.61,.69-1.67,.06-.28-1.74,3.84-3.43,7.69-5.05,11.59-4.13,9.95-7.25,21.05-8.35,31.76-.62,6.1-.01,12.21,2.38,17.87,2.07,4.9,4.97,8.55,9.17,11.8,2.9,2.24,5.85,3.85,9.48,4.84,2.62,.71,5.95-.06,8.24,1.07,2.58,1.28-6.99-1.18-3.39-.47,1.91,.38,3.81,.61,5.75,.87,3.13,.42,5.97,.64,9.1,.42,6.53-.46,10.36-1.36,16.14-4.17,.88-.43,1.71-.84,2.57-1.31l1.26-.75c1.82-.97,1.69-.99-.4-.06l-1.67,.67c1.52-.53,3.02-1.13,4.49-1.81,1.74-.73,3.49-1.45,5.21-2.23,.38-.17,3.66-1.81,3.69-1.75,.08,.13-5.67,2.06-1.7,.73,1.43-.48,4.35-.85,5.53-1.72-.54,.4-6.34,.13-2.37,.4l-3.86-.56c-3.45-1.75-4.34-2.11-2.68-1.06,.87,.77,1.98,1.46,2.93,2.14-.55-.4-4.26-4.03-1.64-1.09,1.07,1.2,2.72,3.27-.95-1.65,1.59,2.14,2.75,4.08,4.74,6.23,1.35,1.46,2.81,2.67,4.35,3.93,.77,.63,1.57,1.24,2.29,1.92,.57,.52,1.11,1.07,1.61,1.66,1.21,1.39,.75,.73-1.4-1.96,.94,.17,3.2,4.34,3.88,5.22,2,2.62,4.21,6.58,7,8.6-3.1-2.24-2.34-3.18-1.01-1.12,.61,.94,1.24,1.87,1.88,2.79s1.26,1.81,1.91,2.7c4.23,5.47,5.21,6.74,2.95,3.82-1.27-1.71-1.28-1.65-.03,.18,1.9,3.21,4.24,6.29,6.69,9.09,.62,.72,1.3,1.45,1.99,2.11,2.84,2.7-.67-1.11-1.01-1.58,2.12,3,4.48,5.89,6.82,8.72,2.83,3.44-.94-1.07-.91-1.18-.11,.34,2.49,4.15,2.7,4.5,4.7,8.03,8.91,16.23,13.97,24.06,8.98,13.92,22.25,24.63,39.82,20.62,16.39-3.73,23.91-23.76,21.88-38.87-.62-4.63-2.24-8.73-4.37-12.9-1.51-2.97,1.78,5.05,.76,1.92-.31-.96-.68-1.91-1.04-2.85-2.96-7.86-6.66-13.63-12-20.08-2.74-3.32-5.91-6.02-9.06-8.93-.75-.69-1.46-1.42-2.19-2.13-1.23-1.19-2.94-1.78,.73,1.07-1.91-1.48-3.51-4.85-4.95-6.82-2.44-3.33-5.03-7.3-7.81-10.25-.69-.73-1.31-1.38-2.08-2.03-2.73-2.32,1.16,1.62,.89,1.64-.61,.04-3.47-5.19-3.89-5.85-2.55-3.99-4.85-7.8-7.97-11.44-.69-.8-1.38-1.58-2.11-2.35-1.47-1.52-1.09-2.54,.79,1.29-1.54-3.15-4.72-6.12-7.06-8.83-1.41-1.63-.98-2.73,.85,1.2-.39-.84-1.31-1.86-1.88-2.65-2.5-3.42-5.04-6.81-7.98-9.85-1.43-1.48-2.91-2.93-4.31-4.44,.17,.19-2.12-2.35-2.1-2.37,.47-.38,3,4.5,.96,1.19,.19,.31-1.63-2.72-1.64-2.72,.57-.04,2.05,5.28,.95,1.65-1.19-3.97,.19,1.16,.09,1.9,.19-1.43-.25-3.53-.29-4.99-.12-4.54,0-9.1,0-13.65,0-2.33-.06-4.66,0-6.99l.04-1.76c.19-2.24,.16-2.21-.08,.09-.33,2.27-.28,2.33,.13,.16l.4-1.65c.53-2.09,1.17-4.15,1.87-6.2-.05,.14,1.16-2.86,1.07-2.98,.66,.89-2.45,4.79-.59,1.81,3.33-5.34,5.38-11.54,6.34-17.72,.44-2.79,.73-5.55,1.11-8.33-.92,6.65-.28,2.43,0,.78,.63-3.83,1.22-7.73,1.34-11.62,.22-6.75-.16-13.39-1.33-20.07-.99-5.63-3.52-10.85-6.72-15.54-1.35-1.98-2.21-4.15-3.44-6.2-1.12-1.86-4.55-5.9-4.78-6.19-2.71-3.34,2.25,3.73,.73,.92-.98-1.81-2.15-3.92-3.37-5.58-1.97-2.68,1.19,5.03,.71,1.95-.19-1.25-.57-2.51-.8-3.76-.19-1.05-.23-2.32-.54-3.31,.22,.7,.56,5.9,.25,1.34-.19-2.73-.44-5.44-.58-8.17-.27-5.27-.52-10.55-.82-15.82-.34-6.06,.54-12.52-1.16-18.43-3.25-11.3-13.74-18.95-25.39-19.2-2.41-.05-6.86,.13-7.93,.9l-1.27,.48,4.52-.48c-2.34,.59-5.33,.18-7.76,.79-4.1,1.04-9.07,3.69-11.87,6.73-7.72,8.41-8.42,17.94-6.38,28.58,.13,.66,.28,1.31,.41,1.97,.9,4.51-.34-.75-.18-1.36-.63,2.39,.62,6.56,.79,9.08,.67,10.26,.69,20.55,1.44,30.8,.44,6.12,.89,12.61,2.82,18.47,.76,2.3,1.6,4.43,2.15,6.8,.25,1.06,.47,2.12,.68,3.18,.73,3.81,.04,1.24-.01-1.03,.1,4.78,.86,9.57,.95,14.38,.04,2.31-.17,4.67-.09,6.97,.12,3.49,1.04-5.09,.3-1.53-.31,1.49-.55,2.99-.89,4.47-2.23,9.85-6.34,18.99-9.98,28.35-1.22,3.15,2.21-4.23,.57-1.37-.52,.91-.97,1.88-1.48,2.8-1.15,2.07-2.3,4.09-3.3,6.24-1.87,4.01-3.94,7.75-6.1,11.61-4.58,8.14-7.8,17.38-5.39,26.76,3.68,14.31,18.07,21.94,32.14,18.84,5.57-1.23,10.86-3.6,16.08-5.86-.6,.26-5.48,1.85-1.46,.69,.78-.22,1.56-.47,2.34-.7,5.22-1.53,9.52-3.34,13.5-7.18,12.5-12.06,8.15-29.01,4.83-43.94-2.21-9.92-5.86-19.42-7.94-29.4,.05,.25-.71-3.26-.64-3.29,.27-.11,.46,5.64,.29,1.5-.05-1.15-.09-2.3-.12-3.45-.04-1.44-.09-2.87-.08-4.31,0-.66,.09-1.34,.05-1.99,.21,3.37-3.09,11.4-6.62,14.46l-41.78-11.03c1.51,3.64-.13-1.79,.19-2.4-.2,.38,.11,2.98,.11,3.18,.04,1.82,.07,3.6,.27,5.42,.27,2.48,.64,4.97,1,7.44,.64,4.38-.26-1.49-.21-1.92-.24,2.43,.28,5.31,.27,7.77-.05,8.75-1.25,17.18-1.86,25.88-.02,.24,.9-5.75,.38-2.95-.19,1-.32,2.01-.51,3.01-.32,1.73-.68,3.45-1.13,5.15-.24,.92-.54,1.82-.8,2.74-.71,2.46-1.72,1.08,1.07-2.35-1.34,1.66-2.24,3.89-3.43,5.68-.37,.55-2.01,2.47-2.01,2.9,0-.17,3.08-3.63,1.26-1.67-1.55,1.68-3,3.49-4.46,5.26-1.29,1.56-2.65,3.05-3.97,4.57-.76,.88-1.46,1.76-2.2,2.66s-4.26,4.24-.64,1.36,1.11-.78,.51-.61c-.17,.05-4.66,3.36-6.17,4.88-2.45,2.47-4.48,5.38-6.56,8.15-2.83,3.78-4.96,7.73-6.4,12.3-2.86,9.11-.17,20.68,6.86,27.2,6.38,5.91,14.81,8.1,23.31,8.53,10.56,.54,20.85-1.24,30.79-4.65,2.37-.81,4.74-1.63,7.16-2.3,.9-.25,2.91-.44,3.58-.88-.59,.38-4.86,.03-2.63,.65,1.2,.33,4.38,.63,5.69,.3-3.67,.92-4.82-1.17-2.21-.3,1.22,.4,2.49,.8,3.72,1.12,3.15,.82-4.25-2.36-1.49-.62,.69,.43,1.46,.76,2.17,1.17,1.63,.95,6.42,5.28,2,1,2.42,2.34,5.46,4.27,8.24,6.2,2.58,1.8-3.36-3.47-1.31-.76,.86,1.14,2.14,2.16,3.1,3.2,2.55,2.77,5.07,5.41,7.87,7.92,3.24,2.91-1.4-1.08-1.07-1.48-.04,.05,1.89,2.84,1.76,2.65,2.06,3.01,4.14,6.12,6.68,8.73,3.9,4.01,8.61,7.96,13.16,11.11,3.61,2.5,7.74,4.08,11.4,6.52,.65,.43,1.28,.98,1.95,1.36-4.78-2.73-4.16-3.21-2.67-2.04,2.23,1.75,4.42,3.84,6.93,5.19,9.94,5.38,23.68,5.03,31.77-3.79,10.95-11.93,8.53-29.31,1.22-42.58-1.69-3.06-4.09-5.59-6.16-8.39,.03,.04,2.95,4.71,1.81,2.15-.45-1.01-1.16-1.95-1.73-2.9-2.52-4.22-5.14-8.38-7.77-12.53-5.62-8.89-12.66-16.18-19.88-23.74-2.83-2.96-6.1-5.23-9.09-7.99-.49-.45-1.77-2.11-2.22-2.28l.98,1.26c1.63,2.11,1.31,1.69-.98-1.27-1.16-1.5-2.27-2.96-3.54-4.36-3.56-3.94-.25,.69,.23,.56-.84,.23-2.7-5.01-3.58-5.47,1.12,.59,1.79,5.1,.84,1.78-1.24-4.34,.34,4.22,.12,1.09-.33-4.64-.78-9.1-.74-13.77,.08-10.6,.02-21.2,.01-31.8,0-2.33,.16-4.79-.03-7.11-.3-3.73-1.36,9.46,.03-.9,.3-2.27,.58-4.4,.68-6.66,.27-6.3-.14-12.48-1.27-18.7-2.26-12.37-9.61-27.21-23.28-29.77-12.81-2.4-27.58,3.54-30.75,17.46-2.8,12.29,3.72,28.18,17.46,30.75-11.22-11.21-15.21-14.11-11.99-8.69-1.67-4.21-2.05-5.09-1.17-2.63,.36,1.32,.7,2.69,1.09,4,1.35,4.48-.01-5.87-.08-.58-.03,2.19,.09,4.37,.03,6.56-.04,1.65-.6,6.7,.33-.03-.55,3.95-1.1,7.51-1.09,11.43,0,4.13,.03,8.25,.03,12.38,0,8.66,.02,17.31-.03,25.97-.06,9.96,.73,20.83,4.61,30.02,2.52,5.97,6.25,11.27,10.39,16.25,.43,.51,3.39,3.82,3.39,3.83-3.23-4.26-2.57-3.43,1.97,2.49,.62,.85,1.29,1.66,2.02,2.42,2.58,2.66,5.76,4.63,8.43,7.2,2.96,2.85,5.62,6,8.49,8.93,1.35,1.37,2.66,2.83,4.05,4.15,1.2,1.37,.78,.81-1.26-1.67,.71,1.09,1.42,2.19,2.11,3.29,2.36,3.71,4.71,7.43,6.99,11.19,2.8,4.63,5.65,8.76,9.04,13.05-2.36-3.32-2.91-3.9-1.66-1.73-1.51-3.78-1.79-4.38-.85-1.81,.32,.98,.61,1.97,.86,2.97,1.28,6.53,2.17,1.82,2.68-14.11l14.94-11.49c7.71-2.1,14.07-.92,19.08,3.54,2.09,1.66,2.53,1.99,1.31,1.01-2.26-1.78-4.52-3.61-6.85-5.3s-4.78-3.2-7.36-4.52c-1.25-.63-2.5-1.33-3.78-1.9-4.68-2.07,2.92,2.83-.44-.39-1.19-1.14-2.49-2.37-3.79-3.39-3.62-2.83,2.76,4.6,.11,.39-4-6.36-8.99-11.09-13.97-16.49-2.4-2.6-4.65-5.35-7.36-7.66-2.2-1.88-4.6-3.62-6.95-5.33-5.6-4.06,5.34,4.29-2.06-1.43-14.44-11.15-32.19-16.51-50.39-13.36-6.55,1.13-13.32,3.33-19.48,5.84-2.31,.53-2.4,.64-.26,.32,2.13-.21,2.05-.23-.25-.05-1.81,.02-3.62,.02-5.43,.05-1.95,.04-6.67-.24,.82,.81-5.77-.81,.89-2.28,6.33,4.76l6.43,11.03c4.01,18.22-4.9,19.64-.94,14.03,.49-.69,1-1.38,1.46-2.09,1.59-2.46-3.06,3.7-.91,1.33s-4.78,3.07-1.35,1.1c6.09-3.5,10.5-9.92,14.92-15.22,9.18-11.01,17.98-21.8,21.2-36.12,2.64-11.73,4.22-24.7,4.33-36.75,.03-3.03,.11-6.06,.04-9.09-.1-4.39-1.49-8.83-1.48-13.15,0-3.23,.12,5.65,.21,1.21,.03-1.31-.03-2.64-.06-3.95-.11-4.36-.4-9.25-2.07-13.27-3.48-8.35-8.24-14.92-17.46-17.46s-17.45,.47-24.32,6.43c-7.95,6.89-8.29,18.24-7.97,27.91s2.33,20.19,5.03,29.84c1.3,4.63,2.95,9.16,4.22,13.8,1.19,4.34,1.72,8.79,2.73,13.16,.31,1.15,.61,2.3,.91,3.46,19.07-17.7,23.7-25.51,13.86-23.43-1.85,.43-3.59,1.18-5.35,1.89-6.96,2.95-7.96,3.36-3,1.25-1,.4-2.01,.77-3.02,1.12-1.82,.63-3.68,1.28-5.58,1.6h13.29l-.74-.14,11.03,6.43-.47-.46,6.43,11.03c1.54,4.68,1.23,9.02-.94,13.02,.46-.92,.96-1.82,1.48-2.71,.75-1.31,1.58-2.58,2.33-3.9,1.68-2.96,2.87-6.14,4.42-9.17,4.1-8.03,7.71-16.14,11.09-24.52,6.36-15.75,10.19-31.57,9.45-48.69-.38-8.84-1.36-17.86-3.47-26.46-.35-1.44-4.01-10.19-3.14-10.88l.44,3.21c-.12-1.16-.22-2.33-.3-3.49-.12-1.75-.21-3.5-.29-5.25-.4-7.9-.57-15.81-1.03-23.71-.25-4.25-.6-8.48-1.11-12.7-.39-3.24-.8-6.85-1.39-10.15-.13-.66-.26-1.32-.41-1.97,.72,3.01,.7,6.02-.05,9.04l-17.46,17.46c-2.61,.95-7.91,1.28-.5,.28,1.39,.06,2.7-.17,3.95-.68,5.59-1.95,.59-2.87-15.01-2.79l-8.97-8.97c-4.96-8.76-2.97-14.29-3.02-8.13-.01,1.27-.07,2.54-.06,3.81,.03,2.58,.26,5.16,.42,7.74,.38,6.11,.45,12.23,.97,18.33,.57,6.66,1.12,13.62,2.84,20.11s5.35,12.76,9.26,18.24l3.91,5.06c1.25,1.57,1.19,1.46-.17-.32-2.79-2.4-.27,.19,.46,1.53,.93,1.72,1.87,3.52,3.16,5.01,3.03,3.48-.68-4.19-.23-1.33,.81,5.1,.59-.98,.07-.97,.17,0,.18,7.56,.17,8.4-.01,1.38-.13,2.78-.11,4.16,.06,3.62,1.16-6.38,.09-.84-.51,2.66-.82,5.95-1.13,8.33-.64,4.93,.18-1.59,.22-1.6-.01,0-.76,3.51-.87,3.91-1.32,4.62-.85-.68,.57-1.06-.26,.07-1.5,2.53-1.49,2.52-1.48,2.8-2.6,5.9-3.71,8.87-4.43,11.8-5.19,23.64-5.21,36.12-.02,13.53-.15,27.82,7.72,39.55,3.55,5.3,7.75,10.11,12.19,14.65,.89,.91,1.74,1.9,2.66,2.76,2.52,2.36-3.6-5.06-.49-.61,2.47,3.54,5.14,6.94,7.91,10.25-.07-.09,2.16,2.29,2.11,2.49l-1.85-2.44c1.43,1.93,2.91,3.83,4.42,5.7,.26,.3,2.62,2.97,2.66,2.93-.39,.39-2.98-4.6-.88-.79,3.25,5.89,7.8,13.43,12.89,17.65,2.79,2.31-.4-.87-.7-1.57,.68,1.56,2.3,3.07,3.33,4.48,3.1,4.23,6.08,8.57,9.4,12.63s7.38,6.99,10.89,10.74c.67,.71,2.91,4.33,.94,.88-2.11-3.7,.74,1.18,1.2,1.94l.43,.69c1.18,2.29,.94,1.63-.73-1.99-.17,1.04,1.21,3.33,1.57,4.24-.45-1.17,2.03,5.7,3.13,7.24,3.92,5.51-1.53-11.83-1.64-6.58,.17-7.46,.91-4.81,.19-2.61-2.77,8.55,1.55-5.93,8.2-9.28l12.62-3.41c2.94,.22,5.71,1.03,8.3,2.42-2-1.28-1.25-.71,2.24,1.7-1.67-1.9-1.27-1.33,1.19,1.7-.59-.85-1.17-1.71-1.72-2.58-1.95-3.02-3.91-6.06-5.76-9.14-5.26-8.77-9.3-17.85-15.77-25.87-.96-1.19-5.67-7.15-1.04-1.1-2.21-2.9-4.34-5.86-6.81-8.54-.52-.51-1.02-1.04-1.5-1.57-1.2-1.33-.69-.69,1.54,1.93,.22-.06-8.3-11.19-6.75-9.26,4.66,5.79,.01-.42-.86-1.69-1.99-2.88-4.07-5.7-6.32-8.38-.47-.62-.98-1.21-1.52-1.77-1.73-1.98-1.44-1.51,.86,1.39-1.18-.43-3.08-4.17-3.87-5.23-3.35-4.43-6.31-7.9-10.51-11.38-.79-.62-1.55-1.27-2.28-1.96,2.44,3.24,2.88,3.8,1.32,1.68-2.36-3.08-4.31-5.79-7.14-8.3-3.61-3.2-7.89-6.63-12.23-8.91-8.27-4.35-17.24-4.82-26.26-3.06-3.39,.66-6.54,1.81-9.75,3.11-3.54,1.44-6.98,2.95-10.41,4.61-2.47,1.13-1.97,.91,1.51-.66-2.45,.97-4.89,1.98-7.3,3.05-1.31,.66-2.58,1.37-3.83,2.13-2.36,1.25-1.67,1,2.07-.76,4.21-.49,4.87-.64,2-.46-5.15-.22,5.68,1.3-.8,.01-2.54-.53-5.09-.85-7.67-.94,4.79,1.05,5.97,1.16,3.54,.33l11.03,6.43c2.29,1.87,4.62,7.7,5.05,10.59,.67,4.56,.18,1.92,.31,.97,.17-1.21,.61-6.65,0-1.8s.11,.44,.43-.65c.61-2.11,1.41-4.16,2.04-6.27,1.12-3.75,2.11-7.49,3.35-11.2,.92-2.75-.79,1.88-.79,1.87,.1-.84,1.16-2.55,1.45-3.2,1.18-2.59,2.3-5.2,3.41-7.82,.65-1.54,1.27-3.11,1.94-4.64-.57,1.31-2.9,6.89-.07,.17,1.02-2.42,2.15-4.83,2.83-7.38,.93-3.54,1.48-7.19,2.37-10.75,1.91-7.67,3.53-15.45,5.57-23.08,1.89-7.09,3.82-14.23,6.54-21.05,3.03-7.59,5.77-15.33,7.4-23.36,1.9-9.35,1.88-18.48,1.88-27.93,0-9.54-3.04-18.99-4.74-28.33-.78-4.29-1.96-8.4-3.09-12.61-.45-1.69-.51-4.34-1.33-5.84,.05,.09,.35,4.67,.45,2.51,.04-.91-.11-1.87-.14-2.79-.08-1.98,.13-4,.02-5.97l.05-.68-14.48,18.62c-3.97,1-9.56,.29-13.24-1.57,3.67,1.86-4.61-3.52-.22-.17,.85,.64,1.59,2.34-.37-.73s-2.94-5.44-3.16-9.22c.74,13.03,10.97,25.63,25,25,12.91-.58,25.79-11.02,25-25h0Z"/><path class="e" d="M284.5,525.87l1.24-.21-13.29,1.79c.88-.07,1.74-.02,2.61,.15l-13.29-1.79c1.42,.32,2.7,.74,4.07,1.26l-11.94-5.04c7.94,3.47,15.78,7.11,23.81,10.42l-11.94-5.04c18.4,7.92,34.9,19.14,50.92,31.04l-10.12-7.82c2.48,1.94,4.65,4.06,6.82,6.35,4.71,4.96,10.38,8.77,15.81,12.94l-10.12-7.82c7.82,6.09,15.23,12.6,22.18,19.67,2.76,2.81,5.83,5.25,8.63,8.01,3.01,2.97,5.42,6.39,8.64,9.17,9.53,8.25,18.74,16.54,29.28,23.58s20.5,12.86,32.93,17.25c7.84,2.77,16.42,3.99,24.72,3.68,8.73-.32,15.4,.11,24.65-1.75,5.29-1.07,10.39-3.64,15.24-5.9,1.57-.73,2.92-1.51,4.35-2.49,9.49-6.52,17.23-13.98,23.01-24.08,5.43-9.48,9.05-20.38,11.09-31.13,2.28-12,3.36-22.79,.27-34.75-2.71-10.49-8.93-20.77-16.95-28.01-12.14-10.96-26.78-17.02-42.51-20.85-5.65-1.38-11.28-2.84-16.92-4.26-9.02-2.28-18.28-2.67-27.48-3.53l13.29,1.79c-8.67-1.22-17.36-2.24-26.04-3.21l13.29,1.79c-2.63-.48-5.07-1.24-7.55-2.22l11.94,5.04c-9.24-3.96-18.16-8.84-27.85-11.66-6.03-1.76-12.51-2.2-18.32-4.64l11.94,5.04c-.73-.37-1.42-.81-2.06-1.32l10.12,7.82c-4.38-3.5-8.69-7.58-13.56-10.34-9.23-5.23-17.8-6.49-28.16-7.64-11.91-1.32-27.24,6.53-35.36,14.64-8.67,8.67-15.2,22.9-14.64,35.36,.58,12.93,4.83,26.34,14.64,35.36l10.12,7.82c7.8,4.52,16.21,6.8,25.24,6.83l1.26,.14-13.29-1.79,1.14,.39-11.94-5.04c.73,.35,1.41,.77,2.04,1.27l-10.12-7.82c4.62,3.67,9.08,7.58,14.1,10.67,4.69,2.88,12.38,5.69,18.4,6.98s11.88,2.41,17.57,4.69l-11.94-5.04c7.87,3.41,15.51,7.35,23.61,10.25s17.22,3.02,25.87,3.88l-13.29-1.79c9.33,1.35,18.7,2.18,28.02,3.3l-13.29-1.79c6.36,1.05,12.58,3.03,18.84,4.54,5.54,1.33,11.17,2.5,16.5,4.59l-11.94-5.04c2.76,1.17,5.32,2.51,7.72,4.31l-10.12-7.82c.92,.78,1.7,1.54,2.48,2.46l-7.82-10.12c.44,.57,.81,1.18,1.11,1.83l-5.04-11.94c.33,.75,.54,1.52,.65,2.33l-1.79-13.29c.19,2.04,.09,3.95-.16,5.98l1.79-13.29c-.95,5.66-2.3,11.33-4.38,16.69l5.04-11.94c-1,2.35-2.14,4.53-3.62,6.62l7.82-10.12c-1.03,1.31-2.12,2.45-3.38,3.53l10.12-7.82c-1.38,1.02-2.77,1.81-4.35,2.49l11.94-5.04c-1.36,.46-2.57,.76-4,.96l13.29-1.79c-4.95,.15-10.39,.26-15.31-.19l13.29,1.79c-2.93-.55-5.67-1.4-8.44-2.49l11.94,5.04c-9.68-4.27-18.83-10.54-27.18-16.99l10.12,7.82c-8.7-7.32-16.19-15.89-24.55-23.54-4.67-4.27-8.91-8.99-13.63-13.22-7.69-6.89-15.96-13.08-24.13-19.36l10.12,7.82c-2.59-2.14-4.69-4.69-7.1-7.01-5.17-4.95-11.12-9.1-16.93-13.25s-11.45-8.41-17.39-12.31c-14.8-9.71-30.59-16.62-46.9-23.42l11.94,5.04c-6.71-3.15-13.12-6.46-20.21-8.94-11.6-4.06-22.05-2.97-33.81-.93s-24.13,13.15-29.88,22.98c-6.27,10.72-8.93,26.51-5.04,38.53s11.41,23.77,22.98,29.88l11.94,5.04c8.86,2.38,17.72,2.38,26.58,0h0Z"/><path class="d" d="M130.79,539.72c.06-5.63,.23-11.23,.9-16.82l-1.79,13.29c.69-4.9,1.8-9.62,3.62-14.22l-5.04,11.94c1.44-3.3,3.15-6.32,5.25-9.25l-7.82,10.12c2.75-3.55,5.84-6.63,9.38-9.4l-10.12,7.82c2.89-2.12,5.85-3.9,9.13-5.34l-11.94,5.04c2.33-.9,4.6-1.53,7.07-1.88l-13.29,1.79c1.46-.11,2.78-.1,4.23,.02l-13.29-1.79c1.41,.24,2.62,.54,3.95,1.06l-11.94-5.04c.81,.38,1.57,.84,2.28,1.38l-10.12-7.82c3.65,2.88,6.86,6.56,9.83,10.13l-7.82-10.12c5.08,6.75,8.8,15.14,12.26,22.83l-5.04-11.94c5.32,12.69,9.93,25.55,16.22,37.85,2.26,4.41,4.6,8.79,7.31,12.94,4.74,7.26,9.97,14.76,16.35,20.68,12.55,11.62,27.14,19.68,43.47,24.73,8.66,2.68,18.09,3.81,27.09,4.26,3.77,.19,7.53-.08,11.29,.31l-13.29-1.79c1.57,.24,3.02,.57,4.5,1.15l-11.94-5.04c.65,.28,1.24,.65,1.78,1.09l-10.12-7.82,.71,.71-7.82-10.12,.56,.83,29.88-73.45-1.68,.38,13.29-1.79h-1.72l13.29,1.8c-2.91-.42-5.69-1.33-8.57-1.94-6.64-1.41-13.79-2.16-20.39-2.98-5.99-.75-12-1.44-18.05-1.33-17.43,.32-33.86,4.09-49.77,10.81s-27.4,15.26-40.34,25.7c-8.33,6.72-16,14.23-24.42,20.84l10.12-7.82c-2.7,2.01-5.43,3.7-8.52,5.02l11.94-5.04c-2.8,1.05-5.61,1.69-8.57,2.11l13.29-1.79c-2.99,.3-5.88,.28-8.87-.07l13.29,1.79c-2.53-.41-4.91-1.02-7.3-1.93l11.94,5.04c-1.84-.82-3.5-1.76-5.15-2.92l10.12,7.82c-1.56-1.29-2.88-2.66-4.13-4.25l7.82,10.12c-1.13-1.65-2.06-3.31-2.89-5.13l5.04,11.94c-1.69-4.18-2.62-8.5-3.27-12.95l1.79,13.29c-.8-6.07-.79-11.95-.08-18.03l-1.79,13.29c1.56-11.36,3.14-23.05,6.2-34.12,3.45-12.5,1.51-27.34-5.04-38.53-6.07-10.37-17.96-20.26-29.88-22.98-12.8-2.92-27.17-2.28-38.53,5.04s-19.44,17.07-22.98,29.88c-2.24,8.09-3.31,16.38-4.69,24.64-1.97,11.81-4.69,23.95-3.78,35.97,.78,10.29,1.87,21.31,5.61,31.07,6.49,16.95,16.52,32.51,33.13,41.23,25.32,13.29,56.69,13.41,81.55-1.31,15.15-8.97,27.48-22.68,41.27-33.53l-10.12,7.82c6.78-5.23,13.87-9.89,21.73-13.35l-11.94,5.04c6.96-2.89,14.26-4.77,21.72-5.84l-13.29,1.79c9.03-1.09,17.85-.49,26.84,.67l-13.29-1.79c3.85,.55,7.6,1.27,11.36,2.24,11.61,2.99,22.51,3.14,34.29,.5,30.14-6.76,47.53-47.4,29.88-73.45-6.2-9.14-11.45-14.84-20.99-20.57-9.42-5.65-19.04-7.02-29.74-7.98-5.51-.49-11.01-.1-16.52-.82l13.29,1.79c-5.11-.84-10-2.26-14.79-4.24l11.94,5.04c-4.55-2.02-8.78-4.45-12.73-7.47l10.12,7.82c-2.56-2.11-4.81-4.38-6.91-6.96l7.82,10.12c-7.07-9.15-12.47-19.85-17.21-30.37l5.04,11.94c-6.86-16.42-12.11-34.37-22.67-48.96-7.87-10.88-17.12-21.92-28.89-28.82-15.44-9.05-34.3-10.65-51.43-6.05-13.88,3.73-25,11.3-35.88,20.31-7.78,6.44-14.6,14.99-19.35,23.81-10.16,18.83-13.06,39.17-13.28,60.32-.13,12.74,5.67,26.38,14.64,35.36s22.9,15.2,35.36,14.64c27.32-1.22,49.72-21.97,50-50h0Z"/></g><g id="b"><path class="h" d="M90.46,495.64c-3-17.23-5.11-29.3,.8-39.81,2.75-4.9,6.83-8.72,8.8-10.56,4.14-3.88,8.17-6.46,11.2-8.12,3.03-1.97,7.33-5.3,11.2-10.56,3.16-4.3,5.09-8.61,6.29-12.29,1.66-5.09,5.31-9.25,10.14-11.39,1.3-.57,2.64-1.13,4.03-1.68,7.18-2.82,13.81-4.52,19.46-5.56l-.61-3.71c.87-1.81,1.96-3.79,3.34-5.87,2.04-3.07,4.18-5.51,6.08-7.41,4.17-.63,7.61-1.16,10.03-1.54,10.31-1.61,12.73-2.08,15.2-4.01,1.6-1.25,4.06-3.78,5.47-8.95,.39-2.79,.94-6.96,1.52-12.04,1.5-13.07,1.31-15.76,2.43-24.39,.17-1.32,1.43-8.08,3.95-21.61,1.56-8.39,2.6-13.75,5.78-20.38,1.15-2.4,2.26-4.3,3.04-5.56,1.2-5.33,2.51-10.79,3.95-16.36,2.03-7.83,4.17-15.35,6.38-22.54,.37-1.59,.93-4.07,1.52-7.1,2.07-10.68,1.45-12.52,3.04-21,.32-1.69,2.14-7.61,5.78-19.45,.42-1.37,1.4-4.45,3.95-7.41,1.07-1.25,2.7-3.08,5.47-4.01,2.46-.83,4.63-.55,5.78-.31,1.11,.16,2.57,.25,4.26,0,3.18-.47,5.47-1.88,6.69-2.78-.02-.58,.01-1.45,.34-2.42,.48-1.4,1.36-2.36,3.4-4.03,1.29-1.06,3.03-2.39,5.21-3.8-.26-.77-.53-1.54-.79-2.3-2.08,1.35-3.94,2.04-5.21,2.42-2.4,.7-3.53,.52-3.85,.46-.43-.08-.82-.2-1.17-.35-1.18-.48-2.04-1.56-2.22-2.83-.08-.57-.22-1.21-.46-1.89-.38-1.08-.74-1.46-1.7-3.22-.39-.71-.86-1.7-1.81-3.68-1.02-2.12-1.54-3.21-1.93-4.26-.44-1.18-.73-2.19-.91-2.88l-1.29-1.37c-.48-.51-.75-1.19-.74-1.89l.03-3.86c-.47-.64-1.08-1.58-1.61-2.79-.7-1.58-.96-2.89-1.13-3.82-.19-.98-.36-2.31-.36-3.88-.21-.61-.56-1.55-1.08-2.67-.94-2.06-1.51-2.74-2.15-4.31-.45-1.11-.65-1.99-1.02-3.7-.47-2.19-.94-4.34-1.02-7.22-.04-1.5-.09-4.04,.66-7.22,.38-1.63,.92-3.83,2.45-6.31,1.44-2.34,3.05-3.76,3.88-4.49,1.85-1.61,3.65-2.61,4.96-3.22,.27-.32,.68-.77,1.19-1.27,.8-.77,1.96-1.88,3.7-2.73,.85-.42,2.25-.97,4.12-1.15l9.97-5.34c1.04-.3,2.44-.64,4.12-.85,4.81-.6,8.53,.28,9.56,.55,4.97,1.27,8.21,3.76,8.9,4.31,3.65,2.88,5.31,6.06,7.82,10.86,1.33,2.54,3.01,5.81,3.94,10.49,.52,2.62,.65,4.87,.66,6.49,.43,.78,.98,1.89,1.49,3.28,.44,1.19,1.24,3.39,1.43,6.37,.09,1.37,.08,3.36-.42,5.7,.34,1.01,.64,2.15,.84,3.4,.86,5.54-.79,10.19-1.97,12.74,1.02,1.24,1.67,2.39,2.09,3.22,.78,1.54,2.8,5.58,1.43,9.65-.28,.83-.64,1.47-.9,1.88,.98,1.09,1.95,2.18,2.93,3.28,.9,.8,2.25,2.12,3.58,4,1.38,1.95,1.54,2.78,3.11,5.1,1.13,1.67,2.08,3.08,3.64,4.49,1.47,1.33,2.36,1.64,6.27,3.82,1.43,.8,3.17,1.79,5.14,2.97,2.91,.87,5.81,1.74,8.72,2.61,.81,.26,1.91,.68,3.11,1.4,2.39,1.43,3.77,3.18,4.24,3.82,1.4,1.9,1.89,3.59,2.63,6.13,.82,2.82,1.06,5.07,1.25,7.04,.27,2.72,.26,4.74,.24,7.04-.01,1.81-.04,4.31-.36,7.34-.41,3.8-.9,4.84-1.61,8.92-.54,3.11-.74,5.39-1.13,9.95-.48,5.56-.33,6.49-.9,13.53-.24,2.97-.36,4.45-.6,6.43-.53,4.41-1.16,7.57-2.03,11.95-.57,2.87-1.18,5.88-2.21,9.89-.58,2.27-1.13,4.17-1.55,5.58,.54,.63,1.27,1.52,2.09,2.61,1.06,1.39,3.07,4.16,5.5,8.61,2.06,3.78,3.9,7.15,5.44,11.95,1.27,3.97,1.7,6.96,2.45,12.07,.43,2.97,1.02,7.07,1.19,12.38,.2,6.09-.25,10.24-1.13,18.38-1.09,10-2.11,13.39-2.99,15.77-1.08,2.94-2.27,5.27-3.17,6.85,1.59,1.03,3.29,2.26,5.02,3.7,.9,.75,1.74,1.5,2.51,2.24,.68-.05,1.67-.09,2.86-.06,.85,.02,1.73,.08,4.99,.51,2.38,.31,3.58,.47,4.04,.63,.36,.12,1.05,.38,4.04,2.39,2.39,1.61,3.6,2.44,4.76,3.59,1.01,1,1.73,1.92,2.19,2.56,1.15,.8,2.89,1.94,5.1,3.13,2.23,1.19,4.17,1.97,7.96,3.47,3.55,1.41,6.47,2.45,9.47,3.53,1.61,.58,2.94,1.04,3.87,1.37,1.2,.68,2.78,1.61,4.6,2.79,1.5,.97,2.97,1.92,4.82,3.36,2.55,1.98,4.28,3.68,4.71,4.1,.81,.8,2.19,2.18,3.64,4.04,.83,1.06,1.39,1.92,4.37,7.23,3.09,5.5,3.7,6.76,4.32,8.2,.75,1.74,1.28,3.22,1.63,4.27,1.32,.82,3.23,2.04,5.44,3.64,.9,.65,3.13,2.3,8.57,7,3.81,3.3,5.72,4.95,7.01,6.26,2.53,2.59,4.12,4.68,7.01,8.48,3.26,4.29,4.88,6.44,6.84,9.62,4.19,6.81,5.92,11.75,6.56,13.72,.25,.76,.44,1.39,.56,1.82,1.3,.98,2.68,2.13,4.09,3.47,2.09,1.99,3.79,3.96,5.16,5.75,.94,.66,2.26,1.72,3.53,3.3,.42,.52,.77,1.02,2.69,4.38,.93,1.64,1.64,2.91,3.03,5.41,2.05,3.7,2.17,3.94,2.35,4.33,.9,1.9,1.34,3.29,2.19,5.98,.72,2.3,.94,3.29,2.35,8.42,.47,1.72,.87,3.13,1.12,4.04,.02,1.14,.04,2.28,.06,3.42,.33,.73,.78,1.84,1.06,3.24,.17,.84,.31,1.87,.28,5.12-.03,3.15-.17,3.12-.11,4.5,.03,.83,.13,2.21,1.01,5.75,.79,3.19,1.31,4.51,2.3,7.85,.41,1.38,1.24,4.18,1.88,6.95,1.23,5.3,.87,6.61,1.75,11.33,.82,4.38,1.91,7.49,3.13,10.94,2.3,6.51,2.9,5.93,5.51,12.72,2.43,6.32,4.36,11.32,4.51,16.92,.03,1.01,.02,3.01,.38,5.85,.39,3.13,.85,2.99,1.25,5.3"/><path class="h" d="M213.85,369.99c.5-2.01,1.93-6.84,6.79-20.26,.63-1.72,1.21-3.4,3.51-9.79,1.01-2.8,1.84-5.11,2.41-6.68h0s1.1-3.92,1.53-5.57c1.13-4.23,1.16-5.65,1.97-9.35,1.18-5.35,1.7-5.03,3.88-12.95,1.48-5.38,1.16-5.25,2.44-9.46,1.11-3.67,2.21-6.58,3.55-10.14,1.74-4.63,1.86-4.56,3.33-8.56,1.74-4.74,1.57-4.86,2.99-8.56,1.84-4.79,2.2-4.83,3.33-8.22,.69-2.09,.85-2.94,2.11-7.88,.86-3.39,1.63-6.26,2.22-8.45,.78,2.4,1.55,4.81,2.33,7.21,.37,2.97,.9,5.35,1.33,6.98,.65,2.48,1.02,3.18,1.89,6.31,.62,2.26,.67,2.77,1.55,6.53,1.13,4.83,1.7,7.25,2.33,9.24,1.25,3.95,1.86,4.59,2.88,8.56,.74,2.87,.91,4.44,.97,5.05,.27,2.79,.04,5.13-.22,6.72l-1.15,4.53c-.22,2.41-.43,4.82-.65,7.24-1.7,.68-3.4,1.35-5.09,2.03-1.33,.64-2.66,1.29-4,1.93l-7.09,2.13c-2.38,.94-4.76,1.88-7.14,2.83-1.68,.84-3.36,1.68-5.04,2.52-1.63,1.18-2.92,2.38-3.91,3.44-1.55,1.65-2.53,3.08-3.38,4.35-1.18,1.75-1.95,2.89-2.63,4.51-.25,.58-.8,1.97-1.5,6.72-.48,3.23-.68,5.71-.83,7.48-.23,2.89-.34,5.29-.45,7.86-.07,1.67-.12,3.06-.15,4.05-.28,.22-.74,.52-1.35,.69-.87,.24-1.32,.02-1.73,.15-.59,.19-1.19,1.17-1.2,4.66-.28,.47-.75,1.11-1.5,1.6-1.33,.88-4.6,1.66-4.33,.55Z"/><path class="h" d="M348.38,286.53c-1.6,5.26-4,12.92-5.6,18.18,.01,.59,0,1.4-.15,2.36-.08,.58-.41,2.77-1.45,4.57-1.2,2.08-3.03,3.1-4.06,3.68-7.83,4.45-6.94,5.33-13.06,8.11-8.2,3.72-15.25,4.61-19.88,5.16-8.75,1.04-15.96,.74-15.96,.74-5-.21-7.97-.76-12.34,.44-2.27,.63-3.08,.07-6.97,1.29-1.24,.39,0,0-4.64,.99-.69,.15-3.59,.4-4.12,.69-2.39,1.31-2.21,1.98-4.57,3.8-.02,.01-2.01,1.81-2.02,1.83-2.36,2.07-1.75,1.86-3.67,3.53-1.57,1.36-.01,.5-2.74,2.03-2.51,1.42-3.09,1.18-4.79,2.51-1.02,.79-2.22,1.07-2.98,2.45-.17,.32-.86,1.4-.86,1.4-.44,.64-.59,.89-1.07,1.86-.15,.29,.42-.76-.47,.84-.27,.49-.88,1.27-1.96,1.06-.6-.11-.19-.63,.17-1.79,.27-.88,.34-1.37,.38-1.45,.26-.59,.09-.36,.63-1.48,.45-.94,.64-1.08,1.02-1.61,.77-1.09,.32-.51,2.04-2.48,.73-.84,1.62-1.92,2.36-2.18"/><path class="h" d="M233.66,332.04c-.95,.97-1.97,1.96-3.06,2.94-.41,.37-.82,.74-1.23,1.09-.82,1.46-1.46,2.56-1.9,3.3-.31,.51-.55,.91-.75,1.53-.17,.51-.22,.9-.36,2.34-.1,1.1-.17,1.93-.2,2.26,0,0-.09,1.04-.2,2.9-.1,1.71-.1,2.03,.16,2.3,.43,.43,1.27,.41,1.83,.08,.64-.39,.79-1.16,.91-1.85,.21-1.19,0-1.99-.12-2.86-.12-.92-.15-2.23,.24-3.91,.53-1.17,1.16-2.09,1.79-2.82,.3-.35,.93-.97,2.26-2.14,2.45-2.14,1.7-1.47,2.27-1.96,.31-.26,.79-1.02,1.02-.94,.22,.07,.3,.57,.24,.97-.13,.8-.85,1.12-1.63,1.77-.21,.18-.84,1.06-2.1,2.82-1.81,2.53-1.58,2.33-1.98,2.78-.55,.61-.89,.87-1.11,1.49-.09,.24-.12,.44-.12,2.1,0,1.68,.05,1.72,0,2.38-.05,.69-.1,.84-.08,1.33,.04,.69,.08,1.52,.52,1.73,.5,.24,1.43-.35,1.79-1.13,.12-.26,.08-.95,0-2.34-.05-.83-.09-1.33,0-2.06,.05-.43,.08-.64,.16-.89,.29-.88,.9-1.12,1.94-2.1,.75-.7,1.32-1.39,1.71-1.85,.17-.21,.72-.88,1.55-1.61,.42-.37,.79-.65,1.19-.56,.17,.04,.41,.16,.48,.36,.12,.38-.43,.87-1.15,1.49-2.22,1.91-3.33,2.86-3.49,2.98-.65,.49-.98,.71-1.23,1.21-.25,.48-.27,.99-.32,2.02-.06,1.34,.03,1.21,0,1.97-.01,.36-.02,.71,0,1.17,.02,.43-.11,1.78,.27,1.9,.04,.01,.11-.01,.25-.07,.09-.03,.39-.16,.74-.49,.1-.1,1.23-1.22,1.37-1.42"/><path class="h" d="M316.06,326.36c-1.96,1.13-6.79,4.66-9.91,6.99-4.67,3.48-7.67,6.52-12.34,11.24-5.31,5.38-7.21,7.93-7.84,8.8-2.11,2.9-3.38,4.65-4.33,6.91-1.05,2.5-1.5,4.75-1.7,6.33-.39,.79-.88,1.87-1.35,3.2,0,0-1.39,3.92-1.65,8.23-.72,11.78,6.19,20.55,6.19,20.55,5.51,6.99,12.79,9.25,15.71,10.15,5.55,1.72,6.9,.55,19.52,2.66,4.93,.82,7.4,1.24,10.71,2.18,6.57,1.86,7.82,3.24,17.14,6.53,6.2,2.18,6.2,1.77,10,3.38,5.02,2.14,7.13,3.76,12.14,6.53,3.17,1.75,7.82,4.13,13.8,6.53,.69,.41,1.76,.93,3.16,1.2,1.23,.24,2.28,.21,3.02,.13,.6,.63,1.53,1.55,2.76,2.54,2.72,2.17,5.14,3.21,6.31,3.74,2.65,1.2,.87,.65,12.23,7.08,7.96,4.51,6.6,3.51,9.6,5.34,4.93,3.01,7.06,4.76,11.7,6.94,2.3,1.08,4.25,1.82,5.52,2.27,.52,.32,1.16,.32,1.59,0,.58-.43,.74-1.39,.22-2.13-.45-.57-1-1.2-1.66-1.84-.58-.55-1.14-1.01-1.66-1.4,1.59,.83,3.68,1.95,6.08,3.38,2.56,1.52,4.37,2.72,6.59,4.19,3.57,2.37,6.67,4.57,9.26,6.47,3.57,2.62,2.92,2.28,7.02,5.29,2.88,2.11,4.65,3.34,7.89,5.81,1.43,1.09,2.58,1.99,3.33,2.57,.1,.3,.27,.73,.58,1.18,.65,.96,1.43,1.32,3.11,2.13,3.18,1.54,3.57,1.8,4.49,1.76,.58-.02,1.56-.05,2.1-.74,.67-.84,.18-3.12-.78-5.74"/><path class="h" d="M415.54,418.85c-2.08-1.82-19.68-16.36-23.18-19.16-3.93-3.14-5.9-4.71-8.74-6.62-3.91-2.62-4.95-2.87-10.22-6.32-2.74-1.79-4.74-3.22-5.92-4.06-8.53-6.09-9.29-7.71-14.22-10.23-2.61-1.34-4.91-2.16-7.26-3.01-3.42-1.23-5.67-2.04-8.89-2.56-1.39-.22-4.82-.69-9.18-.3-2.75,.25-4.84,.74-6.81,1.2-2.52,.59-4.63,1.25-6.22,1.81"/><path class="h" d="M250,112.18c1.07-.16,1.63-1.22,1.93-1.51,.29-.28,.86,.04,1.77,.26,1.55,.37,2.07,0,3.04,.17,1.73,.31,2.33,1.95,3.55,3.17,1.1,1.11,3.03,2.21,6.68,2.24,.67,0,1.35,.11,1.96,.42,.33,.17,.67,.39,.99,.69,1.27,1.18,1.14,2.54,2.03,4.03,.53,.88,1.51,1.99,3.55,2.83,.36,.14,.88,.39,1.35,.86,1.29,1.3,.72,2.77,1.69,4.37,.86,1.43,1.64,.8,3.12,2.4,1.79,1.93,1.26,3.51,2.8,4.67,.43,.33,1.06,.64,2,.75s1.67,.74,1.89,1.63c.07,.29,.17,.59,.3,.9,1.46,3.47,5.65,4.18,6.1,4.25,1.08,1.98,1.88,3.58,2.39,4.61,1.7,3.46,2.24,5.01,3.95,6.19,.97,.67,1.92,.96,2.51,1.09,.38,1.14,.94,2.53,1.79,4.01,.92,1.59,1.9,2.84,2.75,3.76-.06,1.59,.09,2.87,.24,3.76,.34,2.03,.61,3.67,1.79,4.25,.27,.13,.66,.36,.91,.49q.94,.49,1.9,.74c.28,.07,.35,.1,.86,.33,.58,.26,1.09,.52,1.54,.73,.54,.26,.87,.21,1.68,.39,.09,.02,.19,.05,.27,.07l2.6,.79c1.02,.24,1.4,.55,2.69,1.01,.66,.24,4.84,1.96,5.4,2.28"/><path class="g" d="M247.18,128.2c-.12-.57-.35-4.75-.39-5.96-.03-.81,.02-1.39,.42-4.89,.23-1.97,.27-2.3,.34-3.09,.11-1.27,1.02-9.3,1.04-9.99,0,.33-.61,8.19,1.42,7.9"/><path class="h" d="M250,129.21c.31,.48,.74,1.17,1.21,2.02,.59,1.06,.88,1.6,1.07,2.16,.38,1.15,.2,1.82,.14,3.75-.03,.88-.19,4.62-.08,6.17"/><path class="h" d="M255.68,145.23c.15-.21,.44-.58,.92-.79,1.22-.54,2.43,.38,2.49,.43,.79,.63,.97,1.54,1.07,2.02,.13,.67,.1,1.03,.03,1.38-.65-.31-1.26-.45-1.68-.55-.89-.21-1.54-.18-2.12,.18-.34,.2-.53,.5-.64,.72,.42,.24,.9,.49,1.42,.72,.45,.2,.88,.37,1.28,.51"/><path class="h" d="M268.42,123.3c-1.2-.64-2.93-1.55-5.14-2.22-3.29-1-3.61-1.01-5.62-.84-1.22,.1-3.89,.3-6.41,2.28-1.67,1.31-2.07,2.71-2.17,3.78-.07,.74,.69,2.48,.91,2.9"/><path class="h" d="M273.6,166.67c2.31-1.07,5.12-3.3,6.64-4.12,2.82-1.51,3.75-2.17,4.42-3.34,.8-1.39,.86-2.85,.79-3.8"/><path class="h" d="M254.33,150.44c.23,.11,1.58,.38,1.92,.71,.16,.15,.59,.58,.82,1.27,.15,.45,.13,.92,.1,1.85-.02,.54-.24,1.47-.27,1.79"/><path class="h" d="M258.72,160.76c.38-.06,2.06-.89,2.55-1.3,.94-.79,1.31-2.17,1.01-3.59-.29-.29-.85-.75-1.67-1.03-1.14-.38-3.67,1.27-4.08,1.38"/><path class="h" d="M257.69,158.17c.56-.22,1.68-.9,2.29-1.18,.52-.25,1.83-.85,2.29-1.1"/><path class="h" d="M259.19,132.26c-.17-.17-.65-1.65-.63-2.78,.02-1.23,.95-2.01,1.34-2.33,1.41-1.15,4.06-.9,6.29,.9-.88,.93-1.72,1.57-2.35,2-1.3,.88-2.52,1.37-3.43,1.74-.49,.2-.91,.35-1.21,.45"/><path class="g" d="M254,96.37c-.76,.5-2.08,1.5-2.46,1.9-.24,.25-1.25,1.34-2,3.14-.27,.66-.85,2.45-.96,2.87"/><path class="g" d="M255.48,93.9c-1.2,1.59-2.32,4.14-2.61,5.11-.54,1.82-.52,3.23-.48,4.98,.03,1.85,.07,3.05,.79,4.37,.48,.87,1.87,2.36,2.31,2.73"/><path class="g" d="M257.97,93.41c.7,.01,3.29,.11,4.47,.49,3.64,1.2,5.5,4.2,6.18,5.29,1.73,2.78,2.06,6.57,2.12,8.04"/><path class="g" d="M260.25,93.84c.49,1.12,3.05,7.64,4.54,9.29,2.71,3,5.82,4.11,7.45,4.67,3.51,1.21,6.46,1.11,7.81,1.05,1.29-.06,1.2-.17,3.15-.37,3.51-.35,6.21-.63,9.28,.04,3.36,.73,5.71,2.27,7.01,3.15,2.52,1.68,4.22,3.56,5.01,4.44,.62,.69,2.14,2.79,2.48,3.24"/><path class="h" d="M264.93,88.53c4.16,.36,10.21,3.08,11.49,4.32,2.1,2.05,2.35,4.24,5.63,7.01,.79,.66,1.72,1.44,3.15,2.09,2.48,1.13,3.8,.65,6.9,1.05,2.61,.33,4.64,1.14,8.72,2.77,3.72,1.48,4.69,2.26,5.33,2.89,1.59,1.55,3.38,5.22,3.76,6.38"/><path class="g" d="M257.68,91.87c0,.98-.43,6.59-.09,8.19,.27,1.27,.75,3.53,2.15,5.52,1.47,2.09,3.3,2.96,6.16,4.31,1.76,.83,4.58,2.13,8.43,2.49,2.72,.25,4.88-.08,9.21-.73,3.29-.5,4.43-.9,6.87-.73,2.76,.2,4.69,.95,5.32,1.21,2.09,.87,7.06,6.06,8.18,7.38"/><path class="j" d="M266.97,116.51c5.94-.17,15.16,1.23,18.42,1.52,6.07,.56,9.72,1.38,16.5,1.52,3.34,.07,7.99-.49,9.74-.61"/><path class="h" d="M278.95,120.84c3.31,1.09,10.52,5.03,12.59,5.57,8.39,2.21,10.62,1.94,11.84,1.7,3.21-.63,6.16-2.31,6.16-2.31,.83-.47,2.69-2.11,3.17-2.45"/><path class="h" d="M271.25,120.04c5.56,.38,16.49,2.01,19.28,2.25,6.35,.54,10.06,.94,15.42,.49,1.91-.16,5.74-1.11,6.75-1.27"/><path class="g" d="M277.55,120.84c1.4,3.17,12.49,14.8,17.7,16.5,2.8,.91,5.19,.13,6.81-.3,1.36-.36,2.5-.68,3.71-1.64,1.74-1.38,2.53-3.23,2.75-3.76,.17-.42,.29-.78,.36-1.03"/><path class="h" d="M303.88,128c.41,.44,2.39,1.84,3.39,2.29,1.81,.82,4.5,.23,5.15,.09"/><path class="h" d="M294.74,144.3c1.18,.32,7.42,.93,10.8-.65,.89-.42,2.56-1.22,3.83-3.1,.94-1.4,1.91-9.03,2.03-9.83"/><path class="h" d="M298.74,144.69c1.74,1.35,3.22,3.09,4.52,4.11,1.1,.86,2.59,.95,3.78,.23,1.71-1.03,3.84-2.42,4.73-2.76"/><path class="j" d="M303.59,156.2c1.78-.69,4.41-2.34,5.42-2.96,1.71-1.04,2.29-1.71,2.57-2.55,.52-1.56,.15-3.34,.08-3.7"/><path class="h" d="M305.88,161.04c.89-.15,3.54-.76,5.03-1.66,1.71-1.03,3.67-3.84,4.22-4.62"/><path class="h" d="M213.85,369.99c-.61,.04-2,.2-3.4,1.18-1.57,1.09-2.22,2.55-2.44,3.12-1.07,.12-2.75,.34-4.82,.69-1.73,.29-3.16,.59-5.8,1.13-3.34,.69-4.37,.94-6.05,1.1-.75,.07-1.26,.08-2.52,.22-1.25,.14-1.73,.23-2.52,.22-.95-.01-2.27-.74-2.77-.87"/><path class="h" d="M243.26,345.79c-.52,1.46-5.75,11.67-6.49,14.22-1.01,3.49-1.74,5.98-2.07,8.53-.7,5.35,.47,9.63,1.2,12.3,1.69,6.19,4.55,10.29,6.76,13.41,3.01,4.23,4.51,6.35,7.42,7.98,4.65,2.6,9.36,2.08,13.2,1.66,6.37-.7,10.78-3.3,12.22-4.21,1.77-1.12,4.26-4.19,5.18-5.04"/><path class="h" d="M469.63,483.95c-.4-1.05-6.12-10.78-7.41-12.33-.75-.9-1.21-1.22-2.31-2.35-1.53-1.56-2-2.33-3.41-4.02-1.47-1.76-2.88-3.46-4.84-5.14-2.37-2.03-2.8-1.7-5.83-4.25-.88-.74-2.06-1.74-3.41-3.24-1.44-1.6-1.8-2.35-3.3-4.36-2.52-3.38-2.91-3.16-4.84-5.81-1.89-2.59-1.46-2.73-3.74-6.26-.65-1.01-2.13-2.96-5.06-6.82-3.12-4.11-3.98-5.16-5.39-6.48-1.43-1.33-3.63-3.45-4.53-4.06"/><path class="h" d="M265.18,312.49c1.01-.17,4.88-1.16,6.75-1.48,4.83-.83,9.38-1.65,10.54-1.87,7.54-1.44,14.67-4.91,17.9-6.47,5.69-2.77,6.14-3.72,17.53-9.96,2.84-1.55,5.19-2.8,6.74-3.61,.73-.39,1.74-1.08,2.45-2.24,1.32-2.17,2.47-5.15,2.55-6.32,.37-5.31-.12-6.94,.74-15.88,.54-5.63,.36-5.36,1.16-10.04,.13-.79-.06,1.57,.47-8.74,.36-7.01,1.71-10.08,1.82-11.04,.28-2.6,.28-2.76,.16-5.24-.06-1.19,.08-2.73,.09-5.72,0-1.03-.36-3.26-.49-5.6-.1-1.87-.16-4.41,0-7.47"/><path class="h" d="M256.8,213.53c-.19,4.39-.44,8.16-.66,11.12-.57,7.74-1.11,11.67-1.31,13.13-.25,1.75-.74,5.3-.91,6.33"/><path class="h" d="M162.38,395.66c2.2-.2,8.84-.02,12.84-.17,5.74-.22,7.11,0,11.16-.15,5.76-.21,5.99-.75,15.99-1.84,3.61-.39,7.18-.67,14.33-1.23,8.18-.64,11.86-.82,14.63-.92,2.3-.09,7.89-.14,9.25-.16"/><line class="h" x1="229.38" y1="336.07" x2="226.01" y2="339.38"/><path class="h" d="M235.32,350.92c-.04-.18-.03-3.87,.15-4.32,.17-.4,.44-.62,.6-.75,.35-.28,4.78-2.44,4.99-2.48"/><path class="h" d="M256.24,251.33c.77,1.11,3.93,4.98,6.12,6.1,1.63,.83,3.35,1.19,7.26,1.15,6.3-.08,9.45-.12,12.41-1.64,1.27-.65,5.28-2.78,7.42-7.53,1.9-4.22,1.24-8.09,.81-10.64"/><path class="h" d="M331.71,251.58c-.6,.89-3.18,4.35-6.52,6.38s-5.39,2.42-8.3,2.73c-2.41,.26-4.53,.48-6.85-.39-1.45-.54-3.22-1.08-4.47-2.38-2.23-2.31-3.04-3.63-4.4-5.9-1.66-2.79-1.92-5.59-2.24-9.12-.14-1.5-.16-2.76-.15-3.65"/><path class="h" d="M435.19,460.62c-1.49-1.54-3.05-2.85-3.99-3.6-1.09-.87-1.37-1-3.21-2.44-1.15-.9-2-1.58-3.09-2.56-1.13-1.02-1.93-1.84-2.52-2.44-.95-.98-2.13-2.26-3.44-3.84,2.1,1.44,3.89,2.41,5.15,3.02,1.44,.7,1.96,.85,3.44,1.63,1.31,.69,2.2,1.26,4.35,2.68,5.06,3.34,4.68,3.2,6.3,4.19,2.87,1.74,3.23,1.67,5.15,3.02,1.85,1.31,2.71,2.22,4.12,3.49,3.47,3.11,4.66,3.3,9.62,6.98,1.63,1.21,6.2,4.48,8.97,6.92"/><path class="h" d="M441.06,450.99c-1.67-.85-8.68-5.63-11.65-7.34-6.12-3.51-8.4-5.34-13.63-8.53-1.89-1.15-6.75-4.06-13-7.08-5.63-2.73-9.88-4.33-16.33-6.76-2.6-.98-2.07-.74-16.49-5.8-11.22-3.93-12.07-4.26-14.74-4.99-4.97-1.36-7.02-1.59-12.52-3.22-4.26-1.26-7.7-2.51-9.99-3.38,.47,1.76,1.41,4.12,3.49,5.8,1.94,1.57,3.02,1.05,7.05,2.54,4.55,1.68,5.07,3.05,9.24,4.34,2.42,.75,4.51,.98,5.88,1.07,.26,.46,.72,1.15,1.47,1.78,.97,.81,1.96,1.14,2.52,1.28,1.94,1.98,3.73,3.25,5.04,4.05,.97,.59,1.24,.67,4.27,2.35,2.73,1.51,2.59,1.49,3.92,2.2,.95,.51,2.77,1.34,6.37,2.98,3,1.37,3.87,1.76,5.32,1.99,1.24,.2,2.29,.19,3.01,.14,.91,.77,2.28,1.9,3.99,3.2,2.61,1.99,4.31,3.09,9.45,6.47,7.93,5.21,7.17,4.74,9.52,6.25,3.87,2.49,2.86,1.78,8.54,5.4,1.2,.77,3.81,2.44,7.21,4.48,1.45,.87,3.03,1.8,5.18,2.84,1.36,.66,3.33,1.72,4.16,2.06"/><path class="j" d="M383.35,420.47c.14,.76,.48,1.86,1.11,3.09,.67,1.33,.69,2.04,3.37,4.41,.92,.81,7.64,9.97,8.97,11.47"/><path class="j" d="M386.68,421.31c.14,.76,.48,1.86,1.11,3.09,.67,1.33,.69,2.04,3.37,4.41,.92,.81,8.46,11.93,9.8,13.43"/><path class="j" d="M390.79,422.82c.14,.76,.48,1.86,1.11,3.09,.67,1.33,.69,2.04,3.37,4.41,.92,.81,8.7,13.28,10.04,14.78"/><path class="j" d="M395.1,424.65c.14,.76,.48,1.86,1.11,3.09,.67,1.33,.77,1.94,3.37,4.41,1.19,1.13,8.81,14.36,10.15,15.86"/><path class="j" d="M401.11,427.48c.14,.76,.48,1.86,1.11,3.09,.67,1.33,1.07,1.65,3.37,4.41,1.39,1.67,7.64,14.57,8.97,16.07"/><path class="j" d="M406.97,429.96c.14,.76,.48,1.86,1.11,3.09,.67,1.33,.52,2.25,3.11,4.72,1.07,1.02,8.52,15.71,9.86,17.21"/><path class="j" d="M379.19,418.72c.14,.76,.48,1.86,1.11,3.09,.67,1.33,.69,2.04,3.37,4.41,.92,.81,5.27,6.66,6.61,8.16"/><path class="j" d="M374.88,417.07c.14,.76,.48,1.86,1.11,3.09,.67,1.33,.69,2.04,3.37,4.41,.92,.81,5.99,8.31,7.33,9.82"/><path class="j" d="M371.28,415.87c.14,.76,.48,1.86,1.11,3.09,.67,1.33,.69,2.04,3.37,4.41,.92,.81,6.12,8.08,7.46,9.58"/><path class="j" d="M367.51,414.5c.14,.76,.48,1.86,1.11,3.09,.67,1.33,.69,2.04,3.37,4.41,.92,.81,5.56,7.35,6.9,8.85"/><path class="j" d="M363.8,413.34c.14,.76,.48,1.86,1.11,3.09,.67,1.33,.69,2.04,3.37,4.41,.92,.81,4.36,6.28,5.7,7.78"/><path class="j" d="M411.43,432.57c.11,2.72,.94,4.32,1.71,5.3,.6,.76,1.25,1.24,2.07,2.49,.76,1.14,2.35,3.65,2.6,4.39"/><path class="j" d="M415.78,435.12c-.05,.38,.13,1.71,.24,2.39,.2,1.24,.76,2.1,1.1,2.62,.55,.83,.76,.83,1.26,1.56,.61,.9,2.76,4.93,2.9,5.54"/><path class="j" d="M421.88,439.22c-.05,.38-.08,.95,.03,1.63,.2,1.24,.76,2.1,1.1,2.62,.55,.83,.76,.83,1.26,1.56,.61,.9,1.57,4,1.71,4.6"/><path class="j" d="M427.17,442.35c-.05,.38-.08,.95,.03,1.63,.2,1.24,.76,2.1,1.1,2.62,.55,.83,.76,.83,1.26,1.56,.61,.9,1.18,3.63,1.32,4.24"/><path class="j" d="M432.46,445.74c-.05,.38-.08,.95,.03,1.63,.2,1.24,.76,2.1,1.1,2.62,.55,.83,.76,.83,1.26,1.56,.61,.9,1.18,3.63,1.32,4.24"/><path class="j" d="M436.79,448.13c-.05,.38-.08,.95,.03,1.63,.2,1.24,.76,2.1,1.1,2.62,.55,.83,.76,.83,1.26,1.56,.61,.9,1.33,4.12,1.47,4.73"/><path class="j" d="M441.1,450.76c-.05,.38-.08,.95,.03,1.63,.2,1.24,.76,2.1,1.1,2.62,.55,.83,.76,.83,1.26,1.56,.61,.9,1.18,4.22,1.32,4.82"/><path class="j" d="M420.25,447.66c.61,.88,1.8,3.22,2.36,4.7,.38,1.02,1.38,4.06,1.53,4.87"/><path class="j" d="M424.77,452.05c.61,.88,1.8,3.22,2.36,4.7,.38,1.02,.83,2.11,.98,2.92"/><path class="j" d="M428.93,455.52c.61,.88,1.79,3.22,2.36,4.7,.16,.42,.37,.89,.57,1.63"/><path class="j" d="M432.85,458.69c.37,.43,1.09,1.58,1.43,2.31,.23,.5,.84,1.99,.93,2.39"/><path class="j" d="M447.15,457.22c-.04,.31-.07,.78,.03,1.33,.18,1.01,.68,1.73,.98,2.15,.49,.68,.68,.68,1.12,1.28,.55,.74,1.05,3.46,1.18,3.95"/><path class="j" d="M451.93,460.34c-.04,.32-.07,.82,.03,1.4,.18,1.06,.7,1.81,1.01,2.25,.5,.71,.7,.71,1.15,1.34,.56,.78,1.08,3.62,1.21,4.14"/><path class="j" d="M457.15,465.94c-.03,.24-.06,.6,.02,1.03,.15,.79,.58,1.34,.83,1.66,.41,.53,.58,.53,.95,.99,.47,.57,.89,2.68,1,3.07"/><path class="j" d="M360.13,412.2c.12,.61,.38,1.51,.83,2.51,.49,1.09,.52,1.65,2.38,3.63,.64,.68,3.1,5.15,4.04,6.39"/><path class="j" d="M356.5,410.82c.09,.48,.3,1.19,.66,1.98,.39,.86,.41,1.3,1.93,2.85,.52,.53,2.5,4.05,3.26,5.03"/><path class="j" d="M352.18,409.43c.07,.39,.24,.96,.52,1.6,.3,.7,.33,1.05,1.47,2.33,.39,.44,1.91,3.3,2.49,4.1"/><path class="j" d="M350.18,409.08c.02,.36,.11,.89,.29,1.51,.19,.66,.17,.99,1.05,2.27,.3,.44,1.35,3.2,1.77,3.98"/><path class="j" d="M347.15,408.41c.01,.35,.08,.87,.25,1.46,.18,.65,.15,.96,1.04,2.22,.3,.43,1.31,3.13,1.74,3.9"/><path class="j" d="M344.16,407.42c0,.29,.05,.71,.16,1.2,.12,.53,.1,.79,.69,1.83,.2,.36,.88,2.58,1.16,3.22"/><path class="j" d="M341.16,406.66c0,.26,.05,.63,.17,1.07,.12,.47,.1,.7,.72,1.63,.21,.32,.91,2.29,1.2,2.86"/><path class="j" d="M338.17,405.63c0,.26,.05,.63,.17,1.07,.12,.47,.1,.7,.72,1.63,.21,.32,.91,2.29,1.2,2.86"/><path class="j" d="M335.35,404.64c0,.26,.05,.63,.17,1.07,.12,.47,.1,.7,.72,1.63,.21,.32,.91,2.29,1.2,2.86"/><path class="h" d="M442.62,436.2c.34,.61,2.03,4.06,2.41,5.15,.53,1.53,.99,2.88,.81,4.55-.15,1.43-.71,2.55-1.63,4.38-.32,.64-1.61,2.02-1.81,2.36"/><path class="j" d="M261.95,89.45c1.76,.1,7.89,1.21,10.63,2.82,2.04,1.2,3.36,2.63,3.72,3.02,1.58,1.75,1.53,2.52,2.97,4.15,1.75,1.98,3.68,2.95,4.34,3.27,1.54,.75,2.1,.66,7.43,1.64,2.99,.55,4.51,.83,5.95,1.26,2.24,.67,4.14,1.25,6.19,2.77,1.58,1.16,2.62,2.42,3.22,3.15,1.08,1.32,4.48,5.84,5,6.8"/><path class="j" d="M259.36,90.62c1.76,.1,7.89,1.21,10.63,2.82,2.04,1.2,3.36,2.63,3.72,3.02,1.58,1.75,1.53,2.52,2.97,4.15,1.75,1.98,3.68,2.95,4.34,3.27,1.54,.75,2.1,.66,7.43,1.64,2.99,.55,4.51,.83,5.95,1.26,2.24,.67,4.14,1.25,6.19,2.77,1.58,1.16,2.62,2.42,3.22,3.15,1.08,1.32,4.27,5.48,4.78,6.44"/><path class="i" d="M267.3,87.27c1.06,.18,4.05,.92,5.77,1.58,1.65,.63,3.1,1.19,4.53,2.46,.5,.45,.55,.57,2.9,3.75,2.27,3.05,2.49,3.29,2.9,3.62,1.45,1.18,3.04,1.76,4.11,2.15,1.05,.38,7.39,1.67,10.29,1.67"/><path class="j" d="M269.57,86.05c1.94,.34,5.24,1.38,6.22,1.88,.89,.45,2.69,1.49,4.41,3.38,1.12,1.22,.92,1.4,2.66,3.62,1.49,1.9,2.24,2.86,3.08,3.44,1.17,.8,2.73,1.13,5.86,1.78,2.51,.52,3.1,.47,4.29,1.04,1.53,.73,4.08,3.83,4.71,4.58"/><path class="i" d="M273.5,84.12c1.57,.27,5.46,.85,7.74,2.21,2.29,1.37,3.76,2.98,5.8,5.22,2.71,2.97,2.39,3.33,4.47,5.22,2.21,2.01,2.63,1.97,5.15,3.65,1.15,.77,1.86,1.36,3.89,3.59,.35,.38,1.97,2.4,2.19,2.56"/><path class="j" d="M277.72,82.77c1.44,.4,5.17,1.66,7.48,3.01,3.1,1.81,4.96,3.82,7.38,6.41,2.89,3.11,4.64,5.79,5.4,7.03,.56,.9,4.24,6.56,4.54,7.12"/><path class="j" d="M282.56,82.35c1.44,.4,5.17,1.66,7.48,3.01,3.1,1.81,4.96,3.82,7.38,6.41,2.89,3.11,4.64,5.79,5.4,7.03,.56,.9,6.73,13.92,7.03,14.48"/><path class="j" d="M252.37,110.57c-1.08-1.03-1.72-3.24-1.89-4.74-.48-4.39,3.18-8.63,3.51-9.46"/><path class="j" d="M258.56,112.01c-.49-.61-2.55-3.83-3.06-5.01-.76-1.73-.91-3.18-.95-3.58-.15-1.66-.33-3.04-.04-4.34,.21-.94,1.11-4.19,1.76-5.67"/><path class="g" d="M275.83,124.55c.42,.15,2.98,1.3,3.41,1.45,.58,.2,2.89,1.14,3.46,1.32"/><path class="g" d="M280.69,131.27c.28,.12,2.66,.85,3.2,1.04,.8,.28,1.24,.36,1.97,.59,.46,.14,3.51,1.03,4.31,1.35"/><path class="g" d="M286.45,137.53c.77,.08,3.11-.02,3.54-.04,.72-.03,1.1-.11,1.97-.15,.55-.02,2.55-.18,2.84-.16"/><path class="h" d="M274.39,168.97c.63,1.65,.77,3.92,.62,5.39-1.29,.49-2.98,1.89-4.48,2.79-1.04,.62-4.1,1.56-5.09,2.07"/><path class="h" d="M313.91,161.27c-.28,.29-1.57,1.46-2.25,1.79-.74,.36-3.12,.89-3.54,.92"/><path class="g" d="M311.67,163.05c.43,1.83,2.7,5.92,3.33,6.42,.87,.69,1.71,.78,2.72,1.79,.6,.61,2.31,3.91,2.51,4.33"/><path class="j" d="M282.34,122.24c3.12,2.65,6.45,6.58,8.03,8.13,3,2.95,3.81,4.04,5.77,4.52,2.22,.55,5.17,.15,7.29-1.75,.89-.8,1.85-3.25,2.15-3.84"/><path class="j" d="M275.07,170.18c-1.07,.76-3.69,2.5-5.29,3.77-.52,.41-1.22,.98-1.86,1.96-.33,.5-1.21,2.5-1.34,2.82"/><path class="h" d="M223.97,362.33c.26,1.1,1.49,4.86,.86,6.84-.46,1.47-1.24,2.49-2.88,4.26-2.03,2.19-3.49,3.76-6.12,5.85-4.15,3.29-7.74,5.1-8.51,5.48-1.86,.92-4.25,1.95-7.11,2.8-.75,.22-1.37,.75-1.75,1.43-.28,.5-.71,1.08-1.33,1.61-1.21,1.03-5.12,3.1-6.28,4.4"/><path class="g" d="M295.83,144.69c1.07,1.32,3.42,4,4.18,4.85,1.69,1.9,2.12,2.22,2.69,2.46,1.39,.58,2.73,.28,3.95,0,.9-.2,3.44-1.85,5.02-3.01"/><path class="j" d="M312.42,131.06c.14,.97,.52,7.14-.55,9.37-.62,1.29-1.4,2.1-1.89,2.6-.6,.61-2.19,2.18-4.79,2.83-1.27,.31-3.59,.36-4.42,.27"/><path class="j" d="M288.35,139.16c2.52,.66,6,1.75,7.53,1.89,2.73,.25,4.19,.36,6.11-.16,2.56-.69,4.23-2.04,4.74-2.48,1.43-1.22,3.82-5.27,4.29-6.14"/><path class="j" d="M256.26,93.41c-.06,1.34-.81,10.95,1.41,14.36,.33,.51,1.92,2.88,4.98,4.55,2.41,1.32,4.51,1.53,7.18,1.8,3.16,.32,5.61,.04,7.35-.17,2.8-.34,7.25-2.19,8.97-2.72"/><path class="f" d="M34.39,596.05c-.04-12.73-1.64-25.88,1.62-38.36,2.82-10.83,7.75-21.35,13.82-30.72s13.97-18.37,23.68-24.17,22.06-7.46,33.38-8.79c13.12-1.54,26.52-2.23,39.64-.26,12.38,1.86,24.88,4.95,36.49,9.68s22.47,12.56,33.07,20.14c11.07,7.91,22.63,15.05,33.29,23.54,38.99,31.03,74.33,68.09,119.02,91.21,21.85,11.3,45.67,18.98,69.91,23.08,13.29,2.25,26.85,3.22,40.29,1.92,10.67-1.03,21.06-3.36,30.51-8.56,17.15-9.43,29.14-25.87,38.06-42.88,10.8-20.6,17.79-42.45,19.71-65.69,.51-6.21,.71-12.44,.72-18.67,0-1.45-2.25-1.45-2.25,0-.02,12.83-.9,25.67-3.48,38.25-2.44,11.94-6.46,23.35-11.5,34.43-8.22,18.04-18.89,36.22-35.22,48.06-20.29,14.71-47.21,15.15-71.13,11.76-24.88-3.53-49.54-11.12-72.01-22.38-45.38-22.75-81.05-60.18-120.29-91.52-10.14-8.1-21-15.05-31.63-22.46s-20.79-15.46-32.74-20.79c-22.83-10.2-48.41-14-73.23-11.83-11.32,.99-23.18,2.17-33.89,6.16-9.87,3.67-18.09,10.63-24.85,18.58-7.08,8.32-12.65,17.88-16.86,27.95-2.17,5.19-4.18,10.59-5.31,16.12-1.19,5.83-1.46,11.81-1.44,17.74s.35,12.33,.37,18.49c0,1.45,2.25,1.45,2.25,0h0Z"/></g></svg>