<?xml version="1.0" encoding="UTF-8"?><svg xmlns="http://www.w3.org/2000/svg" viewBox="0 0 523.15 542.47"><defs><style>.c{fill:#b4d3b4;}.d{fill:#c68b99;}.e{fill:#e0c5a0;}.f{fill:#1d1d1b;}.g{stroke-width:.75px;}.g,.h,.i,.j{fill:none;stroke:#1d1d1b;stroke-miterlimit:10;}.i{stroke-width:.25px;}.j{stroke-width:.5px;}</style></defs><g id="a"><path class="c" d="M297.78,91.05c1.21-7.35,4.2-13.57,4.17-21.35-.06-16.17-11.71-31.09-27.48-34.85-16.83-4.01-36.7,1.18-48.11,14.48-6.62,7.71-9.49,16.1-12.37,25.54-2.31,7.58-4.83,15.15-4.99,23.19-.35,17.19,11.73,32.06,28.29,35.99,8.59,2.04,16.51,1.53,25.13,1.55l-8.91-1.2,.7,.12-8-3.38,.61,.35-12.02-12.02,.53,.69-3.38-8,.47,1.15c2.85,7.01,5.83,12.63,12.01,17.4,5.65,4.37,12.96,7.52,20.3,7.19,14.47-.65,28.71-9.88,32.3-24.59,1.31-5.38,1.15-10.8,1.82-16.21l-1.2,8.91c.49-2.94,1.08-5.84,1.97-8.68l-3.38,8c.34-.91,.8-1.76,1.38-2.54l-5.24,6.78c4.45-5.07,8.99-10.3,12.36-16.19,4.74-8.27,5.62-16.06,6.62-25.28l-1.2,8.91c1.71-10.64,3.49-20.34,1.13-31.02-2.91-13.13-13.56-25.48-26.96-28.71-13.86-3.35-27.75,.34-37.56,10.81-6.08,6.49-10.1,14.02-12.46,22.55-4.48,16.15,4.23,33.12,19.4,39.52,14.77,6.23,33.91,1.07,41.83-13.71,3.53-6.57,6.23-14.49,6.24-22.04,.02-14.75-10.22-29.93-25.1-33.33-15.69-3.58-28.74,2.86-39.44,13.8-5.29,5.41-10.41,11.27-13.36,18.26-7.86,18.64,2.76,40.57,22.52,45.64,5.57,1.43,10.88,.87,16.42,1.44l-8.91-1.2,.52,.11-8-3.38,.32,.15-12.02-12.02,.09,.21-4.57-16.91c-.05,.94-.1,1.89-.15,2.83l1.2-8.91c-1.76,5.93-2.93,10.98-3.37,17.46-1.18,17.52,16.25,34.27,33.5,33.5,19.16-.86,32.23-14.73,33.5-33.5l.07-1.08-1.2,8.91c1.04-5.8,2.85-10.06,3.29-16.37,.83-11.71-3.95-22.25-13.14-29.34-6.74-5.21-14.18-7.21-22.62-7.56-2.01-.08-4.03,.05-6.04-.13l8.91,1.2-.49-.1,8,3.38-.28-.14,15.4,20.02-.04-.19-3.38,25.81c.16-.31,.38-.58,.59-.86l-5.24,6.78c2.97-3.81,6.34-7.56,10.13-10.56l-6.78,5.24c.54-.4,1.08-.77,1.68-1.07l-8,3.38c.2-.1,.41-.16,.63-.19l-8.91,1.2h.25l-8.91-1.19,.21,.08-14.78-8.62,.16,.16-5.24-6.78,.1,.24-3.38-8,.05,.33-1.2-8.91v.42l1.18-8.91c-.24,1.63-.89,3.16-1.52,4.67l3.38-8-.14,.25,61.23,25.81c.51-1.84,1.13-3.72,1.8-5.5l-8.62,14.78c1.15-1.42,2.41-2.77,3.73-4.03l-6.78,5.24,.82-.47-8,3.38,1.04-.19-8.91,1.2,.94,.07-8.91-1.2,.94,.31-8-3.38,.89,.54-6.78-5.24,.8,.78-5.24-6.78,.66,1.03-3.38-8c.43,.89,.68,1.82,.74,2.81l-1.2-8.91c.15,2.86,.04,5.64-.31,8.48l1.2-8.91c-1.02,6.09-1.73,12.2-2.43,18.33l1.2-8.91-.4,1.32,3.38-8c-1.4,2.96-3.31,5.67-5.28,8.27l5.24-6.78c-6.12,7.35-11.29,13.71-13.77,23.23-1.81,6.92-2.45,14.1-2.79,21.22l1.2-8.91-.3,1.25h64.61c-2.53-6.22-4.76-11.77-9.61-16.63-5.61-5.61-12.82-8.65-20.54-9.69-6.13-.82-12.04-.14-18.16-.42l8.91,1.2c-1.55-.32-3.11-.61-4.62-1.07l8,3.38-.91-.53,12.02,12.02-.58-.83,4.57,16.91c-.19-.81-.2-1.62-.03-2.44l-1.2,8.91c1.29-7.3,3.83-14.98,6.09-22.03l-3.38,8c.39-.83,.85-1.62,1.4-2.35l-5.24,6.78c.87-1.06,1.72-1.91,2.77-2.79l-6.78,5.24c1.05-.74,2.05-1.33,3.21-1.9l-8,3.38c1.09-.43,2.1-.75,3.25-1l-8.91,1.2c2.05-.26,4.24-.37,6.3-.18l-8.91-1.2c.52,.07,1.02,.21,1.5,.43l-8-3.38,.6,.4-6.78-5.24,.46,.55-8.62-14.78,.28,.72-1.2-8.91,.07,.91,1.2-8.91c-.63,4.08-2.35,7.96-3.01,11.99-1.51,9.15-1.48,17.52,3.38,25.81,4.07,6.95,12.03,13.58,20.02,15.4,8.58,1.95,18.2,1.53,25.81-3.38,6.89-4.44,14.01-11.58,15.4-20.02h0Z"/><path class="e" d="M185.33,170.3c-7.42-.04-14.82-.54-22.23-.64-9.88-.14-19.12,.78-28.96,2.14l8.91-1.2c-9.67,1.07-17.49,1.88-26.3,6.24-3.7,1.83-7.43,3.46-10.82,5.84-12.4,8.71-23.07,20.17-28,34.73-4.37,12.9-2.99,26.42,1.33,39.09,2.22,6.52,5.13,13.16,8.38,19.28,2.23,4.2,4.95,8.07,6.92,12.41l-3.38-8c3.3,8.38,6,14.15,11.97,20.97l-5.24-6.78,.47,.98-4.57-16.91c.31,3.73,.59,8.36,1.45,11.58,.97,3.68,2.98,7.11,4.47,10.62l-3.38-8c1.48,4.36,3.24,8.74,4.1,13.27l-1.2-8.91c.34,5.2,1.02,10.33,1.79,15.49l-1.2-8.91c.36,3.33,.51,6.65,.16,9.98l1.2-8.91c-1.87,9.46-4.01,19.44-7.43,28.46l3.38-8c-4.37,9.99-7.84,19.62-9.8,30.33-1.73,9.45-4.06,18.8-3.77,28.48,.49,16.44,11.46,31.28,25.77,38.89,5.19,2.76,10.54,5.66,16.26,7.05,6.2,1.5,12.98,1.55,19.33,2.08,8.77,.73,17.56,1.53,26.37,1.35,10.15-.21,22.25-.78,31.8-3.78,5.43-1.71,10.88-3.92,15.85-6.71s11.09-6.62,14.76-10.35c10.18-10.35,15.58-24.14,15.41-38.57l-1.2,8.91c.95-6.91,2.79-13.64,2.6-20.69s-1.36-15.03-3.39-21.99c-3.94-13.51-13.08-26.6-22.25-36.92l5.24,6.78c-1.36-2.02-2.38-4.21-3.49-6.37l3.38,8c-2.36-6.55-5.01-12.56-8.24-18.68-3.47-6.57-8.65-11.63-13.31-17.29l5.24,6.78c-.67-.86-1.21-1.79-1.62-2.81l3.38,8-.43-1.48,1.2,8.91c-.19-.97-.21-1.93-.06-2.91l-1.2,8.91c.15-.97,.43-1.9,.83-2.8l-3.38,8c.73-1.43,1.49-2.62,2.46-3.9l-5.24,6.78c6.45-7.48,12.19-14.45,16.05-23.59,4.14-9.8,6.54-18.88,7.81-29.53l-1.2,8.91c.44-2.6,1.12-5.02,2.09-7.47l-3.38,8c3.76-8.25,5.98-14.14,6.05-23.38,.02-2.81-.34-5.61-.3-8.43,.13-9.54-.54-18.93-2.99-28.21-4.01-15.16-15.42-27.74-30.82-31.85-5.42-1.45-11.24-2.25-16.87-2.01-9.67,.42-15.98,3.33-24.69,7.25l8-3.38c-8.67,3.65-16.4,6.27-23.18,13.1-6.42,6.47-9.27,13.7-12.49,22.03-3.47,9-6.37,17.39-7.84,26.97-1.84,12-3.18,23.95-3.22,36.09-.04,12.53,1.38,24.41,3.05,36.84l-1.2-8.91c1.37,12.23,1.61,24.4,1.77,36.68,.1,7.5,1.59,14.95,2.66,22.36,.92,6.36,2.33,13.38,6.06,18.71,5.09,7.27,11.21,12.97,20.02,15.4,8.02,2.21,18.7,1.21,25.81-3.38,14.22-9.17,22.77-30.49,12.02-45.83l-.51-.73,3.38,8c-2.08-5.1-2.38-11.19-3.14-16.59l1.2,8.91c-1.04-8.59-.22-17.31-.83-25.94-.79-11.35-2.05-22.54-3.71-33.8l1.2,8.91c-1.95-14.68-1.08-30.39,.84-45.03l-1.2,8.91c1.63-11.44,4.91-21.57,9.21-32.25l-3.38,8c.6-1.31,1.23-2.46,2.02-3.67l-5.24,6.78c.54-.75,1.17-1.42,1.89-2l-6.78,5.24c1.36-.91,2.72-1.56,4.22-2.22l-8,3.38c4.76-2,9.56-3.92,14.23-6.11l-8,3.38c.98-.47,2-.82,3.05-1.07l-8.91,1.2c2.21-.27,4.32-.24,6.53-.05l-8.91-1.2c1.65,.27,3.03,.63,4.6,1.22l-8-3.38c.91,.39,1.75,.89,2.52,1.51l-6.78-5.24,.88,.87-5.24-6.78c.77,1.04,1.29,1.95,1.8,3.14l-3.38-8c1.15,3.4,1.94,7.08,2.46,10.63l-1.2-8.91c.35,4.3-.04,8.54,.04,12.84,.05,3.12,.46,6.2,.17,9.33l1.2-8.91c-.1,.8-.32,1.57-.65,2.31l3.38-8c-4.44,9.73-6.25,16.84-7.52,27.42l1.2-8.91c-.96,5.08-2.81,10.24-4.74,15.03l3.38-8c-1.1,2.42-2.35,4.66-3.87,6.84l5.24-6.78c-3.57,4.62-7.57,8.48-10.97,13.38-4.57,6.58-7.2,14.96-7.39,22.98s1.75,15.87,5.8,22.79c3.21,5.48,7.7,9.48,11.68,14.23l-5.24-6.78c2.19,3.3,4.25,6.99,6.06,10.52l-3.38-8c3.51,11.6,8.45,20.25,16.66,29.15l-5.24-6.78c3.75,5.13,7.33,11.27,9.86,17.11l-3.38-8c1.27,3.65,1.84,7.57,2.55,11.37l-1.2-8.91c.28,3.09,.33,6.26,0,9.34l1.2-8.91c-1.41,6.01-2.05,12.04-2.34,18.19l1.2-8.91c-.49,2.1-1.14,4.09-1.91,6.11l3.38-8c-.41,.99-.93,1.92-1.57,2.79l5.24-6.78c-.64,.88-1.37,1.69-2.17,2.42l6.78-5.24c-3.73,2.79-7.95,5.15-12.17,7.13l8-3.38c-2.47,1.03-5.03,1.81-7.63,2.41l8.91-1.2c-18.48,2.26-37.26,1.58-55.72-.73l8.91,1.2c-1.06-.2-2.07-.53-3.05-.98l8,3.38c-2.93-1.53-6.04-2.91-8.73-4.85l6.78,5.24c-1.55-1.38-2.92-2.88-4.29-4.44l5.24,6.78-.78-1.12,3.38,8c-.36-.71-.56-1.46-.59-2.25l1.2,8.91c-.04-2.52-.06-5.05,.15-7.56l-1.2,8.91c2.33-10.93,3.84-22.32,8.13-32.7l-3.38,8c4.28-9.78,7.46-19.85,9.82-30.28,1.35-5.99,2.77-12.1,3.06-18.24s-.82-12.75-1.77-19.06l1.2,8.91c-.67-6.34-.93-12.68-2.86-18.8s-4.23-11.76-6.71-17.59l3.38,8-.54-1.31,1.2,8.91c-.73-7.08-1.24-13.17-4.82-19.58-1.91-3.41-4.59-6.3-7.04-9.34l5.24,6.78-.78-1.48,3.38,8c-2.66-6.54-5.25-12.88-8.85-18.93-2.44-4.1-4.48-8.27-6.42-12.63l3.38,8c-1.8-4.33-3.4-9.15-4.13-13.79l1.2,8.91c-.11-1.61-.1-3.08,.03-4.68l-1.2,8.91c.31-2.1,.79-4.06,1.49-6.07l-3.38,8c.79-1.88,1.73-3.5,2.93-5.15l-5.24,6.78c2.85-3.49,6.2-6.7,9.68-9.56l-6.78,5.24c3.35-2.44,7.15-3.94,10.82-5.84l-8,3.38c1.41-.56,2.67-.93,4.15-1.21l-8.91,1.2c6.65-.59,13.25-1.56,19.86-2.47l-8.91,1.2c12.07-1.17,24.46,.44,36.56,.51,17.53,.1,34.31-15.48,33.5-33.5s-14.72-33.39-33.5-33.5h0Z"/><path class="e" d="M190.26,237.57c5.29,3.03,10.91,5.88,15.85,9.49l-6.78-5.24c.11,.08,.21,.16,.3,.26l-5.24-6.78,.02,.04v-33.8l28.91-16.59h-.04l8.91,1.2c-.06-.01-.11-.03-.16-.05l8,3.38c-.51-.22-.99-.5-1.43-.82l6.78,5.24c-.1-.08-.2-.16-.29-.25l5.24,6.78-.05-.07,3.38,8-.02-.06v17.77l-15.38,20.02,.05-.03-8,3.38h-17.72l.45,.1-14.78-8.62,.41,.36-5.24-6.78c.3,.4,.55,.83,.74,1.29l-3.38-8c2.99,7.32,5.05,14.87,11.04,20.52,4.34,4.09,9.83,7.6,15.64,9.13,5.25,1.38,10.58,.82,15.88,1.33l-8.91-1.2c.89,.15,1.76,.41,2.59,.78l-8-3.38c.84,.37,1.63,.82,2.37,1.36l-6.78-5.24c1.51,1.19,2.76,2.46,3.96,3.97l-5.24-6.78c1.07,1.54,1.94,3.09,2.7,4.81l-3.38-8c1.44,3.78,2.39,7.57,3.02,11.56l-1.2-8.91c.71,5.69,.72,11.36-.02,17.05l1.2-8.91c-.92,5.38-3.01,10.4-4.63,15.6s-2.83,10.8-5,15.99l3.38-8c-6.41,14.78-10.69,29.8-15.74,45.03-2.12,6.39-3.6,12.69-4.63,19.33-1.31,8.47-3.51,16.74-3.62,25.39-.23,17.53,15.57,34.3,33.5,33.5s33.26-14.72,33.5-33.5c.02-1.67,.09-3.28,.26-4.94l-1.2,8.91c1.66-10.72,3.65-21.46,7.1-31.76,3.64-10.86,6.16-22.16,10.59-32.73l-3.38,8c2.89-6.66,5.9-13.19,7.79-20.2,1.14-4.24,2.41-8.43,3.83-12.58,3.64-10.68,5.46-22.32,4.38-33.62-1.36-14.19-4.32-27.73-13.21-39.23-4.45-5.76-9.13-10.38-15.73-13.96-8.32-4.52-17.16-5.58-26.46-5.48l8.91,1.2-.45-.13,14.78,8.62-.41-.38,5.24,6.78c-.3-.4-.55-.84-.74-1.31l3.38,8c-1.78-4.38-3.01-9.05-5.42-13.15-4.78-8.15-12.3-13.68-21.26-16.44-13.19-4.07-27.23,1.53-35.35,12.05s-9.95,25.89-2.61,37.31c3.54,5.51,7.82,9.58,13.41,12.98,2.63,1.6,5.59,2.8,8.55,3.61,5.99,1.64,11.89,1.36,17.85,0,8.92-2.03,14.96-8.32,20.03-15.41,6.92-9.69,5.4-23.98,0-33.82-5.67-10.34-18.36-16.17-28.19-21.81-15.21-8.71-37.33-4.07-45.83,12.02-8.42,15.94-4.22,36.53,12.02,45.83h0Z"/><path class="d" d="M329.7,290.32c4.35-9.05-6.68-18.31-15.51-15.65-5.71,1.72-7.06,8.43-4.58,13.26,2.1,4.07,6.13,4.96,9.38,7.76s7.52,3,10.61,0c1.62-1.57,2.36-3.71,2.33-5.93l-2.2,5.3c.4-.43,.75-.9,1.16-1.33l-3.31,1.93,.12-.04-9.23-9.23c1.01-3.49-.89,1.82-.88,1.79-1.99,6.7,5.41,11.17,11.02,8.47,5.91-2.84,11.79-7.91,14.56-15.16,1-2.61-.31-5.34-1.93-7.3-1.42-1.72-4.49-2.49-5.35-2.6,.62,.08-2.11-.14-2.66-.08-.96,.1-1.95,.36-2.86,.69-3.8,1.35-6.83,3.93-9.33,7.02s-3.08,7.53,0,10.61c2.63,2.63,8.05,3.17,10.61,0,.68-.82,1.33-1.66,1.97-2.51-.63,.59-.6,.61,.09,.06,.92-.65,1.31-.89,2.52-1.27h-3.99c1.1,.16,2.21,.33,3.32,.43l-5.3-2.2,.38,.46-1.93-7.3c-1.2,3.14-4.79,4.81-7.67,6.19l11.02,8.47c-1.17,3.93,.84-1.62,.88-1.79,1.56-5.37-3.76-10.93-9.23-9.23-3.78,1.18-6.84,5.13-6.78,9.1l2.2-5.3-.14,.13h10.61c-1.8-1.55-3.76-2.77-5.73-4.09-.49-.32-.97-.8-1.51-1.04-2.07-.91,.98,2.46,.68,.59l-.76,5.78,.38-.63-4.48,3.45c-.23,.06-1.74-.09-1.47,0,.71,.24,.44,2.36-.49-1.1l.76-5.78-.24,.49c-1.75,3.65-1,8.1,2.69,10.26,3.28,1.92,8.5,.98,10.26-2.69h0Z"/></g><g id="b"><line class="h" x1="387.43" y1="188.91" x2="389.41" y2="511.92"/><path class="h" d="M395.46,134.88c3.1,1.92,2.15,20.66,2.99,22.36,1.14,2.29,.67,8.76,.11,11.25"/><path class="h" d="M118.22,433.5V193.41l-7.6-7.52c-1.75-1.73-2.77-4.06-2.86-6.52-.21-5.3,.05-10.21,.46-14.6l3.31-5.87c-.54-3.32-.82-8.37,1-13.95,4.9-14.99,20.61-20.12,22.61-20.74,6.84-5.68,16.66-12.68,29.56-18.58,12.7-5.81,24.25-8.66,32.94-10.13v-4.66c0-3.35,1.9-6.42,4.9-7.92l5.24-2.62c1.04-5.1,3.27-12.62,8.45-20.27,2.06-3.05,17.05-25.21,38.85-23.65,17.32,1.24,33.32,17.04,37.16,38.85,5.39,.16,8.41,4.25,11.82,7.6,2.44,2.4,1.85,8.11,1.44,9.24,17.63,1.16,28.5,4.68,36.56,8.49,5.47,2.59,12.38,7.13,25.96,13.86"/><path class="h" d="M187.85,308.19c-.16-12.61-.16-26.4-.32-39.01-.8-12.47,9.2-22.05,19.14-21.48,7.94,.46,15.36,7.35,16.81,16.81,.62,14.01-.55,28.48,.07,42.49"/><path class="g" d="M198.49,272.27c-.1,4.26,.26,26.45,.15,30.72"/><path class="g" d="M198.21,302.63h8.03"/><path class="g" d="M198.64,292.77h7.14"/><path class="g" d="M198.21,281.68c2.31,.05,5.13,.11,7.45,.17"/><path class="g" d="M202.03,266.79v35.69"/><path class="g" d="M205.58,273.65c-.21,6.37,.36,22.61,.15,28.98"/><path class="g" d="M198.51,272.84c0-1.47-.38-4.05,.52-5.21,1.48-1.88,5.37-.99,6.01-.06"/><path class="g" d="M205.58,274.28c0-1.43-.01-6.3-.71-6.9"/><path class="g" d="M211.79,272.14c-.1,4.26,.26,26.45,.15,30.72"/><path class="g" d="M211.51,302.51h8.03"/><path class="g" d="M211.94,292.64h7.14"/><path class="g" d="M211.51,281.55c2.31,.05,5.13,.11,7.45,.17"/><path class="g" d="M215.33,266.67v35.69"/><path class="g" d="M218.88,273.53c-.21,6.37,.36,22.61,.15,28.98"/><path class="g" d="M211.82,272.72c0-1.47-.38-4.05,.52-5.21,1.48-1.88,5.37-.99,6.01-.06"/><path class="g" d="M218.88,274.16c0-1.43-.01-6.3-.71-6.9"/><path class="h" d="M195.75,307.93c.05-11.42,.09-27.14,.14-38.55,0-1.65,.07-3.34,.35-4.95,.42-2.38,1.61-4.56,3.35-6.22,.42-.4,.81-.84,1.19-1.29,.88-1.02,2.52-2.53,4.99-3.15,2.06-.51,3.74-.17,4.5,0,2.73,.59,4.47,2.08,6.19,3.57,2.17,1.87,3.61,3.9,4.65,5.36,.51,.72,2.19,4.24,2.47,4.68"/><path class="h" d="M192.86,308.19c-.03-10.55,.03-26.98,0-37.54-.01-4.55-.02-9.58,3.01-13.2,.56-.67,2.47-2.78,3.08-3.42,.27-.51,4.09-2.44,8.58-3.2,5.13-.86,13.45,6.93,13.95,7.37"/><path class="h" d="M189.89,308.12c-.03-10.55,.03-26.92,0-37.47-.01-5.06,1.39-11.02,4.3-15.34,.7-1.05,1.97-2.65,4.01-4.05,2.28-1.56,8.53-3.18,9.82-3.42"/><ellipse class="g" cx="208.03" cy="261.28" rx="3.64" ry="4.31"/><line class="h" x1="187.85" y1="308.19" x2="223.56" y2="307"/><path class="g" d="M199.2,348.35c-.1,4.26,.26,26.45,.15,30.72"/><path class="g" d="M198.93,378.72h8.03"/><path class="g" d="M199.36,368.85h7.14"/><path class="g" d="M198.92,357.76c2.31,.05,5.13,.11,7.45,.17"/><path class="g" d="M202.75,342.88v35.69"/><path class="g" d="M206.29,349.74c-.21,6.37,.36,22.61,.15,28.98"/><path class="g" d="M199.23,348.92c0-1.47-.38-4.05,.52-5.21,1.48-1.88,5.37-.99,6.01-.06"/><path class="g" d="M206.3,350.37c0-1.43-.01-6.3-.71-6.9"/><path class="g" d="M212.5,342.56c.02,1.34-.01,2.02,0,3.36,.12,10.3,.19,22.97,.17,33.15"/><path class="g" d="M212.23,378.59h8.03"/><path class="g" d="M212.66,368.73h7.14"/><path class="g" d="M212.23,357.64c2.31,.05,5.13,.11,7.45,.17"/><path class="g" d="M215.9,341.61c0,10.74,.15,26.1,.15,36.83"/><path class="g" d="M219.59,349.62c-.21,6.37,.36,22.61,.15,28.98"/><path class="g" d="M219.06,343.53c-.12-.19-1.16-1.73-3.16-1.93-2.05-.2-3.37,1.18-3.52,1.34"/><path class="g" d="M219.6,350.24c0-1.43-.01-6.3-.71-6.9"/><path class="h" d="M195.2,382.71c.04-12.09,.63-23.84,.68-35.93,0-1.25,.07-.63-.07-1.87-.12-1.09,.38-4.37,.69-5.79,.73-3.27,6.63-11.47,14.75-10.7,5.04,.48,8.33,4.17,9.36,5.46,1.87,2.35,3.72,8.13,4.63,9.59"/><path class="h" d="M192.56,382.77c.28-13.14,.56-27.86,.84-40.99,.11-5.13,2.62-10.01,6.97-12.72,.38-.23,.66-.39,.87-.5,1.08-.58,2.81-1.77,5.4-2.37,1.8-.42,3.35-.92,8.68,.81,1.06,.34,6.1,2.96,7.61,5.45"/><path class="h" d="M189.88,382.71c.16-12.43,.25-26.28,.39-39.01,.06-5.13,1.95-10.12,5.55-13.77,1.23-1.24,2.71-2.43,4.5-3.43,3.95-2.21,10.24-3.2,12.35-3.24"/><path class="h" d="M186.91,382.63c.13-13.64,.26-28.05,.39-41.69,.26-1.94,1.39-8.31,6.97-13.25,1.33-1.17,7.38-6.52,15.53-5.2,4.91,.8,8.06,3.62,9.21,4.68,4.9,4.52,5.83,10.2,6.05,11.95,.18,14.55,.35,29.1,.53,43.65"/><circle class="g" cx="208.03" cy="335.86" r="4.2"/><path class="h" d="M249.07,36.52c-.05,8.61-.79,25.93-.83,34.54"/><path class="h" d="M261.85,37.61l-.17,33.78"/><path class="h" d="M234.39,41.58c-.05,8.27-.28,22.59-.33,30.86"/><path class="h" d="M261.85,41.58c3.4,5.42,9.07,14.66,8.98,25.06-.01,1.54-.28,4.4-.45,5.81"/><path class="h" d="M261.85,39c3.87,3.17,16.37,13.81,18.1,26.96,.35,2.67,.35,5.16,.14,7.42"/><path class="h" d="M287.23,74.66c-.03-3.17-1.9-10.92-4.71-16.98-5.12-11.04-14.23-13.86-17.05-15.54"/><path class="h" d="M226.78,73.37c-.02-2.75,.22-8.82,1.18-12.84,1.15-4.78,4.76-11.96,6.26-14.61"/><path class="h" d="M218.36,75.66c.1-2.76,.53-8.43,1.77-12.33,2.37-7.43,11.44-16.6,14.09-19.34"/><path class="h" d="M212.11,78.35c.34-2.35,.86-7.06,1.98-10.14,1.64-4.53,9.18-16.39,10.98-18.84"/><path class="h" d="M292.23,75.21c-4.53-1.06-15.34-1.91-20.13-2.47-5.85-.68-12.66-1.44-21.8-1.35-8.42,.08-14.62,.84-16.24,1.05-4.13,.53-8.71,1.14-14.58,2.86-3.37,.99-6.64,2.83-11.71,4.98-2.78,1.18-4.59,1.57-7.08,4.04-.88,.87-1.53,1.68-1.95,2.25"/><path class="h" d="M197.63,95.48c12.98-1.34,31.22-3.5,45.73-4.02,20.28-.72,44.62-.41,62.13,.59"/><path class="h" d="M197.63,88.6c2.89-1.74,10.4-5.58,15.5-7.56,8.67-3.37,15.84-4.35,20.02-4.9,6.5-.85,11.53-.83,16.34-.82,4.72,.02,8.17,.25,13.69,.61,7.93,.53,6.72,.71,16.55,1.43,3.5,.26,7.36,.51,12.87,1.23,1.8,.24,8.36,1.93,9.36,2.08"/><path class="h" d="M305.21,91.9c.08,9.11-.08,25.95,0,35.06"/><path class="h" d="M197.63,95.48c.39,9.71-.39,25.26,0,34.97"/><path class="h" d="M107.69,175.71c2.8-3.74,10.86-11.56,17.66-15.93,4.26-2.74,8.79-4.77,25.95-9.44,10.3-2.8,15.81-4.3,24.77-6.19,3.11-.66,17.06-3.56,36.57-5.9,20.39-2.45,36.59-3.05,44.83-3.24,18.16-.43,31.75,.32,41.58,.88,14.85,.85,23.81,1.39,36.27,3.54,5.53,.95,14.01,3.19,30.97,7.67,9.3,2.45,15.59,4.25,22.12,9.44,4.08,3.24,8.43,9.48,10.15,11.95"/><path class="h" d="M111.53,158.89c4.15-2.21,14.54-8.95,21.49-12.08,7.64-3.44,12.8-5.77,20.05-7.96,6.33-1.92,11-2.75,20.35-4.42,4.07-.73,9.25-1.48,19.46-2.95,11.93-1.72,17.89-2.58,21.23-2.95,10.64-1.18,18.81-1.53,24.48-1.77,7.83-.33,14.16-.32,26.84-.29,9.89,.02,16.94,.14,25.95,.29,15.06,.26,22.68,.41,27.43,.88,3.54,.36,10.42,1.52,24.18,3.83,14.79,2.49,17.62,3.16,20.94,4.13,10.76,3.15,17.11,6.75,19.17,7.96,4.31,2.53,12.98,11.7,15.34,13.68"/><path class="h" d="M114.09,189.32c3.71-3.65,14.9-12.84,22.47-16.86,6.16-3.27,11.87-4.94,23.3-8.26,4.53-1.32,11.64-3.37,21.23-5.31,5.62-1.14,11.91-2.04,24.48-3.83,8.91-1.27,13.36-1.91,17.69-2.36,9.28-.96,16.38-1.24,22.71-1.47,8.08-.3,13.97-.3,21.82-.29,9.05,0,15.74,.15,21.82,.29,12,.28,18,.42,23,.88,8.99,.84,15.71,2.13,21.53,3.24,6.35,1.22,12.1,2.68,23.59,5.6,9.37,2.38,12.14,3.26,15.63,5.01,5.53,2.79,15.56,11.02,18.11,13.45"/><path class="h" d="M116.45,191.66c2.55-2.72,18.68-13.66,24.41-16.9,5.44-3.07,10.3-4.36,19.78-6.81,6.62-1.71,11.4-2.62,19.78-4.21,9.55-1.82,17.02-3,20.75-3.57,8.17-1.25,14.26-2.18,22.05-2.92,2.24-.21,6.18-.56,28.21-1.3,14.12-.47,21.28-.71,25.94-.65,5.85,.07,5.33,.23,26.26,1.3,19.08,.97,20.15,.87,24.64,1.62,3.82,.64,9.89,2.26,22.05,5.51,10.38,2.78,13.99,3.96,17.83,5.51,5.72,2.3,21.1,13.82,24.16,15.59"/><path class="h" d="M159.64,152.21c-.17,2.46,.38,9.53,.21,11.99"/><path class="h" d="M151.3,150.35c-.05,.48-.35,2.72-.02,3.59,.69,1.86,2.4,2.61,2.76,2.76l.06,1.87v.05c.08,2.15,1.56,4,3.57,4.76l2.19,.83"/><path class="h" d="M151.72,150.87c1.46,.63,6.63,1.02,8.34,1.42"/><path class="h" d="M144.62,152.21c-.03,.33-.13,3.17,1.14,4.61,.83,.93,1.82,1.26,2.26,1.38-.12,.58-.4,2.33,.5,4.26,.85,1.81,3.45,3.61,3.97,3.91"/><path class="h" d="M136.37,160.45c.04,2.84,.15,9.17,.19,12.01"/><path class="h" d="M126.76,160.08c0,.29-.38,2.92,.84,4.14,1.27,1.27,2.86,1.26,3.13,1.25-.14,.69-.36,2.23,.25,4.01,.7,2.05,3.22,3.58,3.77,4"/><path class="h" d="M126.29,160.06c1.96,.17,8.58,.25,10.54,.41"/><path class="h" d="M122.1,162.05c-.03,.24-.16,3.4,.88,4.64,1.26,1.49,3.15,1.33,3.32,1.31-.12,.45-.48,2.11,.39,3.86,1.12,2.25,3.72,3.77,4.05,3.85"/><path class="h" d="M184.97,142.67c1.68,.86,4.62,2.66,6.3,3.52-.09,3-.33,8.02-.43,11.02"/><path class="h" d="M184.97,142.67c-.05,.58-.03,3,.17,3.93,.3,1.41,.94,2.43,1.36,3-.15,.67-.52,2.69,.54,4.77,.5,.97,1.22,2.5,1.7,2.91"/><path class="h" d="M176.1,144.6c-.61-1.63,.69,2.56,1.13,3.49,.66,1.4,1.7,2.15,2.18,2.45-.15,.89-.26,1.95-.27,3.13,0,1.3,1.79,4.26,1.95,5.22"/><path class="h" d="M222.56,137.17c.07,3.14,.63,12.39,.7,15.53"/><path class="h" d="M211.62,138.94c.24,1.19,.44,3.74,.56,5.16,.23,2.72,.02,8.02-.22,10.05"/><path class="h" d="M267.79,134.88c-.04,3.53,.04,12.52,0,16.05"/><path class="h" d="M257.47,135.01c-.04,3.33-.5,12.6-.54,15.92"/><path class="h" d="M305.58,151.67c-.12-1.75-.25-5.81-.37-7.56,.42-.34,1.81-1.56,2.19-3.65,.25-1.37-.86-3.58-1.05-4.13"/><path class="h" d="M294.98,150.93c-.04-3.13,.04-8.45,0-11.57,.97-.85,3.1-2.61,4.08-3.47"/><path class="h" d="M341.77,140.78c-.17,.7,.14,3.52-.59,5.36-.53,1.34-1.82,1.86-2.43,2.23-.14,1.82-.06,6.07-.2,7.89"/><path class="h" d="M335.33,139.43c-.81,.61-5.3,3.26-6.11,3.87-.14,2.77-.27,7.77-.41,10.54"/><path class="h" d="M336.17,139.97c.16,.48,.11,2.4-.08,3.31-.5,2.44-3.17,3.36-3.34,3.42v8.39"/><path class="h" d="M371.9,148.95c-.1,.5-.35,3.4-1.09,4.35-.66,.86-1.42,1.32-1.86,1.55,.09,.19,1.09,2.33-.08,4.35-.74,1.29-4.34,3.29-4.74,3.44"/><path class="h" d="M366.29,147.1c-.09,.62-.39,3.6-1,4.64-.74,1.27-1.7,2.03-2.25,2.41,.1,.45,.39,1.95-.39,3.57-.69,1.45-2.84,3.18-3.26,3.42"/><path class="h" d="M364.13,146.64c-1.92,.83-4.84,2.34-6.76,3.17,.03,2.74,.34,8.41,.37,11.16"/><path class="h" d="M391.48,159.43c-.33,.49-1.67,3.09-2.73,3.73-.74,.45-1.44,.67-1.94,.78,.15,.42,.68,2.08-.08,3.96-.86,2.15-4.44,3.8-4.79,3.94"/><path class="h" d="M386.08,154.82c.08,.37,.57,3.14-.05,4.38-.9,1.8-2.79,2.21-3.03,2.25,.09,.46,.37,2.24-.7,4.04-.88,1.48-3.82,3.19-4.3,3.4"/><path class="h" d="M386.08,154.82c-1.79,.26-5.79,1.33-7.58,1.59-.03,2.95-.46,9.54-.49,12.49"/><path class="h" d="M122.05,182.47c-.14-2.57,.01-11.19,.32-13.83"/><path class="h" d="M121.17,183.18c-.55-.09-5.4-1.4-5.75-2.71-.64-2.36,1.4-3.69,2.36-5.76-2.69,.07-4.47-4.19-3.1-5.83"/><path class="h" d="M114.67,168.88c1.21-.07,6.49,.21,7.69,.14"/><path class="h" d="M118.22,185.61c-1.81,0-4.22-1.99-5.51-4-1.59-2.49,1.28-5.36,1.38-5.58-.34-.84-2.42-4.02-2.76-4.86"/><path class="h" d="M389.6,178.16c.36-.2,3.44-1.52,3.86-2.29,.94-1.74-.05-3.61-.14-3.77,.19,0,1.63,.05,2.65-1.12,1.15-1.31,.83-4.06,.8-4.19"/><path class="h" d="M387.98,176.77c-.09-2.24-.3-7,.03-8.73,1.86-.42,6.9-.84,8.76-1.26"/><path class="h" d="M398.56,168.49c.07,.29,.65,2.39,.2,3.38-.58,1.28-1.77,1.71-1.99,1.79,.06,.42,.15,1.47-.4,2.58-.81,1.64-4.58,3.08-4.89,3.18"/><path class="h" d="M398.75,171.87c-.53,2.4-2.62,7.09-3.3,8.25-.98,1.68-.75,2.51-3.16,4.72-.76,.7-4.47,3.35-4.87,4.08"/><line class="g" x1="109.24" y1="162.95" x2="109.55" y2="173.48"/><line class="g" x1="111.53" y1="158.89" x2="111.33" y2="171.17"/><line class="g" x1="114.05" y1="157.46" x2="114.67" y2="168.88"/><line class="g" x1="116.45" y1="156.03" x2="116.45" y2="166.46"/><line class="g" x1="119.6" y1="154.15" x2="119.36" y2="164.21"/><line class="g" x1="122.89" y1="152.21" x2="122.1" y2="162.05"/><line class="g" x1="126.4" y1="150.21" x2="125.35" y2="159.78"/><line class="g" x1="129.75" y1="148.4" x2="129.13" y2="157.65"/><line class="g" x1="133.02" y1="146.81" x2="132.85" y2="156.03"/><line class="g" x1="136.37" y1="145.3" x2="136.37" y2="154.37"/><line class="g" x1="139.48" y1="143.93" x2="139.28" y2="153.82"/><line class="g" x1="142.44" y1="142.67" x2="142.94" y2="152.7"/><line class="g" x1="145.72" y1="141.36" x2="146.19" y2="151.77"/><line class="g" x1="150.46" y1="139.67" x2="151.72" y2="150.87"/><line class="g" x1="155.89" y1="138.03" x2="156.73" y2="148.87"/><line class="g" x1="163.06" y1="136.34" x2="163" y2="147.21"/><line class="g" x1="169.13" y1="135.19" x2="169.14" y2="145.78"/><line class="g" x1="175.94" y1="133.99" x2="176.08" y2="144.15"/><line class="g" x1="182.07" y1="133.04" x2="181.97" y2="142.97"/><line class="g" x1="190.37" y1="131.83" x2="189.93" y2="141.54"/><line class="g" x1="198.63" y1="130.45" x2="198.47" y2="140.17"/><line class="g" x1="206.82" y1="129.48" x2="207.21" y2="138.94"/><line class="g" x1="215.52" y1="128.37" x2="215.84" y2="138.01"/><line class="g" x1="225.17" y1="127.5" x2="225.01" y2="136.69"/><line class="g" x1="233.96" y1="126.96" x2="234.03" y2="136.17"/><line class="g" x1="244.65" y1="126.96" x2="244.65" y2="135.5"/><line class="g" x1="254.99" y1="126.96" x2="254.99" y2="134.88"/><line class="g" x1="265.43" y1="126.46" x2="265.64" y2="134.88"/><line class="g" x1="275.57" y1="126.45" x2="275.8" y2="134.88"/><line class="g" x1="288.71" y1="126.96" x2="288.92" y2="135.01"/><line class="g" x1="299.05" y1="126.96" x2="299.05" y2="135.89"/><line class="g" x1="309.06" y1="127.12" x2="309.05" y2="136.69"/><line class="g" x1="318.81" y1="127.64" x2="319.77" y2="137.34"/><line class="g" x1="327.54" y1="128.89" x2="327.49" y2="138.01"/><line class="g" x1="394.81" y1="153.8" x2="395.46" y2="162.64"/><line class="g" x1="396.84" y1="156.26" x2="396.84" y2="166.17"/><line class="g" x1="395.46" y1="162.64" x2="395.46" y2="164.2"/><line class="g" x1="333.58" y1="129.89" x2="333.46" y2="139.12"/><line class="g" x1="338.58" y1="130.73" x2="338.11" y2="139.97"/><line class="g" x1="344.1" y1="131.9" x2="343.69" y2="140.78"/><line class="g" x1="350.87" y1="132.82" x2="350.56" y2="142.97"/><line class="g" x1="356.46" y1="134.09" x2="356.32" y2="144"/><line class="g" x1="361.3" y1="134.88" x2="361.5" y2="145.83"/><line class="g" x1="366.29" y1="136.02" x2="366.29" y2="147.1"/><line class="g" x1="369.83" y1="137.51" x2="369.33" y2="147.91"/><line class="g" x1="373.84" y1="139.04" x2="372.98" y2="148.95"/><line class="g" x1="376.89" y1="140.36" x2="376.57" y2="150.12"/><line class="g" x1="380.25" y1="141.99" x2="380.44" y2="151.67"/><line class="g" x1="383.1" y1="143.56" x2="383.42" y2="153.17"/><line class="g" x1="386.34" y1="145.94" x2="386.08" y2="154.82"/><line class="g" x1="388.6" y1="147.91" x2="388.41" y2="156.54"/><line class="g" x1="391.27" y1="150.38" x2="391.48" y2="159.43"/><line class="g" x1="393.22" y1="152.25" x2="393.6" y2="161.86"/><path class="h" d="M123.73,200.71c-.11-4.77,.11-6.19,0-10.96,.25-2.04,1.96-3.6,3.97-3.66,1.92-.06,3.66,1.27,4.13,3.18,.21,1.7,.42,3.39,.64,5.09h3.5c.03-1.63,.11-3.93,.32-6.67,.45-5.85,.97-7.02,1.75-7.95,.16-.2,2.46-2.84,5.72-2.38,2.56,.36,4.73,2.51,5.4,5.4,.17,26.5,.18,48,.16,62.3-.05,37.1-.31,48.62-.32,90.11,0,23.71,0,35.57,.16,52.92,.28,29.51,.05,18.94,.19,46.22"/><path class="h" d="M164.15,435.7c-.12-33.43-.06-36.65-.08-63.15,0-.96,0-28.21,0-74.22,0-20.24,0-40.47,0-60.71v-56.89c0-3.65-.62-8.85,1.7-10.63,.02-.02,1.6-1.15,2.12-1.52,1.82-1.31,5.68-1.44,9.06-.56,2.49,.65,4.52,3.1,5.41,6.37,.5,1.85,2.15,3.17,4.07,3.17h0c2.09,0,3.86-1.54,4.16-3.61,.05-.32,.11-.66,.19-1,1.17-5.02,5.99-10.39,12.56-10.49,4.39-.06,8.54,2.25,11.07,6.01,.45,.67,.7,1.45,.72,2.26,.22,8.46,.44,16.92,.66,25.37,.06,2.31-1.76,4.24-4.07,4.31-3.85,.12-7.71,.24-11.56,.36-2.41,.08-4.4-1.89-4.34-4.31l.52-21.46c0-.34,.05-.66,.14-.99,.49-1.81,2.51-7.55,9.54-6.54,4.23,.6,7.32,3.18,9.23,7.62"/><path class="g" d="M196.84,198.47c1.99,.1,5.11-.13,7.1-.03l.47-19.6c.46-2.3-1.18-4.39-3.14-4.55-1.65-.14-3.33,1.1-3.76,2.98,0,5.91-.31,15.26-.31,21.17"/><path class="g" d="M201.27,174.3c-.15,6.89-.37,17.25-.51,24.14"/><path class="g" d="M197.26,192.7h6.81"/><path class="g" d="M197.61,184.89c1.42,.01,5.04,.05,6.46,.06"/><path class="g" d="M205.73,198.02c1.99,.1,5.11-.13,7.1-.03l.47-19.6c.46-2.3-1.18-4.39-3.14-4.55-1.65-.14-3.33,1.1-3.76,2.98"/><path class="g" d="M210.16,173.84c-.15,6.89-.37,17.25-.51,24.14"/><path class="g" d="M206.15,192.24h6.81"/><path class="g" d="M206.51,184.43c1.42,.01,5.04,.05,6.46,.06"/><path class="g" d="M206.41,176.63c-.26,6.39-.43,15.92-.42,21.81"/><ellipse class="g" cx="204.98" cy="171.66" rx="2.08" ry="2.36" transform="translate(12.37 357.09) rotate(-83.86)"/><path class="h" d="M215.33,181.76c1.49,0,6.34-.3,7.84-.3-.23-1.71-.4-4.38,.2-7.54,.59-3.04,1.47-7.64,5.5-10.8,.35-.27,6.1-4.62,12.63-2.24,.96,.35,5.3,2.07,7.13,6.72,1.02,2.6,.8,4.94,.61,6.11l22.61,.41c-.22-1.15-.4-2.88,0-4.89,.19-.97,1.62-7.46,7.74-9.37,4.63-1.45,9.39,.52,11.81,3.46,1.95,2.37,2.47,5.49,2.65,6.52,.24,1.4,.25,2.6,.2,3.46,2.72,.27,5.43,.54,8.15,.81-.02-.98,.06-2.43,.61-4.07,1.57-4.71,5.56-6.85,6.11-7.13,4.09-2.1,8.81-1.6,12.22,.41,3.21,1.89,4.62,4.74,5.3,6.11,1.83,3.71,1.76,7.16,1.63,8.76l7.74,1.02c-.4-1.33-.87-3.6-.41-6.31,.28-1.64,1.06-6.15,4.48-7.54,3.2-1.3,6.6,1,7.54,1.63,4.29,2.89,5.05,7.88,5.2,8.97-.06,42.91,.28,77.74,.6,101.88,.69,51.78,1.5,67.13,1.22,104.05-.1,12.59-.31,25.51,0,45.43,.28,18.52,.77,27.39,1.01,47.06,.2,16.43,.28,18.39,.18,26.78"/><path class="h" d="M249.24,173.72c.68,55.65,.95,107.76,1.03,138.98,.15,61.96,2.72,127.21,2.5,144.86"/><path class="h" d="M271.85,174.13c-.07,13.21-.18,29.55-.23,54.05-.04,22.06-.01,31.98,0,59.6,.04,82.1-.16,79.22,0,113.96,.16,33.69,.36,38.91,.31,63.93"/><path class="h" d="M385.77,197.06c.15-2.89,.02-4-.69-8.14-.37-2.18-1.08-6.27-2.2-6.31-1.1-.04-2.11,3.85-2.47,5.77-.62,3.27-.34,6.07,0,7.96-1.46,.09-2.93,.18-4.39,.27,1.09-5.74,.76-10.37,.27-13.45-.59-3.75-1.2-7.35-3.84-8.51-.17-.07-.33-.13-.5-.18-2.09-.61-4.26,.76-4.88,2.84l-.27,.9c-.44,1.46-.65,2.97-.62,4.5,.09,5.1,.19,12.15,.23,20.5,.13,22.28-.25,30.59-.27,47.77-.03,19.3,.43,15.4,.82,49.42,.21,17.9,.24,32.5,.27,48.87,.02,10.56,.01,19.12,0,36.24-.03,37.59,1.26,113.79,1.37,120.68"/><path class="h" d="M297.7,463.02v-2.53c.09-12.25,.17-24.5,.26-36.75,.67-2.7,2.4-8.07,7.15-12.76,2.16-2.13,6.11-6.04,10.97-6.12,6.53-.12,13.34,6.66,16.08,16.84l1.02,41.85c-11.14-.09-24.33-.45-35.47-.53"/><path class="g" d="M332.25,463.54c-2.26-.68-6.44-2.22-8.7-2.9,.14-11.13,.28-22.26,.42-33.39,.02-1.96,.55-4.1-.23-5.9-.6-1.39-1.45-3.01-2.5-4.61-2-3.04-4.11-4.69-6.38-5.26-3.34-.85-6.57,1.8-8.36,3.28-2.4,1.97-3.91,4.3-4.86,6.31-.77,1.64-1.13,3.44-1.12,5.25,.04,11.29,.07,22.57,.11,33.86,6.78,0,16.16,.45,22.94,.45"/><path class="g" d="M330.45,462.42c-.2-10.86-.41-23.09-.61-34.29-.09-5.01-1.74-9.91-4.92-13.79l-.08-.1c-2.52-3.05-5.28-6.39-9.52-6.61-3.81-.2-9.06,2.26-10.22,3.34"/><path class="g" d="M327.54,461.97c-.03-10.33-.06-22.35-.09-33.12-.01-4.2-1.21-8.34-3.54-11.84-.31-.47-.61-.88-.88-1.26-2.32-3.13-3.87-5.23-6.71-6.01-3.32-.92-6.35,.51-7.81,1.2-2.9,1.36-7.16,5.07-8.02,6.2"/><path class="g" d="M309.35,458.69c.13-9.35,.28-19.69,.42-29.04,.09-2.18-1.51-4.04-3.54-4.27-1.84-.21-3.65,.95-4.27,2.81l-.21,30.08c1.84,0,5.77-.07,7.61-.07"/><path class="g" d="M320.62,458.69c.13-9.35,.28-19.69,.42-29.04,.09-2.18-1.51-4.04-3.54-4.27-1.84-.21-3.65,.95-4.27,2.81l-.21,30.08c1.84,0,5.77-.07,7.61-.07"/><path class="g" d="M305.55,425.36c-.13,10.22,.13,22.65,0,32.87"/><path class="g" d="M316.81,425.36c-.13,10.04-.08,22.83-.21,32.88"/><path class="g" d="M302.07,441.46c1.88-.05,5.52-.15,7.39-.2"/><path class="g" d="M302.14,451.67h7.69"/><path class="g" d="M313.07,451.44h7.66"/><path class="g" d="M313.54,441.03c1.56-.03,5.77-.09,7.33-.12"/><line class="h" x1="300.61" y1="460.19" x2="297.7" y2="463.02"/><circle class="g" cx="312.3" cy="419.92" r="4.08"/><path class="h" d="M126.6,311.94c-.31-11.86-.62-23.71-.93-35.57-.23-2.59-.28-6.73,1.24-11.44,.65-2.03,2.67-8.31,5.26-8.35,3.52-.05,6.06,11.47,6.19,12.06v39.28c-2.47,1.03-9.28,2.99-11.75,4.02"/><path class="g" d="M136.18,261.46c-2.16,.51-3.77,3.28-4.23,5.32-.83,3.74-.72,7.75-.51,9.97,.04,.4,.05,.79,.05,1.19,0,9.98-.16,22.5-.16,32.35"/><path class="g" d="M135.65,259.41c-.72,.46-3.05,2.04-3.91,3.19-1.74,2.32-1.92,4.81-1.94,5.81,.1,13.67-.1,28.72,0,42.39"/><path class="g" d="M134.3,257.95c-.98,.64-3.34,2.47-4.52,4.92-1.86,3.84-2.32,7.42-2.08,8.47,.1,12.48,.45,27.51,.55,39.99"/><line class="h" x1="225.59" y1="382.77" x2="186.35" y2="382.63"/><path class="h" d="M135.14,124.2c8.85-2.71,42.52-13.59,57.59-16.12,15.53-2.61,27.12-3.23,43.5-4.11,13.68-.74,27.15-1.46,45.21-.68,13.41,.58,23.52,1.73,41.44,3.77,7.04,.8,25.76,2.24,45.14,7.36,4.19,1.11,10.87,3.02,17.47,8.43,5.09,4.17,8.18,8.81,9.97,12.04"/><path class="h" d="M135.14,124.2c-.48,4.91-1.64,17.7-2.12,22.61"/><line class="h" x1="368.01" y1="114.41" x2="368.01" y2="136.88"/><line class="j" x1="200.66" y1="86.91" x2="200.66" y2="130.35"/><line class="j" x1="204.07" y1="85.15" x2="204.07" y2="130.35"/><line class="j" x1="207.83" y1="83.34" x2="206.82" y2="129.48"/><line class="j" x1="210.9" y1="81.96" x2="210.16" y2="129.02"/><line class="j" x1="213.13" y1="81.05" x2="212.28" y2="128.74"/><line class="j" x1="216.76" y1="79.74" x2="215.52" y2="128.37"/><line class="j" x1="220.53" y1="78.6" x2="218.36" y2="128.08"/><line class="j" x1="223.26" y1="77.89" x2="221.56" y2="127.79"/><line class="j" x1="226.78" y1="77.14" x2="225.17" y2="127.5"/><line class="j" x1="230.5" y1="76.51" x2="227.92" y2="127.3"/><line class="j" x1="233.15" y1="76.14" x2="231.44" y2="126.45"/><line class="j" x1="236.01" y1="75.81" x2="233.96" y2="126.96"/><line class="j" x1="238.88" y1="75.66" x2="236.47" y2="126.45"/><line class="j" x1="241.72" y1="75.32" x2="238.6" y2="126.75"/><line class="j" x1="244.65" y1="75.32" x2="241.5" y2="126.45"/><line class="j" x1="247.07" y1="75.32" x2="244.65" y2="126.96"/><line class="j" x1="249.49" y1="75.33" x2="248.24" y2="126.5"/><line class="j" x1="252.79" y1="75.66" x2="251.56" y2="126.47"/><line class="j" x1="254.99" y1="75.45" x2="254.99" y2="126.96"/><line class="j" x1="257.47" y1="75.66" x2="257.47" y2="126.45"/><line class="j" x1="260.33" y1="75.75" x2="260.32" y2="126.45"/><line class="j" x1="263.18" y1="75.94" x2="263.16" y2="126.96"/><line class="j" x1="265.54" y1="76.11" x2="265.43" y2="126.46"/><line class="j" x1="267.81" y1="76.29" x2="267.81" y2="126.45"/><line class="j" x1="270.83" y1="76.59" x2="270.83" y2="126.45"/><line class="j" x1="273.46" y1="76.86" x2="273.45" y2="126.5"/><line class="j" x1="276.35" y1="77.11" x2="275.57" y2="126.45"/><line class="j" x1="279.72" y1="77.37" x2="278.48" y2="126.45"/><line class="j" x1="282.44" y1="77.57" x2="281.76" y2="126.59"/><line class="j" x1="285.58" y1="77.82" x2="285.58" y2="126.96"/><line class="j" x1="288.81" y1="78.35" x2="288.71" y2="126.96"/><line class="j" x1="290.62" y1="78.35" x2="291.39" y2="126.75"/><line class="j" x1="292.59" y1="78.59" x2="294.02" y2="126.8"/><line class="j" x1="294.97" y1="79.06" x2="295.98" y2="126.96"/><line class="j" x1="297.01" y1="79.53" x2="299.05" y2="126.96"/><line class="j" x1="299.05" y1="80.02" x2="301.95" y2="126.45"/><line class="j" x1="301.95" y1="80.68" x2="305.21" y2="126.96"/><line class="j" x1="304.05" y1="82.81" x2="305.18" y2="94.24"/><path class="g" d="M158.54,108.63c9.43-4.39,18.85-5.33,24.37-6.67,1.33-.32,7.06-2.1,12.81-2.89,11.29-1.54,14.01-1.43,19.37-1.95,7.81-.75,14.12-1.33,26.55-1.71,4.4-.14,12.51-.8,19.89-.83,8.37-.03,14.86-.2,22.04,0,14.71,.41,21.74,.65,26.79,1.37,6.83,.97,15.01,2.92,19.97,3.95,3.81,.79,16.13,3.65,18.32,4.15"/><line class="i" x1="136.37" y1="145.3" x2="138.41" y2="121.57"/><line class="i" x1="139.48" y1="143.93" x2="142.69" y2="118.37"/><line class="i" x1="145.96" y1="116.11" x2="142.44" y2="142.67"/><line class="i" x1="145.72" y1="141.36" x2="148.55" y2="114.41"/><line class="i" x1="151.72" y1="112.45" x2="150.46" y2="139.67"/><line class="i" x1="155.89" y1="138.03" x2="155.89" y2="110.05"/><line class="i" x1="158.54" y1="108.63" x2="159.29" y2="137.17"/><line class="i" x1="163.06" y1="136.34" x2="161.77" y2="107.26"/><line class="i" x1="166.59" y1="134.88" x2="164.7" y2="105.62"/><line class="i" x1="169.13" y1="105.49" x2="169.13" y2="135.19"/><line class="i" x1="173.42" y1="134.42" x2="172.64" y2="104.06"/><line class="i" x1="175.94" y1="133.99" x2="175.94" y2="103.82"/><line class="i" x1="179.45" y1="102.7" x2="179.46" y2="133.44"/><line class="i" x1="182.92" y1="101.97" x2="182.07" y2="133.04"/><line class="i" x1="186.34" y1="101.04" x2="185.86" y2="132.49"/><line class="i" x1="189.55" y1="100.24" x2="190.37" y2="131.83"/><line class="i" x1="192.83" y1="99.56" x2="192.89" y2="131.47"/><line class="i" x1="195.73" y1="99.08" x2="195.17" y2="130.92"/><line class="i" x1="199.25" y1="98.61" x2="198.63" y2="130.45"/><line class="i" x1="202.26" y1="98.25" x2="201.98" y2="129.48"/><line class="i" x1="205.37" y1="97.92" x2="205.48" y2="129.48"/><line class="i" x1="208.86" y1="97.62" x2="208.32" y2="129.27"/><line class="i" x1="211.62" y1="97.42" x2="211.17" y2="128.88"/><line class="i" x1="215.1" y1="97.13" x2="214.12" y2="128.52"/><line class="i" x1="217.88" y1="96.87" x2="216.92" y2="128.22"/><line class="i" x1="221.18" y1="96.57" x2="219.45" y2="127.98"/><line class="i" x1="224.48" y1="96.3" x2="223.26" y2="127.65"/><line class="i" x1="227.79" y1="96.06" x2="226.39" y2="126.96"/><line class="i" x1="230.9" y1="95.87" x2="229.21" y2="127.22"/><line class="i" x1="234" y1="95.71" x2="232.29" y2="126.96"/><line class="i" x1="236.49" y1="95.6" x2="234.98" y2="126.91"/><line class="i" x1="239.62" y1="95.48" x2="237.67" y2="126.79"/><line class="i" x1="241.65" y1="95.42" x2="240.16" y2="126.69"/><line class="i" x1="244.65" y1="95.28" x2="243.08" y2="126.45"/><line class="i" x1="247.5" y1="95.13" x2="246.7" y2="126.45"/><line class="i" x1="250.9" y1="94.49" x2="249.79" y2="126.45"/><line class="i" x1="253.6" y1="94.81" x2="253.6" y2="126.45"/><line class="i" x1="256.2" y1="94.7" x2="256.2" y2="126.45"/><line class="i" x1="258.91" y1="94.62" x2="258.57" y2="126.45"/><line class="i" x1="261.55" y1="94.59" x2="261.91" y2="126.45"/><line class="i" x1="264.01" y1="94.81" x2="264.31" y2="126.46"/><line class="i" x1="266.41" y1="94.56" x2="266.71" y2="126.46"/><line class="i" x1="269.41" y1="94.49" x2="269.11" y2="126.45"/><line class="i" x1="272.01" y1="94.49" x2="272.11" y2="126.49"/><line class="i" x1="274.71" y1="94.49" x2="274.61" y2="126.51"/><line class="i" x1="277.51" y1="94.49" x2="277.11" y2="126.53"/><line class="i" x1="280.72" y1="94.49" x2="280.11" y2="126.96"/><line class="i" x1="283.59" y1="94.59" x2="283.52" y2="126.62"/><line class="i" x1="287.12" y1="94.49" x2="287.02" y2="126.45"/><line class="i" x1="289.82" y1="94.81" x2="290.02" y2="126.45"/><line class="i" x1="291.92" y1="94.83" x2="292.72" y2="126.45"/><line class="i" x1="294.02" y1="94.9" x2="294.97" y2="126.82"/><line class="i" x1="296.32" y1="94.81" x2="297.42" y2="126.86"/><line class="i" x1="299.05" y1="94.81" x2="300.5" y2="126.92"/><line class="i" x1="301.32" y1="95.2" x2="303.58" y2="126.96"/><line class="i" x1="304.62" y1="95.39" x2="307.44" y2="126.96"/><line class="i" x1="306.32" y1="95.52" x2="309.06" y2="127.12"/><line class="i" x1="309.06" y1="95.79" x2="312.51" y2="127.24"/><line class="i" x1="312.1" y1="96.22" x2="315.31" y2="127.37"/><line class="i" x1="315.43" y1="96.79" x2="318.81" y2="127.64"/><line class="i" x1="319.29" y1="97.55" x2="322.46" y2="128.11"/><line class="i" x1="322.43" y1="98.2" x2="325.47" y2="128.56"/><line class="i" x1="326.22" y1="99.02" x2="327.54" y2="128.89"/><line class="i" x1="330.34" y1="99.91" x2="331.1" y2="129.48"/><line class="i" x1="333.52" y1="100.6" x2="335.33" y2="130.45"/><line class="i" x1="336.94" y1="101.37" x2="338.58" y2="130.73"/><line class="i" x1="342.23" y1="103.23" x2="344.1" y2="131.9"/><line class="i" x1="345.14" y1="103.25" x2="348.66" y2="132.44"/><line class="i" x1="348.66" y1="104.06" x2="350.87" y2="132.82"/><line class="i" x1="352.86" y1="106.41" x2="354.36" y2="133.45"/><line class="i" x1="356.39" y1="108.63" x2="359.39" y2="134.09"/><line class="i" x1="360.97" y1="110.68" x2="362.36" y2="135.79"/><line class="i" x1="364.13" y1="113.15" x2="366.29" y2="136.02"/><line class="h" x1="159.64" y1="152.21" x2="177.23" y2="148.1"/><line class="h" x1="191.27" y1="146.19" x2="211.95" y2="142.67"/><line class="h" x1="222.91" y1="141.2" x2="257.36" y2="138.94"/><line class="h" x1="267.78" y1="138.28" x2="294.98" y2="139.36"/><line class="h" x1="329.22" y1="143.3" x2="307.4" y2="140.46"/><line class="h" x1="357.37" y1="149.8" x2="341.18" y2="146.14"/><line class="h" x1="378.5" y1="156.41" x2="370.81" y2="153.3"/><line class="h" x1="136.37" y1="160.45" x2="146.48" y2="157.46"/><line class="h" x1="121.71" y1="169.36" x2="124.64" y2="167.8"/><line class="h" x1="114.09" y1="176.03" x2="107.89" y2="180.62"/><line class="h" x1="388.01" y1="168.04" x2="387.43" y2="164.2"/><line class="h" x1="391.48" y1="179.43" x2="394.6" y2="181.9"/><path class="h" d="M126.45,381.29v-31.57c0-1.92-.11-3.84-.27-5.75-.26-3.13-.18-7.2,1.03-11.72,.69-2.56,1.9-7.1,3.8-7.22,1.57-.1,3.13,2.85,4.37,6.13,1.14,3.01,1.74,6.2,1.83,9.42l1.03,39.19c-2.66,.38-9.12,1.14-11.78,1.52"/><path class="g" d="M132.91,380.46c-.25-11.57-1.21-23.17-1.45-34.74-.85-5.72-.15-9.03,.7-10.63,.82-1.54,1.65-4.42,2.86-4.86"/><path class="g" d="M130.52,380.46c-.45-11.77-.96-26.16-1.4-37.93-.05-1.86,.1-4.56,1.05-7.63,.76-2.48,2.74-5.88,3.63-7.27"/><path class="g" d="M128.54,381.01c-.36-11.93-.35-25.53-.71-37.46-.18-1.81,.16-5.84,.85-9.35,.48-2.44,2.39-6.58,4.04-7.73"/><line class="i" x1="172.64" y1="104.06" x2="176.52" y2="100.89"/><line class="i" x1="175.94" y1="103.82" x2="179.45" y2="99.91"/><line class="i" x1="179.45" y1="102.7" x2="182.49" y2="98.98"/><line class="i" x1="182.92" y1="101.97" x2="184.94" y2="98.28"/><line class="i" x1="186.34" y1="101.04" x2="188.12" y2="97.46"/><line class="i" x1="189.55" y1="100.24" x2="191.27" y2="96.73"/><line class="i" x1="192.83" y1="99.56" x2="193.57" y2="96.97"/><line class="i" x1="195.73" y1="99.08" x2="196.02" y2="95.77"/><line class="i" x1="199.25" y1="98.61" x2="199.84" y2="95.48"/><line class="i" x1="202.26" y1="98.25" x2="203.57" y2="95.48"/><line class="i" x1="205.37" y1="97.92" x2="206.21" y2="94.81"/><line class="i" x1="208.86" y1="97.62" x2="209.62" y2="94.81"/><line class="i" x1="211.62" y1="97.42" x2="212.71" y2="93.89"/><line class="i" x1="215.1" y1="97.13" x2="216.14" y2="93.54"/><line class="i" x1="217.88" y1="96.87" x2="218.59" y2="93.29"/><line class="i" x1="221.18" y1="96.57" x2="221.71" y2="93.28"/><line class="i" x1="224.48" y1="96.3" x2="225.09" y2="92.68"/><line class="i" x1="227.79" y1="96.06" x2="228.38" y2="92.4"/><line class="i" x1="230.9" y1="95.87" x2="231.56" y2="92.15"/><line class="i" x1="234" y1="95.71" x2="234.39" y2="91.94"/><line class="i" x1="236.49" y1="95.6" x2="237.07" y2="91.77"/><line class="i" x1="239.62" y1="95.48" x2="240.13" y2="91.6"/><line class="i" x1="241.65" y1="95.42" x2="242.25" y2="91.51"/><line class="i" x1="244.65" y1="95.28" x2="244.65" y2="91.42"/><line class="i" x1="247.5" y1="95.13" x2="247.64" y2="91.33"/><line class="i" x1="250.9" y1="94.49" x2="250.83" y2="91.42"/><line class="i" x1="253.6" y1="94.81" x2="253.6" y2="91.42"/><line class="i" x1="256.2" y1="94.7" x2="256.2" y2="91.42"/><line class="i" x1="258.91" y1="94.62" x2="258.74" y2="91.92"/><line class="i" x1="261.55" y1="94.59" x2="261.68" y2="91.42"/><line class="i" x1="258.74" y1="91.92" x2="258.74" y2="91.42"/><line class="i" x1="264.16" y1="94.24" x2="264.16" y2="91.42"/><line class="i" x1="266.56" y1="94.1" x2="266.56" y2="91.42"/><line class="i" x1="269.41" y1="94.49" x2="269.26" y2="91.42"/><line class="i" x1="272.01" y1="94.49" x2="271.65" y2="91.42"/><line class="i" x1="274.71" y1="94.49" x2="274.19" y2="91.42"/><line class="i" x1="277.51" y1="94.49" x2="276.83" y2="91.42"/><line class="i" x1="280.72" y1="94.49" x2="280.11" y2="91.67"/><line class="i" x1="283.59" y1="94.59" x2="282.97" y2="91.67"/><line class="i" x1="287.12" y1="94.49" x2="286.36" y2="91.67"/><line class="i" x1="289.92" y1="94.49" x2="289.14" y2="91.73"/><line class="i" x1="291.92" y1="94.83" x2="291.01" y2="91.91"/><line class="i" x1="294.02" y1="94.9" x2="292.53" y2="91.84"/><line class="i" x1="296.32" y1="94.81" x2="295.24" y2="92.02"/><line class="i" x1="299.05" y1="94.81" x2="297.19" y2="92.08"/><line class="i" x1="301.32" y1="95.2" x2="298.99" y2="91.9"/><line class="i" x1="304.62" y1="95.39" x2="302.45" y2="92.37"/><line class="i" x1="306.32" y1="95.52" x2="304.24" y2="92.37"/><line class="i" x1="309.06" y1="95.79" x2="306.32" y2="92.44"/><line class="i" x1="312.1" y1="96.22" x2="308.95" y2="92.32"/><line class="i" x1="315.43" y1="96.79" x2="312.4" y2="92.67"/><line class="i" x1="319.29" y1="97.55" x2="315.5" y2="93.05"/><line class="i" x1="322.43" y1="98.2" x2="319.4" y2="93.64"/><line class="i" x1="326.22" y1="99.02" x2="322.94" y2="94.49"/><line class="i" x1="330.34" y1="99.91" x2="326.5" y2="95.3"/><line class="i" x1="333.52" y1="100.6" x2="330.03" y2="96.39"/><line class="i" x1="336.94" y1="101.37" x2="332.01" y2="96.95"/><line class="i" x1="342.23" y1="103.23" x2="336.77" y2="98.49"/><line class="i" x1="345.14" y1="103.25" x2="340.77" y2="99.96"/><path class="g" d="M329.98,354.9c.37,.31-.85,5.74-4.76,8.82-.21,.17-.41,.32-.7,.53-1.46,1.03-4.51,2.79-8.55,2.59-4.26-.22-7.08-2.51-8.81-3.91-4.91-3.99-6.37-9.21-6.76-10.67-.51-1.94-1.8-7.08,.62-12.72,.62-1.43,2.48-5.6,7.12-8.18,1.04-.58,3.95-2.15,7.92-1.96,6.55,.31,10.44,5.17,11.12,6.05,1.15,1.49,1.23,2.8,1.65,3.95,0,0,.18,1.16,.02,1.02-.97-.82-1.98-2.5-3.45-3.72-4.21-3.48-6.23-3.96-6.87-4.13-4.95-1.28-7.45,.69-7.9,.92-3.84,2.04-5.3,5.53-5.96,7.12-1.99,4.76-1.01,9.02-.71,10.23,1.04,4.23,3.42,6.79,4.89,8.36,1.36,1.46,2.47,2.48,3.85,3.14,.32,.15,1.46,.65,3.12,.85,4.57,.55,8.45-1.77,10.02-2.73,3.49-2.14,3.86-5.77,4.14-5.53Z"/><path class="g" d="M317.87,359.43c-.14-3.55-.23-7.64-.37-11.18,2.83-.03,5.66-.07,8.49-.1-.03-.92-.07-1.84-.1-2.76l-8.28-.1c-.14-3.92-.27-7.84-.41-11.76l-1.64-.2c-3.24,4.13-6.48,8.25-9.72,12.38v2.41c2.95,.14,5.9-.29,8.85-.16,.1,3.53,.26,7.69,.37,11.22,.65,.03,2.15-.13,2.8-.09"/><path class="g" d="M314.82,338c.03,2.34,.1,4.98,.14,7.32l-5.77,.21c1.59-2.13,4.07-5.1,5.66-7.23"/><polygon class="g" points="296.86 361.15 276.29 361.15 276.34 339.84 296.9 339.84 296.86 361.15"/><line class="j" x1="278.08" y1="341.55" x2="278.34" y2="358.21"/><line class="j" x1="280.58" y1="341.53" x2="280.8" y2="358.17"/><line class="j" x1="277.99" y1="341.67" x2="280.7" y2="341.67"/><line class="j" x1="281.07" y1="358.17" x2="277.93" y2="358.17"/><path class="j" d="M292.58,343.01c-1.61,1-3.63,2.67-4.71,5.29-.26,.64-.56,4.5,.58,5.43,.79,.65,1.88,.05,2.62-.93,.46-.61,.15-1.91,.71-2.26,.49-.3,1.29-.27,1.71,.21,.46,.53,.2,2.29-.29,3.17-.53,1.1-.92,1.39-1.2,1.91-.56,1.03-1.51,.91-2.69,.97-.5,.03-1.05-.04-1.59-.27-1.05-.46-1.56-1.33-2.25-2.51-.79-1.36-.65-2.11-.57-3.63,.06-1.03,.2-2.76,2.12-5.36,.52-.7,1.44-1.91,2.94-2.78,1.19-.69,1.71-.58,1.98-.43,.26,.15,.56,.98,.64,1.18"/><line class="j" x1="337.76" y1="341.3" x2="340.21" y2="341.3"/><line class="j" x1="332.28" y1="349.27" x2="338.14" y2="341.18"/><line class="j" x1="338.6" y1="350.86" x2="332.22" y2="350.9"/><line class="j" x1="340.47" y1="350.89" x2="344.16" y2="350.82"/><line class="j" x1="344.04" y1="348.4" x2="343.94" y2="350.95"/><line class="j" x1="340.47" y1="348.56" x2="344.28" y2="348.54"/><line class="j" x1="338.6" y1="350.58" x2="338.37" y2="357.73"/><line class="j" x1="338.6" y1="343.81" x2="338.6" y2="348.93"/><line class="j" x1="335.07" y1="348.74" x2="338.6" y2="348.74"/><line class="j" x1="338.7" y1="343.68" x2="334.99" y2="348.85"/><line class="j" x1="340.21" y1="341.3" x2="340.74" y2="341.3"/><line class="j" x1="340.74" y1="348.56" x2="340.74" y2="341.02"/><line class="j" x1="340.69" y1="357.93" x2="340.74" y2="350.88"/><line class="j" x1="338.17" y1="357.73" x2="340.88" y2="357.68"/><path class="j" d="M347.02,356l.42-.5c1.61-1.38,2.51-2.8,2.99-3.73,.67-1.28,1.97-3.77,1.16-6.48-.21-.71-.69-2.31-2.26-3.05-1.06-.5-2.47-.54-3.67,.18-1.57,.96-1.81,2.66-1.83,2.87l1.04,1.1c.1-.35,.36-1.01,.98-1.59,.16-.15,1.37-1.26,2.57-.86,.95,.32,1.3,1.4,1.47,1.89,.51,1.54-.03,2.95-.31,3.67-.43,1.12-1.01,1.83-2.08,3.12-.91,1.09-1.26,1.56-1.84,2.1-.43,.16-.96,.86-1.03,1.03-.14,.31-.32,.41-.32,.96,0,.39,.03,.7,.07,.93,2.24,.02,4.48,.04,6.72,.06l-.06-1.53c-1.34-.06-2.68-.11-4.02-.17"/><rect class="g" x="331.36" y="340.18" width="21.87" height="19.22"/><path class="j" d="M300.73,326.57c1.57-.85,3.91-1.94,6.88-2.72,2.34-.61,6.44-1.64,11.59-.72,4.29,.76,7.54,2.56,9.6,3.98,1.93-4.95,3.86-9.9,5.79-14.85-3.87-3.08-7.54-4.63-9.96-5.43-8.94-2.97-16.63-1.08-19.38-.36-3.86,1-6.86,2.47-8.87,3.62,1.45,5.49,2.9,10.99,4.35,16.48,3.1,1.74,5.7,1.53,7.7,1.75,3.34,.36,9.85,.71,15.58,.09,1.05-.11,4.31-.98,4.79-1.29"/><path class="j" d="M315.49,280c.13-.12,2.37-2.55,5.54-1.74,.6,.15,2.16,1.14,2.69,1.56,1.56,1.26,2.15,3.74,2.15,5.74v7.36c0,3.31-2.58,6.4-5.37,8.18-.66,.42-1.89,.97-3.19,1.56s-2.74,.41-3.85-.43c-1.39-1.05-1.56-1.05-2.94-1.95-2.26-1.46-5.38-3.77-5.55-6.46l-.16-6.94c0-1.28-.6-4.13,.43-5.55,.33-.46,1.58-1.88,1.97-2.15,2.94-2.05,6.29-1.46,8.28,.81"/><line class="j" x1="332.29" y1="349.02" x2="332.21" y2="351.16"/><path class="j" d="M275.21,190.28h-.54v12.54c.73-.23,2.29-2.65,2.47-4.09,.33-2.65-.54-5.32-2.16-8.54"/><path class="j" d="M273.27,187.52c-.56,6.21,.02,12.05-.24,17.36,.61,.02,2.18,.2,3.77-1.48,1.85-1.95,1.97-4.8,2.04-6.37,.06-1.48,.17-4.01-1.27-6.26-1.63-2.55-3.96-3.06-4.48-3.12"/><path class="j" d="M281.64,193.55c.02,1.58,.03,3.66,.05,5.24-.12,1.78,.21,3.26,.91,3.69,.06,.04,.31,.18,.61,.13,.73-.12,1.13-1.24,1.27-1.65,.28-.79,.29-1.54,.25-2.04-.03-1.54,.1-2.1,.07-3.64,.02-1.09-.04-3.01-.62-3.54-.44-.4-1.51-.31-2,.07-.47,.36-.5,2.07-.53,2.23"/><path class="j" d="M280.23,193.51v6.6c-.28,2.03,.41,3.92,1.58,4.64,1.19,.73,2.4-.07,2.57-.19,1.14-.79,1.83-2.48,1.77-4.35,.01-2.29,.02-4.59,.04-6.88,0-.2,0-2.09-1.18-3.25-1.01-.99-2.44-1.02-3.46-.1-.97,.88-1.29,3.23-1.32,3.54"/><path class="j" d="M288.81,193.63c-.05,2.2-.1,4.4-.16,6.6-.04,1.42,.77,2.66,1.86,2.92,1.02,.24,2.07-.43,2.52-1.63l1.01,.05c-.03,.25-.24,2.06-1.51,2.96-1.68,1.19-3.51-.39-3.61-.48-1.05-.94-1.35-2.29-1.44-2.72l.03-7.01c0-1.08,.29-2.14,.86-2.95,.31-.44,.71-.85,1.24-1.13,.33-.18,1.51-.81,2.56-.05,.54,.39,.81,.97,.93,1.29l-1.28,.19c-.17-.22-.48-.53-.89-.57-.64-.07-1.13,.53-1.44,.91-.3,.37-.68,1.6-.78,1.86"/><path class="j" d="M296.64,191.74c.05,4.44,.1,9.2,.15,13.64l1.17,.04v-13.49c.71,.02,1.45-.13,2.15-.11,.01-.45-.01-.72,0-1.17l-5.4,.11v1.09c.5,.01,1.67,.12,2.17,.13"/><path class="j" d="M303.69,192.05c-.01,1.4-.03,2.81-.04,4.21,.84,.03,1.23,.03,2.08,.05,.66-.97,1.14-2.19,.53-3.09-.68-1.02-2.89-1.31-2.57-1.17"/><path class="j" d="M303.5,199.26c-.04,1.97-.09,4.39-.13,6.37-.43-.01-.84-.07-1.27-.08,.05-4.85,.1-10.09,.16-14.93,.26-.12,2.19-.92,3.9,.04,1.16,.66,1.92,1.97,2.05,3.49,.12,1.43-.64,2.78-1.79,3.64-.13,.1-.24,.2-.3,.28,.62,2.4,2.37,5.43,2.99,7.83-.47,0-1.22-.3-1.69-.3-.9-2.29-1.73-5.09-2.63-7.38-.52-.01-.72-.13-.97-.08-.28,.05-.3,1.07-.31,1.13"/><path class="j" d="M310.81,191.42v15.44h1.17v-15.23c-.2-.07-1.43-.23-1.17-.21"/><path class="j" d="M314.47,206.79c.02-4.68,.25-10.1,.27-14.78h1.05c1.32,3.72,2.89,8.69,4.2,12.41,.07-3.67-.12-8.59-.06-12.26h1.38c.02,5.22-.16,9.52-.14,14.74-.57-.02-.81-.06-1.38-.09-1.32-3.91-2.76-6.9-4.07-10.82-.04,3.52-.09,7.04-.13,10.56-.27-.01-1.08-.02-1.35-.04"/><path class="j" d="M322.37,207.84c.47-2.66,1.48-6,1.95-8.66l.93-5.27,1.64-.13c.78,4.32,1.57,10.45,2.35,14.78-.59,.04-1.26-.39-1.85-.35-.35-2.38-.62-6.09-.97-8.48l-1.14,.16c-.36,2.51-.87,5.06-1.23,7.57-.33,.41-1.36-.03-1.69,.38"/><path class="j" d="M325.13,197.91s.24-.12,.24-.12c.05-.25,.34-1.85,.38-2.1l.81-.14,.06,2.26c-.34,.14-1.02-.05-1.31,.28"/><line class="j" x1="330.36" y1="208.99" x2="330.26" y2="195.81"/><line class="j" x1="331.57" y1="195.81" x2="330.1" y2="195.81"/><line class="j" x1="333.17" y1="204.28" x2="331.39" y2="195.81"/><line class="j" x1="335.29" y1="195.81" x2="333.17" y2="204.28"/><line class="j" x1="336.34" y1="195.81" x2="335.13" y2="195.81"/><line class="j" x1="336.17" y1="209.43" x2="336.17" y2="195.81"/><line class="j" x1="335.13" y1="209.42" x2="336.35" y2="209.43"/><line class="j" x1="335.29" y1="200.55" x2="335.29" y2="209.42"/><line class="j" x1="333.39" y1="206.83" x2="335.29" y2="200.55"/><line class="j" x1="332.75" y1="206.76" x2="333.59" y2="206.76"/><line class="j" x1="331.2" y1="200.75" x2="332.93" y2="206.84"/><line class="j" x1="331.1" y1="209.07" x2="331.2" y2="200.75"/><path class="j" d="M338.16,196.46c-.07,4.47-.13,8.87-.19,13.34,1.42,.05,2.84,.11,4.26,.16l-.05-1.47c-.95-.02-1.89-.04-2.84-.05-.02-1.3-.03-2.59-.05-3.89h2.08l-.1-1.31-2.03-.11c.02-1.58,.03-3.15,.05-4.73,.9,.02,1.79,.04,2.69,.05l-.05-1.63c-1.01-.09-2.94-.12-3.95-.21"/><path class="j" d="M345.77,198.11c.04,4.22,.08,8.76,.13,12.98l.99,.03v-12.85c.6,.02,1.23-.13,1.82-.1,.01-.43-.01-.68,0-1.11l-4.57,.1v1.04c.42,.01,1.41,.11,1.84,.12"/><line class="j" x1="330.17" y1="208.98" x2="331.26" y2="209.08"/><path class="h" d="M194.67,440.52c.08-10.84,.05-9.26,.14-20.09,.01-1.63,.24-3.24,.71-4.8,.68-2.28,1.88-5.08,4.03-7.79,2.04-2.57,4.66-3.49,8.48-3.4,3.63,.08,7.81,1.54,10.1,4.39,1.27,1.58,5.55,7.33,5.58,13.45"/><path class="h" d="M187.37,439.58c.3-13.05,.2-10.91,.5-23.96,.59-2.68,2.17-8,6.74-12.74,2.46-2.56,6.14-6.37,11.65-6.55,6.68-.22,11.25,5.04,12.56,6.55,4.24,4.89,4.81,10.42,4.92,12.38-.12,13.35-.32,19.26-.45,32.61"/><path class="g" d="M198.29,441.75c-.11-9.99-.18-9.03-.28-19.02,.61-1.34,1.96-2.1,3.4-2.11s3.49,.86,4.05,2.09c.32,10.36-.18,10.28,.14,20.65"/><line class="g" x1="201.88" y1="420.16" x2="202.3" y2="442.62"/><line class="g" x1="198.35" y1="434.31" x2="205.95" y2="434.31"/><path class="g" d="M211.25,444.71c-.11-9.99,.14-12.67,.03-22.66,.61-1.34,1.96-2.17,3.4-2.11,1.33,.06,3.49,.86,4.05,2.09,.32,10.36-.39,13.64-.06,24"/><line class="g" x1="214.7" y1="420.18" x2="214.97" y2="445.64"/><line class="g" x1="211.53" y1="434.31" x2="219.13" y2="434.31"/><path class="h" d="M192.3,440.52c-.05-12.16,.06-10.06,0-22.48-.01-2.31,.44-4.59,1.37-6.71,.8-1.82,1.97-3.87,3.7-5.86,2.08-2.39,5.33-3.93,10.39-3.93,4.98,0,11.47,1.85,14.9,8.11"/><path class="h" d="M190.16,440.11v-20.49c-.04-3.73,.87-7.42,2.71-10.67,1.38-2.43,3.26-5.08,5.64-7.27,4.17-3.82,12.95-3.72,15.73-2.94"/><circle class="g" cx="207.99" cy="412.66" r="5.04"/><path class="j" d="M295.24,237.49v-11.54c.24-.02,2.69-.14,4.19,2.09,1.16,1.72,.58,4.47-.57,6.35-.83,1.36-3.17,2.96-3.62,3.09"/><path class="j" d="M294.24,239.72c1.92,.22,3.27-1.19,3.61-1.41,3.27-2.05,3.72-6.67,3.75-7.22,.21-4.18-1.45-5.26-1.85-5.66-2.53-2.53-5.27-2.42-5.78-2.37v1.49c-.01,.15,.27,15.17,.27,15.17Z"/><line class="j" x1="305.6" y1="223.3" x2="305.33" y2="239.28"/><line class="j" x1="303.46" y1="239.41" x2="303.62" y2="223.46"/><line class="j" x1="305.33" y1="239.28" x2="303.26" y2="239.4"/><line class="j" x1="305.6" y1="223.3" x2="303.62" y2="223.46"/><line class="j" x1="307.39" y1="223.51" x2="307.07" y2="239.82"/><path class="j" d="M307.39,223.51c.58-.14,2.89-.54,4.32,.08,1.86,.8,3.1,2.94,2.56,5.3-.36,1.61-1.53,2.28-3.26,2.77,1.05,2.25,2.48,5.15,3.53,7.41l-2.59,.16c-.89-2.33-1.78-4.66-2.67-6.99-.08,2.44-.16,4.87-.24,7.31-.37-.01-1.6,.29-1.96,.28"/><path class="j" d="M308.98,225.43c.02,1.35-.03,2.9-.01,4.24,.31,.06,1.03,.17,1.8-.16,.13-.05,1.75-.78,1.64-2.07-.08-.9-2.4-2.59-3.49-1.8"/><path class="j" d="M316.01,239.42c0-5.03,0-10.06,.01-15.09h1.38c-.01,5.03-.02,10.06-.04,15.09h-1.35Z"/><path class="j" d="M326.62,232.36c.94,.04,1.17-.1,2.11-.06v7.65l-1.45-.04-.09-2.81c-.08,.21-.78,1.97-2.59,2.46-1.47,.4-2.68-.33-2.99-.48-1.84-.92-2.85-3.27-2.9-5.05-.04-1.27-.11-2.86,.7-5.14,.28-.79,.61-2.58,2.64-3.56,.44-.21,1.73-.81,3.25-.4,1.79,.49,2.95,2.11,3.25,3.56,.07,.32,.08,.59,.09,.79l-1.67-.04c-.06-.28-.29-1.29-1.19-1.85-1.4-.88-3.09,.18-3.3,.31-1.37,.88-1.68,2.44-1.85,3.3-.09,.48-.4,2.16,.48,3.91,.4,.79,.96,1.91,2.11,2.15,1.26,.27,2.58-.67,3.16-1.76,.46-.85,.27-2.56,.22-2.93"/><path class="j" d="M330.01,225.04l.09,14.81,6.81,.04-.04-1.8-5.01,.04,.09-4.88c.91,.01,1.82,.03,2.72,.04v-1.67l-2.77-.09-.13-5.1,4.88-.04-.09-1.58c-2.04,.04-4.51,.18-6.55,.22"/><path class="j" d="M326.88,219.2c-13.89-.66-28.69-1.32-42.58-1.97-1.65-1.05-3.29-2.11-4.94-3.16l3.95-3.16c14.08,.99,29.35,1.97,43.44,2.96"/><path class="j" d="M326.95,223.15c-.07-3.82-.13-7.63-.2-11.45h0l1.78-1.38,1.81,1.61c.07,3.49,.13,6.98,.2,10.48"/><line class="j" x1="328.92" y1="224.33" x2="330.55" y2="222.4"/><line class="j" x1="326.95" y1="223.15" x2="328.92" y2="224.33"/><line class="j" x1="330.72" y1="218.8" x2="336.63" y2="220.78"/><line class="j" x1="330.55" y1="214.61" x2="336.91" y2="213.75"/><line class="j" x1="341.21" y1="215.84" x2="336.91" y2="213.75"/><line class="j" x1="336.63" y1="220.78" x2="341.32" y2="219.48"/><line class="j" x1="341.21" y1="215.84" x2="341.32" y2="219.48"/><line class="j" x1="342.42" y1="214.99" x2="341.21" y2="215.84"/><line class="j" x1="343.67" y1="215.05" x2="342.23" y2="215.05"/><line class="j" x1="344.65" y1="215.97" x2="343.49" y2="214.97"/><line class="j" x1="344.71" y1="219.2" x2="344.65" y2="215.8"/><line class="j" x1="343.67" y1="220.13" x2="344.83" y2="218.93"/><line class="j" x1="342.05" y1="220.13" x2="343.84" y2="220.13"/><line class="j" x1="341.32" y1="219.48" x2="342.23" y2="220.13"/><path class="j" d="M299.6,321.72c2.52-1.29,5.41-2.89,6.92-3.21,1.85-.39,3.78-.44,7.64-.55,2.98-.08,4.51-.12,6.2,.11,2.76,.38,4.72,1.11,5.53,1.44,1.06,.43,4.19,2.37,4.81,2.72"/><path class="g" d="M374.89,331.81c-.13-10.87-.26-21.74-.39-32.61-.02-1.89,.11-3.79,.42-5.66,.88-5.43,2.73-12.91,4.46-12.86,2.16,.06,3.21,12.22,3.6,16.64l1.28,38.75"/><line class="g" x1="384.25" y1="336.07" x2="374.89" y2="331.81"/><path class="g" d="M382.94,335.27c-.36-11.38-.71-25.63-1.07-37.01-.01-1.91-.25-6.24-1.1-9.13-.61-2.1-2.83-3.83-3.57-5.2"/><path class="g" d="M380.77,334.48c-.27-11.78-.54-26.46-.8-38.24-.07-.93-.29-2.26-.93-3.72-.42-.96-2.72-3.32-3.16-3.9"/><path class="g" d="M378.32,333.37c-.24-9.66,.15-24.48-.15-33.71-.07-2.11-.77-4.18-2.1-5.82-.36-.45-.73-.8-1.05-.99"/><path class="h" d="M378.26,196.46c-.04,5.9,.04,12.77,0,18.66,2.28,1.94,4.56,3.88,6.85,5.82-.11-5.55,.78-18.33,.67-23.88"/><path class="g" d="M383.34,219.53c.27-6.77,.35-16.92,.62-23.69,.12-1.32,.14-3.26-.46-5.48-.34-1.28-1.62-3.86-2.07-4.7"/><path class="g" d="M381.44,217.66c.27-6.64,.75-16.1,1.02-22.74,.03-.82-.04-1.98-.52-3.26-.18-.48-1.31-2.93-1.52-3.29"/><path class="h" d="M126.62,433.18c0-1.92,.28-15.09,.12-17-.26-3.13-.18-7.2,1.03-11.72,.69-2.56,1.9-7.1,3.8-7.22,1.57-.1,3.13,2.85,4.37,6.13,1.14,3.01,1.74,6.2,1.83,9.42l.47,20.78"/><path class="g" d="M130.19,433.21c-.05-1.86-.13-20.88,.23-24.07,.39-3.39,3.05-7.91,3.94-9.31"/><path class="g" d="M128.73,433.28c-.36-11.93,.02-5.6-.34-17.52-.18-1.81,.16-5.84,.85-9.35,.48-2.44,2.39-6.58,4.04-7.73"/><path class="g" d="M375.78,402.37c-.13-10.87-.26-21.74-.39-32.61-.02-1.89,.11-3.79,.42-5.66,.88-5.43,2.73-12.91,4.46-12.86,2.16,.06,3.21,12.22,3.6,16.64l1.28,38.75"/><line class="g" x1="385.15" y1="406.63" x2="375.78" y2="402.37"/><path class="g" d="M383.83,405.83c-.36-11.38-.71-25.63-1.07-37.01-.01-1.91-.25-6.24-1.1-9.13-.61-2.1-2.83-3.83-3.57-5.2"/><path class="g" d="M381.66,405.05c-.27-11.78-.54-26.46-.8-38.24-.07-.93-.29-2.26-.93-3.72-.42-.96-2.72-3.32-3.16-3.9"/><path class="g" d="M379.21,403.93c-.24-9.66,.15-24.48-.15-33.71-.07-2.11-.77-4.18-2.1-5.82-.36-.45-.73-.8-1.05-.99"/><path class="g" d="M376.78,474.53c-.13-10.87,.13-25.2,0-36.07-.02-1.89,.11-3.79,.42-5.66,.88-5.43,2.73-12.91,4.46-12.86,2.16,.06,3.21,12.22,3.6,16.64l1.28,38.75"/><line class="g" x1="386.54" y1="475.33" x2="376.78" y2="474.53"/><path class="g" d="M385.2,475.22c-.36-11.38-.69-26.32-1.05-37.71-.01-1.91-.25-6.24-1.1-9.13-.61-2.1-2.83-3.83-3.57-5.2"/><path class="g" d="M383.06,474.93c-.27-11.78-.54-27.64-.8-39.42-.07-.93-.29-2.26-.93-3.72-.42-.96-2.72-3.32-3.16-3.9"/><path class="g" d="M380.61,474.53c-.24-9.66,.15-26.38-.15-35.6-.07-2.11-.77-4.18-2.1-5.82-.36-.45-.73-.8-1.05-.99"/><path class="f" d="M456.64,415.74c5.07,.4,9.97,1.53,14.23,4.44s7.92,6.21,10.82,10.25c5.74,8.01,8.77,18.29,10.72,27.84,1.07,5.25,1.78,10.57,2.23,15.91,.4,4.75,.28,9.39-1.24,13.95s-4.09,8.73-7.12,12.34-7.71,5.2-12.08,6.74c-10.29,3.62-21.83,4.6-32.64,5.37-10.96,.77-22.03,1.21-33.02,.75-11.38-.48-22.56-2.21-33.43-5.62s-20.38-7.66-30.38-11.95c-20.72-8.91-41.44-17.81-62.22-26.58-20.11-8.49-40.12-16.73-61.21-22.5s-42.03-9.65-63.45-11.99c-10.91-1.19-21.96-2.32-32.95-2.11s-20.96,1.53-31.18,3.76c-7.37,1.61-15.07,3.39-21.86,6.76-5.09,2.53-9.94,5.55-14.7,8.65-5.62,3.66-11.11,7.55-16.37,11.71-4.42,3.5-8.92,7.19-12.49,11.59-1.07,1.32-2.05,2.71-2.67,4.31-.29,.75,.91,1.07,1.21,.33,1.72-4.39,6.14-7.98,9.58-10.99,5.21-4.56,10.8-8.69,16.5-12.61,5.28-3.63,10.68-7.1,16.29-10.19,5.95-3.28,12.25-5.23,18.83-6.93,10.74-2.78,21.77-4.45,32.85-5.01s22.3,.46,33.37,1.59c22.38,2.27,44.57,6.29,66.28,12.2,22.03,6.01,42.91,14.7,63.9,23.57s42.06,17.94,63.07,26.97c9.9,4.25,19.84,8.5,30.21,11.5s21.6,4.49,32.65,4.84c11.3,.36,22.69-.11,33.95-1.02,10.27-.84,21.13-1.94,30.88-5.44,3.78-1.36,7.77-2.71,10.75-5.51s5.56-7.01,7.31-10.82c3.81-8.26,2.95-16.93,1.75-25.7-2.48-18.1-8.64-40.07-26.5-48.79-3.72-1.81-7.77-2.53-11.86-2.86-.8-.06-.8,1.19,0,1.25h0Z"/><path class="g" d="M132.43,433.28c-.08-6.84-.43-15.2-.53-22.2-.02-1.54,.38-3.08,1.29-4.33l.03-.04c.53-.73,2.27-3.01,2.73-3.34"/><path class="h" d="M125.37,217.11c1.8-.28,5.07-.08,7.34-.45,.05-5.05,.1-10.09,.15-15.14-.11-4.31-2.61-7-4.17-6.8-1.54,.2-3.32,2.81-3.25,6.46,.05,5.22,.26,10.71,.31,15.92"/><line class="h" x1="123.73" y1="200.71" x2="117.68" y2="201.69"/><path class="j" d="M128.77,216.94c-.23-4.49-.55-10.31-.79-14.94-.06-1.07,.26-2.15,.97-2.95,0,0,.73-.77,.74-.78,1.18-.61,1.92-1.01,2.27-1.09"/><path class="j" d="M127.56,216.94c-.27-4.45-.48-10.55-.75-15-.06-.41-.3-2.29,.94-3.99,.83-1.14,2.77-2.06,3.25-2.24"/><line class="h" x1="149.35" y1="186.49" x2="164.07" y2="182.88"/><line class="h" x1="352.81" y1="180.45" x2="366.29" y2="184.01"/></g></svg>