<?xml version="1.0" encoding="UTF-8"?><svg xmlns="http://www.w3.org/2000/svg" viewBox="0 0 420.94 236.17"><defs><style>.d{fill:#fff;}.e{fill:#a6c8ea;}.f{fill:#c68b99;}.g{fill:#e0c5a0;}.h{fill:#1d1d1b;}.i{fill:none;stroke:#1d1d1b;stroke-miterlimit:10;stroke-width:.5px;}</style></defs><g id="a"><path class="e" d="M243.32,126.39c-6.38,1.25-10.33,.34-16.22-2.21-3.34-1.45-6.46-2.28-10.14-2.11-4.1,.18-7.84,1.36-11.98,1.03-6.61-.52-14.22-3.09-20.53,.14s-8.34,10.75-7.12,17.42c2.55,14.02,17.76,21.68,30.65,22.27,6.39,.29,11.29-.96,16.88-3.9,6.54-3.44,14.28-2.26,21.17-4.72,5.35-1.91,12.31-2.49,16.41-6.87s5.41-12.79,2.02-17.92-10.68-7.16-16.32-8.58c-7.81-1.97-15.27-1.62-23.23-1.61-11.91,.02-27.42-7.46-37.72,2.12-4.83,4.49-7,11.97-3.63,17.97s9.16,9.78,15.52,12.28c6.95,2.74,14.17,5.76,21.78,4.49,5.87-.98,15.45-4,15.27-11.36-.33-13.72-26.57-10.48-34.6-10.95l3.79,1.02-.87-.47c-8.48-4.62-16.06,8.33-7.57,12.95,4.98,2.71,11.61,1.37,17.09,1.57,2.55,.09,4.98,.36,7.47,.96,.65,.16,1.45,.49,2.1,.55,1.25,.12,.5,.55-.21-.33l-2.2-5.3v.38l2.21-5.3c1.09-1.28-1.43,.42-2.02,.63-1.25,.46-2.57,.94-3.92,1.02-2.92,.17-5.68-1.16-8.34-2.15-5.16-1.92-10.7-3.23-13.05-8.73l1.02,3.79c-.71-6.06,16.02-1.21,19.17-.73,8.71,1.34,17.58-.68,26.19,1.25,2.34,.52,4.67,1.14,6.93,1.96,.71,.22,1.4,.5,2.08,.81,1.65,1.2,1.7,.51,.15-2.06-.15,.83-.36,1.65-.63,2.45,.92-1.02,.96-1.36,.12-1.01-1.89,.56-3.82,1.02-5.71,1.58-4.14,1.24-7.43,2.46-11.8,2.84-4.61,.41-9.19,1.22-13.44,3.12-3.93,1.76-6.14,3.4-10.57,3.3-3.21-.07-6.58-.23-9.52-1.67s-7.1-5-7.93-8.22c-.59-2.31,1-2.01-1.07-1.35,1.81-.58,4.79,.19,6.64,.41,4.19,.5,8.33,1.35,12.57,.94,4.58-.45,7.79-1.62,12.14,.31,8.67,3.84,15.73,4.27,24.97,2.46s5.46-16.32-3.99-14.46h0Z"/><path class="g" d="M130.13,107.87c-1.53-7.66-5.26-15.82-11.26-20.94-7.2-6.15-15.67-8.5-25.03-8.37-18.29,.25-32.09,15.44-35.62,32.66-1.4,6.81-1.4,13.66-1.39,20.55,0,6.32-.4,12.74,.13,19.04,1.26,15.06,8.52,28.22,18.25,39.5,17.52,20.33,47.26,32.07,73.86,27.4,13.29-2.33,26.93-10.67,32.77-23.19,7.34-15.73,6.48-33.76-5-47.31-2.79-3.29-6.49-5.76-9.96-8.28-.48-.35-2.63-1.57-2.72-1.92,2.3,1.84,2.4,1.9,.32,.19l-1.47-1.25c-5.42-4.66-11.55-8.86-16.78-13.66,5.19,4.77-.14-.49-.11-.58l1.62,2.12c-.55-.81-1.05-1.65-1.5-2.52,.69-.62,1.26,4.7,.58,1.17-.29-.96-.52-1.93-.69-2.91,.37,3.05,.49,3.71,.35,2-.03-1.31-.21-2.62-.36-3.91l-.79-5.85c-.41-2.39-.36-1.81,.14,1.75,.35-.69-.01-2.45-.06-3.28-.28-4.95-1.9-8.51-3.81-12.93l3,11.1c-.45-11.82-7.13-23.69-17.5-29.79-9.28-5.45-19.92-5.49-30.21-3.84-4.4,.7-9.27,1.77-13.14,4.03-6.36,3.72-9.93,9.84-12.3,16.61-4.01,11.49-2.97,22.69,2.01,33.63,2.9,6.37,7.04,11.91,10.94,17.68,4.29,6.33,8,12.91,11.08,19.9,7.05,15.99,20.59,29.06,34.86,38.83,9.52,6.51,24.82,2.1,30.1-7.89,5.9-11.17,2.27-23.15-7.89-30.1-1.96-1.37-1.77-1.2,.57,.54-.82-.69-1.65-1.39-2.46-2.09-1.39-1.19-2.77-2.39-4.13-3.62-1.59-1.44-3.13-2.92-4.62-4.46-.8-.82-5.5-5.32-1.64-1.56-5.48-5.34-7.6-14.39-11.21-20.93-3.81-6.91-8.53-13.15-12.8-19.76-.9-1.4-1.79-2.81-2.6-4.27-.54-.97-1.05-1.95-1.53-2.95,1.06,2.75,1.19,2.92,.37,.5,.22,2.75,.32,3.29,.29,1.62,.04-1.68-.08-1.13-.36,1.63,.23-1.13,.52-2.25,.88-3.34,1.43-3.87,.46-2.34-2.91,4.59l-9.71,5.66c1.91-.66,5.53-.56,7.08-1.71-2.92,.35-3.54,.49-1.85,.4,.73-.03,1.46-.04,2.19-.01,3.94-.13-3.47-1.07-1.07-.22,1.78,.53,.97-.01-2.43-1.63-3.41-2.34-4.01-2.52-1.83-.55l-1.2-1.73c.84,1.46,.86,1.31,.05-.45-.72-1.47-1.07-3.04-1.04-4.72l.79,5.85c.66,2.4,1.99,4.79,3.02,7.08l-3-11.1c.18,2.58,.25,4.99,.6,7.58-.14-1.01,.97,7.7,.47,2.83-.34-3.3-.1-.55-.05,.1,.37,5.48,.97,11.03,2.99,16.16,2.38,6.03,5.19,11.04,9.6,15.88,1.68,1.84,3.59,3.3,5.57,4.82,1.35,1.04,2.69,2.09,4.07,3.09,2.41,1.76-4.03-3.19-.34-.17,3.08,2.52,6.01,5.2,9.07,7.75,2.57,2.14,5.21,4.22,7.91,6.2,1.08,.8,7.36,5.76,2.66,1.87,.55,.46,2,2.29,.02-.26-2.86-3.68,.93,2.49-.76-1.23-1.2-2.66-.17-.22-.06,.41-.25-1.38,.27-4.37-.37-.83-.69,3.81,.24-5.05-.19,.41-.16,2.05,.65-1.61,1-1.94-.08,.07-2.83,4.45-.51,1.34,2.51-3.36-2.38,1.41,.93-.95,2.54-1.81,.3-.27-.21-.01-.18,.09-2.29,1.53-2.73,1.46-.03,0,5.21-1.55,.86-.53-.73,.17-1.56,.34-2.27,.58-2.8,.98,4.21,.01,1.32-.16-2.12-.13-4.27,.04-6.4-.1-.85-.06-4.27-.69-1.19-.01s.18,.03-.37-.08c-1.91-.4-3.81-.77-5.68-1.28-.15-.04-5.52-1.7-5.47-1.81,.23-.6,3.86,2.02,.84,.21-1.18-.71-2.44-1.3-3.64-1.97-1.65-.94-3.28-1.91-4.87-2.97-.48-.32-2.58-1.52-2.66-1.87-.04-.16,3.1,2.78,1.23,.85-1.34-1.39-2.87-2.6-4.21-4-.77-.8-1.48-1.64-2.24-2.46-2.31-2.49-.17,.49,.34,.55-.81-.08-3.17-4.89-3.56-5.59-.43-.77-3.33-5.97-1.74-3.27s-1.41-2.65-.83-3.5c.06-.09,.18,5.75,.26,.94,.02-1.22-.02-2.45-.03-3.68-.01-5.22,.06-10.43,.05-15.65,0-2.42,.3-4.94,.14-7.35-.2-3.09-1.03,3.18-.14,.46,.13-.4,1.17-3.66,1.12-3.73,.24,.39-2.05,3.54-.62,1.58,1.35-1.85-3.21,2.08-.03-.19-1.61,1.15-2.42,1.75-4.5,2.27l-2.95,.52h1.45l1.44,.04-3.06-.45c4.72,1.08-3.92-2-5.57-4.2-.13-.18-2.07-3.2-1.84-3.26,.31-.09,1.41,4.65,1.46,4.87,2.26,11.31,16.32,18.84,27.06,15.37,12.01-3.89,17.79-14.95,15.37-27.06h0Z"/><path class="f" d="M356.97,165.16c-12.25-9.68-28.98-4.16-33.79,10.7-1.99,6.13-.97,13.42-1,19.79-.04,6.91,.23,14.68,5.47,19.9,4.52,4.49,13.41,5.7,19.5,5.28,7.32-.5,12.32-5.28,13.51-12.46,1.07-6.5,1-12.9,1-19.46s1.26-13.94-1.99-19.59c-7.05-12.27-26.07-1.21-19,11.1l.47,.81-1.5-5.55c.63,5.19,.02,10.8,.02,16.04,0,2.61,.06,5.22-.03,7.82-.03,.99-.06,1.99-.18,2.98-.11,.91-1.21,2.95,0,1.03l3.95-3.95c3.19-2.22,2.86,.1,.78-.76-6.29-2.62-.09,2.85,.22,2.71,.21-.1-.21-9.8-.21-10.42,0-1.81,0-3.61,0-5.42,0-.79,.4-5.13-.12-3.51-.62,1.95,.43-.88,.71-.61-.41,.24-.87,.37-1.38,.4-.78-.2-1.44-.62-1.98-1.28,4.66,3.68,11.01,4.54,15.56,0,3.82-3.82,4.69-11.85,0-15.56h0Z"/></g><g id="b"><path class="i" d="M95.36,203.41c45.03,.19,59.87,.67,96.87,.95,68.47,.52,82.12-.66,150.48,0,25.15,.24,45.56,.62,58.22,.88,.14-17.64,.27-35.28,.41-52.91h2.63c-.4-3.31-.81-6.61-1.21-9.92-5.86-4.68-11.72-9.37-17.58-14.05-.34-1.67-.59-3.85-.4-6.38,.06-.85,.17-1.64,.3-2.36l-3.64-.12c.22,.92,.43,2.07,.51,3.42,.1,1.82-.09,3.36-.3,4.49-5.49,4.33-10.98,8.66-16.47,12.99l-10.91,.24c-.94-1.18-1.89-2.36-2.83-3.54-3.74-2.76-7.48-5.51-11.21-8.27-4.75,2.32-9.5,4.65-14.24,6.97l.21,1.36c-.43,.89-.85,1.79-1.28,2.68l-4.21-.25c.06-3.37,.12-6.74,.19-10.11,.21-.42,.53-1.17,.62-2.17,.12-1.3-.2-2.32-.38-2.78,1.06-.82,2.13-1.63,3.19-2.45l-3.09-.79c.03-1.09,.05-2.17,.08-3.26-.15-.27-.45-.9-.45-1.76,0-1.35,.76-2.22,.9-2.38-.37-.04-.96-.16-1.58-.53-.44-.26-1.7-1.01-1.63-2.01,.05-.76,.83-1.25,1.01-1.35l.11-6.39-3.44-.51c-.17,.65-.34,1.3-.51,1.95,.52,1.65,1.04,3.3,1.56,4.95l-1.66,.3c.41,.97,1.22,1.92,1.32,2.75-2.95-.65-6.94-1.55-9.89-2.2l-1.19-2.16c-.08-.76-.13-2.06,.25-3.55,.29-1.11,.71-1.95,1.05-2.5l-1.01-.55v-1.78l-.65-.42c.05-.78,.1-1.55,.14-2.33l-1.19,.13c-.15,.73-.4,1.65-.87,2.62-.24,.49-.48,.91-.72,1.27v5.75l-2.53,.25c-1.67-1.2-4.14-3.03-7.06-5.41-4.55-3.72-7.75-6.78-8.77-7.75-3.78-3.59-10.12-9.27-21.39-18.51-1.96-.51-3.92-1.02-5.88-1.53l-.98-2.83c-.03-2.42-.06-4.84-.09-7.27,.55-.54,1.09-1.08,1.64-1.61-3.17-.81-6.33-1.61-9.5-2.42l-3.63,1.31,.95,1.72c-.03,2.66-.06,5.32-.09,7.97-13.58-2.77-27.15-5.53-40.73-8.3v-2.28h0l-1.03-1.32v-7.33l1.54-2.04c-3.46-.88-6.92-1.76-10.39-2.65l-2.37,1.56,1.03,1.56c.03,2.93,.07,5.85,.1,8.78l-.93,1.2c-10.4-1.91-21-4.03-31.78-6.37-5.73-1.25-11.38-2.53-16.97-3.85l.03-2.43-1.12-1.01c.02-2.89,.04-5.77,.07-8.66l1.79-1.93c-4.19-1.13-8.38-2.27-12.56-3.4l-3.57,2.32,1.19,1.39-.13,10.59-10.12-1.86c-5,4.08-10.09,8.17-15.28,12.26-6.99,5.51-13.91,10.84-20.76,15.99-.72-.03-1.51-.37-2.23-.4-.16-.65-.25-.98-.41-1.63l-1.14,.04,1.11-1.3-.98-.57c.22-.77,.6-1.82,1.31-2.9,.42-.65,.86-1.15,1.24-1.53l.03-1.79-1.08-.73c.61-.27,.97-.91,.88-1.45-.1-.67-.83-.91-.95-.95-.76-.26-1.4,.26-1.5,.34h-2.15c-.01-.06-.28-1.16-1.18-1.45-.48-.16-1.21-.1-1.57,.5-.35,.58-.14,1.31-.1,1.45,.13,.47,.39,.75,.52,.88l-.98,.04v1.87l1.4,1.68c-.09,.12-.25,.35-.33,.69-.03,.14-.09,.39-.03,.61,.1,.39,.54,.66,1.08,.69-.05,.23-.1,.69,.03,1.22,.23,.88,.83,1.31,.98,1.41l-.03,1.07-1.08-.04-.98,1.53-2.62-.17c-2.66,1.52-6.76,2.94-9.42,4.46l.13-1.79c.16-.11,.58-.43,.83-1.07,.24-.61,.2-1.16,.18-1.38l-.66-.1v-2.4l1.14-.1c0-.18-.05-.89-.52-1.48-.57-.71-1.32-.72-1.44-.72l-.66-2.15-.7,1.94c-.5-.3-1.09-.26-1.53,.1-.54,.45-.61,1.17-.61,1.28l1.18,.61,.04,2.71-.83,.1c.04,.28,.12,.61,.26,.97,.37,.92,.95,1.44,1.27,1.69l.04,2.71-3.32,1.99-.09-1.74c.13-.03,.63-.14,1.01-.66,.42-.58,.4-1.24,.39-1.38l-.83,.05c-.08-.47-.2-1.43,.09-2.56,.23-.91,.62-1.54,.87-1.89l-1.57-.15-.61-2.4-.83,1.79-2.19,.2,1.14,1.84-.04,3.63,1.09,1.38-.04,2.35c-1.18,.89-2.71,1.35-3.89,2.24,.4-.99,.73-1.28,.87-1.78,.08-.26,.16-.52,.09-.82-.13-.57-.69-.86-.96-.97,.39-.1,.7-.42,.79-.82,.13-.59-.28-1.13-.66-1.33-.48-.26-1.09-.08-1.49,.46l-1.92-.05c-.04-.12-.25-.76-.83-1.02-.49-.22-1.19-.15-1.4,.31-.22,.46,.05,1.34,.83,1.84l-1.18,.36c-.04,.19-.09,.53,0,.92,.21,.89,.95,1.24,1.05,1.28l1.01,4.04c-1.49,.82-2.97,1.64-4.46,2.45l1.05,1.79,.04,4.25-.92,.56v1.28l-1.9,1.13"/><path class="i" d="M72.77,192.77c-.08-28.48,.1-49.73,.02-78.21,.06-6.89,.1-13.82,.11-20.79,0-2.3,0-4.6,0-6.89,6.74,.77,16.8,1.99,29.03,3.7,13.19,1.85,20.49,3.1,31.1,4.72,10.44,1.59,25.31,3.72,43.65,5.87,.39-.42,1.15-1.13,2.29-1.53,1.02-.36,1.89-.32,2.4-.26,25.83,3.83,51.65,7.65,77.48,11.48l2.84,.51c-.18,.05-1.9,.62-2.51,2.55-.54,1.71,.02,3.77,1.42,4.98l-2.04-.3,.16,38.73c-.14,.69,.05,1.4,.5,1.84,.62,.6,1.37,.36,1.43,.34,.05,14,.12,30.84,.17,44.84"/><path class="i" d="M324.3,122.06c-9.75-1.67-23.23-3.16-29.85-4.24-11.47-1.85-17.55-2.76-23.41-3.57-2.84-.39-9.64-1.29-11.26-1.5"/><line class="i" x1="72.77" y1="109.47" x2="42.96" y2="102.17"/><polygon class="i" points="97.37 148.88 86.11 148.27 87.04 124.8 98.31 125.41 97.37 148.88"/><polygon class="i" points="97.7 108.68 86.18 107.39 86.89 98.8 98.4 100.1 97.7 108.68"/><path class="i" d="M86.98,183.45c.04-5.97,0-12.28-.19-18.26,.78-.58,2.69-1.84,5.35-1.86,3.05-.03,5.2,1.59,5.93,2.2-.1,5.97-.19,11.95-.29,17.92h-11.33"/><line class="i" x1="92.32" y1="125.09" x2="92.2" y2="148.6"/><line class="i" x1="97.9" y1="135.73" x2="86.63" y2="134.99"/><line class="i" x1="89.79" y1="124.95" x2="89.1" y2="148.43"/><line class="i" x1="94.86" y1="125.22" x2="94.86" y2="148.75"/><line class="i" x1="97.77" y1="138.87" x2="86.51" y2="138.04"/><line class="i" x1="97.64" y1="142.11" x2="86.51" y2="141.49"/><line class="i" x1="97.54" y1="144.77" x2="86.51" y2="144.41"/><line class="i" x1="98.02" y1="132.54" x2="86.75" y2="131.98"/><line class="i" x1="98.14" y1="129.73" x2="86.88" y2="128.72"/><polygon class="i" points="121.57 150.64 110.9 150.05 111.78 127.65 122.45 128.24 121.57 150.64"/><line class="i" x1="116.79" y1="127.93" x2="116.67" y2="150.37"/><line class="i" x1="122.06" y1="138.08" x2="111.4" y2="137.38"/><line class="i" x1="114.39" y1="127.79" x2="113.73" y2="150.21"/><line class="i" x1="119.19" y1="128.06" x2="119.19" y2="150.51"/><line class="i" x1="121.95" y1="141.08" x2="111.28" y2="140.29"/><line class="i" x1="121.82" y1="144.17" x2="111.28" y2="143.57"/><line class="i" x1="121.72" y1="146.71" x2="111.28" y2="146.37"/><line class="i" x1="122.18" y1="135.04" x2="111.51" y2="134.51"/><line class="i" x1="122.29" y1="132.36" x2="111.63" y2="131.39"/><polygon class="i" points="147.1 152.29 136.79 151.75 137.65 130.99 147.96 131.54 147.1 152.29"/><line class="i" x1="142.48" y1="131.25" x2="142.37" y2="152.04"/><line class="i" x1="147.58" y1="140.66" x2="137.28" y2="140.01"/><line class="i" x1="140.16" y1="131.13" x2="139.53" y2="151.89"/><line class="i" x1="144.8" y1="131.37" x2="144.8" y2="152.17"/><line class="i" x1="147.47" y1="143.44" x2="137.16" y2="142.7"/><line class="i" x1="147.35" y1="146.3" x2="137.16" y2="145.75"/><line class="i" x1="147.25" y1="148.65" x2="137.16" y2="148.34"/><line class="i" x1="147.7" y1="137.84" x2="137.39" y2="137.34"/><line class="i" x1="147.8" y1="135.36" x2="137.5" y2="134.46"/><polygon class="i" points="170.91 153.84 161.09 153.29 161.91 132.39 171.73 132.93 170.91 153.84"/><line class="i" x1="166.51" y1="132.64" x2="166.41" y2="153.59"/><line class="i" x1="171.37" y1="142.12" x2="161.55" y2="141.47"/><line class="i" x1="164.31" y1="132.52" x2="163.7" y2="153.44"/><line class="i" x1="168.73" y1="132.76" x2="168.73" y2="153.71"/><line class="i" x1="171.26" y1="144.92" x2="161.45" y2="144.18"/><line class="i" x1="171.15" y1="147.81" x2="161.45" y2="147.25"/><line class="i" x1="171.06" y1="150.17" x2="161.45" y2="149.85"/><line class="i" x1="171.48" y1="139.28" x2="161.66" y2="138.78"/><line class="i" x1="171.58" y1="136.78" x2="161.77" y2="135.87"/><line class="i" x1="92.15" y1="99.76" x2="92.15" y2="108.06"/><line class="i" x1="89.18" y1="99.06" x2="89.05" y2="107.71"/><line class="i" x1="94.8" y1="100.18" x2="94.8" y2="108.35"/><line class="i" x1="97.71" y1="105.49" x2="86.78" y2="104.27"/><line class="i" x1="98.17" y1="102.92" x2="86.65" y2="101.7"/><polygon class="i" points="121.11 111.68 110.46 110.49 111.11 102.55 121.76 103.75 121.11 111.68"/><line class="i" x1="115.97" y1="103.44" x2="115.97" y2="111.11"/><line class="i" x1="113.23" y1="102.79" x2="113.11" y2="110.79"/><line class="i" x1="118.43" y1="103.83" x2="118.43" y2="111.38"/><line class="i" x1="121.11" y1="108.73" x2="111.01" y2="107.61"/><line class="i" x1="121.54" y1="106.36" x2="110.89" y2="105.23"/><polygon class="i" points="147.39 115.4 137.06 114.16 137.69 105.94 148.03 107.18 147.39 115.4"/><line class="i" x1="142.41" y1="106.86" x2="142.41" y2="114.8"/><line class="i" x1="139.75" y1="106.19" x2="139.63" y2="114.47"/><line class="i" x1="144.8" y1="107.26" x2="144.8" y2="115.09"/><line class="i" x1="147.4" y1="112.34" x2="137.59" y2="111.17"/><line class="i" x1="147.82" y1="109.89" x2="137.47" y2="108.72"/><polygon class="i" points="170.64 117.78 160.68 116.63 161.29 109.01 171.25 110.16 170.64 117.78"/><line class="i" x1="165.84" y1="109.86" x2="165.84" y2="117.23"/><line class="i" x1="163.27" y1="109.24" x2="163.16" y2="116.92"/><line class="i" x1="168.14" y1="110.24" x2="168.14" y2="117.49"/><line class="i" x1="170.65" y1="114.95" x2="161.2" y2="113.86"/><line class="i" x1="171.05" y1="112.67" x2="161.08" y2="111.59"/><line class="i" x1="92.15" y1="163.33" x2="92.27" y2="183.45"/><line class="i" x1="87.26" y1="173.69" x2="98.08" y2="173.96"/><line class="i" x1="89.67" y1="164.17" x2="89.84" y2="183.45"/><line class="i" x1="95.27" y1="163.89" x2="95.46" y2="183.45"/><line class="i" x1="97.84" y1="180.46" x2="87" y2="180.26"/><line class="i" x1="97.88" y1="177.51" x2="87" y2="177.38"/><line class="i" x1="97.99" y1="170.74" x2="86.93" y2="170.48"/><line class="i" x1="98.08" y1="167.99" x2="86.87" y2="167.73"/><path class="i" d="M138.95,185.37c.04-5.49,0-11.3-.17-16.79,.73-.53,2.51-1.69,4.99-1.71,2.85-.02,4.85,1.46,5.53,2.02-.09,5.49-.18,10.99-.27,16.48h-10.58"/><line class="i" x1="143.77" y1="166.87" x2="143.88" y2="185.37"/><line class="i" x1="139.2" y1="176.4" x2="149.3" y2="176.65"/><line class="i" x1="141.45" y1="167.64" x2="141.61" y2="185.37"/><line class="i" x1="146.68" y1="167.39" x2="146.86" y2="185.37"/><line class="i" x1="149.07" y1="182.63" x2="138.96" y2="182.44"/><line class="i" x1="149.12" y1="179.92" x2="138.96" y2="179.79"/><line class="i" x1="149.22" y1="173.69" x2="138.9" y2="173.44"/><line class="i" x1="149.3" y1="171.16" x2="138.84" y2="170.92"/><path class="i" d="M111.67,184.49c.04-5.69,0-11.71-.18-17.4,.74-.55,2.56-1.75,5.08-1.77,2.9-.03,4.94,1.52,5.63,2.09-.09,5.69-.18,11.39-.27,17.08h-10.77"/><line class="i" x1="116.57" y1="165.31" x2="116.69" y2="184.49"/><line class="i" x1="111.93" y1="175.18" x2="122.21" y2="175.44"/><line class="i" x1="114.22" y1="166.11" x2="114.38" y2="184.49"/><line class="i" x1="119.54" y1="165.85" x2="119.72" y2="184.49"/><line class="i" x1="121.98" y1="181.64" x2="111.68" y2="181.45"/><line class="i" x1="122.02" y1="178.83" x2="111.68" y2="178.7"/><line class="i" x1="122.13" y1="172.37" x2="111.62" y2="172.12"/><line class="i" x1="122.21" y1="169.75" x2="111.56" y2="169.5"/><path class="i" d="M160.92,185.57c.04-5.07,0-10.42-.15-15.49,.65-.49,2.23-1.56,4.44-1.58,2.53-.02,4.32,1.35,4.92,1.86-.08,5.07-.16,10.14-.24,15.2h-9.41"/><line class="i" x1="165.21" y1="168.5" x2="165.3" y2="185.57"/><line class="i" x1="161.15" y1="177.29" x2="170.13" y2="177.52"/><line class="i" x1="163.15" y1="169.22" x2="163.29" y2="185.57"/><line class="i" x1="167.8" y1="168.98" x2="167.95" y2="185.57"/><line class="i" x1="169.93" y1="183.04" x2="160.93" y2="182.87"/><line class="i" x1="169.97" y1="180.54" x2="160.93" y2="180.42"/><line class="i" x1="170.06" y1="174.79" x2="160.87" y2="174.57"/><line class="i" x1="170.13" y1="172.46" x2="160.82" y2="172.24"/><rect class="i" x="86.45" y="193.74" width="11.62" height="6.39"/><line class="i" x1="92.21" y1="193.74" x2="92.27" y2="200.14"/><line class="i" x1="89.33" y1="193.74" x2="89.33" y2="200.14"/><line class="i" x1="95.36" y1="193.74" x2="95.36" y2="200.14"/><line class="i" x1="98.08" y1="196.94" x2="86.45" y2="196.94"/><rect class="i" x="111.81" y="194.35" width="10.52" height="5.79"/><line class="i" x1="117.01" y1="194.35" x2="117.07" y2="200.14"/><line class="i" x1="114.41" y1="194.35" x2="114.41" y2="200.14"/><line class="i" x1="119.87" y1="194.35" x2="119.87" y2="200.14"/><line class="i" x1="122.33" y1="197.24" x2="111.81" y2="197.24"/><rect class="i" x="139.72" y="195.03" width="10.22" height="5.39"/><line class="i" x1="144.78" y1="195.03" x2="144.83" y2="200.42"/><line class="i" x1="142.25" y1="195.03" x2="142.25" y2="200.42"/><line class="i" x1="147.55" y1="195.03" x2="147.55" y2="200.42"/><line class="i" x1="149.93" y1="197.72" x2="139.72" y2="197.72"/><rect class="i" x="160.88" y="195.14" width="9.65" height="5.17"/><line class="i" x1="165.65" y1="195.14" x2="165.7" y2="200.31"/><line class="i" x1="163.26" y1="195.14" x2="163.26" y2="200.31"/><line class="i" x1="168.27" y1="195.14" x2="168.27" y2="200.31"/><line class="i" x1="170.52" y1="197.72" x2="160.88" y2="197.72"/><path class="i" d="M189.97,200.73c-.06-9.01,.16-19.11,.11-28.13,.28-.39,1.94-2.68,4.8-2.9,3.19-.25,5.23,2.28,5.48,2.6v27.84c-2.66-.07-8.22,.07-10.88,0"/><path class="i" d="M190.08,173.74c.31,.31,1.98,1.66,2.61,2.01,.44,.24,1.37,.74,2.58,.71,1.61-.04,4.66-2.31,5.08-2.71"/><line class="i" x1="195.22" y1="200.13" x2="195.27" y2="176.46"/><path class="i" d="M244.22,200.88c-.05-8.32,.14-17.66,.09-25.98,.23-.36,1.62-2.48,4-2.68,2.66-.23,4.36,2.88,4.57,3.18v24.93c-2.22-.06-6.86,.06-9.08,0"/><path class="i" d="M244.31,176.28c.28,.29,1.42,1.32,1.99,1.65,.4,.23,1.23,.7,2.31,.67,1.44-.04,3.88-1.93,4.27-2.31"/><line class="i" x1="248.02" y1="200.89" x2="248.07" y2="178.59"/><path class="i" d="M186.36,153.23c-.04-7.6-.07-15.2-.11-22.8,.41-3.16,2.56-5.53,5.04-5.76,2.91-.27,5.72,2.46,6,6.26l.11,23.8"/><line class="i" x1="186.25" y1="130.43" x2="197.3" y2="131.76"/><line class="i" x1="191.77" y1="154.86" x2="191.77" y2="131.1"/><line class="i" x1="197.4" y1="144.9" x2="186.25" y2="144.01"/><line class="i" x1="188.74" y1="131.1" x2="188.89" y2="154.74"/><line class="i" x1="194.41" y1="131.42" x2="194.48" y2="154.74"/><line class="i" x1="197.31" y1="135.42" x2="186.27" y2="134.57"/><line class="i" x1="197.33" y1="138.64" x2="186.29" y2="137.63"/><line class="i" x1="197.34" y1="141.36" x2="186.3" y2="140.51"/><line class="i" x1="197.4" y1="148.29" x2="186.33" y2="147.56"/><line class="i" x1="197.38" y1="151.55" x2="186.35" y2="150.78"/><path class="i" d="M188.54,130.71c.07-.28,.44-1.82,.75-2.24,.81-1.1,2.04-1.1,2.28-1.1,.32,0,1.11,.01,1.86,.69,.84,.76,.94,3.1,.99,3.37"/><line class="i" x1="191.48" y1="130.45" x2="187.61" y2="126.94"/><line class="i" x1="189.27" y1="125.37" x2="191.77" y2="131.1"/><line class="i" x1="191.77" y1="124.65" x2="191.77" y2="131.1"/><line class="i" x1="194.41" y1="125.54" x2="191.77" y2="131.1"/><line class="i" x1="196.23" y1="127.52" x2="191.77" y2="131.1"/><path class="i" d="M214.02,156c-.03-7.5-.07-15.01-.1-22.51,.38-3.12,2.37-5.46,4.65-5.69,2.68-.27,5.28,2.43,5.54,6.18l.1,23.5"/><line class="i" x1="213.92" y1="133.49" x2="224.12" y2="134.81"/><line class="i" x1="219.02" y1="156.86" x2="219.02" y2="134.15"/><line class="i" x1="224.22" y1="147.77" x2="213.92" y2="146.89"/><line class="i" x1="216.22" y1="134.15" x2="216.35" y2="156.86"/><line class="i" x1="221.46" y1="134.46" x2="221.51" y2="157.13"/><line class="i" x1="224.14" y1="138.41" x2="213.94" y2="137.57"/><line class="i" x1="224.15" y1="141.6" x2="213.95" y2="140.59"/><line class="i" x1="224.16" y1="144.28" x2="213.97" y2="143.44"/><line class="i" x1="224.22" y1="151.12" x2="214" y2="150.4"/><line class="i" x1="224.2" y1="154.34" x2="214.01" y2="153.58"/><path class="i" d="M216.03,133.76c.06-.27,.41-1.79,.69-2.21,.75-1.09,1.88-1.09,2.11-1.09,.29,0,1.03,.01,1.71,.68,.78,.75,.87,3.06,.91,3.32"/><line class="i" x1="218.75" y1="133.51" x2="215.17" y2="130.04"/><line class="i" x1="216.7" y1="128.49" x2="219.02" y2="134.15"/><line class="i" x1="219.02" y1="127.78" x2="219.02" y2="134.15"/><line class="i" x1="221.46" y1="128.67" x2="219.02" y2="134.15"/><line class="i" x1="223.14" y1="130.62" x2="219.02" y2="134.15"/><path class="i" d="M239.71,158.04c-.03-7.39-.06-14.08-.09-21.48,.37-3.07,2.34-5.38,4.61-5.6,2.66-.26,5.23,2.39,5.49,6.09l.1,23.15"/><line class="i" x1="239.62" y1="136.57" x2="249.72" y2="137.86"/><line class="i" x1="244.67" y1="159.59" x2="244.67" y2="137.22"/><line class="i" x1="249.81" y1="150.64" x2="239.62" y2="149.77"/><line class="i" x1="241.89" y1="137.22" x2="242.02" y2="159.59"/><line class="i" x1="247.08" y1="137.53" x2="247.14" y2="159.77"/><line class="i" x1="249.73" y1="141.42" x2="239.63" y2="140.59"/><line class="i" x1="249.74" y1="144.55" x2="239.65" y2="143.56"/><line class="i" x1="249.76" y1="147.2" x2="239.66" y2="146.37"/><line class="i" x1="249.81" y1="153.94" x2="239.69" y2="153.23"/><line class="i" x1="249.8" y1="157.11" x2="239.7" y2="156.36"/><path class="i" d="M241.71,136.84c.06-.27,.4-1.77,.69-2.18,.74-1.07,1.86-1.07,2.08-1.07,.29,0,1.02,.01,1.7,.67,.77,.74,.86,3.01,.9,3.27"/><line class="i" x1="244.39" y1="136.59" x2="240.86" y2="133.17"/><line class="i" x1="242.37" y1="131.65" x2="244.67" y2="137.22"/><line class="i" x1="244.67" y1="130.95" x2="244.67" y2="137.22"/><line class="i" x1="247.08" y1="131.82" x2="244.67" y2="137.22"/><line class="i" x1="248.74" y1="133.74" x2="244.67" y2="137.22"/><path class="i" d="M216.2,201.09v-25.86c.98-2.92,3.26-4.95,5.86-5.2,2.93-.28,5.76,1.77,6.94,5.07,.07,8.66,.14,17.33,.22,25.99h-13.01"/><line class="i" x1="216.28" y1="177.79" x2="229.02" y2="178.09"/><line class="i" x1="222.71" y1="201.09" x2="222.65" y2="177.94"/><path class="i" d="M258.56,118.6c-25.2-3.56-51.76-7.72-76.96-11.28-.98,.27-1.97,.54-2.95,.8-5.93-.76-14.36-1.85-24.48-3.22-8.25-1.11-16.29-2.23-32.15-4.48-11.62-1.65-27.06-3.86-45.52-6.55l-1.28,.23c-.39-.06-1.92-.27-2.31-.33"/><line class="i" x1="180.56" y1="204.26" x2="180.76" y2="161.93"/><line class="i" x1="260.79" y1="166.3" x2="180.76" y2="161.93"/><line class="i" x1="176.68" y1="161.93" x2="180.76" y2="161.93"/><line class="i" x1="73.37" y1="155.41" x2="75.87" y2="155.28"/><line class="i" x1="176.68" y1="161.93" x2="75.87" y2="155.28"/><line class="i" x1="67.98" y1="160.09" x2="86.45" y2="160.47"/><line class="i" x1="84.86" y1="163.33" x2="68.02" y2="163.33"/><line class="i" x1="84.86" y1="166.87" x2="68.02" y2="166.6"/><line class="i" x1="84.86" y1="169.63" x2="68.02" y2="169.63"/><line class="i" x1="84.86" y1="172.35" x2="68.02" y2="172.21"/><line class="i" x1="84.86" y1="175.31" x2="68.02" y2="175.31"/><line class="i" x1="84.79" y1="178.43" x2="68.02" y2="178.76"/><line class="i" x1="84.86" y1="181.48" x2="68.02" y2="181.48"/><line class="i" x1="84.86" y1="184.49" x2="68.02" y2="184.49"/><line class="i" x1="84.86" y1="187.2" x2="67.98" y2="187.02"/><line class="i" x1="84.86" y1="190.13" x2="68.02" y2="190.13"/><line class="i" x1="110.23" y1="190.13" x2="101.02" y2="190.13"/><line class="i" x1="110.23" y1="187.6" x2="100.56" y2="187.74"/><line class="i" x1="110.33" y1="184.89" x2="100.67" y2="184.89"/><line class="i" x1="110.12" y1="182.09" x2="100.45" y2="182.09"/><line class="i" x1="110.23" y1="178.76" x2="100.56" y2="178.76"/><line class="i" x1="110.23" y1="176.39" x2="100.56" y2="176.11"/><line class="i" x1="110.23" y1="173.57" x2="100.37" y2="173.38"/><line class="i" x1="110.23" y1="170.61" x2="100.26" y2="170.61"/><line class="i" x1="110.23" y1="167.86" x2="100.26" y2="167.86"/><line class="i" x1="111.32" y1="164.61" x2="100.21" y2="164.46"/><line class="i" x1="149.3" y1="191.44" x2="124.22" y2="191.07"/><line class="i" x1="136.83" y1="188.27" x2="124.22" y2="188.27"/><line class="i" x1="136.79" y1="185.37" x2="124.37" y2="185.37"/><line class="i" x1="136.79" y1="182.53" x2="124.22" y2="182.53"/><line class="i" x1="136.86" y1="179.85" x2="124.37" y2="179.85"/><line class="i" x1="136.86" y1="177.46" x2="124.22" y2="177.24"/><line class="i" x1="136.87" y1="174.24" x2="124.37" y2="174.24"/><line class="i" x1="136.88" y1="171.64" x2="124.37" y2="171.45"/><line class="i" x1="136.83" y1="169" x2="124.15" y2="169.07"/><line class="i" x1="138.38" y1="165.96" x2="124.18" y2="165.99"/><path class="i" d="M137.8,162.04l-.07,1.29h-12.94"/><line class="i" x1="123.28" y1="162.61" x2="125.02" y2="162.61"/><line class="i" x1="123.28" y1="161.05" x2="123.28" y2="162.61"/><line class="i" x1="111.17" y1="160.57" x2="123.28" y2="161.05"/><line class="i" x1="111.55" y1="162.13" x2="111.6" y2="160.59"/><line class="i" x1="99.16" y1="161.36" x2="111.55" y2="162.13"/><line class="i" x1="98.95" y1="159.74" x2="99.16" y2="161.36"/><line class="i" x1="86.45" y1="159.14" x2="99.36" y2="159.56"/><line class="i" x1="86.45" y1="160.47" x2="86.45" y2="159.14"/><path class="i" d="M84.86,199.31v-35.98c1.24-.73,3.9-2.05,7.42-1.9,3.96,.17,6.78,2.12,7.93,3.03,.16,12.55,.64,26.4,.8,38.95"/><path class="i" d="M110.23,203.41v-37.94c.89-.71,3.23-2.38,6.53-2.43,3.92-.05,6.62,2.22,7.42,2.95,.17,11.91-.2,25.69-.03,37.6"/><path class="i" d="M136.79,203.9c.03-11.08,.07-26,.1-37.08,1.09-.72,2.91-1.71,5.31-1.99,4.08-.47,8.17,2.24,9.31,3.03-.09,11.47,.17,25.17,.07,36.04"/><path class="i" d="M158.85,204c.22-11.34,.13-25.4,.53-36.27,1-.6,3.26-1.75,6.28-1.59,2.97,.16,5.1,1.52,6.05,2.21,.03,10.99,.05,24.83,.08,35.82"/><line class="i" x1="137.8" y1="162.04" x2="150.88" y2="162.69"/><line class="i" x1="150.77" y1="164.22" x2="150.88" y2="162.69"/><line class="i" x1="159.31" y1="164.77" x2="150.77" y2="164.22"/><line class="i" x1="159.42" y1="163.45" x2="159.31" y2="164.77"/><line class="i" x1="171.78" y1="164.11" x2="159.42" y2="163.45"/><line class="i" x1="171.78" y1="165.46" x2="171.78" y2="164.11"/><line class="i" x1="189.17" y1="165.97" x2="171.78" y2="165.46"/><line class="i" x1="188.61" y1="168.63" x2="171.71" y2="168.35"/><line class="i" x1="189" y1="171.04" x2="171.78" y2="171.04"/><line class="i" x1="188.15" y1="173.74" x2="171.78" y2="173.74"/><line class="i" x1="188.15" y1="176.12" x2="171.78" y2="176.12"/><line class="i" x1="188.15" y1="178.6" x2="171.78" y2="178.6"/><line class="i" x1="188.14" y1="181.48" x2="171.78" y2="181.51"/><line class="i" x1="188.14" y1="183.92" x2="171.78" y2="183.92"/><line class="i" x1="188.03" y1="186.66" x2="171.75" y2="186.57"/><line class="i" x1="188.12" y1="189.56" x2="171.75" y2="189.21"/><line class="i" x1="188.11" y1="192.06" x2="148.82" y2="191.43"/><line class="i" x1="188.1" y1="195.03" x2="171.78" y2="195.03"/><line class="i" x1="188.1" y1="197.72" x2="171.77" y2="197.72"/><line class="i" x1="216.2" y1="192.61" x2="202.17" y2="192.52"/><line class="i" x1="216.2" y1="190.02" x2="202.17" y2="189.86"/><line class="i" x1="216.2" y1="187.68" x2="202.14" y2="187.34"/><line class="i" x1="216.2" y1="185.14" x2="202.17" y2="185.14"/><line class="i" x1="216.2" y1="182.59" x2="202.17" y2="182.34"/><line class="i" x1="216.2" y1="180.01" x2="202.17" y2="179.76"/><line class="i" x1="216.28" y1="177.79" x2="202.17" y2="177.38"/><line class="i" x1="216.2" y1="175.22" x2="202.17" y2="174.64"/><line class="i" x1="217.01" y1="173.46" x2="216.2" y2="172.35"/><line class="i" x1="202.1" y1="172.3" x2="216.2" y2="172.35"/><line class="i" x1="218.07" y1="171.57" x2="216.61" y2="170"/><line class="i" x1="203.02" y1="169.97" x2="216.61" y2="169.97"/><line class="i" x1="220.35" y1="170" x2="218.47" y2="167.34"/><line class="i" x1="201.61" y1="166.79" x2="218.47" y2="167.34"/><path class="i" d="M188.13,201.79c-.07-9.27,.07-19.71,0-28.99,1.25-3.31,4.04-5.45,7.09-5.45,2.88,0,5.54,1.92,6.88,4.94,.02,9.83,.05,19.66,.07,29.49h-14.05"/><line class="i" x1="160.07" y1="167.36" x2="150.82" y2="167.36"/><line class="i" x1="159.37" y1="169.68" x2="151.6" y2="169.68"/><line class="i" x1="159.24" y1="172.66" x2="151.6" y2="172.66"/><line class="i" x1="158.85" y1="175.5" x2="151.49" y2="175.41"/><line class="i" x1="158.85" y1="178.18" x2="151.6" y2="178.09"/><line class="i" x1="159.24" y1="180.93" x2="151.6" y2="180.77"/><line class="i" x1="158.85" y1="183.63" x2="151.53" y2="183.53"/><line class="i" x1="159.05" y1="186.24" x2="151.6" y2="186.15"/><line class="i" x1="159.03" y1="188.93" x2="151.6" y2="188.83"/><line class="i" x1="242.38" y1="193.17" x2="229.21" y2="193.06"/><line class="i" x1="242.35" y1="190.77" x2="229.21" y2="190.67"/><line class="i" x1="242.32" y1="188.3" x2="229.11" y2="188.3"/><line class="i" x1="242.03" y1="186.07" x2="229.09" y2="186.18"/><line class="i" x1="242.27" y1="183.95" x2="229.11" y2="183.44"/><line class="i" x1="242.03" y1="181.48" x2="229.21" y2="181.23"/><line class="i" x1="242.03" y1="178.59" x2="229.02" y2="178.09"/><line class="i" x1="242.03" y1="176.46" x2="229.21" y2="176.09"/><line class="i" x1="242.54" y1="174" x2="228.63" y2="173.74"/><line class="i" x1="242.03" y1="171.5" x2="229.21" y2="171.04"/><line class="i" x1="243.41" y1="169.29" x2="229.21" y2="168.67"/><line class="i" x1="227.85" y1="172.9" x2="229.21" y2="171.04"/><line class="i" x1="226.63" y1="171.27" x2="229.21" y2="168.67"/><line class="i" x1="192.28" y1="168.05" x2="189.17" y2="165.97"/><line class="i" x1="198.89" y1="168.46" x2="201.61" y2="166.79"/><line class="i" x1="216.2" y1="195.59" x2="202.17" y2="195.46"/><line class="i" x1="216.2" y1="198.4" x2="202.16" y2="198.27"/><line class="i" x1="201.42" y1="171.04" x2="203.02" y2="169.97"/><line class="i" x1="189.8" y1="169.97" x2="188.61" y2="168.63"/><path class="i" d="M242.41,201.87c.06-8.67-.23-18.23-.17-26.9,.8-3.21,3.33-5.39,6.09-5.3,2.51,.07,5.23,2.62,6.1,5.47,.11,9.08-.11,17.94,0,27.02-3.92-.05-8.13,0-12.02-.28"/><line class="i" x1="260.79" y1="193.53" x2="254.46" y2="193.53"/><line class="i" x1="260.78" y1="191.33" x2="254.41" y2="191.26"/><line class="i" x1="260.79" y1="189.14" x2="254.42" y2="189.07"/><line class="i" x1="260.76" y1="186.83" x2="254.44" y2="186.83"/><line class="i" x1="260.75" y1="184.19" x2="254.46" y2="184.12"/><line class="i" x1="260.79" y1="181.92" x2="254.46" y2="181.92"/><line class="i" x1="260.79" y1="179.45" x2="254.46" y2="179.45"/><line class="i" x1="260.72" y1="177.31" x2="254.44" y2="177.31"/><line class="i" x1="260.76" y1="175.24" x2="254.43" y2="175.13"/><line class="i" x1="260.72" y1="172.66" x2="255.1" y2="172.59"/><line class="i" x1="260.69" y1="170" x2="254.97" y2="170"/><line class="i" x1="243.23" y1="172.62" x2="242.03" y2="171.5"/><line class="i" x1="244.92" y1="170.78" x2="243.41" y2="169.29"/><line class="i" x1="255.1" y1="172.59" x2="254.02" y2="174.09"/><line class="i" x1="254.97" y1="170" x2="252.9" y2="172.32"/><line class="i" x1="175.95" y1="107.77" x2="175.19" y2="161.83"/><path class="i" d="M101.36,156.96c-.15-.92-.63-5.15-.5-6.65,.17-2.02,.73-3.57,1.15-4.54l.14-44.19c-.1,0-.9-.1-1.39-.94-.49-.83,.1-3.13,.13-3.25"/><path class="i" d="M109.37,98.81c.04,.12,.39,2.26,.13,2.91-.25,.64-.86,1.05-1.53,1-.02,14.41-.05,28.83-.07,43.24,.46,.88,1.2,2.58,1.38,4.89,.14,1.85-.54,5.66-.78,6.58"/><path class="i" d="M124.21,100.73c-.04,.18-.45,2.6-.18,3.27,.41,1,1.35,1.17,1.44,1.18,.09,14.3,.18,28.59,.27,42.89-.35,.59-.72,1.35-1.01,2.3-.72,2.38-.13,6.86,.07,7.95"/><path class="i" d="M132.63,102.31c.03,.09,.65,2.27,.25,2.98-.36,.62-1.06,.91-1.74,.69,.08,13.98,.15,27.97,.23,41.95,.49,.55,1.22,1.54,1.74,2.99,.71,2.01,.19,7.28,.09,8.13"/><path class="i" d="M151.13,104.8s-.61,1.59-.33,2.12c.24,.46,.77,.67,1.29,.48,.07-.03,.14,.11,.14,.11-.08,15.07-.16,30.15-.24,45.22-.26,.13-1.2,.62-1.73,1.86-.7,1.63,.48,5.42,.57,5.64"/><path class="i" d="M159.15,105.57c.04,.14,.46,1.9,.24,2.31-.22,.41-.77,.62-1.36,.45-.26-.08-.51,.13-.51,.44l.17,44.75c.32,.18,.9,.58,1.31,1.38,.89,1.73-.11,4.87-.48,5.84"/><line class="i" x1="76.03" y1="148.95" x2="175.27" y2="156.15"/><line class="i" x1="72.9" y1="148.95" x2="76.03" y2="148.95"/><path class="i" d="M75.87,155.28c-.06-.46-.76-7.49-.67-8.18,.18-1.41,.91-4.7,1.24-5.18,.09-14.44-.38-27.71-.29-42.15-.95-.04-1.03-2.13-.94-2.94,.06-.58,1.31-2.7,1.9-2.87"/><path class="i" d="M84.01,155.82c.07-.58,.6-10.05,.39-11.14-.22-1.2-.66-2.08-.96-2.59-.1-13.89-.2-27.78-.3-41.67,.1,.01,.95,.09,1.48-.6,.54-.71,.12-3.95-.55-4.85"/><path class="i" d="M207.39,114.59c.04,12.87,.07,25.75,.11,38.62h1.63c.22-12.79,.43-25.58,.65-38.37-.41-.03-1.98-.22-2.39-.25"/><path class="i" d="M203.22,155.19c.12-13.19-.12-27.85,0-41.04l-1.4-3.91"/><line class="i" x1="203.22" y1="155.19" x2="187.56" y2="154.74"/><line class="i" x1="216.21" y1="158.95" x2="203.39" y2="157.83"/><line class="i" x1="216.03" y1="164.08" x2="216.03" y2="156.01"/><line class="i" x1="203.22" y1="155.19" x2="216.03" y2="156.01"/><line class="i" x1="203.22" y1="163.3" x2="203.22" y2="155.19"/><path class="i" d="M216.96,112.49c-.75,.6-2.41,2.37-3.16,2.97,.02,4.78,.1,13.25,.12,18.03"/><line class="i" x1="187.56" y1="154.74" x2="186.25" y2="152.29"/><line class="i" x1="187.67" y1="162.05" x2="187.56" y2="154.74"/><line class="i" x1="234.3" y1="155.6" x2="234.3" y2="118.19"/><line class="i" x1="235.64" y1="155.6" x2="235.64" y2="118.19"/><line class="i" x1="233.87" y1="118.19" x2="236.13" y2="118.19"/><line class="i" x1="235.9" y1="155.6" x2="234.04" y2="155.6"/><path class="i" d="M230.11,164.94c-.03-2.51-.06-5.02-.09-7.53,2.84,.07,8.84,.57,11.68,.64"/><line class="i" x1="216.35" y1="156.86" x2="230.02" y2="157.4"/><line class="i" x1="242.02" y1="159.59" x2="255.03" y2="160.06"/><line class="i" x1="254.44" y1="166.42" x2="254.56" y2="160.04"/><line class="i" x1="241.98" y1="165.66" x2="241.71" y2="158.04"/><path class="i" d="M230.02,157.4c.22-12.47,.09-27.23,.31-39.7-.6-.76-1.71-2.81-2.31-3.57"/><path class="i" d="M239.62,136.57c.05-4.3,.16-12.95,.21-17.25,.6-.47,1.68-2.62,2.27-3.1"/><path class="i" d="M186.26,131.1c-.06-4.35-.13-14.62-.19-18.97,1.15-1.29,1.78-2.26,2.74-3.78"/><path class="i" d="M177.06,161.7c.09-1.72,.18-5.14,.27-6.86,.45-.95,.9-1.9,1.35-2.84,.03-13.27,.06-26.53,.09-39.8l-.72-1.16c0-.53,.08-2.16,.08-2.69"/><path class="i" d="M251.44,159.93c.29-.52,.93-2.35,1.22-2.87l.06-35.08c-.52-1.11-1.5-3.4-2.02-4.5"/><line class="i" x1="241.84" y1="160.61" x2="230.33" y2="160.04"/><line class="i" x1="180.66" y1="156.01" x2="188.1" y2="156.36"/><line class="i" x1="177.58" y1="156.71" x2="180.66" y2="156.01"/><line class="i" x1="186.25" y1="152.29" x2="178.68" y2="151.99"/><line class="i" x1="242.32" y1="195.53" x2="229.21" y2="195.53"/><line class="i" x1="260.65" y1="195.8" x2="254.41" y2="195.8"/><line class="i" x1="242.23" y1="198.33" x2="229.46" y2="198.33"/><line class="i" x1="260.8" y1="198.33" x2="254.44" y2="198.33"/><line class="i" x1="101.02" y1="190.13" x2="84.86" y2="190.13"/><line class="i" x1="124.22" y1="191.07" x2="110.23" y2="190.13"/><line class="i" x1="178.65" y1="108.12" x2="178.77" y2="99.93"/><line class="i" x1="72.9" y1="86.88" x2="42.96" y2="100.12"/><line class="i" x1="256.9" y1="77.75" x2="257.19" y2="74.35"/><line class="i" x1="248.06" y1="76.05" x2="256.9" y2="77.75"/><line class="i" x1="245.51" y1="71.22" x2="248.06" y2="76.05"/><line class="i" x1="204.63" y1="66.7" x2="204.79" y2="62.92"/><line class="i" x1="195.87" y1="64.81" x2="204.63" y2="66.7"/><line class="i" x1="192.75" y1="60.4" x2="195.87" y2="64.81"/><line class="i" x1="182.47" y1="90.13" x2="83.53" y2="73.45"/><line class="i" x1="258.56" y1="102.31" x2="181.41" y2="89.83"/><line class="i" x1="307.02" y1="110.81" x2="259.47" y2="103.8"/><line class="i" x1="259.87" y1="104.34" x2="258.27" y2="102.22"/><polygon class="i" points="268.66 129.98 261.63 129.8 261.76 122.82 268.79 123 268.66 129.98"/><polygon class="i" points="268.14 161.25 261.53 161.08 261.86 143.37 268.47 143.54 268.14 161.25"/><path class="i" d="M261.7,189.11c2.22,.03,4.82,.05,7.03,.08,.06-4.95,.11-9.9,.17-14.85-.64-.41-1.81-1.04-3.37-1.18-1.74-.16-3.09,.36-3.79,.69,.03,4.49-.08,10.77-.05,15.26"/><rect class="i" x="324.4" y="150.01" width="6.95" height="16.17"/><path class="i" d="M324.36,190.71c.06-4.24,.11-8.67,.16-12.91,.6-.29,1.56-.65,2.78-.66,1.44-.01,2.57,.47,3.19,.81,.13,4.29,.19,8.46,.12,12.68-1.7-.03-4.55-.07-6.25-.1"/><line class="i" x1="327.87" y1="150.01" x2="327.87" y2="166.18"/><line class="i" x1="331.35" y1="156.8" x2="324.4" y2="156.73"/><line class="i" x1="326.16" y1="150.01" x2="326.23" y2="166.18"/><line class="i" x1="329.53" y1="150.01" x2="329.47" y2="166.18"/><line class="i" x1="331.35" y1="159.17" x2="324.4" y2="159.09"/><line class="i" x1="331.35" y1="161.54" x2="324.4" y2="161.38"/><line class="i" x1="331.35" y1="163.51" x2="324.4" y2="163.59"/><line class="i" x1="331.35" y1="154.6" x2="324.4" y2="154.6"/><line class="i" x1="331.35" y1="152.39" x2="324.4" y2="152.39"/><line class="i" x1="327.5" y1="190.63" x2="327.65" y2="177.15"/><line class="i" x1="330.64" y1="184.26" x2="324.44" y2="184.12"/><line class="i" x1="326.12" y1="177.26" x2="326.09" y2="190.56"/><line class="i" x1="329.07" y1="177.38" x2="329.12" y2="190.85"/><line class="i" x1="330.64" y1="186.45" x2="324.41" y2="186.32"/><line class="i" x1="330.64" y1="188.4" x2="324.39" y2="188.32"/><line class="i" x1="330.59" y1="181.93" x2="324.47" y2="181.93"/><line class="i" x1="330.55" y1="180.13" x2="324.49" y2="180.09"/><rect class="i" x="340.48" y="150.5" width="6.2" height="15.67"/><line class="i" x1="343.58" y1="150.5" x2="343.58" y2="166.17"/><line class="i" x1="346.68" y1="157.09" x2="340.48" y2="157.01"/><line class="i" x1="342.05" y1="150.5" x2="342.11" y2="166.17"/><line class="i" x1="345.06" y1="150.5" x2="345" y2="166.17"/><line class="i" x1="346.68" y1="159.38" x2="340.48" y2="159.3"/><line class="i" x1="346.68" y1="161.67" x2="340.48" y2="161.52"/><line class="i" x1="346.68" y1="163.58" x2="340.48" y2="163.66"/><line class="i" x1="346.68" y1="154.95" x2="340.48" y2="154.95"/><line class="i" x1="346.68" y1="152.81" x2="340.48" y2="152.81"/><rect class="i" x="355.02" y="150.87" width="6.2" height="15.67"/><line class="i" x1="358.12" y1="150.87" x2="358.12" y2="166.54"/><line class="i" x1="361.22" y1="157.46" x2="355.02" y2="157.38"/><line class="i" x1="356.59" y1="150.87" x2="356.65" y2="166.54"/><line class="i" x1="359.6" y1="150.87" x2="359.54" y2="166.54"/><line class="i" x1="361.22" y1="159.75" x2="355.02" y2="159.67"/><line class="i" x1="361.22" y1="162.04" x2="355.02" y2="161.89"/><line class="i" x1="361.22" y1="163.95" x2="355.02" y2="164.03"/><line class="i" x1="361.22" y1="155.32" x2="355.02" y2="155.32"/><line class="i" x1="361.22" y1="153.18" x2="355.02" y2="153.18"/><path class="i" d="M354.42,190.87c.05-3.95,.24-8.35,.3-12.3,.56-.27,1.47-.6,2.62-.61,1.36-.01,2.42,.44,3.01,.75,.12,3.99,.18,7.87,.11,11.81-1.6-.03-4.3-.06-5.9-.09"/><line class="i" x1="357.53" y1="190.52" x2="357.67" y2="177.97"/><line class="i" x1="360.49" y1="184.59" x2="354.64" y2="184.47"/><line class="i" x1="356.22" y1="178.08" x2="356.19" y2="190.46"/><line class="i" x1="359.01" y1="178.19" x2="359.05" y2="190.73"/><line class="i" x1="360.49" y1="186.63" x2="354.61" y2="186.51"/><line class="i" x1="360.49" y1="188.45" x2="354.59" y2="188.37"/><line class="i" x1="360.44" y1="182.42" x2="354.67" y2="182.42"/><line class="i" x1="360.41" y1="180.75" x2="354.69" y2="180.71"/><path class="i" d="M371.02,191.58c.06-4.31,.11-8.92,.17-13.24,.62-.29,1.61-.66,2.86-.67,1.49-.01,2.65,.48,3.29,.82,.14,4.36,.19,8.59,.12,12.89-1.75-.03-4.7-.07-6.45-.1"/><line class="i" x1="374.26" y1="191.39" x2="374.42" y2="177.69"/><line class="i" x1="377.5" y1="184.91" x2="371.11" y2="184.77"/><line class="i" x1="372.83" y1="177.8" x2="372.8" y2="191.32"/><line class="i" x1="375.88" y1="177.92" x2="375.93" y2="191.61"/><line class="i" x1="377.5" y1="187.14" x2="371.08" y2="187.01"/><line class="i" x1="377.5" y1="189.13" x2="371.05" y2="189.04"/><line class="i" x1="377.45" y1="182.54" x2="371.14" y2="182.54"/><line class="i" x1="377.41" y1="180.72" x2="371.16" y2="180.67"/><path class="i" d="M386.06,191.86c.06-4.06,.11-8.55,.17-12.61,.6-.27,1.57-.62,2.8-.63,1.45-.01,2.58,.45,3.21,.77,.13,4.1,.19,8.09,.12,12.13-1.71-.03-4.59-.06-6.3-.1"/><line class="i" x1="389.23" y1="191.53" x2="389.38" y2="178.63"/><line class="i" x1="392.39" y1="185.43" x2="386.15" y2="185.3"/><line class="i" x1="387.83" y1="178.74" x2="387.8" y2="191.46"/><line class="i" x1="390.81" y1="178.85" x2="390.85" y2="191.74"/><line class="i" x1="392.39" y1="187.53" x2="386.12" y2="187.41"/><line class="i" x1="392.39" y1="189.4" x2="386.09" y2="189.32"/><line class="i" x1="392.34" y1="183.2" x2="386.17" y2="183.2"/><line class="i" x1="392.3" y1="181.48" x2="386.2" y2="181.44"/><rect class="i" x="371.29" y="151.3" width="5.92" height="14.89"/><line class="i" x1="374.25" y1="151.3" x2="374.25" y2="166.19"/><line class="i" x1="377.21" y1="157.56" x2="371.29" y2="157.48"/><line class="i" x1="372.79" y1="151.3" x2="372.85" y2="166.19"/><line class="i" x1="375.66" y1="151.3" x2="375.6" y2="166.19"/><line class="i" x1="377.21" y1="159.73" x2="371.29" y2="159.66"/><line class="i" x1="377.21" y1="161.91" x2="371.29" y2="161.77"/><line class="i" x1="377.21" y1="163.73" x2="371.29" y2="163.8"/><line class="i" x1="377.21" y1="155.52" x2="371.29" y2="155.52"/><line class="i" x1="377.21" y1="153.49" x2="371.29" y2="153.49"/><rect class="i" x="386.65" y="151.9" width="5.92" height="14.89"/><line class="i" x1="389.6" y1="151.9" x2="389.6" y2="166.79"/><line class="i" x1="392.56" y1="158.16" x2="386.65" y2="158.08"/><line class="i" x1="388.14" y1="151.9" x2="388.2" y2="166.79"/><line class="i" x1="391.02" y1="151.9" x2="390.96" y2="166.79"/><line class="i" x1="392.56" y1="160.33" x2="386.65" y2="160.26"/><line class="i" x1="392.56" y1="162.51" x2="386.65" y2="162.37"/><line class="i" x1="392.56" y1="164.33" x2="386.65" y2="164.4"/><line class="i" x1="392.56" y1="156.12" x2="386.65" y2="156.12"/><line class="i" x1="392.56" y1="154.09" x2="386.65" y2="154.09"/><line class="i" x1="265.21" y1="122.9" x2="265.21" y2="129.89"/><line class="i" x1="266.93" y1="122.95" x2="266.89" y2="129.89"/><line class="i" x1="268.53" y1="125.28" x2="265.21" y2="125.28"/><line class="i" x1="268.53" y1="127.6" x2="265.21" y2="127.6"/><line class="i" x1="263.55" y1="122.9" x2="263.39" y2="129.84"/><line class="i" x1="265.21" y1="125.28" x2="261.95" y2="125.28"/><line class="i" x1="265.21" y1="127.6" x2="261.7" y2="127.6"/><rect class="i" x="277.44" y="125.28" width="5.88" height="5.92" transform="translate(.18 -.38) rotate(.08)"/><line class="i" x1="280.33" y1="125.28" x2="280.43" y2="131.2"/><line class="i" x1="281.76" y1="125.28" x2="281.83" y2="131.17"/><line class="i" x1="283.14" y1="127.23" x2="280.36" y2="127.3"/><line class="i" x1="283.17" y1="129.19" x2="280.4" y2="129.26"/><line class="i" x1="278.94" y1="125.32" x2="278.91" y2="131.2"/><line class="i" x1="280.36" y1="127.3" x2="277.64" y2="127.36"/><line class="i" x1="280.4" y1="129.26" x2="277.46" y2="129.33"/><rect class="i" x="295.27" y="127.99" width="5.88" height="5.92" transform="translate(.18 -.41) rotate(.08)"/><line class="i" x1="298.15" y1="127.99" x2="298.26" y2="133.91"/><line class="i" x1="299.59" y1="127.99" x2="299.66" y2="133.87"/><line class="i" x1="300.96" y1="129.93" x2="298.19" y2="130"/><line class="i" x1="301" y1="131.9" x2="298.23" y2="131.96"/><line class="i" x1="296.77" y1="128.02" x2="296.73" y2="133.9"/><line class="i" x1="298.19" y1="130" x2="295.47" y2="130.07"/><line class="i" x1="298.23" y1="131.96" x2="295.29" y2="132.04"/><rect class="i" x="309.15" y="129.89" width="5.88" height="5.92" transform="translate(.18 -.43) rotate(.08)"/><line class="i" x1="312.03" y1="129.89" x2="312.14" y2="135.81"/><line class="i" x1="313.47" y1="129.89" x2="313.53" y2="135.78"/><line class="i" x1="314.84" y1="131.84" x2="312.07" y2="131.9"/><line class="i" x1="314.87" y1="133.8" x2="312.1" y2="133.87"/><line class="i" x1="310.64" y1="129.93" x2="310.61" y2="135.81"/><line class="i" x1="312.07" y1="131.9" x2="309.34" y2="131.97"/><line class="i" x1="312.1" y1="133.87" x2="309.16" y2="133.94"/><line class="i" x1="265" y1="143.45" x2="265" y2="161.17"/><line class="i" x1="268.33" y1="151.42" x2="261.74" y2="151.11"/><line class="i" x1="263.45" y1="143.45" x2="263.15" y2="161.12"/><line class="i" x1="266.87" y1="143.45" x2="266.87" y2="161.17"/><line class="i" x1="268.43" y1="145.62" x2="261.95" y2="145.62"/><line class="i" x1="268.38" y1="148.65" x2="261.95" y2="148.4"/><line class="i" x1="268.28" y1="154.06" x2="261.7" y2="153.56"/><line class="i" x1="268.43" y1="156.23" x2="261.7" y2="156.23"/><line class="i" x1="268.19" y1="158.71" x2="261.74" y2="158.4"/><polygon class="i" points="283.05 162.16 277.01 161.99 277.31 145.01 283.35 145.17 283.05 162.16"/><line class="i" x1="280.18" y1="145.09" x2="280.18" y2="162.08"/><line class="i" x1="283.21" y1="152.73" x2="277.2" y2="152.44"/><line class="i" x1="278.77" y1="145.09" x2="278.49" y2="162.03"/><line class="i" x1="281.89" y1="145.09" x2="281.89" y2="162.08"/><line class="i" x1="283.31" y1="147.17" x2="277.4" y2="147.17"/><line class="i" x1="283.26" y1="150.07" x2="277.4" y2="149.84"/><line class="i" x1="283.17" y1="155.26" x2="277.4" y2="154.8"/><line class="i" x1="283.31" y1="157.34" x2="277.09" y2="157.34"/><line class="i" x1="283.09" y1="159.72" x2="277.2" y2="159.42"/><polygon class="i" points="301.07 163.93 295.04 163.77 295.34 146.78 301.38 146.95 301.07 163.93"/><line class="i" x1="298.21" y1="146.86" x2="298.21" y2="163.85"/><line class="i" x1="301.24" y1="154.51" x2="295.23" y2="154.21"/><line class="i" x1="296.79" y1="146.86" x2="296.52" y2="163.81"/><line class="i" x1="299.91" y1="146.86" x2="299.91" y2="163.85"/><line class="i" x1="301.34" y1="148.94" x2="295.42" y2="148.94"/><line class="i" x1="301.29" y1="151.85" x2="295.42" y2="151.61"/><line class="i" x1="301.2" y1="157.04" x2="295.42" y2="156.58"/><line class="i" x1="301.34" y1="159.12" x2="295.42" y2="159.12"/><line class="i" x1="301.12" y1="161.49" x2="295.23" y2="161.2"/><polygon class="i" points="314.56 164.8 308.53 164.64 308.83 147.66 314.87 147.82 314.56 164.8"/><line class="i" x1="311.7" y1="147.74" x2="311.7" y2="164.73"/><line class="i" x1="314.73" y1="155.38" x2="308.72" y2="155.09"/><line class="i" x1="310.29" y1="147.74" x2="310.01" y2="164.68"/><line class="i" x1="313.4" y1="147.74" x2="313.4" y2="164.73"/><line class="i" x1="314.83" y1="149.82" x2="308.91" y2="149.82"/><line class="i" x1="314.78" y1="152.72" x2="308.91" y2="152.48"/><line class="i" x1="314.69" y1="157.91" x2="308.91" y2="157.45"/><line class="i" x1="314.83" y1="159.99" x2="308.91" y2="159.99"/><line class="i" x1="314.61" y1="162.37" x2="308.72" y2="162.07"/><line class="i" x1="265.53" y1="173.15" x2="265.32" y2="189.14"/><line class="i" x1="268.9" y1="181.15" x2="261.75" y2="181.15"/><line class="i" x1="263.3" y1="173.34" x2="263.3" y2="189.11"/><line class="i" x1="267.37" y1="173.57" x2="267.28" y2="189.11"/><line class="i" x1="268.9" y1="176.28" x2="261.75" y2="176.28"/><line class="i" x1="268.85" y1="178.59" x2="261.75" y2="178.59"/><line class="i" x1="268.79" y1="184.15" x2="261.75" y2="184.15"/><line class="i" x1="268.76" y1="186.12" x2="261.7" y2="186.12"/><path class="i" d="M277.01,189.42c1.93,.03,4.19,.1,6.12,.13,.05-4.64,.1-9.28,.15-13.91-.55-.38-1.57-.97-2.93-1.11-1.51-.15-2.69,.34-3.29,.65,.02,4.21-.03,10.25,0,14.46"/><line class="i" x1="280.35" y1="174.53" x2="280.16" y2="189.51"/><line class="i" x1="283.28" y1="182.02" x2="277.06" y2="182.02"/><line class="i" x1="278.41" y1="174.71" x2="278.41" y2="189.56"/><line class="i" x1="281.95" y1="174.93" x2="281.87" y2="189.48"/><line class="i" x1="283.28" y1="177.46" x2="277.06" y2="177.46"/><line class="i" x1="283.24" y1="179.63" x2="277.06" y2="179.63"/><line class="i" x1="283.18" y1="184.84" x2="277.06" y2="184.84"/><line class="i" x1="283.16" y1="186.68" x2="277.01" y2="186.68"/><path class="i" d="M295.83,190.18c1.72,.03,3.69-.05,5.41-.02,.04-4.56,.09-9.13,.13-13.69-.49-.38-1.4-.96-2.61-1.09-1.35-.15-2.4,.33-2.94,.63,.02,4.14-.02,10.35,0,14.49"/><line class="i" x1="298.77" y1="175.38" x2="298.6" y2="190.12"/><line class="i" x1="301.38" y1="182.75" x2="295.83" y2="182.75"/><line class="i" x1="297.04" y1="175.55" x2="297.04" y2="190.18"/><line class="i" x1="300.19" y1="175.77" x2="300.12" y2="190.09"/><line class="i" x1="301.38" y1="178.26" x2="295.83" y2="178.26"/><line class="i" x1="301.34" y1="180.39" x2="295.83" y2="180.39"/><line class="i" x1="301.29" y1="185.52" x2="295.83" y2="185.52"/><line class="i" x1="301.27" y1="187.34" x2="295.79" y2="187.34"/><path class="i" d="M309.18,191.14c1.72,.03,3.74-.07,5.46-.04,.04-4.56,.09-9.13,.13-13.69-.49-.38-1.4-.96-2.61-1.09-1.35-.15-2.4,.33-2.94,.63,.02,4.14-.02,10.35,0,14.49"/><line class="i" x1="312.15" y1="176.32" x2="311.99" y2="191.06"/><line class="i" x1="314.77" y1="183.69" x2="309.22" y2="183.69"/><line class="i" x1="310.42" y1="176.49" x2="310.42" y2="191.14"/><line class="i" x1="313.58" y1="176.71" x2="313.51" y2="191.03"/><line class="i" x1="314.77" y1="179.2" x2="309.22" y2="179.2"/><line class="i" x1="314.73" y1="181.33" x2="309.22" y2="181.33"/><line class="i" x1="314.68" y1="186.46" x2="309.22" y2="186.46"/><line class="i" x1="314.66" y1="188.28" x2="309.18" y2="188.28"/><path class="i" d="M270.83,204.09c.07-9.92-.07-22.78,0-32.7h-1.07v-1.09c-2.65-.07-6.42-.23-9.07-.3"/><path class="i" d="M275.12,203.89c-.02-9.66,.02-22.56,0-32.22l1.09-.07v-.95c2.87,.02,5.75,.04,8.62,.07l.03,1.41,.98,.03c-.04,9.75,.04,22.28,0,32.03"/><path class="i" d="M294.27,204.09c.03-7.81,.06-23.42,.09-31.23l1.29-.05v-1.13c2.21,.05,4.41,.11,6.62,.16l.05,1.13h1.24c-.15,7.84-.06,23.28-.21,31.12"/><path class="i" d="M308.06,203.84c.03-7.59,.06-22.75,.09-30.34h1.06v-1.13c2.16,.04,4.32,.07,6.48,.11l.05,1.5,1.06-.11c-.11,9.4-.2,20.9-.3,30.3"/><path class="i" d="M321.36,204.18c.07-9.83,.13-19.65,.2-29.48,.87,0,1.74-.01,2.6-.02v-.96c2.29,.04,4.58,.08,6.87,.13v.89h2.29c-.07,9.14-.15,20.29-.22,29.43"/><line class="i" x1="260.79" y1="193.53" x2="287.55" y2="194.09"/><line class="i" x1="333.18" y1="195.26" x2="287.55" y2="194.09"/><line class="i" x1="270.85" y1="191.69" x2="275.12" y2="191.82"/><line class="i" x1="275.12" y1="189.56" x2="270.84" y2="189.56"/><line class="i" x1="275.12" y1="187.43" x2="270.83" y2="187.43"/><line class="i" x1="275.12" y1="184.84" x2="270.85" y2="184.84"/><line class="i" x1="275.13" y1="182.93" x2="270.82" y2="182.75"/><line class="i" x1="275.12" y1="180.39" x2="270.85" y2="180.39"/><line class="i" x1="275.12" y1="178.26" x2="270.81" y2="178.26"/><line class="i" x1="275.12" y1="176.03" x2="270.85" y2="176.03"/><line class="i" x1="275.12" y1="173.7" x2="270.84" y2="173.7"/><line class="i" x1="275.12" y1="171.67" x2="270.83" y2="171.39"/><line class="i" x1="285.85" y1="192.07" x2="294.27" y2="192.26"/><line class="i" x1="285.85" y1="189.9" x2="294.27" y2="189.9"/><line class="i" x1="286" y1="187.43" x2="294.12" y2="187.43"/><line class="i" x1="286" y1="185.52" x2="294.33" y2="185.52"/><line class="i" x1="294.27" y1="183.5" x2="286" y2="183.41"/><line class="i" x1="285.83" y1="181.15" x2="294.33" y2="181.15"/><line class="i" x1="294.35" y1="179.2" x2="285.83" y2="179.2"/><line class="i" x1="285.85" y1="176.62" x2="294.33" y2="176.85"/><line class="i" x1="294.27" y1="174.71" x2="286" y2="174.71"/><line class="i" x1="294.37" y1="172.86" x2="286" y2="172.68"/><line class="i" x1="308.06" y1="192.71" x2="303.56" y2="192.67"/><line class="i" x1="308.1" y1="190.51" x2="303.45" y2="190.51"/><line class="i" x1="308.06" y1="188.28" x2="303.45" y2="188.28"/><line class="i" x1="308.06" y1="186.16" x2="303.46" y2="186.16"/><line class="i" x1="308.06" y1="183.97" x2="303.56" y2="183.97"/><line class="i" x1="308.1" y1="182.02" x2="303.56" y2="182.02"/><line class="i" x1="308.13" y1="179.88" x2="303.56" y2="179.92"/><line class="i" x1="308.1" y1="177.68" x2="303.56" y2="177.72"/><line class="i" x1="308.06" y1="175.55" x2="303.56" y2="175.55"/><line class="i" x1="308.15" y1="173.5" x2="303.56" y2="173.37"/><line class="i" x1="321.36" y1="193.09" x2="316.6" y2="193.03"/><line class="i" x1="321.36" y1="190.91" x2="316.79" y2="190.86"/><line class="i" x1="321.36" y1="188.68" x2="316.65" y2="188.62"/><line class="i" x1="321.36" y1="186.71" x2="316.79" y2="186.46"/><line class="i" x1="321.36" y1="184.53" x2="316.79" y2="184.53"/><line class="i" x1="321.36" y1="182.75" x2="316.79" y2="182.75"/><line class="i" x1="321.36" y1="180.39" x2="316.79" y2="180.39"/><line class="i" x1="321.36" y1="178.26" x2="316.75" y2="178.26"/><line class="i" x1="321.36" y1="176.29" x2="316.79" y2="176.29"/><line class="i" x1="316.78" y1="174.48" x2="321.89" y2="174.65"/><path class="i" d="M260.79,167.23c19.95,1.38,41.25,2.76,61.2,4.14,25.68,.2,53.19,.41,78.87,.61"/><line class="i" x1="402.81" y1="151.9" x2="400.85" y2="144.44"/><line class="i" x1="321.39" y1="144.06" x2="400.85" y2="144.44"/><line class="i" x1="321.98" y1="171.37" x2="321.82" y2="144.06"/><rect class="i" x="261.75" y="196.71" width="6.74" height="4.74"/><line class="i" x1="264.78" y1="196.71" x2="264.73" y2="201.45"/><line class="i" x1="266.57" y1="196.71" x2="266.62" y2="201.45"/><line class="i" x1="263.05" y1="196.71" x2="262.99" y2="201.45"/><line class="i" x1="268.5" y1="199.12" x2="261.75" y2="199.12"/><rect class="i" x="277.11" y="197.41" width="6.02" height="4.28"/><line class="i" x1="279.81" y1="197.41" x2="279.77" y2="201.69"/><line class="i" x1="281.41" y1="197.41" x2="281.46" y2="201.69"/><line class="i" x1="278.27" y1="197.41" x2="278.22" y2="201.69"/><line class="i" x1="283.14" y1="199.58" x2="277.11" y2="199.58"/><rect class="i" x="295.48" y="197.41" width="6.02" height="4.28"/><line class="i" x1="298.18" y1="197.41" x2="298.14" y2="201.69"/><line class="i" x1="299.78" y1="197.41" x2="299.83" y2="201.69"/><line class="i" x1="296.64" y1="197.41" x2="296.59" y2="201.69"/><line class="i" x1="301.5" y1="199.58" x2="295.48" y2="199.58"/><rect class="i" x="308.98" y="197.68" width="6.02" height="4.28"/><line class="i" x1="311.69" y1="197.68" x2="311.64" y2="201.96"/><line class="i" x1="313.28" y1="197.68" x2="313.33" y2="201.96"/><line class="i" x1="310.14" y1="197.68" x2="310.09" y2="201.96"/><line class="i" x1="315.01" y1="199.85" x2="308.98" y2="199.85"/><rect class="i" x="324.28" y="197.95" width="6.02" height="4.28"/><line class="i" x1="326.98" y1="197.95" x2="326.94" y2="202.22"/><line class="i" x1="328.58" y1="197.95" x2="328.63" y2="202.22"/><line class="i" x1="325.44" y1="197.95" x2="325.39" y2="202.22"/><line class="i" x1="330.3" y1="200.12" x2="324.28" y2="200.12"/><path class="i" d="M336.7,204.09c.09-6.39,.18-14.65,.28-21.03,1-.6,2.91-1.55,5.43-1.61,2.95-.08,5.15,1.09,6.17,1.72-.06,6.35,.06,14.67,0,21.02"/><path class="i" d="M368.42,204.41v-29.05h1.08l.08-1.44c3.14,.03,6.27,.06,9.41,.09-.03,.36-.13,1.32-.15,1.68,.33,.03,.75-.03,1.08,0,.03,8.93,.05,20.23,.08,29.16"/><path class="i" d="M383.47,204.85c0-8.39-.08-20.78-.08-29.16,.46,.03,1.01-.18,1.47-.15v-1.17h8.72v1.08h.93c.03,8.81,.05,20.59,.08,29.4"/><path class="i" d="M369.46,192.5c-.02-4.98,.02-10.21,0-15.19,.82-.46,2.44-1.21,4.56-1.17,2.14,.04,3.75,.86,4.56,1.36l.26,14.95c-2.87,.02-6.51,.04-9.38,.06"/><path class="i" d="M384.68,192.54c-.07-4.91-.07-10.05-.14-14.96,.82-.45,2.29-1.11,4.2-1.15,2.26-.05,3.97,.78,4.82,1.27l.16,14.84c-2.73-.02-6.3,.02-9.03,0"/><line class="i" x1="394.99" y1="171.93" x2="395.18" y2="148.17"/><line class="i" x1="398.89" y1="148.17" x2="393.83" y2="148.17"/><line class="i" x1="398.64" y1="171.66" x2="398.64" y2="148.17"/><line class="i" x1="398.9" y1="205.2" x2="398.64" y2="171.66"/><line class="i" x1="394.5" y1="175.45" x2="400.85" y2="175.33"/><line class="i" x1="394.57" y1="177.68" x2="401.27" y2="177.68"/><line class="i" x1="394.57" y1="179.76" x2="400.85" y2="179.68"/><line class="i" x1="394.57" y1="181.78" x2="401.27" y2="181.85"/><line class="i" x1="401.27" y1="183.69" x2="394.57" y2="183.69"/><line class="i" x1="401.27" y1="185.68" x2="394.57" y2="185.68"/><line class="i" x1="401.27" y1="187.47" x2="394.53" y2="187.47"/><line class="i" x1="401.04" y1="189.91" x2="394.57" y2="189.95"/><line class="i" x1="394.57" y1="191.89" x2="401.03" y2="191.93"/><line class="i" x1="401.01" y1="193.99" x2="394.57" y2="193.99"/><line class="i" x1="401.01" y1="196.02" x2="349.71" y2="195.89"/><line class="i" x1="383.39" y1="175.69" x2="379.92" y2="175.69"/><line class="i" x1="383.47" y1="177.68" x2="380" y2="177.68"/><line class="i" x1="383.47" y1="179.65" x2="380" y2="179.68"/><line class="i" x1="383.47" y1="181.48" x2="380" y2="181.48"/><line class="i" x1="383.47" y1="183.72" x2="380" y2="183.65"/><line class="i" x1="383.47" y1="185.68" x2="380" y2="185.68"/><line class="i" x1="383.47" y1="187.62" x2="379.95" y2="187.62"/><line class="i" x1="383.47" y1="189.61" x2="379.95" y2="189.61"/><line class="i" x1="383.47" y1="191.39" x2="380" y2="191.39"/><path class="i" d="M335.06,204.29c.02-9.15,.26-20.21,.28-29.35h1.61v-2.19"/><line class="i" x1="336.95" y1="172.99" x2="348.59" y2="172.99"/><line class="i" x1="348.59" y1="174.88" x2="348.59" y2="172.75"/><line class="i" x1="349.91" y1="174.88" x2="348.37" y2="174.88"/><line class="i" x1="349.63" y1="204.18" x2="349.91" y2="174.59"/><path class="i" d="M333.65,171.46c0-8.35,0-14.52,0-22.88"/><line class="i" x1="338.86" y1="148.65" x2="339.02" y2="171.5"/><line class="i" x1="338.86" y1="148.65" x2="333.65" y2="148.58"/><line class="i" x1="338.87" y1="150.5" x2="333.65" y2="150.5"/><line class="i" x1="338.87" y1="152.81" x2="333.65" y2="152.81"/><line class="i" x1="338.87" y1="155.23" x2="333.65" y2="155.23"/><line class="i" x1="338.93" y1="157.72" x2="333.65" y2="157.72"/><line class="i" x1="338.87" y1="159.99" x2="333.65" y2="159.99"/><line class="i" x1="338.87" y1="162.65" x2="333.65" y2="162.51"/><line class="i" x1="338.87" y1="164.8" x2="333.65" y2="164.8"/><line class="i" x1="400.85" y1="167.96" x2="322" y2="167.23"/><line class="i" x1="352.31" y1="171.05" x2="352.14" y2="148.31"/><line class="i" x1="348.1" y1="171.57" x2="347.99" y2="148.32"/><line class="i" x1="352.19" y1="165.18" x2="348.07" y2="165.11"/><line class="i" x1="352.21" y1="162.58" x2="348.03" y2="162.58"/><line class="i" x1="352.21" y1="159.99" x2="348.05" y2="159.99"/><line class="i" x1="352.21" y1="157.52" x2="348.05" y2="157.52"/><line class="i" x1="352.19" y1="155.23" x2="348.02" y2="155.23"/><line class="i" x1="352.18" y1="153.18" x2="348.05" y2="153.18"/><line class="i" x1="352.16" y1="150.87" x2="348" y2="150.87"/><line class="i" x1="352.15" y1="148.62" x2="348.05" y2="148.62"/><path class="i" d="M351.54,204.18c-.03-5.63,.31-26.57,.28-32.2"/><line class="i" x1="368.42" y1="175.36" x2="362.73" y2="175.37"/><path class="i" d="M353.45,191.58c-.02-4.63,.02-9.49,0-14.12,.73-.43,2.16-1.13,4.04-1.09,1.9,.04,3.32,.8,4.04,1.26l.23,13.89c-2.54,.02-5.77,.04-8.3,.06"/><path class="i" d="M323.49,191.7c-.02-4.88,.02-10.01,0-14.89,.73-.45,2.18-1.19,4.07-1.15,1.91,.04,3.35,.85,4.07,1.33l.23,14.65c-2.56,.02-5.81,.04-8.37,.06"/><line class="i" x1="364.11" y1="175.37" x2="363.75" y2="204.61"/><line class="i" x1="362.74" y1="175.64" x2="362.72" y2="173.65"/><line class="i" x1="354.56" y1="173.92" x2="362.72" y2="173.92"/><line class="i" x1="354.56" y1="175.17" x2="354.56" y2="173.63"/><line class="i" x1="351.97" y1="175.17" x2="354.8" y2="175.17"/><line class="i" x1="368.42" y1="177.03" x2="364.09" y2="177.09"/><line class="i" x1="368.42" y1="179.35" x2="364.06" y2="179.32"/><line class="i" x1="368.42" y1="181.27" x2="364.04" y2="181.48"/><line class="i" x1="368.42" y1="183.69" x2="363.93" y2="183.69"/><line class="i" x1="368.42" y1="185.48" x2="363.93" y2="185.42"/><line class="i" x1="368.42" y1="187.62" x2="363.93" y2="187.62"/><line class="i" x1="368.42" y1="189.61" x2="363.93" y2="189.61"/><path class="i" d="M129.68,47.05l2.04,6.6c1.2,.53,2.93,1.06,5.06,1.63,6.04,1.62,7.72,2.43,7.56,1.73-.79-3.26-.19-8.79-.3-9.26"/><line class="i" x1="368.38" y1="171.66" x2="368.6" y2="147.77"/><line class="i" x1="369.92" y1="148" x2="368.35" y2="148.03"/><line class="i" x1="369.82" y1="146.93" x2="369.8" y2="148.32"/><line class="i" x1="379.13" y1="146.91" x2="369.6" y2="146.93"/><line class="i" x1="393.81" y1="147.09" x2="393.84" y2="148.48"/><line class="i" x1="385.79" y1="146.92" x2="394.08" y2="146.92"/><line class="i" x1="398.64" y1="165.65" x2="395.03" y2="165.65"/><line class="i" x1="398.64" y1="163.76" x2="395.08" y2="163.76"/><line class="i" x1="398.64" y1="161.39" x2="395.08" y2="161.39"/><line class="i" x1="398.64" y1="159.34" x2="395.08" y2="159.34"/><line class="i" x1="398.64" y1="157.42" x2="395.11" y2="157.42"/><line class="i" x1="398.64" y1="155.52" x2="395.11" y2="155.52"/><line class="i" x1="398.64" y1="153.18" x2="395.14" y2="153.18"/><line class="i" x1="398.64" y1="150.87" x2="395.16" y2="150.87"/><line class="i" x1="363.91" y1="171.66" x2="363.95" y2="148.92"/><line class="i" x1="368.59" y1="148.92" x2="364.58" y2="148.92"/><line class="i" x1="368.57" y1="151.3" x2="363.95" y2="151.3"/><line class="i" x1="368.71" y1="153.49" x2="363.95" y2="153.49"/><line class="i" x1="368.51" y1="155.92" x2="363.94" y2="155.92"/><line class="i" x1="368.44" y1="165.56" x2="363.95" y2="165.56"/><line class="i" x1="368.44" y1="163.16" x2="363.95" y2="163.16"/><line class="i" x1="368.48" y1="161" x2="363.95" y2="161"/><line class="i" x1="368.51" y1="158.34" x2="363.95" y2="158.34"/><line class="i" x1="83.44" y1="142.09" x2="76.44" y2="141.91"/><line class="i" x1="83.51" y1="136.89" x2="76.45" y2="136.89"/><line class="i" x1="83.51" y1="132.39" x2="76.66" y2="132.39"/><line class="i" x1="83.51" y1="128.12" x2="76.45" y2="128.12"/><line class="i" x1="83.51" y1="124.62" x2="76.34" y2="124.04"/><line class="i" x1="83.53" y1="120.89" x2="76.32" y2="120.62"/><line class="i" x1="83.56" y1="117.06" x2="76.5" y2="116.78"/><line class="i" x1="83.15" y1="112.54" x2="76.18" y2="112.2"/><line class="i" x1="83.15" y1="107.61" x2="76.45" y2="107.27"/><line class="i" x1="83.15" y1="103.39" x2="76.45" y2="103.02"/><line class="i" x1="107.9" y1="145.96" x2="102.01" y2="145.77"/><line class="i" x1="107.9" y1="142" x2="102.15" y2="142"/><line class="i" x1="107.9" y1="138.41" x2="102.15" y2="138.34"/><line class="i" x1="107.9" y1="134.37" x2="102.15" y2="134.1"/><line class="i" x1="107.9" y1="130.76" x2="102.15" y2="130.69"/><line class="i" x1="107.91" y1="127.18" x2="102.14" y2="127.18"/><line class="i" x1="107.91" y1="123.57" x2="102.17" y2="123.28"/><line class="i" x1="108.11" y1="120.28" x2="102.26" y2="120.08"/><line class="i" x1="107.87" y1="116.06" x2="102.04" y2="115.99"/><line class="i" x1="107.93" y1="112.67" x2="102.15" y2="112.37"/><line class="i" x1="107.9" y1="108.35" x2="102.15" y2="108.06"/><line class="i" x1="131.15" y1="109.86" x2="125.82" y2="109.49"/><line class="i" x1="131.19" y1="113.86" x2="125.74" y2="113.39"/><line class="i" x1="131.15" y1="118.27" x2="125.55" y2="117.73"/><line class="i" x1="131.15" y1="122.87" x2="125.58" y2="122.63"/><line class="i" x1="131.15" y1="126.83" x2="125.6" y2="126.38"/><line class="i" x1="131.13" y1="130.84" x2="125.59" y2="130.69"/><line class="i" x1="131.31" y1="135.13" x2="125.74" y2="135.09"/><line class="i" x1="131.15" y1="139.2" x2="125.74" y2="139.2"/><line class="i" x1="131.35" y1="142.84" x2="125.74" y2="143.05"/><line class="i" x1="131.37" y1="147.94" x2="125.74" y2="148.07"/><line class="i" x1="157.67" y1="151.17" x2="152.22" y2="151.17"/><line class="i" x1="157.67" y1="146.46" x2="152.22" y2="145.97"/><line class="i" x1="157.5" y1="142.09" x2="152.22" y2="141.57"/><line class="i" x1="157.43" y1="137.78" x2="151.86" y2="137.68"/><line class="i" x1="157.61" y1="134.4" x2="152.22" y2="134.4"/><line class="i" x1="157.52" y1="130.98" x2="151.95" y2="130.4"/><line class="i" x1="157.17" y1="126.61" x2="151.89" y2="126.61"/><line class="i" x1="157.51" y1="122.8" x2="152.17" y2="122.7"/><line class="i" x1="157.11" y1="117.78" x2="151.83" y2="117.78"/><line class="i" x1="157.53" y1="113.52" x2="152.15" y2="112.93"/><line class="i" x1="157.54" y1="108.65" x2="152.19" y2="108.04"/><line class="i" x1="316.02" y1="170.96" x2="316.18" y2="165.14"/><line class="i" x1="316.79" y1="162.58" x2="316.18" y2="165.14"/><line class="i" x1="316.93" y1="128.87" x2="316.79" y2="162.58"/><line class="i" x1="320.87" y1="129.47" x2="290.09" y2="124.81"/><line class="i" x1="321.33" y1="128.23" x2="290.02" y2="123.64"/><line class="i" x1="321.49" y1="127.3" x2="289.89" y2="122.39"/><line class="i" x1="260.02" y1="118.08" x2="287.4" y2="121.82"/><line class="i" x1="258.77" y1="119.05" x2="287.55" y2="123.12"/><line class="i" x1="258.88" y1="120.13" x2="287.42" y2="124.32"/><line class="i" x1="287.4" y1="121.5" x2="287.44" y2="168.78"/><line class="i" x1="289.89" y1="122.06" x2="289.34" y2="169.17"/><line class="i" x1="270.85" y1="167.6" x2="270.85" y2="121.89"/><line class="i" x1="275.54" y1="168.05" x2="275.54" y2="122.9"/><line class="i" x1="303.16" y1="170.09" x2="303.17" y2="163.51"/><line class="i" x1="303.55" y1="161.54" x2="303.17" y2="163.51"/><line class="i" x1="303.56" y1="127.14" x2="303.55" y2="161.54"/><line class="i" x1="308.06" y1="170" x2="308.06" y2="163.55"/><line class="i" x1="307.56" y1="162.22" x2="308.06" y2="163.86"/><line class="i" x1="307.82" y1="127.73" x2="307.56" y2="162.22"/><line class="i" x1="321.61" y1="166.8" x2="316.15" y2="166.51"/><line class="i" x1="308.25" y1="166.18" x2="316.15" y2="166.51"/><line class="i" x1="303.36" y1="165.7" x2="307.81" y2="165.7"/><line class="i" x1="289.4" y1="164.73" x2="303.16" y2="165.18"/><line class="i" x1="285.85" y1="168.52" x2="286" y2="125.28"/><line class="i" x1="285.08" y1="125.38" x2="286.26" y2="125.41"/><line class="i" x1="285.05" y1="124.22" x2="285.05" y2="125.7"/><line class="i" x1="321.15" y1="165.7" x2="316.1" y2="165.7"/><line class="i" x1="320.8" y1="164.39" x2="316.49" y2="164.39"/><line class="i" x1="320.28" y1="162.87" x2="316.67" y2="162.87"/><line class="i" x1="320.69" y1="139.58" x2="320.28" y2="162.87"/><line class="i" x1="321.61" y1="166.8" x2="320.28" y2="162.87"/><polygon class="i" points="269.09 139.53 261.1 139.26 261.24 133.28 269.23 133.54 269.09 139.53"/><polygon class="i" points="284.37 141.06 276.96 140.81 277.1 135.16 284.5 135.4 284.37 141.06"/><polygon class="i" points="301.99 143.3 294.58 143.05 294.72 137.4 302.13 137.64 301.99 143.3"/><polygon class="i" points="315.44 144.07 309.04 143.85 309.17 138.5 315.57 138.71 315.44 144.07"/><line class="i" x1="293.77" y1="125.37" x2="293.76" y2="169.07"/><line class="i" x1="275.54" y1="163.55" x2="270.81" y2="163.55"/><line class="i" x1="275.54" y1="160.21" x2="270.85" y2="160.21"/><line class="i" x1="275.54" y1="156.81" x2="270.85" y2="156.81"/><line class="i" x1="275.54" y1="153.82" x2="270.85" y2="153.58"/><line class="i" x1="275.66" y1="150.57" x2="270.81" y2="150.21"/><line class="i" x1="275.54" y1="147.22" x2="270.85" y2="147.17"/><line class="i" x1="275.54" y1="144.34" x2="270.85" y2="144.34"/><line class="i" x1="275.54" y1="138.7" x2="270.85" y2="138.7"/><line class="i" x1="275.54" y1="135.48" x2="270.85" y2="135.48"/><line class="i" x1="275.54" y1="132.27" x2="270.85" y2="132.27"/><line class="i" x1="275.54" y1="129.29" x2="270.85" y2="129.29"/><line class="i" x1="275.54" y1="126.37" x2="270.85" y2="126.37"/><line class="i" x1="293.76" y1="161.17" x2="289.63" y2="161.17"/><line class="i" x1="293.76" y1="158.56" x2="289.47" y2="158.56"/><line class="i" x1="293.76" y1="155.36" x2="289.5" y2="155.33"/><line class="i" x1="293.76" y1="152.6" x2="289.47" y2="152.6"/><line class="i" x1="293.76" y1="148.94" x2="289.63" y2="148.94"/><line class="i" x1="293.76" y1="146.18" x2="289.61" y2="146.18"/><line class="i" x1="293.76" y1="139.98" x2="289.68" y2="139.92"/><line class="i" x1="293.76" y1="137.3" x2="289.71" y2="137.23"/><line class="i" x1="293.76" y1="143.45" x2="289.61" y2="143.45"/><line class="i" x1="293.76" y1="134.15" x2="289.75" y2="134.09"/><line class="i" x1="293.76" y1="130.93" x2="289.78" y2="130.93"/><line class="i" x1="293.76" y1="127.93" x2="289.78" y2="127.87"/><line class="i" x1="275.54" y1="141.61" x2="270.85" y2="141.65"/><line class="i" x1="307.56" y1="162.22" x2="303.55" y2="162.01"/><line class="i" x1="307.59" y1="158.76" x2="303.36" y2="158.76"/><line class="i" x1="307.81" y1="155.69" x2="303.56" y2="155.7"/><line class="i" x1="307.81" y1="152.6" x2="303.56" y2="152.6"/><line class="i" x1="307.66" y1="149.82" x2="303.36" y2="149.82"/><line class="i" x1="307.66" y1="146.78" x2="303.55" y2="146.78"/><line class="i" x1="307.66" y1="143.45" x2="303.55" y2="143.45"/><line class="i" x1="307.69" y1="140.35" x2="303.56" y2="140.35"/><line class="i" x1="307.69" y1="136.4" x2="303.56" y2="136.4"/><line class="i" x1="307.69" y1="133.31" x2="303.55" y2="133.31"/><line class="i" x1="307.8" y1="130.03" x2="303.56" y2="130.03"/><line class="i" x1="307.96" y1="164.56" x2="303.17" y2="164.39"/><line class="i" x1="307.81" y1="163.25" x2="303.23" y2="163.18"/><line class="i" x1="320.48" y1="159.99" x2="316.79" y2="159.99"/><line class="i" x1="320.28" y1="157.29" x2="316.86" y2="157.41"/><line class="i" x1="320.43" y1="154.6" x2="316.86" y2="154.6"/><line class="i" x1="320.43" y1="151.73" x2="316.79" y2="151.73"/><line class="i" x1="320.48" y1="148.94" x2="316.86" y2="148.94"/><line class="i" x1="320.57" y1="146.18" x2="316.86" y2="146.18"/><line class="i" x1="320.43" y1="143.45" x2="316.86" y2="143.45"/><line class="i" x1="320.57" y1="141.28" x2="316.88" y2="141.28"/><line class="i" x1="320.57" y1="138.77" x2="316.89" y2="138.77"/><line class="i" x1="320.57" y1="136.17" x2="316.9" y2="136.05"/><line class="i" x1="320.8" y1="133.31" x2="316.91" y2="133.31"/><line class="i" x1="320.57" y1="130.43" x2="316.92" y2="130.43"/><line class="i" x1="293.76" y1="163.58" x2="289.47" y2="163.56"/><line class="i" x1="293.76" y1="162.65" x2="289.47" y2="162.65"/><line class="i" x1="131.15" y1="106.79" x2="125.48" y2="106.79"/><line class="i" x1="107.91" y1="104.88" x2="102.15" y2="104.88"/><polygon class="i" points="100.09 121.16 84.71 120.34 85.05 111.57 100.43 112.39 100.09 121.16"/><polygon class="i" points="123.61 124.09 109.59 123.34 109.92 114.87 123.94 115.61 123.61 124.09"/><polygon class="i" points="149.48 126.9 137.45 126.26 137.76 118.36 149.78 119 149.48 126.9"/><polygon class="i" points="171.79 128.57 160.06 127.95 160.35 120.73 172.07 121.35 171.79 128.57"/><line class="i" x1="90.8" y1="74.67" x2="119.56" y2="45.2"/><line class="i" x1="285.83" y1="164.12" x2="275.54" y2="163.55"/><line class="i" x1="270.81" y1="163.55" x2="260.69" y2="163.22"/><line class="i" x1="260.66" y1="162.08" x2="254.97" y2="161.85"/><line class="i" x1="380" y1="171.46" x2="380.07" y2="148.32"/><line class="i" x1="384.36" y1="148.4" x2="384.54" y2="171.85"/><line class="i" x1="385.79" y1="148.92" x2="385.79" y2="146.63"/><line class="i" x1="379.13" y1="148.61" x2="385.94" y2="148.61"/><line class="i" x1="379.13" y1="148.92" x2="379.13" y2="146.63"/><line class="i" x1="384.45" y1="166.19" x2="380.01" y2="166.19"/><line class="i" x1="384.45" y1="163.76" x2="380.01" y2="163.76"/><line class="i" x1="384.45" y1="161.15" x2="380.01" y2="161.15"/><line class="i" x1="384.33" y1="158.74" x2="380.04" y2="158.74"/><line class="i" x1="384.33" y1="155.92" x2="380.01" y2="155.92"/><line class="i" x1="384.33" y1="153.49" x2="380.01" y2="153.49"/><line class="i" x1="384.22" y1="150.87" x2="380.01" y2="150.87"/><line class="i" x1="322.35" y1="148.61" x2="324.53" y2="148.61"/><line class="i" x1="324.53" y1="147" x2="324.53" y2="148.88"/><line class="i" x1="330.97" y1="147" x2="324.33" y2="147"/><line class="i" x1="330.97" y1="148.62" x2="330.97" y2="146.76"/><line class="i" x1="333.65" y1="148.57" x2="330.82" y2="148.6"/><line class="i" x1="338.86" y1="148.65" x2="341.03" y2="148.61"/><line class="i" x1="340.86" y1="147.24" x2="340.88" y2="148.85"/><line class="i" x1="346.02" y1="147.18" x2="340.61" y2="147.18"/><line class="i" x1="346.02" y1="148.76" x2="346.02" y2="146.92"/><line class="i" x1="345.8" y1="148.62" x2="348.05" y2="148.62"/><line class="i" x1="352.14" y1="148.59" x2="355.25" y2="148.64"/><line class="i" x1="355.02" y1="147.41" x2="355.07" y2="148.94"/><line class="i" x1="360.04" y1="147.62" x2="354.76" y2="147.62"/><line class="i" x1="360.04" y1="149.08" x2="360.04" y2="147.35"/><line class="i" x1="364.58" y1="148.89" x2="359.8" y2="148.73"/><rect class="i" x="354.56" y="198.08" width="5.53" height="4.01"/><line class="i" x1="357.33" y1="198.08" x2="357.33" y2="202.09"/><line class="i" x1="355.95" y1="198.08" x2="356.06" y2="202.09"/><line class="i" x1="358.72" y1="198.08" x2="358.72" y2="202.09"/><line class="i" x1="360.09" y1="200.22" x2="354.56" y2="200.25"/><rect class="i" x="371.92" y="198.23" width="5.53" height="4.01"/><line class="i" x1="374.69" y1="198.23" x2="374.69" y2="202.24"/><line class="i" x1="373.31" y1="198.23" x2="373.42" y2="202.24"/><line class="i" x1="376.08" y1="198.23" x2="376.08" y2="202.24"/><line class="i" x1="377.45" y1="200.37" x2="371.92" y2="200.4"/><rect class="i" x="386.54" y="198.83" width="5.53" height="4.01"/><line class="i" x1="389.31" y1="198.83" x2="389.31" y2="202.84"/><line class="i" x1="387.92" y1="198.83" x2="388.04" y2="202.84"/><line class="i" x1="390.7" y1="198.83" x2="390.7" y2="202.84"/><line class="i" x1="392.07" y1="200.97" x2="386.54" y2="201"/><path class="i" d="M178.98,99.64c0-1.05-.07-2.69-.13-4.25-.08-1.9,.63-3.72,1.91-4.9,.3-.28,.55-.52,.67-.65"/><line class="i" x1="259.79" y1="110.66" x2="259.47" y2="103.8"/><path class="i" d="M185.81,90.36c.42,.04,3.59-1.77,4.15-2.19,.83-.63,.72-1.58,1.49-2.14,.56-.41,1.03-.22,2.29-.13,0,0,.21,.01,3.21-.13,1.37-.07,3.66-1.79,7.68-8.98l1.49,.8c1.34-2.06,2.68-4.11,4.01-6.17l1.49,1.47c-.1-.44-.35-1.84,.23-3.35,.82-2.12,2.61-2.73,2.87-2.81-.04-1.84-.09-3.69-.13-5.53l.65-1.11c.19-14.19,.38-28.37,.57-42.56l1.41,.09-.53,48.03"/><path class="i" d="M258.7,102.79c-.14-1.2-.18-3.49-.51-4.23,.04-.03,.54-.43,.56-1.14,.01-.54-.26-1.05-.69-1.3,.32-.63,.29-1.41-.07-1.95-.42-.64-1.1-.65-1.18-.65l.76-1.22-2.5,.24c-.05-.1-.41-.77-1.11-.89-.44-.08-1.13,.05-1.39,.65-.25,.6,0,1.5,.69,1.95-.16,.19-.64,.8-.69,1.71-.06,1.07,.48,2.12,1.39,2.68-.31,.64-.87,1.05-1.46,1.06-.78,0-1.5-.7-1.67-1.71l-1.11-1.22c.03-.14,.21-.95-.21-1.71-.05-.08-.53-.94-1.18-.89-.5,.04-.84,.58-1.39,1.46-.23,.36-.39,.68-.49,.89-.48,.28-1.06,.54-1.74,.73-2.13,.59-3.96,.06-4.93-.32-.15-.5-.34-1.26-.35-2.19-.01-1.36,.36-1.88,.14-3.01-.13-.7-.51-1.72-1.04-1.79-.36-.04-.53,.39-1.18,.57-.4,.11-.74,.06-.97,0,.07-.13,.34-.68,.21-1.38-.09-.46-.31-.76-.42-.89l1.11-.16,.21-2.6-1.25-2.27-2.36-.16,1.04,2.52c-.02,.65-.08,1.39-.21,2.19-.11,.73-.26,1.38-.42,1.95-.29-.73-.7-1.57-1.25-2.44-1.06-1.66-2.25-2.74-3.13-3.41l1.25-.16c-.07-1.38-.14-2.76-.21-4.14-.49,.06-1.26,.1-2.15-.16-.75-.22-1.66-.48-2.22-1.38-.41-.66-.45-1.35-.49-2.36-.03-.84,.01-2.19,.49-3.82-.05-.25-.23-1.13-.9-1.62-.84-.62-2.09-.39-2.99,.65-.21-.64-.59-1.53-1.25-2.44-.49-.66-1.41-2.17-1.81-2.49"/><line class="i" x1="203.78" y1="93.77" x2="203.25" y2="102.62"/><line class="i" x1="230.91" y1="97.84" x2="230.81" y2="107.23"/><line class="i" x1="255.78" y1="101.87" x2="255.76" y2="110.4"/><line class="i" x1="178.84" y1="95.39" x2="181.97" y2="94.74"/><line class="i" x1="259.63" y1="107.31" x2="181.97" y2="94.74"/><line class="i" x1="316.91" y1="120.54" x2="317.18" y2="113.03"/><line class="i" x1="306.88" y1="119" x2="307.02" y2="110.81"/><line class="i" x1="303.99" y1="119" x2="304.04" y2="110.38"/><line class="i" x1="292.9" y1="117.41" x2="292.86" y2="108.49"/><line class="i" x1="290.24" y1="116.76" x2="290.26" y2="108.34"/><line class="i" x1="274.96" y1="114.69" x2="275.05" y2="105.8"/><line class="i" x1="271.05" y1="114.26" x2="271.35" y2="105.56"/><line class="i" x1="333.2" y1="193.34" x2="321.76" y2="193.26"/><line class="i" x1="333.21" y1="191.45" x2="331.85" y2="191.28"/><line class="i" x1="323.49" y1="190.95" x2="321.69" y2="190.95"/><line class="i" x1="321.69" y1="188.8" x2="323.49" y2="188.96"/><line class="i" x1="333.23" y1="189.15" x2="331.86" y2="189.11"/><line class="i" x1="333.24" y1="187.1" x2="331.86" y2="187.1"/><line class="i" x1="323.35" y1="187.1" x2="321.69" y2="187.1"/><line class="i" x1="323.49" y1="185.04" x2="321.69" y2="184.92"/><line class="i" x1="333.26" y1="184.98" x2="331.75" y2="184.98"/><line class="i" x1="333.26" y1="183.26" x2="331.73" y2="183.26"/><line class="i" x1="323.35" y1="183.06" x2="321.69" y2="182.99"/><line class="i" x1="323.49" y1="180.89" x2="321.52" y2="180.85"/><line class="i" x1="333.26" y1="181.09" x2="331.69" y2="181.16"/><line class="i" x1="333.33" y1="178.87" x2="331.75" y2="178.91"/><line class="i" x1="323.35" y1="178.72" x2="321.69" y2="178.72"/><line class="i" x1="323.49" y1="176.81" x2="321.69" y2="176.74"/><line class="i" x1="333.26" y1="176.9" x2="331.63" y2="177"/><line class="i" x1="363.89" y1="193.47" x2="351.68" y2="193.35"/><line class="i" x1="363.92" y1="190.42" x2="361.75" y2="190.42"/><line class="i" x1="353.38" y1="190.42" x2="351.82" y2="190.42"/><line class="i" x1="363.89" y1="188.41" x2="361.71" y2="188.41"/><line class="i" x1="353.36" y1="188.41" x2="351.8" y2="188.41"/><line class="i" x1="364.01" y1="186.55" x2="361.63" y2="186.59"/><line class="i" x1="353.45" y1="186.57" x2="351.83" y2="186.57"/><line class="i" x1="363.93" y1="184.53" x2="361.63" y2="184.53"/><line class="i" x1="353.41" y1="184.46" x2="352" y2="184.46"/><line class="i" x1="364.02" y1="182.42" x2="361.6" y2="182.42"/><line class="i" x1="353.45" y1="182.44" x2="351.97" y2="182.39"/><line class="i" x1="363.96" y1="180.75" x2="361.5" y2="180.71"/><line class="i" x1="353.41" y1="180.73" x2="351.85" y2="180.73"/><line class="i" x1="363.95" y1="179.12" x2="361.56" y2="179.04"/><line class="i" x1="353.41" y1="179.08" x2="351.85" y2="179.08"/><line class="i" x1="364.08" y1="177.68" x2="361.52" y2="177.63"/><line class="i" x1="353.45" y1="177.46" x2="351.83" y2="177.46"/><line class="i" x1="333.33" y1="174.75" x2="333.33" y2="171.61"/><path class="i" d="M72.84,79.52c34.79,5.34,71.21,10.53,106,15.87"/><line class="i" x1="260.26" y1="109.15" x2="321.28" y2="118.01"/><line class="i" x1="75.6" y1="87.19" x2="75.4" y2="72.72"/><line class="i" x1="82.46" y1="88.02" x2="82.24" y2="73.4"/><line class="i" x1="101.93" y1="90.58" x2="101.81" y2="76.53"/><line class="i" x1="107.58" y1="91.39" x2="107.51" y2="77.49"/><line class="i" x1="125.74" y1="94.74" x2="125.74" y2="80.21"/><line class="i" x1="131.15" y1="95.01" x2="131.15" y2="81.48"/><line class="i" x1="152.5" y1="98.2" x2="152.67" y2="85.11"/><line class="i" x1="157.51" y1="98.78" x2="157.51" y2="85.92"/><line class="i" x1="45.12" y1="119.64" x2="49.97" y2="120.46"/><line class="i" x1="49.36" y1="143.13" x2="49.63" y2="120.36"/><line class="i" x1="49.49" y1="129.99" x2="46.24" y2="129.02"/><line class="i" x1="46.24" y1="130.34" x2="46.24" y2="119.44"/><line class="i" x1="73.37" y1="155.41" x2="68.36" y2="155.28"/><line class="i" x1="51.75" y1="152.65" x2="68.36" y2="155.28"/><line class="i" x1="67.99" y1="114.38" x2="67.89" y2="188.7"/><path class="i" d="M58.79,172.08c-.03-6.58,.03-2.03,0-8.6,.66-.25,1.75-.55,3.09-.44,1.57,.12,2.74,.74,3.39,1.15,.08,6.34,.15,12.69,.23,19.03,0,0-1.5,.03-2.2,.02"/><line class="i" x1="61.88" y1="163.03" x2="62.14" y2="180.03"/><line class="i" x1="65.16" y1="172.41" x2="59.4" y2="172.41"/><line class="i" x1="65.16" y1="166.71" x2="58.8" y2="166.71"/><line class="i" x1="65.49" y1="169.74" x2="58.79" y2="169.74"/><line class="i" x1="65.49" y1="176.36" x2="60.32" y2="176.36"/><line class="i" x1="65.49" y1="179.34" x2="61.72" y2="179.34"/><line class="i" x1="49.59" y1="123.42" x2="45.48" y2="122.68"/><line class="i" x1="49.49" y1="126.43" x2="45.77" y2="125.82"/><line class="i" x1="49.49" y1="134.24" x2="47.06" y2="133.74"/><line class="i" x1="49.49" y1="136.84" x2="47.54" y2="136.55"/><line class="i" x1="49.4" y1="140.04" x2="48.28" y2="139.88"/><line class="i" x1="58.82" y1="121.71" x2="65.94" y2="123.65"/><line class="i" x1="65.33" y1="146.32" x2="65.6" y2="123.56"/><line class="i" x1="58.75" y1="145.22" x2="65.62" y2="146.37"/><line class="i" x1="59.14" y1="121.79" x2="59.09" y2="145.28"/><line class="i" x1="65.47" y1="133.18" x2="59.12" y2="132.4"/><line class="i" x1="62.21" y1="145.76" x2="62.21" y2="122.63"/><line class="i" x1="65.56" y1="126.62" x2="59.13" y2="125.46"/><line class="i" x1="65.47" y1="129.63" x2="59.13" y2="128.59"/><line class="i" x1="65.47" y1="137.43" x2="59.12" y2="136.21"/><line class="i" x1="65.47" y1="140.04" x2="59.1" y2="139.07"/><line class="i" x1="65.37" y1="143.24" x2="59.09" y2="142.34"/><line class="i" x1="72.9" y1="148.95" x2="68.02" y2="148.95"/><line class="i" x1="49.49" y1="145.69" x2="68.02" y2="148.95"/><line class="i" x1="72.8" y1="114.56" x2="67.99" y2="114.38"/><line class="i" x1="43.75" y1="107.61" x2="67.99" y2="114.38"/><line class="i" x1="72.9" y1="93.77" x2="50.76" y2="103.74"/><line class="i" x1="72.23" y1="118.96" x2="67.98" y2="118.96"/><line class="i" x1="72.81" y1="123.42" x2="67.46" y2="123.42"/><line class="i" x1="72.23" y1="128.12" x2="67.98" y2="128.12"/><line class="i" x1="72.77" y1="132.79" x2="67.93" y2="132.79"/><line class="i" x1="72.9" y1="142.94" x2="68.02" y2="142.94"/><line class="i" x1="72.77" y1="138.46" x2="68.02" y2="138.38"/><path class="i" d="M57.92,147.17c-.28-8.4,.28-18.74,0-27.13,.92-.22,2.66-.5,4.73,.1,1.93,.56,3.29,1.63,4.02,2.29-.12,8.27-.28,17.93-.4,26.2"/><path class="i" d="M44.66,116.36c.96-.23,.11-.44,2.28,.16,2.02,.57,3.44,1.64,4.2,2.32-.12,8.35-.27,18.71-.4,27.06"/><path class="i" d="M57.6,170.36c0-.62-.02-7.35,0-7.86,.48-.39,1.94-1.46,3.98-1.36,2.54,.12,4.13,1.97,4.47,2.39,.06,7.16,.13,14.31,.19,21.47l-1.51-.12"/><path class="i" d="M54.5,156.5v1.74h1.49v8.11"/><line class="i" x1="66.32" y1="98.95" x2="70.49" y2="97.25"/><line class="i" x1="70.39" y1="108.35" x2="70.14" y2="97.4"/><line class="i" x1="66.66" y1="107.61" x2="66.66" y2="98.81"/><line class="i" x1="64.51" y1="107.12" x2="64.51" y2="100.16"/><line class="i" x1="60.95" y1="101.76" x2="64.77" y2="100.04"/><line class="i" x1="61.35" y1="106.18" x2="61.23" y2="101.75"/><line class="i" x1="59.12" y1="105.82" x2="59.12" y2="102.31"/><line class="i" x1="55.93" y1="103.74" x2="59.46" y2="102.31"/><line class="i" x1="56.3" y1="105.44" x2="56.29" y2="103.91"/><line class="i" x1="73.15" y1="79.57" x2="45.44" y2="92.27"/><line class="i" x1="65.97" y1="89.95" x2="66.66" y2="75.29"/><line class="i" x1="59.93" y1="92.62" x2="60.7" y2="78.39"/><line class="i" x1="54.62" y1="94.97" x2="55.07" y2="81.48"/><line class="i" x1="50.29" y1="96.88" x2="50.9" y2="83.89"/><line class="i" x1="48.83" y1="85.04" x2="64.51" y2="76.37"/><line class="i" x1="83.53" y1="73.45" x2="74.33" y2="72.65"/><line class="i" x1="72.9" y1="86.88" x2="72.77" y2="73.05"/><line class="i" x1="67.98" y1="118.96" x2="44.21" y2="113.27"/><line class="i" x1="57.69" y1="142.79" x2="50.87" y2="141.76"/><line class="i" x1="57.93" y1="138.46" x2="50.84" y2="137.77"/><line class="i" x1="57.69" y1="134.94" x2="50.89" y2="134.21"/><line class="i" x1="57.93" y1="131.74" x2="51.14" y2="131"/><line class="i" x1="57.99" y1="127.58" x2="51.14" y2="126.62"/><line class="i" x1="58" y1="124.62" x2="51.07" y2="123.42"/><line class="i" x1="57.84" y1="121.19" x2="51.14" y2="120.18"/><line class="i" x1="67.46" y1="120.75" x2="44.59" y2="115.92"/><line class="i" x1="67.93" y1="122.68" x2="66.66" y2="122.43"/><line class="i" x1="67.93" y1="125.69" x2="66.62" y2="125.63"/><line class="i" x1="66.66" y1="128.93" x2="68.22" y2="129.11"/><line class="i" x1="66.34" y1="132.79" x2="67.93" y2="132.79"/><line class="i" x1="66.66" y1="135.36" x2="68.22" y2="135.36"/><line class="i" x1="66.15" y1="139.55" x2="68.22" y2="139.55"/><line class="i" x1="66.47" y1="143.53" x2="68.22" y2="143.85"/><line class="i" x1="54.5" y1="156.5" x2="52.9" y2="156.43"/><path class="d" d="M401.78,204.64c-1.24,0-2.52,.09-3.76,.25-.69,.09-1.37,.18-2.05,.3-.55,.1-1.28,.14-1.77,.44-.56,.34-.82,1.14-.45,1.71s1.11,.81,1.71,.45c-.28,.17-.11,.06,.04,.04s.28-.06,.43-.09c.26-.05,.51-.1,.77-.14,.31-.05,.62-.1,.92-.15,.13-.02,.26-.04,.4-.06-.19,.03,.22-.03,.26-.03,1.15-.14,2.34-.22,3.49-.22,.65,0,1.28-.58,1.25-1.25s-.55-1.25-1.25-1.25h0Z"/><path class="d" d="M390.9,207.25c1-.24,1.99-.55,3.01-.73s2.13-.22,3.19-.38,1.89-.66,2.89-.92c.85-.22,1.71-.7,2.58-.71,1.61-.01,1.61-2.5,0-2.5-1.29,0-2.61,.22-3.88,.49s-2.52,.78-3.8,1.1c-1.19,.29-2.36,.47-3.53,.84-.53,.17-1.1,.37-1.65,.45-.29,.04-.58,.03-.86,.09s-.53,.2-.81,.27c-1.56,.39-.9,2.81,.66,2.41,.25-.06,.48-.21,.72-.26,.31-.07,.64-.05,.95-.11,.52-.1,1.04-.26,1.54-.41,1.13-.34,2.24-.55,3.39-.81,2.44-.55,4.71-1.56,7.26-1.56v-2.5c-1.06,0-1.91,.45-2.91,.71s-1.93,.8-2.96,.97-2.13,.21-3.18,.38c-1.11,.18-2.19,.52-3.28,.77-1.57,.37-.9,2.78,.66,2.41h0Z"/></g><g id="c"><path class="h" d="M20.78,79.69c3.99-.04,9.03-1.15,12.61,1.04,3.39,2.07,5.76,5.38,7.04,9.08,2.48,7.14,2.08,14.83,2.99,22.23,1.02,8.27,1.91,16.67,3.63,24.83,1.81,8.6,4.2,17.16,7.14,25.44,1.37,3.84,2.96,7.56,4.6,11.29s2.92,7.73,5.17,11.21c3.69,5.72,9.48,9.53,15.44,12.57,6.35,3.24,13.12,6.03,19.98,7.94s14.3,2.75,21.58,3.67c7.99,1,15.96,1.75,24.02,1.71s15.87-.55,23.82-.17c8.54,.41,17.02,1.02,25.58,1.04s16.74-.06,25.11-.38c8.83-.34,17.63-1.08,26.46-1.29,8.98-.22,17.97-.15,26.96-.15,17.92,0,35.87,.24,53.79-.11,8.98-.18,17.96-.55,26.93-1.01,8.81-.45,17.49-1.2,26.26-2.16,4.05-.44,8.1-.9,12.06-1.92,1.84-.48,3.66-1.03,5.52-1.46,1.73-.4,3.46-.69,5.1-1.39,2.67-1.14,5.97-2.91,7.41-5.52,1.8-3.26,2.44-6.81,3.02-10.44s.18-7.29,1.52-10.58c.3-.74-.91-1.07-1.21-.33-1.35,3.31-.96,7.1-1.52,10.58-.59,3.68-1.17,7.57-3.24,10.76-1,1.54-3.12,2.53-4.67,3.46-1.79,1.07-3.68,1.61-5.7,2.04-3.98,.83-7.83,2.14-11.86,2.77-17.38,2.69-35.13,3.26-52.69,3.79-17.62,.53-35.27,.29-52.9,.28-8.86,0-17.72-.04-26.58,.02-8.97,.07-17.88,.55-26.83,1.05-16.42,.91-33.1,1.36-49.51,.27-8.25-.55-16.42-.8-24.69-.56-7.93,.23-15.82,.23-23.73-.56-7.48-.75-15.12-1.47-22.5-2.92-7.2-1.41-14.15-3.76-20.88-6.68s-13.39-6.22-18.31-11.54c-2.91-3.15-4.66-6.91-6.25-10.85s-3.36-7.66-4.86-11.57c-3.1-8.09-5.53-16.5-7.5-24.94s-2.73-16.69-3.98-25.1c-1.1-7.41-.92-14.97-2.54-22.32-1.25-5.63-4.67-12.47-10.74-14.16-3.5-.98-7.47-.23-11.04-.2-.8,0-.81,1.26,0,1.25h0Z"/></g></svg>