<?xml version="1.0" encoding="UTF-8"?><svg xmlns="http://www.w3.org/2000/svg" viewBox="0 0 859.43 313.39"><defs><style>.i,.j{fill:#fff;}.k,.l{fill:#1d1d1b;}.j,.l,.m,.n{stroke:#1d1d1b;stroke-miterlimit:10;stroke-width:2px;}.m{fill:none;}</style></defs><g id="a"/><g id="b"><g id="c"><polygon class="j" points="728.29 224.14 642.1 225.12 598.19 148.28 640.46 70.46 726.64 69.48 770.56 146.31 728.29 224.14"/><path class="m" d="M639.44,195.75c12.51,2.83,23.13,4.08,30.99,4.68,17.79,1.36,25.82-.29,28.04-.78,8.53-1.87,16.41-3.6,22.87-10.92,7.39-8.37,8.03-18.52,8.12-20.29,.1-2.11,1.8-14.59-6.64-21.85-4.9-4.22-9.02-6.55-16.97-9.36-4.1-1.45-9.23-2.8-16.23-3.9-4.52-.71-7.48-.72-13.12-2.17-4.92-1.26-6.24-3.88-6.96-5.2-.34-.62-2.19-4.15-.82-7.79,1.17-3.11,3.96-4.39,5.73-5.2,2.44-1.12,4.1-1.09,10.24-1.3,7.89-.27,5.84-.34,10.65-.43,3.48-.07,7.59-.09,12.28,0,0,0,2.48,.05,13.1,.43h0c1.64,.14,3.28,.29,4.91,.43v-16.45c-8.05-.59-14.87-1.01-20.07-1.3-16.36-.92-20.67-.81-24.98-.43-7.17,.63-12.37,1.12-18.84,3.9-4.91,2.11-11.18,4.8-15.56,11.69-3.59,5.66-4.21,11.47-4.5,14.29-.35,3.31-.78,7.34,.82,12.12,2.17,6.52,6.65,10.07,8.19,11.26,3.04,2.35,6.3,3.33,12.69,5.2,7.68,2.24,14.29,3.33,15.15,3.46,9.07,1.46,10.54,1.44,15.56,3.46,2,.81,4.91,3.26,6.14,7.36,.09,.28,1.58,5.54-1.23,9.96-2.37,3.72-6.35,4.59-11.47,5.63-2.72,.55-6.13,.96-15.15,.43-5.71-.33-9.45-.8-17.61-1.73-3.79-.43-9.11-1.03-15.56-1.73,0,2.89,.21,13.64,.21,16.53"/></g><path class="i" d="M663.45,213.53c-1.06-6.93,1-17.24-2.45-46.49-2-16.96-5.41-31.3-6.95-42.7-.81-1.56-2.21-3.83-4.52-5.97-6.33-5.86-14.63-6.28-19.71-6.53-5.14-.26-9.87,.45-12.98,.91-2.58,.39-4.71,.83-6.21,1.17-8.92,.72-15.29-.13-19.55-1.08-1.59-.36-4.75-1.14-9.45-1.92-5.24-.87-7.86-1.31-9.52-1.16-8.78,.75-14.42,15.42-15.95,19.39-5.57,14.47-4.28,27.34-3.14,37.64,1.08,9.68,2.47,22.18,10.5,35.2,3.56,5.76,2.84,2.6,14.35,16.99,2.52,3.15,5.58,7.09,10.68,8.16,1.6,.33,2.93,.29,5.86-.04,6.46-.72,9.69-1.08,15.03-2.59,6.6-1.87,15.49-3.16,33.28-5.74,17.92-2.6,21.15-2.32,20.71-5.25Z"/></g><g id="d"><path class="m" d="M434.11,154.55c49.3-10.26,98.59-20.52,147.89-30.78,1.63,34.28,3.25,68.56,4.88,102.85-50.8-12.51-101.6-25.02-152.39-37.54,0-9.76-.38-24.77-.38-34.53"/><path class="m" d="M663.48,215.2c-23.02,3.97-46.04,7.94-69.05,11.92-.93,.28-2.36,.57-4.1,.42-1-.09-2.78-.69-3.45-.92"/><path class="m" d="M663.48,215.2c-.18-10.71-.36-25.13-1.38-36.97-1.57-18.25-4.06-35.17-7.03-50.62-.69-3.61-2.63-6.86-5.47-9.19l-.07-.06c-5.85-4.79-12.24-5.68-17.1-6.28-7.73-.96-14.4,.18-19.21,1.56-.84,.24-1.71,.33-2.58,.28-2.5-.15-5.01-.3-7.53-.44-4.03-.23-8.04-.44-12.02-.64-.8-.04-1.59-.16-2.37-.37-1.49-.39-3.36-.84-5.51-1.26-1.07-.21-7.56-1.46-13.79-1.57-7.28-.13-12.89,1.32-17.8,2.62-29.28,7.77-47.65,13.44-47.65,13.44-7.39,2.28-13.2,4.06-15.88,4.89-.5,.43-1.27,1.22-1.79,2.43-.59,1.38-.6,2.69-.47,3.63,.1,.75-.33,1.48-1.03,1.76-5.15,2.06-7.5,2.47-8.68,2.43-.3-.01-1.31-.08-1.98,.55-.59,.56-.67,1.42-.66,1.98-.78,.69-1.91,1.53-3.4,2.2-2.79,1.24-5.34,1.22-6.69,1.1l-6.59-.19c-.67-.02-1.35,.03-2,.15-.78,.14-1.44,.27-1.94,.37-6.05,1.23-7.55,2.2-8.45,2.96-.69,.59-1.53,2.48-1.79,2.83"/><path class="m" d="M616.81,223.26c-.15-1.18-.46-5.35-1.19-7.32-.76-2.07-1.75-4.77-4.03-6.64-1.96-1.61-3.99-1.86-8.06-2.37-2.96-.37-4.29-.18-10.32-.24-2.62-.02-5.98-.08-7.28-.12"/><path class="m" d="M651.68,217.24c.53-4.52,.51-6.04,.93-8.04,.54-2.6,1.08-3.13,1.68-4.41,.96-2.03,2.46-3.23,3.32-3.91,1.45-1.15,4.58-2.25,5.53-2.6"/><path class="m" d="M621.55,211.94c-.42-.93-1.05-3.11-1.9-4.66-1.55-2.84-2.78-5.08-4.51-6.76-1.79-1.74-3.8-2.39-7.83-3.68-5.4-1.73-9.95-2.17-13.52-2.49-3.02-.27-6.43-.34-8.14-.36"/><path class="m" d="M646.6,208.27c.42-1.25,1.41-3.75,2.35-5.97,1.77-4.2,2.65-6.29,4.27-7.95,2.59-2.64,5.82-3.83,6.76-4.15,.49-.17,2.56-.28,2.85-.36"/><path class="m" d="M588.69,206.57c.65,.73,2.37,3.15,3.75,4.06,1.38,.91,3,1.65,5.36,2.22,1.89,.46,4.81,.94,10.92,.51,4.54-.32,4.53-.7,10.11-1.21,4.78-.44,5.08-.19,9.2-.61,3.31-.33,5.65-.76,10.31-1.62,4.17-.76,7.84-1.56,13.24-2.73,1.37-.3,1.76-.38,2.49-.54,.78-.05,2.37-.31,3.27-.47,1.78-.32,4.9-.81,6.14-1.31"/><path class="m" d="M611.36,198.22c12.11-1.48,31.25-3.81,43.36-5.28"/><path class="m" d="M563.97,220.98c.57-7.04,.29-15.21-.45-18.98-1.38-7.09-3.36-10.15-4.17-11.31-.05-.07-.09-.13-.14-.2-2.32-3.25-6.01-5.26-9.99-5.58-7.31-.6-14.63-1.2-21.94-1.8,.51,9.19,.85,19.98,1.36,29.17"/><path class="m" d="M527.28,183.11c-.37-11.2-.18-24.61-.55-35.81-5.71,.44-11.42,.88-17.14,1.32,.48,19,.95,40.32,1.43,59.32"/><path class="m" d="M494.64,203.9c-.4-7.31-.35-16.37-.75-23.69,4.94,.36,11.55,.94,16.49,1.3"/><path class="m" d="M483.21,201.09c-.24-7.39-.47-14.78-.71-22.18-4.1-.4-8.29-.76-12.57-1.07-6.18-.44-12.19-.75-18.02-.95,.16,5.1-.16,11.38,0,16.48"/><path class="m" d="M493.89,180.22c.04-8.74-.67-19.49-.87-28.44l-11.35,1.17c0,7.71,.83,18.26,.83,25.97"/><path class="m" d="M446.9,191.82c-.04-4.78-.09-11.03-.13-15.81h-6.56c.11,4.29-.11,10.19,0,14.48"/><path class="m" d="M451.91,176.89c-.12-5.67-.39-13.22-.51-18.9-1.97,.24-2.75,.33-4.71,.57,.08,5.5,.08,11.8,.08,17.45"/><path class="m" d="M582,123.77c-.13-1.18-.6-5-1.66-6.96-1.53-2.84-5.85-6.26-6.97-6.96"/><path class="m" d="M654.05,124.34c-21.77-.37-50.28-.2-72.05-.56"/><line class="m" x1="657.79" y1="143.15" x2="582.93" y2="143.4"/><path class="m" d="M547.36,216.89c-.14-4.17-.43-10.16-.88-12.7-1.13-6.44-2.41-8.65-3.17-9.77-1.13-1.68-2.75-4.01-5.55-4.49-.36-.06-2.75-.43-4.62,1.06-1.51,1.19-1.85,2.92-2.25,5.15q-.5,2.77-.6,7.23c-.07,2.96,1.38,8.4,1.38,9.66"/><path class="m" d="M484.8,201.48c-.16,.58-.61,2.07-.86,2.56-.41,.81-1.18,1.37-2.07,1.51-.34,.06-.67,.12-1.01,.17-1.15,.19-2.34-.02-3.3-.68-.28-.19-.52-.38-.72-.54-.79-.65-2.36-1.94-2.7-3.99-.06-.34-.07-1.5-.07-1.69"/><path class="m" d="M481.29,200.61c-.19,.64,.43,2.58,0,3.29-.57,.95-.74,1.15-2.76,1.73"/><path class="m" d="M531.68,213.02c.61,1.24,1.96,5.45,3.42,7.27,2.36,2.95,4.45,3.96,6.87,3.85,2.11-.1,4.08-1.9,4.89-3.85,.38-.92,.49-2.84,.5-3.41"/><path class="m" d="M542.44,224.09c.23,.13,3.8,.85,5.64,.06,.91-.39,1.39-.96,1.65-1.32,.55-.81,.84-1.05,1.18-2.14,.21-.68,.18-2.32,.25-2.87"/><path class="m" d="M559.82,143.99c.41,14.91,.95,34.61,1.35,49.52"/><line class="m" x1="559.82" y1="143.99" x2="580.61" y2="141.19"/><line class="m" x1="584.3" y1="225.99" x2="580.61" y2="141.19"/><line class="m" x1="518.44" y1="147.93" x2="519.22" y2="209.96"/><line class="m" x1="487.78" y1="152.31" x2="488.19" y2="202.31"/><line class="j" x1="449.3" y1="158.25" x2="449.3" y2="192.73"/><path class="i" d="M535.29,214.23c0,.19,.02,.39,0,.58l.18-1.33s0,.04-.01,.06l.5-1.19h0l.78-1h0l1.01-.77h0l1.19-.5h0l1.33-.18h-.01l1.33,.18s-.02,0-.02,0l1.19,.5s-.03-.01-.04-.02l1.01,.78c-.06-.05-.11-.11-.17-.17,0,0-.02-.02-.03-.03l-1.01-.78s-.04-.03-.06-.04c-.07-.04-.13-.09-.2-.14l1.01,.78s-.09-.07-.12-.11l.78,1.01c-.29-.39-.56-.8-.9-1.15-.37-.38-.76-.6-1.16-.88-.13-.09-.27-.15-.4-.24l1.01,.78c-.34-.28-.71-.57-1.07-.83-.03-.02-.07-.05-.1-.07-.06-.04-.12-.06-.18-.1l1.01,.78c-.05-.04-.1-.09-.15-.14-.16-.14-.56-.44-.53-.41,0,0-.35-.3-.53-.41-.04-.02-1.17-.5-1.21-.51-.14-.04-1.22-.17-1.35-.18-.69-.03-1.33,.12-1.93,.43-.62,.2-1.16,.55-1.61,1.03l-.78,1.01c-.45,.78-.68,1.62-.68,2.52v.03l.18-1.33s0,.03-.01,.04l1.29-2.21v.02l1-.78h-.02l1.19-.49h-.02l1.33-.17h-.02c-.69-.03-1.33,.11-1.93,.43-.62,.2-1.16,.55-1.61,1.03-.49,.45-.83,.99-1.03,1.61-.31,.6-.46,1.24-.43,1.93l.18,1.33c.24,.85,.67,1.58,1.29,2.21l1.01,.78c.78,.45,1.62,.68,2.52,.68,.46,.05,.93-.06,1.37-.18,.85-.23,1.61-.68,2.23-1.3,.94-.94,1.5-2.28,1.48-3.61l-5,5h.02l-1.33-.18h.02l-1.19-.5s.02,.01,.03,.02l-1.01-.78s.06,.05,.09,.08c.18,.18,.39,.31,.59,.47,.29,.22,.38,.32,.63,.46,.06,.03,.11,.06,.16,.1l-1.01-.78c.43,.35,.82,.72,1.31,.97,.1,.05,.2,.12,.29,.18l-1.01-.78s.04,.03,.05,.05l-.78-1.01s.03,.04,.05,.06l.03,.04,.78,1.01s.08,.08,.12,.11c.42,.33,.83,.65,1.26,.96l-1.01-.78c.06,.05,.1,.11,.16,.16,.34,.31,.7,.59,1.09,.84,.8,.51,1.1,.49,1.88,.6,.84,.11,1,.19,2.01-.09,.42-.13,.82-.3,1.2-.51l1.01-.78c.53-.48,1.16-1.52,1.3-2.22,.1-.48,.2-.98,.19-1.48,0-.16,0-.33,0-.49,.03-.69-.12-1.33-.43-1.93-.2-.62-.55-1.16-1.03-1.61-.45-.49-.99-.83-1.61-1.03-.6-.31-1.24-.46-1.93-.43l-1.33,.18c-.85,.24-1.58,.67-2.21,1.29l-.78,1.01c-.45,.78-.68,1.62-.68,2.52h0Z"/><path class="i" d="M536.18,217.03c.35,.46,.68,.92,1.05,1.37,.09,.11,.21,.21,.3,.32l-.78-1.01c.13,.17,.27,.35,.4,.52,.13,.17,.27,.35,.4,.52l.03,.03s.04,.04,.06,.07l-.78-1.01s.03,.06,.05,.09c.5,.76,1.02,1.4,1.84,1.84l1.19,.5c.66,.21,1.33,.24,1.99,.09,.45,0,.87-.12,1.26-.34,.62-.2,1.16-.55,1.61-1.03,.05-.06,.75-.96,.79-1.02,.11-.18,.36-.85,.26-.61-.03,.07,.22-.43,.26-.64,.03-.22,.06-.45,.09-.67,.04-.22,.07-.45,.09-.67v-.03s0-.04,0-.06,0-.04,0-.06c-.05-.42-.12-.93-.18-1.35v-.04s-.02-.07-.02-.11l.18,1.33v-.02c.02-.69-.12-1.33-.43-1.93-.2-.62-.55-1.16-1.03-1.61-.45-.49-.99-.83-1.61-1.03-.6-.31-1.24-.46-1.93-.43l-1.33,.18c-.85,.24-1.58,.67-2.21,1.29l-.78,1.01c-.45,.78-.68,1.62-.68,2.52,.05,.51,.13,1,.21,1.5l-.18-1.33c0,.06,.01,.12,0,.17l.18-1.33s0,.04-.01,.05l.5-1.19v.02l.77-1.01h0l6.06-.78h-.02l1.01,.77-.02-.02,.78,1.01s-.04-.07-.07-.11l-.78-1.01h0l-.03-.04s-.04-.05-.06-.07l.78,1.01c-.3-.4-.6-.85-.97-1.22-.07-.07-.14-.15-.2-.24l.78,1.01c-.06-.08-.12-.17-.19-.25-.31-.58-.74-1.05-1.29-1.4-.48-.44-1.05-.74-1.7-.89-.66-.21-1.33-.24-1.99-.09-.67,.03-1.29,.23-1.86,.59l-1.01,.78c-.62,.62-1.05,1.36-1.29,2.21l-.18,1.33c0,.9,.23,1.74,.68,2.52h0Z"/></g><g id="e"><path class="j" d="M297.53,222.59c73.01,.26,147.1-.64,220.11-.38,.47,.1,2.74-.09,4.61-1.32,1.74-1.14,2.65-3.28,2.36-5.53-.12-.95-.25-1.9-.25-2.86v-38.48c0-.79-.13-1.58-.47-2.31-.27-.58-.68-1.22-1.35-1.76-.33-.27-.7-.5-1.07-.69-.98-.51-2.1-.73-3.21-.72-15.73,.06-32-.42-47.71-.32-3.12-35.99-6.25-71.97-9.37-107.96-13.3,.1-26.6,.19-39.9,.29-4.33,20.36-8.67,40.71-13,61.07-4.13-20.45-8.26-40.91-12.39-61.36l-41.72,.58c-3.02,35.79-6.05,71.59-9.07,107.38h-47.46c-.5,.05-2.82,.35-4.53,2.32-1.93,2.21-1.57,4.81-1.51,5.21v41.23c0,1.35,.55,2.64,1.53,3.61h0c1.66,1.62,3.7,1.94,4.4,2.01"/><path class="j" d="M418.82,168.06l23.61,.15c-1.84-25.32-3.67-50.64-5.51-75.96-5.77,24.37-12.33,51.45-18.1,75.81"/><path class="j" d="M372.86,168.61c1.89-25.02,3.78-50.73,5.67-75.75,5.82,25.12,11.65,50.24,17.47,75.36-6.93,.05-16.21,.34-23.14,.39"/></g><g id="f"><ellipse class="j" cx="177.2" cy="196.07" rx="68.67" ry="63.51"/><ellipse class="j" cx="351.79" cy="196.64" rx="68.67" ry="63.51"/><circle class="n" cx="177.2" cy="196.07" r="10.71"/><circle class="l" cx="351.79" cy="196.64" r="10.71"/><line class="m" x1="177.2" y1="196.07" x2="272.82" y2="196.07"/><line class="m" x1="223.98" y1="132.57" x2="177.2" y2="196.07"/><line class="m" x1="270.76" y1="196.07" x2="213.31" y2="113.83"/><line class="m" x1="302.19" y1="132.57" x2="270.76" y2="196.07"/><line class="m" x1="223.98" y1="132.57" x2="302.19" y2="132.57"/><line class="m" x1="351.69" y1="196.52" x2="289.01" y2="113.15"/><line class="m" x1="200.59" y1="114.16" x2="229.08" y2="114.16"/><path class="m" d="M276.38,112.81c6.21,.01,12.42,.02,18.64,.03,1.96,0,3.9-.25,5.84-.51,2.81-.38,5.63,.83,7.19,3.17,1.73,2.6,1.58,6.11-.41,8.68"/></g><g id="g"><path class="i" d="M398.03,247.71c-14.18,.01-28.4,1.11-42.52,2.58-6.74,.7-12.93,1.59-19.74,1.59-3.67,0-7.2-.33-10.82-.88-1.5-.23-3.06-.33-4.53-.73-1.74-.46-3.77-2.56-.84,.12l-3.31,12.54c6.92-1.07,14.21-.44,21.2-1.28s14.25-2.14,21.46-2.27c14.58-.26,29.03,.57,43.62,.46,9.65-.08,9.67-15.08,0-15-15.2,.12-30.33-1.28-45.51-.38-7.21,.43-14.3,1.57-21.47,2.4-7.73,.89-15.6,.42-23.29,1.61-5.6,.87-7.17,9-3.31,12.54,4.94,4.53,13.26,4.87,19.61,5.58,7.31,.81,15.44,.8,22.65-.56,7.64-1.44,15.5-1.41,23.22-2.19s15.59-1.11,23.57-1.11c9.65,0,9.67-15.01,0-15h0Z"/><path class="i" d="M214.26,246.47c-19.37,.02-38.72,.74-58.08,1.16-9.22,.2-18.77,.7-27.91-.71-3.75-.58-7.58-1.53-11.08-3.01-1.58-.67-3.2-1.41-4.48-2.57-1.38-1.25-2.42-4.18-.78-.08l-5.24,9.23c8.73-2.03,18.11,2.4,26.11,5.2,8.92,3.13,18.33,4.62,27.65,5.94,18.96,2.68,38.32,6.55,57.27,2.41,3.75-.82,7.86-1.04,11.23-3.11,4.61-2.82,4.76-7.86,3.37-12.47-.83-2.75-1.06-6.09-2.66-8.52-2.65-4.03-7.08-4.48-11.43-3.49-3.62,.83-6.17,1.06-10.53,.58-5.32-.58-10.58-1.66-15.88-2.36-9.85-1.31-19.76-1.94-29.7-2.17-11.59-.27-22.19,1.39-33.55,3.42-1.7,.3-4.52,1.26-5.88,.42s-1.71-3.53-1.97-4.92c-.81-4.42-2.08-8.71-2.9-13.12v3.99l.2-1.08-11.02,4.48c2.08,.9,3.62,4,5.03,5.8,2.26,2.88,4.47,5.84,6.84,8.63,4.2,4.95,9.45,7.95,15.58,9.92,14.13,4.55,29.22,5.93,43.75,8.74,7.62,1.47,15.25,2.75,22.97,3.63,6.86,.78,14.56,2.16,21.23-.24,3.29-1.18,5.85-3.15,8.46-5.41,2.13-1.85,4.77-3.6,6.1-6.17,3.72-7.24-2.38-13.89-9.54-14.4-9.63-.69-9.59,14.31,0,15l1,.07-3.79-1.02c.39-.08,.64,.21,.74,.84l-1.93-7.3,1.04-1.17c-.76,.55-1.49,1.14-2.21,1.75-.86,.72-1.65,1.56-2.54,2.25-1.75,1.37-3.01,1.76-5.14,1.85-5.61,.26-11.64-.76-17.18-1.52-11.93-1.63-23.71-4.3-35.6-6.2-5.35-.85-10.66-1.94-15.93-3.19-4.12-.98-8.77-1.78-12.36-4.16s-6.36-6.78-9.11-10.25-5.55-8.56-9.85-10.42c-4.01-1.73-10.05-.79-11.02,4.48-1.01,5.54,1.54,10.42,2.36,15.81s2.47,10.37,6.51,14.24c9.7,9.26,25.41,1.01,36.82,.28,13.07-.84,26.74,.12,39.72,1.76,6.57,.83,13.07,2.22,19.67,2.83,5.78,.53,10.31-.74,15.78-1.56l-5.78-.76c-1.69-2.57-2.28-2.94-1.77-1.1,.05,.55,.16,1.09,.31,1.62,.26,1.01,1.05,2.21,1.12,3.21l1.02-3.79c1.27-1.85,1.26-1.14-.61-1.07-1.13,.04-2.42,.38-3.53,.6-2.11,.4-4.17,1.13-6.28,1.48-4.84,.81-10.19,.21-15.05-.09-10.76-.67-21.47-2.34-32.13-3.91-9.92-1.46-19.55-3.52-28.96-7.04s-20.15-6.01-30.04-3.71c-3.64,.84-6.7,5.56-5.24,9.23,3.12,7.82,11.22,11.76,18.79,14.23,9.99,3.26,20.81,3.34,31.21,3.28,22.27-.14,44.52-1.26,66.8-1.28,9.65,0,9.67-15.01,0-15h0Z"/><path class="i" d="M737,217.81c-5.49,.02-10.18,2.08-15.41,3.45-3.9,1.02-7.94,1.14-11.88,1.56-4.15,.45-8.31,.93-12.42,1.69-2.13,.39-4.21,.88-6.37,1.18-.77,.11-1.71,.08-2.45,.34-1.31,.46-.48-.15,.11,.07l4.48,3.45-.23-.44-2.69,10.26c3.65-2.42,10.28-3.26,14.61-3.67,5.29-.5,10.56-.9,15.85-1.67s9.97-2.03,15.01-2.47c3.77-.33,8.11,.34,11.48-1.67,8.29-4.94,.75-17.91-7.57-12.95,1.31-.78,2.05-.43,.08-.65-.88-.1-1.64,.01-2.54,.08-2.46,.17-4.9,.33-7.33,.77-5.41,.98-10.74,2.09-16.2,2.79-9.89,1.26-22.3,.73-30.96,6.48-3.48,2.31-4.68,6.5-2.69,10.26,4.53,8.55,19.63,2.34,26.73,1.46,3.9-.48,7.98-.79,11.96-1.16,6.24-.58,12.29-4.14,18.43-4.16,9.65-.03,9.67-15.03,0-15h0Z"/><path class="i" d="M684.64,223.17c-1.44-.01-2.65,.05-4.11,.29-1.33,.22-2.53,.85-3.76,1.39l1.79-.76c-.33,.13-.61,.22-.96,.29-1.76,.33-3.61,1.95-4.48,3.45-.94,1.61-1.34,3.98-.76,5.78s1.71,3.57,3.45,4.48c1.87,.99,3.7,1.14,5.78,.76,1.19-.22,2.3-.84,3.39-1.33l-1.79,.76c.44-.18,.86-.29,1.33-.35l-1.99,.27c.71-.06,1.41-.03,2.12-.02,3.92,.04,7.68-3.48,7.5-7.5s-3.29-7.46-7.5-7.5h0Z"/></g><g id="h"><path class="k" d="M64.54,222.48c6.09-.95,11.59-3.88,17.55-5.34,6.38-1.57,13.01-2.75,19.51-3.74,14.5-2.2,28.73-.39,42.92,2.84s26.83,7.12,40.36,10.25,26.79,5.76,39.83,10.08,25.23,8.4,38.36,10.4c10.1,1.54,20.49,2.23,30.7,2.59,7.38,.26,14.72-.23,22.09-.53,12.07-.5,24.15-.87,36.23-1.37,54.77-2.25,109.3-8.43,164.16-8.99,14.02-.14,27.97-.16,41.97-1.22s27.84-2.67,41.72-4.29c27.98-3.26,56.08-4.97,84.07-8.08,13.1-1.46,26.28-2.52,39.24-5.01,12.53-2.41,25.12-4.81,37.56-7.63,20.08-4.55,47.57-12.19,55.23-33.96,1.86-5.29,2.33-10.95,1.96-16.51-.16-2.4-3.91-2.41-3.75,0,.88,13.01-4.04,23.85-14.68,31.42-9.68,6.88-21.2,10.76-32.59,13.71-12.31,3.19-24.87,5.21-37.31,7.81-13.24,2.77-26.52,4.37-39.97,5.8-27.22,2.89-54.54,4.64-81.73,7.77-27.58,3.17-55.04,6.4-82.84,6.39-54.57-.02-108.78,5.99-163.23,8.6-11.62,.56-23.26,.94-34.88,1.37-9.25,.34-18.53,1.04-27.79,1.07-21.44,.06-42.58-3.04-63-9.51-12.97-4.11-25.76-8.05-39.07-11s-26.1-6.29-39.11-9.68c-12.66-3.3-25.63-6.57-38.76-7.06-12.93-.48-26.39,1.81-38.89,5.03-5.72,1.47-11.01,4.26-16.88,5.18-2.38,.37-1.37,3.98,1,3.62h0Z"/></g></svg>